<svg width="322" height="782" viewBox="0 0 322 782" fill="none" xmlns="http://www.w3.org/2000/svg">
<g clip-path="url(#clip0_201_9595)">
<path d="M-67.6772 703.258L-28.645 664.226L10.3874 703.258L-28.6449 742.291L-67.6772 703.258Z" fill="#3A86FF"/>
<path d="M-67.6772 547.129L-28.645 508.097L10.3874 547.129L-28.6449 586.161L-67.6772 547.129Z" fill="#FF006E"/>
<path d="M-67.6772 625.194L10.3873 547.129L88.4519 625.194L10.3873 703.258L-67.6772 625.194Z" fill="#3A86FF"/>
<path d="M10.3873 703.258L-28.645 664.226L49.4196 586.161L88.4519 625.194L10.3873 703.258Z" fill="#8338EC"/>
<path d="M-67.6772 391L-28.6449 351.968L10.3874 391L-28.6449 430.032L-67.6772 391Z" fill="#8338EC"/>
<path d="M10.3874 391L-28.6449 430.032V351.968L10.3874 391Z" fill="#FFBE0B"/>
<path d="M-67.6772 469.064L10.3874 391L88.4519 469.064L10.3873 547.129L-67.6772 469.064Z" fill="#FB5607"/>
<path d="M10.3873 547.129L-67.6772 469.065L88.4519 469.064L10.3873 547.129Z" fill="#8338EC"/>
<path d="M10.3872 547.129L88.4518 469.064L166.516 547.129L88.4518 625.194L10.3872 547.129Z" fill="#8338EC"/>
<path d="M-145.742 234.871L-67.6771 156.806L10.3875 234.871L-67.6771 312.935L-145.742 234.871Z" fill="#FFBE0B"/>
<path d="M-67.6771 312.935L-145.742 234.871L10.3875 234.871L-67.6771 312.935Z" fill="#FF006E"/>
<path d="M-67.6772 312.935L10.3873 234.871L88.4519 312.935L10.3874 391L-67.6772 312.935Z" fill="#FF006E"/>
<path d="M88.4519 312.935L49.4196 351.968L-28.645 273.903L10.3873 234.871L88.4519 312.935Z" fill="#FFBE0B"/>
<path d="M10.3872 391L88.4518 312.935L166.516 391L88.4518 469.065L10.3872 391Z" fill="#8338EC"/>
<path d="M88.4521 469.065L166.517 391L244.581 469.065L166.517 547.129L88.4521 469.065Z" fill="#FF006E"/>
<path d="M88.4521 469.065L166.517 391V547.129L88.4521 469.065Z" fill="#FB5607"/>
<path d="M-67.6772 78.7416L-28.6449 39.7093L10.3874 78.7416L-28.645 117.774L-67.6772 78.7416Z" fill="#FB5607"/>
<path d="M-67.6772 156.806L-28.645 117.774L10.3873 156.806L-28.6449 195.839L-67.6772 156.806Z" fill="#3A86FF"/>
<path d="M-28.6449 195.838L-67.6772 156.806L10.3873 156.806L-28.6449 195.838Z" fill="#FF006E"/>
<path d="M-28.645 117.774L10.3873 78.7416L49.4196 117.774L10.3873 156.806L-28.645 117.774Z" fill="#3A86FF"/>
<path d="M-28.645 117.774C-17.8665 106.995 -0.391186 106.995 10.3873 117.774C21.1658 128.552 21.1658 146.028 10.3873 156.806L-9.12887 137.29L-28.645 117.774Z" fill="#8338EC"/>
<path d="M-28.645 195.838L10.3872 156.806L49.4195 195.838L10.3873 234.871L-28.645 195.838Z" fill="#FF006E"/>
<path d="M10.3872 156.806L29.9034 176.322L-9.12889 215.355L-28.645 195.838L10.3872 156.806Z" fill="#FFBE0B"/>
<path d="M10.3872 156.806L49.4195 117.774L88.4518 156.806L49.4195 195.839L10.3872 156.806Z" fill="#FB5607"/>
<path d="M10.3872 234.871L49.4195 195.839L88.4518 234.871L49.4195 273.903L10.3872 234.871Z" fill="#FF006E"/>
<path d="M10.3872 234.871L29.9034 215.355L68.9357 254.387L49.4195 273.903L10.3872 234.871Z" fill="#FFBE0B"/>
<path d="M49.4199 195.838L88.4522 156.806L127.485 195.838L88.4522 234.871L49.4199 195.838Z" fill="#FF006E"/>
<path d="M88.4517 156.806C99.2302 167.585 99.2302 185.06 88.4517 195.838C77.6732 206.617 60.1979 206.617 49.4194 195.839L68.9356 176.322L88.4517 156.806Z" fill="#FB5607"/>
<path d="M49.4199 273.903L88.4522 234.871L127.484 273.903L88.4522 312.935L49.4199 273.903Z" fill="#FF006E"/>
<path d="M49.4194 273.903L88.4517 234.871L88.4517 312.935L49.4194 273.903Z" fill="#8338EC"/>
<path d="M88.4521 234.871L127.484 195.838L166.517 234.871L127.484 273.903L88.4521 234.871Z" fill="#8338EC"/>
<path d="M88.4521 312.935L166.517 234.871L244.581 312.935L166.517 391L88.4521 312.935Z" fill="#FF006E"/>
<path d="M166.517 391C144.96 369.443 144.96 334.492 166.517 312.935C188.074 291.378 223.024 291.378 244.581 312.935L205.549 351.968L166.517 391Z" fill="#FFBE0B"/>
<path d="M166.517 391L205.549 351.968L244.581 391L205.549 430.032L166.517 391Z" fill="#FB5607"/>
<path d="M166.517 391C177.295 380.221 194.77 380.221 205.549 391C216.327 401.778 216.327 419.254 205.549 430.032L186.033 410.516L166.517 391Z" fill="#8338EC"/>
<path d="M205.549 351.968L244.581 312.935L283.613 351.968L244.581 391L205.549 351.968Z" fill="#FB5607"/>
<path d="M244.581 312.935L264.097 332.452L225.065 371.484L205.549 351.968L244.581 312.935Z" fill="#3A86FF"/>
<path d="M205.549 430.032L244.581 391L283.613 430.032L244.581 469.064L205.549 430.032Z" fill="#8338EC"/>
<path d="M205.549 430.032C216.327 419.254 233.803 419.254 244.581 430.032C255.36 440.811 255.36 458.286 244.581 469.065L225.065 449.548L205.549 430.032Z" fill="#FB5607"/>
<path d="M244.581 391L283.613 351.968L322.646 391L283.613 430.032L244.581 391Z" fill="#FB5607"/>
<path d="M283.613 351.968L322.646 391H244.581L283.613 351.968Z" fill="#3A86FF"/>
<path d="M-145.742 703.258L-67.6771 625.194L10.3875 703.258L-67.6771 781.323L-145.742 703.258Z" fill="#3A86FF"/>
<path d="M-67.6771 625.194L10.3875 703.258L-145.742 703.258L-67.6771 625.194Z" fill="#FF006E"/>
<path d="M-145.742 547.129L-67.6771 469.064L10.3875 547.129L-67.6771 625.194L-145.742 547.129Z" fill="#FFBE0B"/>
<path d="M-67.6772 625.194C-89.2341 603.637 -89.2341 568.686 -67.6772 547.129C-46.1202 525.572 -11.1695 525.572 10.3874 547.129L-28.6449 586.161L-67.6772 625.194Z" fill="#FF006E"/>
<path d="M-67.6772 625.194L10.3873 547.129L88.4519 625.194L10.3873 703.258L-67.6772 625.194Z" fill="#3A86FF"/>
<path d="M-67.6772 391L-28.6449 351.968L10.3874 391L-28.6449 430.032L-67.6772 391Z" fill="#3A86FF"/>
<path d="M10.3874 391L-28.6449 430.032V351.968L10.3874 391Z" fill="#FB5607"/>
<path d="M-67.6772 469.064L10.3874 391L88.4519 469.064L10.3873 547.129L-67.6772 469.064Z" fill="#FFBE0B"/>
<path d="M-67.6772 469.065L-28.645 430.032L49.4196 508.097L10.3873 547.129L-67.6772 469.065Z" fill="#FB5607"/>
<path d="M10.3872 547.129L88.4518 469.064L166.516 547.129L88.4518 625.194L10.3872 547.129Z" fill="#FB5607"/>
<path d="M-145.742 234.871L-67.6771 156.806L10.3875 234.871L-67.6771 312.935L-145.742 234.871Z" fill="#FFBE0B"/>
<path d="M-67.6772 312.935L10.3873 234.871L88.4519 312.935L10.3874 391L-67.6772 312.935Z" fill="#8338EC"/>
<path d="M10.3872 391L49.4195 351.968L88.4517 391L49.4195 430.032L10.3872 391Z" fill="#FF006E"/>
<path d="M49.4195 351.968C60.1979 362.746 60.1979 380.221 49.4195 391C38.641 401.778 21.1657 401.778 10.3872 391L29.9033 371.484L49.4195 351.968Z" fill="#FFBE0B"/>
<path d="M49.4199 351.968L88.4522 312.935L127.484 351.968L88.4522 391L49.4199 351.968Z" fill="#3A86FF"/>
<path d="M88.4517 312.935L107.968 332.451L68.9355 371.484L49.4194 351.968L88.4517 312.935Z" fill="#FB5607"/>
<path d="M49.4199 430.032L88.4522 391L127.484 430.032L88.4522 469.064L49.4199 430.032Z" fill="#3A86FF"/>
<path d="M88.4517 391C99.2302 401.778 99.2302 419.254 88.4517 430.032C77.6733 440.811 60.1979 440.811 49.4194 430.032L68.9356 410.516L88.4517 391Z" fill="#8338EC"/>
<path d="M88.4521 391L127.484 351.968L166.517 391L127.484 430.032L88.4521 391Z" fill="#FF006E"/>
<path d="M88.4521 469.065L166.517 391L244.581 469.065L166.517 547.129L88.4521 469.065Z" fill="#3A86FF"/>
<path d="M88.4521 469.065C110.009 447.508 144.96 447.508 166.517 469.065C188.074 490.621 188.074 525.572 166.517 547.129L127.484 508.097L88.4521 469.065Z" fill="#FFBE0B"/>
<path d="M-145.742 78.7416L-67.6771 0.677061L10.3875 78.7416L-67.6771 156.806L-145.742 78.7416Z" fill="#3A86FF"/>
<path d="M-67.6771 0.67703L10.3875 78.7416L-145.742 78.7416L-67.6771 0.67703Z" fill="#FFBE0B"/>
<path d="M-67.6772 156.806L10.3873 78.7416L88.4519 156.806L10.3873 234.871L-67.6772 156.806Z" fill="#FF006E"/>
<path d="M10.3873 234.871C-11.1697 213.314 -11.1697 178.363 10.3873 156.806C31.9442 135.249 66.8949 135.249 88.4518 156.806L49.4196 195.838L10.3873 234.871Z" fill="#8338EC"/>
<path d="M10.3872 234.871L49.4195 195.839L88.4518 234.871L49.4195 273.903L10.3872 234.871Z" fill="#FF006E"/>
<path d="M49.4195 195.839L88.4518 234.871L10.3872 234.871L49.4195 195.839Z" fill="#8338EC"/>
<path d="M49.4199 195.838L88.4522 156.806L127.485 195.838L88.4522 234.871L49.4199 195.838Z" fill="#3A86FF"/>
<path d="M127.484 195.839C116.706 206.617 99.2306 206.617 88.4522 195.839C77.6737 185.06 77.6737 167.585 88.4522 156.806L107.968 176.322L127.484 195.839Z" fill="#8338EC"/>
<path d="M49.4199 273.903L88.4522 234.871L127.484 273.903L88.4522 312.935L49.4199 273.903Z" fill="#FFBE0B"/>
<path d="M88.4521 234.871L127.484 195.838L166.517 234.871L127.484 273.903L88.4521 234.871Z" fill="#8338EC"/>
<path d="M166.517 234.871C155.738 245.649 138.263 245.649 127.484 234.871C116.706 224.092 116.706 206.617 127.484 195.838L147.001 215.355L166.517 234.871Z" fill="#FFBE0B"/>
<path d="M88.4521 312.935L166.517 234.871L244.581 312.935L166.517 391L88.4521 312.935Z" fill="#3A86FF"/>
<path d="M88.4521 312.935L166.517 234.871V391L88.4521 312.935Z" fill="#FB5607"/>
<path d="M166.517 391L244.581 312.935L322.646 391L244.581 469.065L166.517 391Z" fill="#3A86FF"/>
<path d="M166.517 391C188.074 369.443 223.024 369.443 244.581 391C266.138 412.557 266.138 447.508 244.581 469.065L205.549 430.032L166.517 391Z" fill="#8338EC"/>
<path d="M-67.6772 703.258L-28.645 664.226L10.3874 703.258L-28.6449 742.291L-67.6772 703.258Z" fill="#FFBE0B"/>
<path d="M-145.742 547.129L-67.6771 469.064L10.3875 547.129L-67.6771 625.194L-145.742 547.129Z" fill="#FF006E"/>
<path d="M-67.6772 625.194C-89.2341 603.637 -89.2341 568.686 -67.6772 547.129C-46.1202 525.572 -11.1695 525.572 10.3874 547.129L-28.6449 586.161L-67.6772 625.194Z" fill="#FB5607"/>
<path d="M-67.6772 625.194L-28.6449 586.161L10.3873 625.194L-28.645 664.226L-67.6772 625.194Z" fill="#FF006E"/>
<path d="M10.3873 625.194L-9.12887 644.71L-48.1611 605.678L-28.645 586.161L10.3873 625.194Z" fill="#8338EC"/>
<path d="M-28.645 586.161L10.3873 547.129L49.4195 586.161L10.3872 625.194L-28.645 586.161Z" fill="#8338EC"/>
<path d="M-28.645 664.226L10.3873 625.194L49.4196 664.226L10.3873 703.258L-28.645 664.226Z" fill="#FFBE0B"/>
<path d="M49.4196 664.226L10.3873 703.258L10.3873 625.194L49.4196 664.226Z" fill="#FF006E"/>
<path d="M10.3872 625.194L49.4195 586.161L88.4518 625.194L49.4195 664.226L10.3872 625.194Z" fill="#8338EC"/>
<path d="M49.4195 664.226L10.3872 625.194L88.4518 625.194L49.4195 664.226Z" fill="#3A86FF"/>
<path d="M-67.6772 391L-28.6449 351.968L10.3874 391L-28.6449 430.032L-67.6772 391Z" fill="#FF006E"/>
<path d="M-28.645 430.032L-48.1611 410.516L-9.12882 371.484L10.3873 391L-28.645 430.032Z" fill="#8338EC"/>
<path d="M-67.6772 469.064L10.3874 391L88.4519 469.064L10.3873 547.129L-67.6772 469.064Z" fill="#FFBE0B"/>
<path d="M-67.6772 469.065L-28.645 430.032L49.4196 508.097L10.3873 547.129L-67.6772 469.065Z" fill="#3A86FF"/>
<path d="M10.3872 547.129L88.4518 469.064L166.516 547.129L88.4518 625.194L10.3872 547.129Z" fill="#FFBE0B"/>
<path d="M88.4518 469.064L166.516 547.129L10.3872 547.129L88.4518 469.064Z" fill="#FF006E"/>
<path d="M-145.742 234.871L-67.6771 156.806L10.3875 234.871L-67.6771 312.935L-145.742 234.871Z" fill="#3A86FF"/>
<path d="M10.3874 234.871C-11.1695 256.428 -46.1202 256.428 -67.6772 234.871C-89.2341 213.314 -89.2341 178.363 -67.6772 156.806L-28.6449 195.838L10.3874 234.871Z" fill="#FB5607"/>
<path d="M-67.6772 312.935L10.3873 234.871L88.4519 312.935L10.3874 391L-67.6772 312.935Z" fill="#8338EC"/>
<path d="M-67.6772 312.935L-28.645 273.903L49.4196 351.968L10.3874 391L-67.6772 312.935Z" fill="#FF006E"/>
<path d="M10.3872 391L49.4195 351.968L88.4517 391L49.4195 430.032L10.3872 391Z" fill="#3A86FF"/>
<path d="M49.4195 351.968C60.1979 362.746 60.1979 380.221 49.4195 391C38.641 401.778 21.1657 401.778 10.3872 391L29.9033 371.484L49.4195 351.968Z" fill="#FB5607"/>
<path d="M49.4199 351.968L88.4522 312.935L127.484 351.968L88.4522 391L49.4199 351.968Z" fill="#FFBE0B"/>
<path d="M49.4194 351.968L88.4517 312.935L88.4517 391L49.4194 351.968Z" fill="#FF006E"/>
<path d="M49.4199 430.032L88.4522 391L127.484 430.032L88.4522 469.064L49.4199 430.032Z" fill="#8338EC"/>
<path d="M88.4517 391C99.2302 401.778 99.2302 419.254 88.4517 430.032C77.6733 440.811 60.1979 440.811 49.4194 430.032L68.9356 410.516L88.4517 391Z" fill="#3A86FF"/>
<path d="M88.4521 391L127.484 351.968L166.517 391L127.484 430.032L88.4521 391Z" fill="#FF006E"/>
<path d="M127.484 351.968L147.001 371.484L107.968 410.516L88.4521 391L127.484 351.968Z" fill="#FB5607"/>
<path d="M88.4521 469.065L127.484 430.032L166.517 469.065L127.484 508.097L88.4521 469.065Z" fill="#3A86FF"/>
<path d="M88.4521 469.065C99.2306 458.286 116.706 458.286 127.484 469.065C138.263 479.843 138.263 497.318 127.484 508.097L107.968 488.581L88.4521 469.065Z" fill="#FF006E"/>
<path d="M127.484 430.032L166.517 391L205.549 430.032L166.517 469.065L127.484 430.032Z" fill="#FF006E"/>
<path d="M127.484 430.032L147.001 410.516L186.033 449.548L166.517 469.065L127.484 430.032Z" fill="#FFBE0B"/>
<path d="M127.484 508.097L166.517 469.065L205.549 508.097L166.517 547.129L127.484 508.097Z" fill="#3A86FF"/>
<path d="M205.549 508.097C194.77 518.875 177.295 518.875 166.517 508.097C155.738 497.318 155.738 479.843 166.517 469.065L186.033 488.581L205.549 508.097Z" fill="#8338EC"/>
<path d="M166.517 469.064L205.549 430.032L244.581 469.064L205.549 508.097L166.517 469.064Z" fill="#FF006E"/>
<path d="M-145.742 78.7416L-67.6771 0.677061L10.3875 78.7416L-67.6771 156.806L-145.742 78.7416Z" fill="#FF006E"/>
<path d="M10.3874 78.7416C-11.1695 100.299 -46.1202 100.299 -67.6772 78.7416C-89.2341 57.1847 -89.2341 22.234 -67.6772 0.67701L-28.6449 39.7093L10.3874 78.7416Z" fill="#FFBE0B"/>
<path d="M-67.6772 156.806L-28.645 117.774L10.3873 156.806L-28.6449 195.839L-67.6772 156.806Z" fill="#FB5607"/>
<path d="M-28.645 117.774L10.3873 78.7416L49.4196 117.774L10.3873 156.806L-28.645 117.774Z" fill="#FF006E"/>
<path d="M49.4195 117.774L29.9034 137.29L-9.12891 98.2578L10.3872 78.7416L49.4195 117.774Z" fill="#FB5607"/>
<path d="M-28.645 195.838L10.3872 156.806L49.4195 195.838L10.3873 234.871L-28.645 195.838Z" fill="#FB5607"/>
<path d="M10.3873 234.871L-28.645 195.838L49.4195 195.839L10.3873 234.871Z" fill="#FFBE0B"/>
<path d="M10.3872 156.806L49.4195 117.774L88.4518 156.806L49.4195 195.839L10.3872 156.806Z" fill="#FFBE0B"/>
<path d="M10.3872 156.806C21.1657 146.028 38.641 146.028 49.4195 156.806C60.198 167.585 60.198 185.06 49.4195 195.839L29.9034 176.322L10.3872 156.806Z" fill="#FB5607"/>
<path d="M10.3872 234.871L49.4195 195.839L88.4518 234.871L49.4195 273.903L10.3872 234.871Z" fill="#FB5607"/>
<path d="M49.4199 195.838L88.4522 156.806L127.485 195.838L88.4522 234.871L49.4199 195.838Z" fill="#FF006E"/>
<path d="M88.4517 156.806L107.968 176.322L68.9356 215.355L49.4194 195.839L88.4517 156.806Z" fill="#FFBE0B"/>
<path d="M49.4199 273.903L88.4522 234.871L127.484 273.903L88.4522 312.935L49.4199 273.903Z" fill="#FF006E"/>
<path d="M127.484 273.903L88.4517 312.935L88.4517 234.871L127.484 273.903Z" fill="#FFBE0B"/>
<path d="M88.4521 234.871L127.484 195.838L166.517 234.871L127.484 273.903L88.4521 234.871Z" fill="#FFBE0B"/>
<path d="M127.484 195.838L147.001 215.355L107.968 254.387L88.4521 234.871L127.484 195.838Z" fill="#3A86FF"/>
<path d="M88.4521 312.935L166.517 234.871L244.581 312.935L166.517 391L88.4521 312.935Z" fill="#FB5607"/>
<path d="M166.517 234.871L244.581 312.935H88.4521L166.517 234.871Z" fill="#8338EC"/>
<path d="M166.517 391L244.581 312.935L322.646 391L244.581 469.065L166.517 391Z" fill="#FFBE0B"/>
<path d="M244.581 469.065L166.517 391H322.646L244.581 469.065Z" fill="#8338EC"/>
<path d="M-67.6772 703.258L-28.645 664.226L10.3874 703.258L-28.6449 742.291L-67.6772 703.258Z" fill="#3A86FF"/>
<path d="M-28.645 664.226L10.3874 703.258L-67.6772 703.258L-28.645 664.226Z" fill="#FF006E"/>
<path d="M-67.6772 547.129L-28.645 508.097L10.3874 547.129L-28.6449 586.161L-67.6772 547.129Z" fill="#3A86FF"/>
<path d="M-67.6772 625.194L-28.6449 586.161L10.3873 625.194L-28.645 664.226L-67.6772 625.194Z" fill="#FFBE0B"/>
<path d="M-28.6449 586.161L10.3873 625.194L-67.6772 625.194L-28.6449 586.161Z" fill="#FF006E"/>
<path d="M-28.645 586.161L10.3873 547.129L49.4195 586.161L10.3872 625.194L-28.645 586.161Z" fill="#FF006E"/>
<path d="M10.3872 625.194L-28.645 586.161L49.4195 586.161L10.3872 625.194Z" fill="#8338EC"/>
<path d="M-28.645 664.226L10.3873 625.194L49.4196 664.226L10.3873 703.258L-28.645 664.226Z" fill="#FF006E"/>
<path d="M49.4196 664.226C38.6411 675.004 21.1657 675.004 10.3872 664.226C-0.391225 653.447 -0.391225 635.972 10.3872 625.194L29.9034 644.71L49.4196 664.226Z" fill="#FFBE0B"/>
<path d="M10.3872 625.194L49.4195 586.161L88.4518 625.194L49.4195 664.226L10.3872 625.194Z" fill="#FB5607"/>
<path d="M49.4195 586.161L88.4518 625.194L10.3872 625.194L49.4195 586.161Z" fill="#3A86FF"/>
<path d="M-145.742 391L-67.6771 312.935L10.3875 391L-67.6771 469.065L-145.742 391Z" fill="#FB5607"/>
<path d="M10.3874 391C-11.1695 412.557 -46.1202 412.557 -67.6772 391C-89.2341 369.443 -89.2341 334.492 -67.6772 312.935L-28.6449 351.968L10.3874 391Z" fill="#FF006E"/>
<path d="M-67.6772 469.064L-28.645 430.032L10.3873 469.064L-28.645 508.097L-67.6772 469.064Z" fill="#8338EC"/>
<path d="M-28.645 430.032L10.3873 391L49.4196 430.032L10.3872 469.065L-28.645 430.032Z" fill="#8338EC"/>
<path d="M10.3873 391L49.4196 430.032L-28.645 430.032L10.3873 391Z" fill="#FF006E"/>
<path d="M-28.645 508.097L10.3873 469.065L49.4196 508.097L10.3873 547.129L-28.645 508.097Z" fill="#8338EC"/>
<path d="M10.3872 547.129C-0.391225 536.351 -0.391229 518.875 10.3872 508.097C21.1657 497.318 38.6411 497.318 49.4195 508.097L29.9034 527.613L10.3872 547.129Z" fill="#FF006E"/>
<path d="M10.3872 469.065L49.4195 430.032L88.4518 469.065L49.4195 508.097L10.3872 469.065Z" fill="#FFBE0B"/>
<path d="M49.4195 430.032L88.4518 469.065H10.3872L49.4195 430.032Z" fill="#8338EC"/>
<path d="M10.3872 547.129L88.4518 469.064L166.516 547.129L88.4518 625.194L10.3872 547.129Z" fill="#FB5607"/>
<path d="M-67.6772 234.871L-28.6449 195.838L10.3874 234.871L-28.645 273.903L-67.6772 234.871Z" fill="#3A86FF"/>
<path d="M-28.645 273.903C-39.4235 263.125 -39.4235 245.649 -28.645 234.871C-17.8665 224.092 -0.391141 224.092 10.3873 234.871L-9.12882 254.387L-28.645 273.903Z" fill="#FB5607"/>
<path d="M-67.6772 312.935L-28.645 273.903L10.3873 312.935L-28.645 351.968L-67.6772 312.935Z" fill="#8338EC"/>
<path d="M10.3873 312.935L-28.645 351.968L-28.645 273.903L10.3873 312.935Z" fill="#3A86FF"/>
<path d="M-28.645 273.903L10.3873 234.871L49.4196 273.903L10.3873 312.935L-28.645 273.903Z" fill="#3A86FF"/>
<path d="M10.3873 234.871L49.4196 273.903L-28.645 273.903L10.3873 234.871Z" fill="#8338EC"/>
<path d="M-28.645 351.968L10.3872 312.935L49.4196 351.968L10.3873 391L-28.645 351.968Z" fill="#8338EC"/>
<path d="M-28.645 351.968C-17.8666 341.189 -0.391225 341.189 10.3872 351.968C21.1657 362.746 21.1657 380.221 10.3873 391L-9.12886 371.484L-28.645 351.968Z" fill="#3A86FF"/>
<path d="M10.3872 312.935L49.4195 273.903L88.4518 312.935L49.4195 351.968L10.3872 312.935Z" fill="#3A86FF"/>
<path d="M88.4518 312.935C77.6733 323.714 60.1979 323.714 49.4195 312.935C38.641 302.157 38.641 284.682 49.4195 273.903L68.9356 293.419L88.4518 312.935Z" fill="#FFBE0B"/>
<path d="M10.3872 391L88.4518 312.935L166.516 391L88.4518 469.065L10.3872 391Z" fill="#8338EC"/>
<path d="M10.3872 391L49.4195 351.968L127.484 430.032L88.4518 469.065L10.3872 391Z" fill="#FFBE0B"/>
<path d="M88.4521 469.065L127.484 430.032L166.517 469.065L127.484 508.097L88.4521 469.065Z" fill="#3A86FF"/>
<path d="M127.484 430.032L166.517 469.065H88.4521L127.484 430.032Z" fill="#FF006E"/>
<path d="M127.484 430.032L166.517 391L205.549 430.032L166.517 469.065L127.484 430.032Z" fill="#8338EC"/>
<path d="M127.484 508.097L166.517 469.065L205.549 508.097L166.517 547.129L127.484 508.097Z" fill="#FFBE0B"/>
<path d="M127.484 508.097L147 488.581L186.033 527.613L166.517 547.129L127.484 508.097Z" fill="#FF006E"/>
<path d="M166.517 469.064L205.549 430.032L244.581 469.064L205.549 508.097L166.517 469.064Z" fill="#3A86FF"/>
<path d="M244.581 469.065L225.065 488.581L186.033 449.548L205.549 430.032L244.581 469.065Z" fill="#FF006E"/>
<path d="M-145.742 78.7416L-67.6771 0.677061L10.3875 78.7416L-67.6771 156.806L-145.742 78.7416Z" fill="#FFBE0B"/>
<path d="M-67.6771 0.67703L10.3875 78.7416L-145.742 78.7416L-67.6771 0.67703Z" fill="#3A86FF"/>
<path d="M-67.6772 156.806L-28.645 117.774L10.3873 156.806L-28.6449 195.839L-67.6772 156.806Z" fill="#FF006E"/>
<path d="M-28.645 117.774L10.3873 78.7416L49.4196 117.774L10.3873 156.806L-28.645 117.774Z" fill="#FFBE0B"/>
<path d="M-28.645 195.838L10.3872 156.806L49.4195 195.838L10.3873 234.871L-28.645 195.838Z" fill="#FB5607"/>
<path d="M10.3872 156.806L49.4195 117.774L88.4518 156.806L49.4195 195.839L10.3872 156.806Z" fill="#FB5607"/>
<path d="M49.4195 117.774C60.198 128.552 60.198 146.028 49.4195 156.806C38.641 167.585 21.1657 167.585 10.3872 156.806L29.9034 137.29L49.4195 117.774Z" fill="#8338EC"/>
<path d="M10.3872 234.871L88.4518 156.806L166.516 234.871L88.4518 312.935L10.3872 234.871Z" fill="#8338EC"/>
<path d="M88.4517 312.935C66.8948 291.378 66.8948 256.428 88.4517 234.871C110.009 213.314 144.959 213.314 166.516 234.871L127.484 273.903L88.4517 312.935Z" fill="#FFBE0B"/>
<path d="M88.4521 312.935L127.484 273.903L166.517 312.935L127.484 351.968L88.4521 312.935Z" fill="#8338EC"/>
<path d="M88.4521 312.935L127.484 273.903V351.968L88.4521 312.935Z" fill="#FB5607"/>
<path d="M127.484 273.903L166.517 234.871L205.549 273.903L166.517 312.935L127.484 273.903Z" fill="#FFBE0B"/>
<path d="M205.549 273.903L186.033 293.419L147 254.387L166.517 234.871L205.549 273.903Z" fill="#8338EC"/>
<path d="M127.484 351.968L166.517 312.935L205.549 351.968L166.517 391L127.484 351.968Z" fill="#FF006E"/>
<path d="M166.517 312.935C177.295 323.714 177.295 341.189 166.517 351.968C155.738 362.746 138.263 362.746 127.484 351.968L147.001 332.452L166.517 312.935Z" fill="#FB5607"/>
<path d="M166.517 312.935L205.549 273.903L244.581 312.935L205.549 351.968L166.517 312.935Z" fill="#FFBE0B"/>
<path d="M244.581 312.935L225.065 332.452L186.033 293.419L205.549 273.903L244.581 312.935Z" fill="#8338EC"/>
<path d="M166.517 391L205.549 351.968L244.581 391L205.549 430.032L166.517 391Z" fill="#3A86FF"/>
<path d="M205.549 351.968L225.065 371.484L186.033 410.516L166.517 391L205.549 351.968Z" fill="#FB5607"/>
<path d="M205.549 351.968L244.581 312.935L283.613 351.968L244.581 391L205.549 351.968Z" fill="#FB5607"/>
<path d="M205.549 430.032L244.581 391L283.613 430.032L244.581 469.064L205.549 430.032Z" fill="#FFBE0B"/>
<path d="M244.581 391L283.613 351.968L322.646 391L283.613 430.032L244.581 391Z" fill="#8338EC"/>
<path d="M-67.6772 703.258L-28.645 664.226L10.3874 703.258L-28.6449 742.291L-67.6772 703.258Z" fill="#3A86FF"/>
<path d="M-145.742 547.129L-67.6771 469.064L10.3875 547.129L-67.6771 625.194L-145.742 547.129Z" fill="#FFBE0B"/>
<path d="M-67.6772 625.194L-106.709 586.161L-28.6449 508.097L10.3874 547.129L-67.6772 625.194Z" fill="#8338EC"/>
<path d="M-67.6772 625.194L10.3873 547.129L88.4519 625.194L10.3873 703.258L-67.6772 625.194Z" fill="#8338EC"/>
<path d="M-67.6772 625.194C-46.1203 603.637 -11.1696 603.637 10.3873 625.194C31.9443 646.751 31.9443 681.701 10.3873 703.258L-28.645 664.226L-67.6772 625.194Z" fill="#3A86FF"/>
<path d="M-67.6772 391L-28.6449 351.968L10.3874 391L-28.6449 430.032L-67.6772 391Z" fill="#8338EC"/>
<path d="M10.3873 391C-0.391141 401.778 -17.8665 401.778 -28.645 391C-39.4235 380.221 -39.4235 362.746 -28.645 351.968L-9.12882 371.484L10.3873 391Z" fill="#3A86FF"/>
<path d="M-67.6772 469.064L10.3874 391L88.4519 469.064L10.3873 547.129L-67.6772 469.064Z" fill="#3A86FF"/>
<path d="M88.4519 469.065L49.4196 508.097L-28.645 430.032L10.3873 391L88.4519 469.065Z" fill="#FF006E"/>
<path d="M10.3872 547.129L49.4195 508.097L88.4518 547.129L49.4195 586.161L10.3872 547.129Z" fill="#8338EC"/>
<path d="M49.4195 586.161L10.3872 547.129L88.4518 547.129L49.4195 586.161Z" fill="#FF006E"/>
<path d="M49.4199 508.097L88.4522 469.065L127.484 508.097L88.4522 547.129L49.4199 508.097Z" fill="#FF006E"/>
<path d="M127.484 508.097C116.706 518.875 99.2306 518.875 88.4522 508.097C77.6737 497.318 77.6737 479.843 88.4522 469.065L107.968 488.581L127.484 508.097Z" fill="#FFBE0B"/>
<path d="M49.4199 586.161L88.4522 547.129L127.485 586.161L88.4522 625.194L49.4199 586.161Z" fill="#3A86FF"/>
<path d="M88.4522 625.194L68.936 605.678L107.968 566.645L127.484 586.161L88.4522 625.194Z" fill="#FFBE0B"/>
<path d="M88.4521 547.129L127.484 508.097L166.517 547.129L127.484 586.161L88.4521 547.129Z" fill="#FB5607"/>
<path d="M-145.742 234.871L-67.6771 156.806L10.3875 234.871L-67.6771 312.935L-145.742 234.871Z" fill="#FB5607"/>
<path d="M10.3875 234.871L-67.6771 312.935L-67.6771 156.806L10.3875 234.871Z" fill="#FF006E"/>
<path d="M-67.6772 312.935L10.3873 234.871L88.4519 312.935L10.3874 391L-67.6772 312.935Z" fill="#8338EC"/>
<path d="M10.3873 391L-28.645 351.968L49.4196 273.903L88.4519 312.935L10.3873 391Z" fill="#FF006E"/>
<path d="M10.3872 391L49.4195 351.968L88.4517 391L49.4195 430.032L10.3872 391Z" fill="#3A86FF"/>
<path d="M10.3872 391L29.9033 371.484L68.9356 410.516L49.4195 430.032L10.3872 391Z" fill="#FFBE0B"/>
<path d="M49.4199 351.968L88.4522 312.935L127.484 351.968L88.4522 391L49.4199 351.968Z" fill="#FF006E"/>
<path d="M49.4194 351.968L68.9356 332.452L107.968 371.484L88.4517 391L49.4194 351.968Z" fill="#3A86FF"/>
<path d="M49.4199 430.032L88.4522 391L127.484 430.032L88.4522 469.064L49.4199 430.032Z" fill="#FFBE0B"/>
<path d="M88.4522 469.065C77.6737 458.286 77.6737 440.811 88.4522 430.032C99.2306 419.254 116.706 419.254 127.484 430.032L107.968 449.548L88.4522 469.065Z" fill="#FB5607"/>
<path d="M88.4521 391L127.484 351.968L166.517 391L127.484 430.032L88.4521 391Z" fill="#3A86FF"/>
<path d="M127.484 351.968L147.001 371.484L107.968 410.516L88.4521 391L127.484 351.968Z" fill="#FFBE0B"/>
<path d="M88.4521 469.065L127.484 430.032L166.517 469.065L127.484 508.097L88.4521 469.065Z" fill="#8338EC"/>
<path d="M127.484 430.032L166.517 391L205.549 430.032L166.517 469.065L127.484 430.032Z" fill="#FFBE0B"/>
<path d="M127.484 508.097L166.517 469.065L205.549 508.097L166.517 547.129L127.484 508.097Z" fill="#3A86FF"/>
<path d="M205.549 508.097L166.517 547.129L166.517 469.065L205.549 508.097Z" fill="#8338EC"/>
<path d="M166.517 469.064L205.549 430.032L244.581 469.064L205.549 508.097L166.517 469.064Z" fill="#FB5607"/>
<path d="M244.581 469.065L225.065 488.581L186.033 449.548L205.549 430.032L244.581 469.065Z" fill="#8338EC"/>
<path d="M-145.742 78.7416L-67.6771 0.677061L10.3875 78.7416L-67.6771 156.806L-145.742 78.7416Z" fill="#8338EC"/>
<path d="M-67.6772 156.806L-28.645 117.774L10.3873 156.806L-28.6449 195.839L-67.6772 156.806Z" fill="#FFBE0B"/>
<path d="M-28.645 195.838L-48.1611 176.322L-9.12887 137.29L10.3873 156.806L-28.645 195.838Z" fill="#8338EC"/>
<path d="M-28.645 117.774L10.3873 78.7416L49.4196 117.774L10.3873 156.806L-28.645 117.774Z" fill="#FF006E"/>
<path d="M-28.645 117.774C-17.8665 106.995 -0.391186 106.995 10.3873 117.774C21.1658 128.552 21.1658 146.028 10.3873 156.806L-9.12887 137.29L-28.645 117.774Z" fill="#8338EC"/>
<path d="M-28.645 195.838L10.3872 156.806L49.4195 195.838L10.3873 234.871L-28.645 195.838Z" fill="#FB5607"/>
<path d="M49.4195 195.839L10.3873 234.871L10.3872 156.806L49.4195 195.839Z" fill="#3A86FF"/>
<path d="M10.3872 156.806L49.4195 117.774L88.4518 156.806L49.4195 195.839L10.3872 156.806Z" fill="#8338EC"/>
<path d="M10.3872 234.871L88.4518 156.806L166.516 234.871L88.4518 312.935L10.3872 234.871Z" fill="#8338EC"/>
<path d="M88.4518 312.935L10.3872 234.871L166.516 234.871L88.4518 312.935Z" fill="#FF006E"/>
<path d="M88.4521 312.935L166.517 234.871L244.581 312.935L166.517 391L88.4521 312.935Z" fill="#3A86FF"/>
<path d="M166.517 391L127.484 351.968L205.549 273.903L244.581 312.935L166.517 391Z" fill="#FFBE0B"/>
<path d="M166.517 391L205.549 351.968L244.581 391L205.549 430.032L166.517 391Z" fill="#FFBE0B"/>
<path d="M205.549 351.968L225.065 371.484L186.033 410.516L166.517 391L205.549 351.968Z" fill="#FF006E"/>
<path d="M205.549 351.968L244.581 312.935L283.613 351.968L244.581 391L205.549 351.968Z" fill="#FFBE0B"/>
<path d="M244.581 312.935C255.36 323.714 255.36 341.189 244.581 351.968C233.803 362.746 216.327 362.746 205.549 351.968L225.065 332.452L244.581 312.935Z" fill="#FF006E"/>
<path d="M205.549 430.032L244.581 391L283.613 430.032L244.581 469.064L205.549 430.032Z" fill="#FB5607"/>
<path d="M205.549 430.032L225.065 410.516L264.097 449.548L244.581 469.065L205.549 430.032Z" fill="#FFBE0B"/>
<path d="M244.581 391L283.613 351.968L322.646 391L283.613 430.032L244.581 391Z" fill="#3A86FF"/>
<path d="M-67.6772 703.258L-28.645 664.226L10.3874 703.258L-28.6449 742.291L-67.6772 703.258Z" fill="#FFBE0B"/>
<path d="M-67.6772 547.129L-28.645 508.097L10.3874 547.129L-28.6449 586.161L-67.6772 547.129Z" fill="#3A86FF"/>
<path d="M-67.6772 625.194L-28.6449 586.161L10.3873 625.194L-28.645 664.226L-67.6772 625.194Z" fill="#FFBE0B"/>
<path d="M-28.645 586.161L10.3873 547.129L49.4195 586.161L10.3872 625.194L-28.645 586.161Z" fill="#FB5607"/>
<path d="M-28.645 586.161L10.3873 547.129L10.3872 625.194L-28.645 586.161Z" fill="#FFBE0B"/>
<path d="M-28.645 664.226L10.3873 625.194L49.4196 664.226L10.3873 703.258L-28.645 664.226Z" fill="#FF006E"/>
<path d="M10.3873 625.194L29.9034 644.71L-9.12886 683.742L-28.645 664.226L10.3873 625.194Z" fill="#3A86FF"/>
<path d="M10.3872 625.194L49.4195 586.161L88.4518 625.194L49.4195 664.226L10.3872 625.194Z" fill="#8338EC"/>
<path d="M-67.6772 391L-28.6449 351.968L10.3874 391L-28.6449 430.032L-67.6772 391Z" fill="#8338EC"/>
<path d="M-28.645 430.032C-39.4235 419.254 -39.4235 401.778 -28.645 391C-17.8665 380.221 -0.391141 380.221 10.3873 391L-9.12882 410.516L-28.645 430.032Z" fill="#FF006E"/>
<path d="M-67.6772 469.064L-28.645 430.032L10.3873 469.064L-28.645 508.097L-67.6772 469.064Z" fill="#3A86FF"/>
<path d="M-67.6772 469.065L-28.645 430.032L-28.645 508.097L-67.6772 469.065Z" fill="#FB5607"/>
<path d="M-28.645 430.032L10.3873 391L49.4196 430.032L10.3872 469.065L-28.645 430.032Z" fill="#FFBE0B"/>
<path d="M-28.645 430.032L10.3873 391L10.3872 469.065L-28.645 430.032Z" fill="#3A86FF"/>
<path d="M-28.645 508.097L10.3873 469.065L49.4196 508.097L10.3873 547.129L-28.645 508.097Z" fill="#FB5607"/>
<path d="M10.3873 469.064L49.4196 508.097L-28.645 508.097L10.3873 469.064Z" fill="#FFBE0B"/>
<path d="M10.3872 469.065L49.4195 430.032L88.4518 469.065L49.4195 508.097L10.3872 469.065Z" fill="#FB5607"/>
<path d="M49.4195 430.032L68.9357 449.548L29.9034 488.581L10.3872 469.065L49.4195 430.032Z" fill="#3A86FF"/>
<path d="M10.3872 547.129L88.4518 469.064L166.516 547.129L88.4518 625.194L10.3872 547.129Z" fill="#3A86FF"/>
<path d="M88.4518 625.194L10.3872 547.129L166.516 547.129L88.4518 625.194Z" fill="#FFBE0B"/>
<path d="M-67.6772 234.871L-28.6449 195.838L10.3874 234.871L-28.645 273.903L-67.6772 234.871Z" fill="#8338EC"/>
<path d="M-28.645 273.903C-39.4235 263.125 -39.4235 245.649 -28.645 234.871C-17.8665 224.092 -0.391141 224.092 10.3873 234.871L-9.12882 254.387L-28.645 273.903Z" fill="#FFBE0B"/>
<path d="M-67.6772 312.935L-28.645 273.903L10.3873 312.935L-28.645 351.968L-67.6772 312.935Z" fill="#FB5607"/>
<path d="M-28.645 273.903L10.3873 234.871L49.4196 273.903L10.3873 312.935L-28.645 273.903Z" fill="#FF006E"/>
<path d="M49.4195 273.903L29.9034 293.419L-9.12891 254.387L10.3872 234.871L49.4195 273.903Z" fill="#8338EC"/>
<path d="M-28.645 351.968L10.3872 312.935L49.4196 351.968L10.3873 391L-28.645 351.968Z" fill="#8338EC"/>
<path d="M10.3872 391L-9.12891 371.484L29.9034 332.452L49.4195 351.968L10.3872 391Z" fill="#3A86FF"/>
<path d="M10.3872 312.935L49.4195 273.903L88.4518 312.935L49.4195 351.968L10.3872 312.935Z" fill="#FFBE0B"/>
<path d="M88.4518 312.935L68.9356 332.452L29.9033 293.419L49.4195 273.903L88.4518 312.935Z" fill="#8338EC"/>
<path d="M10.3872 391L49.4195 351.968L88.4517 391L49.4195 430.032L10.3872 391Z" fill="#3A86FF"/>
<path d="M10.3872 391L49.4195 351.968V430.032L10.3872 391Z" fill="#FFBE0B"/>
<path d="M49.4199 351.968L88.4522 312.935L127.484 351.968L88.4522 391L49.4199 351.968Z" fill="#3A86FF"/>
<path d="M49.4194 351.968L88.4517 312.935L88.4517 391L49.4194 351.968Z" fill="#8338EC"/>
<path d="M49.4199 430.032L88.4522 391L127.484 430.032L88.4522 469.064L49.4199 430.032Z" fill="#8338EC"/>
<path d="M49.4194 430.032C60.1979 419.254 77.6732 419.254 88.4517 430.032C99.2302 440.811 99.2302 458.286 88.4517 469.065L68.9356 449.548L49.4194 430.032Z" fill="#3A86FF"/>
<path d="M88.4521 391L127.484 351.968L166.517 391L127.484 430.032L88.4521 391Z" fill="#FF006E"/>
<path d="M88.4521 391L107.968 371.484L147.001 410.516L127.484 430.032L88.4521 391Z" fill="#3A86FF"/>
<path d="M88.4521 469.065L127.484 430.032L166.517 469.065L127.484 508.097L88.4521 469.065Z" fill="#FF006E"/>
<path d="M127.484 430.032C138.263 440.811 138.263 458.286 127.484 469.065C116.706 479.843 99.2306 479.843 88.4521 469.065L107.968 449.548L127.484 430.032Z" fill="#FFBE0B"/>
<path d="M127.484 430.032L166.517 391L205.549 430.032L166.517 469.065L127.484 430.032Z" fill="#FB5607"/>
<path d="M127.484 508.097L166.517 469.065L205.549 508.097L166.517 547.129L127.484 508.097Z" fill="#3A86FF"/>
<path d="M205.549 508.097C194.77 518.875 177.295 518.875 166.517 508.097C155.738 497.318 155.738 479.843 166.517 469.065L186.033 488.581L205.549 508.097Z" fill="#FFBE0B"/>
<path d="M166.517 469.064L205.549 430.032L244.581 469.064L205.549 508.097L166.517 469.064Z" fill="#FFBE0B"/>
<path d="M-145.742 78.7416L-67.6771 0.677061L10.3875 78.7416L-67.6771 156.806L-145.742 78.7416Z" fill="#FFBE0B"/>
<path d="M-67.6772 156.806L-28.645 117.774L10.3873 156.806L-28.6449 195.839L-67.6772 156.806Z" fill="#FB5607"/>
<path d="M-28.645 117.774L10.3873 156.806L-67.6772 156.806L-28.645 117.774Z" fill="#FF006E"/>
<path d="M-28.645 117.774L10.3873 78.7416L49.4196 117.774L10.3873 156.806L-28.645 117.774Z" fill="#FB5607"/>
<path d="M-28.645 195.838L10.3872 156.806L49.4195 195.838L10.3873 234.871L-28.645 195.838Z" fill="#FB5607"/>
<path d="M10.3872 234.871L-9.12891 215.355L29.9034 176.322L49.4195 195.839L10.3872 234.871Z" fill="#8338EC"/>
<path d="M10.3872 156.806L49.4195 117.774L88.4518 156.806L49.4195 195.839L10.3872 156.806Z" fill="#FB5607"/>
<path d="M10.3872 156.806C21.1657 146.028 38.641 146.028 49.4195 156.806C60.198 167.585 60.198 185.06 49.4195 195.839L29.9034 176.322L10.3872 156.806Z" fill="#8338EC"/>
<path d="M10.3872 234.871L49.4195 195.839L88.4518 234.871L49.4195 273.903L10.3872 234.871Z" fill="#FF006E"/>
<path d="M10.3872 234.871C21.1657 224.092 38.641 224.092 49.4195 234.871C60.198 245.649 60.198 263.125 49.4195 273.903L29.9034 254.387L10.3872 234.871Z" fill="#3A86FF"/>
<path d="M49.4199 195.838L88.4522 156.806L127.485 195.838L88.4522 234.871L49.4199 195.838Z" fill="#FF006E"/>
<path d="M127.484 195.838L88.4517 234.871L88.4517 156.806L127.484 195.838Z" fill="#8338EC"/>
<path d="M49.4199 273.903L88.4522 234.871L127.484 273.903L88.4522 312.935L49.4199 273.903Z" fill="#8338EC"/>
<path d="M88.4521 234.871L127.484 195.838L166.517 234.871L127.484 273.903L88.4521 234.871Z" fill="#FB5607"/>
<path d="M127.484 273.903L107.968 254.387L147.001 215.355L166.517 234.871L127.484 273.903Z" fill="#3A86FF"/>
<path d="M88.4521 312.935L127.484 273.903L166.517 312.935L127.484 351.968L88.4521 312.935Z" fill="#3A86FF"/>
<path d="M88.4521 312.935L107.968 293.419L147.001 332.451L127.484 351.968L88.4521 312.935Z" fill="#FFBE0B"/>
<path d="M127.484 273.903L166.517 234.871L205.549 273.903L166.517 312.935L127.484 273.903Z" fill="#8338EC"/>
<path d="M166.517 234.871C177.295 245.649 177.295 263.125 166.517 273.903C155.738 284.682 138.263 284.682 127.484 273.903L147.001 254.387L166.517 234.871Z" fill="#FFBE0B"/>
<path d="M127.484 351.968L166.517 312.935L205.549 351.968L166.517 391L127.484 351.968Z" fill="#8338EC"/>
<path d="M166.517 312.935L205.549 273.903L244.581 312.935L205.549 351.968L166.517 312.935Z" fill="#3A86FF"/>
<path d="M166.517 391L244.581 312.935L322.646 391L244.581 469.065L166.517 391Z" fill="#FF006E"/>
<path d="M166.517 391C188.074 369.443 223.024 369.443 244.581 391C266.138 412.557 266.138 447.508 244.581 469.065L205.549 430.032L166.517 391Z" fill="#3A86FF"/>
<path d="M-67.6772 703.258L-28.645 664.226L10.3874 703.258L-28.6449 742.291L-67.6772 703.258Z" fill="#8338EC"/>
<path d="M10.3873 703.258L-9.12882 722.774L-48.1611 683.742L-28.645 664.226L10.3873 703.258Z" fill="#FB5607"/>
<path d="M-145.742 547.129L-67.6771 469.064L10.3875 547.129L-67.6771 625.194L-145.742 547.129Z" fill="#FB5607"/>
<path d="M-67.6771 469.065L10.3875 547.129L-145.742 547.129L-67.6771 469.065Z" fill="#FFBE0B"/>
<path d="M-67.6772 625.194L-28.6449 586.161L10.3873 625.194L-28.645 664.226L-67.6772 625.194Z" fill="#3A86FF"/>
<path d="M-28.645 586.161L10.3873 547.129L49.4195 586.161L10.3872 625.194L-28.645 586.161Z" fill="#3A86FF"/>
<path d="M-28.645 586.161L10.3873 547.129L10.3872 625.194L-28.645 586.161Z" fill="#FF006E"/>
<path d="M-28.645 664.226L10.3873 625.194L49.4196 664.226L10.3873 703.258L-28.645 664.226Z" fill="#3A86FF"/>
<path d="M10.3872 625.194L49.4195 586.161L88.4518 625.194L49.4195 664.226L10.3872 625.194Z" fill="#FFBE0B"/>
<path d="M49.4195 586.161C60.198 596.94 60.198 614.415 49.4195 625.194C38.641 635.972 21.1657 635.972 10.3872 625.194L29.9034 605.678L49.4195 586.161Z" fill="#8338EC"/>
<path d="M-67.6772 391L-28.6449 351.968L10.3874 391L-28.6449 430.032L-67.6772 391Z" fill="#FF006E"/>
<path d="M-28.645 430.032L-48.1611 410.516L-9.12882 371.484L10.3873 391L-28.645 430.032Z" fill="#3A86FF"/>
<path d="M-67.6772 469.064L10.3874 391L88.4519 469.064L10.3873 547.129L-67.6772 469.064Z" fill="#FB5607"/>
<path d="M10.3872 547.129L88.4518 469.064L166.516 547.129L88.4518 625.194L10.3872 547.129Z" fill="#8338EC"/>
<path d="M-145.742 234.871L-67.6771 156.806L10.3875 234.871L-67.6771 312.935L-145.742 234.871Z" fill="#8338EC"/>
<path d="M-67.6772 312.935L-28.645 273.903L10.3873 312.935L-28.645 351.968L-67.6772 312.935Z" fill="#FF006E"/>
<path d="M-28.645 273.903L10.3873 312.935L-67.6772 312.935L-28.645 273.903Z" fill="#8338EC"/>
<path d="M-28.645 273.903L10.3873 234.871L49.4196 273.903L10.3873 312.935L-28.645 273.903Z" fill="#8338EC"/>
<path d="M10.3873 234.871L49.4196 273.903L-28.645 273.903L10.3873 234.871Z" fill="#FFBE0B"/>
<path d="M-28.645 351.968L10.3872 312.935L49.4196 351.968L10.3873 391L-28.645 351.968Z" fill="#FF006E"/>
<path d="M10.3872 312.935L49.4196 351.968L-28.645 351.968L10.3872 312.935Z" fill="#FFBE0B"/>
<path d="M10.3872 312.935L49.4195 273.903L88.4518 312.935L49.4195 351.968L10.3872 312.935Z" fill="#8338EC"/>
<path d="M49.4195 351.968L29.9033 332.452L68.9356 293.419L88.4518 312.935L49.4195 351.968Z" fill="#FB5607"/>
<path d="M10.3872 391L49.4195 351.968L88.4517 391L49.4195 430.032L10.3872 391Z" fill="#FB5607"/>
<path d="M49.4195 430.032L10.3872 391H88.4517L49.4195 430.032Z" fill="#8338EC"/>
<path d="M49.4199 351.968L88.4522 312.935L127.484 351.968L88.4522 391L49.4199 351.968Z" fill="#FF006E"/>
<path d="M127.484 351.968L88.4517 391L88.4517 312.935L127.484 351.968Z" fill="#FFBE0B"/>
<path d="M49.4199 430.032L88.4522 391L127.484 430.032L88.4522 469.064L49.4199 430.032Z" fill="#FFBE0B"/>
<path d="M88.4522 469.065L68.936 449.548L107.968 410.516L127.484 430.032L88.4522 469.065Z" fill="#FF006E"/>
<path d="M88.4521 391L127.484 351.968L166.517 391L127.484 430.032L88.4521 391Z" fill="#FF006E"/>
<path d="M88.4521 391L127.484 351.968V430.032L88.4521 391Z" fill="#FB5607"/>
<path d="M88.4521 469.065L166.517 391L244.581 469.065L166.517 547.129L88.4521 469.065Z" fill="#8338EC"/>
<path d="M88.4521 469.065C110.009 447.508 144.96 447.508 166.517 469.065C188.074 490.621 188.074 525.572 166.517 547.129L127.484 508.097L88.4521 469.065Z" fill="#FFBE0B"/>
<path d="M-67.6772 78.7416L-28.6449 39.7093L10.3874 78.7416L-28.645 117.774L-67.6772 78.7416Z" fill="#8338EC"/>
<path d="M10.3874 78.7416L-28.645 117.774L-28.6449 39.7093L10.3874 78.7416Z" fill="#FF006E"/>
<path d="M-67.6772 156.806L10.3873 78.7416L88.4519 156.806L10.3873 234.871L-67.6772 156.806Z" fill="#FF006E"/>
<path d="M10.3873 78.7416L88.4519 156.806L-67.6772 156.806L10.3873 78.7416Z" fill="#FB5607"/>
<path d="M10.3872 234.871L49.4195 195.839L88.4518 234.871L49.4195 273.903L10.3872 234.871Z" fill="#FFBE0B"/>
<path d="M10.3872 234.871L29.9034 215.355L68.9357 254.387L49.4195 273.903L10.3872 234.871Z" fill="#FB5607"/>
<path d="M49.4199 195.838L88.4522 156.806L127.485 195.838L88.4522 234.871L49.4199 195.838Z" fill="#FFBE0B"/>
<path d="M49.4199 273.903L88.4522 234.871L127.484 273.903L88.4522 312.935L49.4199 273.903Z" fill="#FFBE0B"/>
<path d="M88.4517 234.871C99.2302 245.649 99.2302 263.125 88.4517 273.903C77.6733 284.682 60.1979 284.682 49.4194 273.903L68.9356 254.387L88.4517 234.871Z" fill="#FF006E"/>
<path d="M88.4521 234.871L127.484 195.838L166.517 234.871L127.484 273.903L88.4521 234.871Z" fill="#FB5607"/>
<path d="M127.484 273.903C116.706 263.125 116.706 245.649 127.484 234.871C138.263 224.092 155.738 224.092 166.517 234.871L147.001 254.387L127.484 273.903Z" fill="#8338EC"/>
<path d="M88.4521 312.935L127.484 273.903L166.517 312.935L127.484 351.968L88.4521 312.935Z" fill="#3A86FF"/>
<path d="M127.484 351.968L107.968 332.451L147.001 293.419L166.517 312.935L127.484 351.968Z" fill="#FF006E"/>
<path d="M127.484 273.903L166.517 234.871L205.549 273.903L166.517 312.935L127.484 273.903Z" fill="#FFBE0B"/>
<path d="M127.484 351.968L166.517 312.935L205.549 351.968L166.517 391L127.484 351.968Z" fill="#3A86FF"/>
<path d="M166.517 312.935L205.549 273.903L244.581 312.935L205.549 351.968L166.517 312.935Z" fill="#FF006E"/>
<path d="M166.517 391L205.549 351.968L244.581 391L205.549 430.032L166.517 391Z" fill="#FF006E"/>
<path d="M205.549 430.032L166.517 391H244.581L205.549 430.032Z" fill="#3A86FF"/>
<path d="M205.549 351.968L244.581 312.935L283.613 351.968L244.581 391L205.549 351.968Z" fill="#8338EC"/>
<path d="M283.613 351.968L244.581 391L244.581 312.935L283.613 351.968Z" fill="#3A86FF"/>
<path d="M205.549 430.032L244.581 391L283.613 430.032L244.581 469.064L205.549 430.032Z" fill="#FFBE0B"/>
<path d="M244.581 469.065C233.803 458.286 233.803 440.811 244.581 430.032C255.36 419.254 272.835 419.254 283.613 430.032L264.097 449.548L244.581 469.065Z" fill="#3A86FF"/>
<path d="M244.581 391L283.613 351.968L322.646 391L283.613 430.032L244.581 391Z" fill="#3A86FF"/>
</g>
<defs>
<clipPath id="clip0_201_9595">
<rect width="552" height="552" fill="white" transform="translate(-459 391) rotate(-45)"/>
</clipPath>
</defs>
</svg>
