<svg width="782" height="285" viewBox="0 0 782 285" fill="none" xmlns="http://www.w3.org/2000/svg">
<g clip-path="url(#clip0_402_196)">
<path d="M78.7419 -27.5496L156.807 -105.614L234.871 -27.5496L156.807 50.515L78.7419 -27.5496Z" fill="#3A86FF"/>
<path d="M78.7419 -27.5496L117.774 -66.5819L195.839 11.4827L156.807 50.515L78.7419 -27.5496Z" fill="#FFBE0B"/>
<path d="M156.806 50.515L195.839 11.4827L234.871 50.515L195.839 89.5473L156.806 50.515Z" fill="#FF006E"/>
<path d="M156.806 50.515L195.839 11.4827L195.839 89.5473L156.806 50.515Z" fill="#3A86FF"/>
<path d="M195.839 11.4828L234.871 -27.5495L273.903 11.4828L234.871 50.5151L195.839 11.4828Z" fill="#8338EC"/>
<path d="M195.839 89.5474L234.871 50.5151L273.903 89.5474L234.871 128.58L195.839 89.5474Z" fill="#FB5607"/>
<path d="M273.903 89.5474L234.871 128.58L234.871 50.5151L273.903 89.5474Z" fill="#FF006E"/>
<path d="M234.871 50.515L273.903 11.4827L312.936 50.515L273.903 89.5473L234.871 50.515Z" fill="#FF006E"/>
<path d="M312.936 50.5151L293.42 70.0312L254.387 30.9989L273.903 11.4828L312.936 50.5151Z" fill="#3A86FF"/>
<path d="M234.871 128.58L312.936 50.515L391 128.58L312.936 206.644L234.871 128.58Z" fill="#FB5607"/>
<path d="M312.936 206.644C291.379 185.087 291.379 150.137 312.936 128.58C334.493 107.023 369.443 107.023 391 128.58L351.968 167.612L312.936 206.644Z" fill="#8338EC"/>
<path d="M312.936 206.644L351.968 167.612L391 206.644L351.968 245.676L312.936 206.644Z" fill="#FFBE0B"/>
<path d="M391 206.644L351.968 245.676L351.968 167.612L391 206.644Z" fill="#FB5607"/>
<path d="M351.968 167.612L391 128.58L430.032 167.612L391 206.644L351.968 167.612Z" fill="#FFBE0B"/>
<path d="M430.032 167.612L391 206.644L391 128.58L430.032 167.612Z" fill="#3A86FF"/>
<path d="M351.968 245.677L391 206.644L430.032 245.677L391 284.709L351.968 245.677Z" fill="#FF006E"/>
<path d="M391 284.709L351.968 245.677L430.032 245.677L391 284.709Z" fill="#8338EC"/>
<path d="M391 206.644L430.033 167.612L469.065 206.644L430.033 245.676L391 206.644Z" fill="#3A86FF"/>
<path d="M430.033 167.612L449.549 187.128L410.516 226.16L391 206.644L430.033 167.612Z" fill="#FFBE0B"/>
<path d="M234.871 -27.5496L273.903 -66.5819L312.936 -27.5496L273.903 11.4827L234.871 -27.5496Z" fill="#FB5607"/>
<path d="M273.903 11.4828L312.936 -27.5495L351.968 11.4828L312.936 50.5151L273.903 11.4828Z" fill="#FF006E"/>
<path d="M312.936 -27.5495C323.714 -16.771 323.714 0.704323 312.936 11.4828C302.157 22.2613 284.682 22.2613 273.903 11.4828L293.419 -8.03336L312.936 -27.5495Z" fill="#8338EC"/>
<path d="M312.936 -27.5496L351.968 -66.5818L391 -27.5495L351.968 11.4827L312.936 -27.5496Z" fill="#FF006E"/>
<path d="M312.936 50.515L351.968 11.4827L391 50.515L351.968 89.5473L312.936 50.515Z" fill="#FFBE0B"/>
<path d="M351.968 11.4827C362.746 22.2612 362.746 39.7365 351.968 50.515C341.189 61.2934 323.714 61.2935 312.936 50.515L332.452 30.9989L351.968 11.4827Z" fill="#FF006E"/>
<path d="M351.968 11.4828L391 -27.5495L430.033 11.4828L391 50.5151L351.968 11.4828Z" fill="#FB5607"/>
<path d="M351.968 89.5474L391 50.5151L430.032 89.5474L391 128.58L351.968 89.5474Z" fill="#FFBE0B"/>
<path d="M430.033 89.5473L410.516 109.063L371.484 70.0311L391 50.515L430.033 89.5473Z" fill="#FF006E"/>
<path d="M391 50.515L430.033 11.4827L469.065 50.515L430.033 89.5473L391 50.515Z" fill="#FF006E"/>
<path d="M391 128.58L469.065 50.515L547.129 128.58L469.065 206.644L391 128.58Z" fill="#3A86FF"/>
<path d="M469.065 206.644L430.032 167.612L508.097 89.5474L547.129 128.58L469.065 206.644Z" fill="#8338EC"/>
<path d="M391 -27.5496L469.065 -105.614L547.129 -27.5496L469.065 50.515L391 -27.5496Z" fill="#FB5607"/>
<path d="M469.065 50.515L391 -27.5496L547.129 -27.5496L469.065 50.515Z" fill="#8338EC"/>
<path d="M469.065 50.515L547.129 -27.5496L625.194 50.515L547.129 128.58L469.065 50.515Z" fill="#8338EC"/>
<path d="M547.129 -27.5496L625.194 -105.614L703.259 -27.5496L625.194 50.515L547.129 -27.5496Z" fill="#FF006E"/>
<path d="M547.129 -27.5496L625.194 -105.614V50.515L547.129 -27.5496Z" fill="#FB5607"/>
<path d="M78.7419 -27.5496L156.807 -105.614L234.871 -27.5496L156.807 50.515L78.7419 -27.5496Z" fill="#FF006E"/>
<path d="M156.806 50.515L195.839 11.4827L234.871 50.515L195.839 89.5473L156.806 50.515Z" fill="#3A86FF"/>
<path d="M195.839 89.5473L156.806 50.515L234.871 50.515L195.839 89.5473Z" fill="#FFBE0B"/>
<path d="M195.839 11.4828L234.871 -27.5495L273.903 11.4828L234.871 50.5151L195.839 11.4828Z" fill="#FB5607"/>
<path d="M234.871 -27.5495L254.387 -8.03337L215.355 30.9989L195.839 11.4828L234.871 -27.5495Z" fill="#FFBE0B"/>
<path d="M195.839 89.5474L234.871 50.5151L273.903 89.5474L234.871 128.58L195.839 89.5474Z" fill="#FF006E"/>
<path d="M234.871 50.515L273.903 11.4827L312.936 50.515L273.903 89.5473L234.871 50.515Z" fill="#3A86FF"/>
<path d="M234.871 128.58L273.903 89.5473L312.936 128.58L273.903 167.612L234.871 128.58Z" fill="#8338EC"/>
<path d="M273.903 167.612L234.871 128.58L312.936 128.58L273.903 167.612Z" fill="#FB5607"/>
<path d="M273.903 89.5474L312.936 50.5151L351.968 89.5473L312.936 128.58L273.903 89.5474Z" fill="#FB5607"/>
<path d="M273.903 89.5474L312.936 50.5151L312.936 128.58L273.903 89.5474Z" fill="#8338EC"/>
<path d="M273.903 167.612L312.936 128.58L351.968 167.612L312.936 206.644L273.903 167.612Z" fill="#8338EC"/>
<path d="M312.936 128.58L351.968 89.5473L391 128.58L351.968 167.612L312.936 128.58Z" fill="#FFBE0B"/>
<path d="M391 128.58L371.484 148.096L332.452 109.063L351.968 89.5473L391 128.58Z" fill="#8338EC"/>
<path d="M312.936 206.644L391 128.58L469.065 206.644L391 284.709L312.936 206.644Z" fill="#3A86FF"/>
<path d="M391 128.58L469.065 206.644L312.936 206.644L391 128.58Z" fill="#FF006E"/>
<path d="M234.871 -27.5496L312.936 -105.614L391 -27.5495L312.936 50.515L234.871 -27.5496Z" fill="#FB5607"/>
<path d="M312.936 -105.614L351.968 -66.5819L273.903 11.4827L234.871 -27.5496L312.936 -105.614Z" fill="#FFBE0B"/>
<path d="M312.936 50.515L391 -27.5496L469.065 50.515L391 128.58L312.936 50.515Z" fill="#FFBE0B"/>
<path d="M391 128.58C369.443 107.023 369.443 72.072 391 50.5151C412.557 28.9581 447.508 28.9581 469.065 50.5151L430.032 89.5474L391 128.58Z" fill="#FF006E"/>
<path d="M391 128.58L469.065 50.515L547.129 128.58L469.065 206.644L391 128.58Z" fill="#3A86FF"/>
<path d="M391 -27.5496L469.065 -105.614L547.129 -27.5496L469.065 50.515L391 -27.5496Z" fill="#FFBE0B"/>
<path d="M391 -27.5496L430.033 -66.5818L508.097 11.4827L469.065 50.515L391 -27.5496Z" fill="#FB5607"/>
<path d="M469.065 50.515L547.129 -27.5496L625.194 50.515L547.129 128.58L469.065 50.515Z" fill="#FB5607"/>
<path d="M547.129 -27.5496L625.194 -105.614L703.259 -27.5496L625.194 50.515L547.129 -27.5496Z" fill="#3A86FF"/>
<path d="M547.129 -27.5496C568.686 -49.1065 603.637 -49.1065 625.194 -27.5495C646.751 -5.9926 646.751 28.9581 625.194 50.515L586.162 11.4827L547.129 -27.5496Z" fill="#FFBE0B"/>
<path d="M78.7419 -27.5496L156.807 -105.614L234.871 -27.5496L156.807 50.515L78.7419 -27.5496Z" fill="#FF006E"/>
<path d="M234.871 -27.5496L156.807 50.515V-105.614L234.871 -27.5496Z" fill="#8338EC"/>
<path d="M156.806 50.515L195.839 11.4827L234.871 50.515L195.839 89.5473L156.806 50.515Z" fill="#8338EC"/>
<path d="M195.839 11.4828L234.871 -27.5495L273.903 11.4828L234.871 50.5151L195.839 11.4828Z" fill="#FB5607"/>
<path d="M273.903 11.4827L254.387 30.9988L215.355 -8.03345L234.871 -27.5496L273.903 11.4827Z" fill="#FFBE0B"/>
<path d="M195.839 89.5474L234.871 50.5151L273.903 89.5474L234.871 128.58L195.839 89.5474Z" fill="#FB5607"/>
<path d="M195.839 89.5474L215.355 70.0312L254.387 109.064L234.871 128.58L195.839 89.5474Z" fill="#8338EC"/>
<path d="M234.871 50.515L273.903 11.4827L312.936 50.515L273.903 89.5473L234.871 50.515Z" fill="#FB5607"/>
<path d="M273.903 11.4827L293.42 30.9989L254.387 70.0312L234.871 50.515L273.903 11.4827Z" fill="#8338EC"/>
<path d="M234.871 128.58L312.936 50.515L391 128.58L312.936 206.644L234.871 128.58Z" fill="#FB5607"/>
<path d="M312.936 206.644L351.968 167.612L391 206.644L351.968 245.676L312.936 206.644Z" fill="#8338EC"/>
<path d="M391 206.644L351.968 245.676L351.968 167.612L391 206.644Z" fill="#FF006E"/>
<path d="M351.968 167.612L391 128.58L430.032 167.612L391 206.644L351.968 167.612Z" fill="#8338EC"/>
<path d="M391 128.58L430.032 167.612L351.968 167.612L391 128.58Z" fill="#FB5607"/>
<path d="M351.968 245.677L391 206.644L430.032 245.677L391 284.709L351.968 245.677Z" fill="#8338EC"/>
<path d="M351.968 245.677L371.484 226.16L410.516 265.193L391 284.709L351.968 245.677Z" fill="#FFBE0B"/>
<path d="M391 206.644L430.033 167.612L469.065 206.644L430.033 245.676L391 206.644Z" fill="#FFBE0B"/>
<path d="M430.033 167.612L449.549 187.128L410.516 226.16L391 206.644L430.033 167.612Z" fill="#3A86FF"/>
<path d="M234.871 -27.5496L312.936 -105.614L391 -27.5495L312.936 50.515L234.871 -27.5496Z" fill="#8338EC"/>
<path d="M312.936 -105.614L391 -27.5495L234.871 -27.5496L312.936 -105.614Z" fill="#FB5607"/>
<path d="M312.936 50.515L391 -27.5496L469.065 50.515L391 128.58L312.936 50.515Z" fill="#FF006E"/>
<path d="M391 128.58C369.443 107.023 369.443 72.072 391 50.5151C412.557 28.9581 447.508 28.9581 469.065 50.5151L430.032 89.5474L391 128.58Z" fill="#FB5607"/>
<path d="M391 128.58L430.033 89.5473L469.065 128.58L430.033 167.612L391 128.58Z" fill="#FF006E"/>
<path d="M469.065 128.58L449.549 148.096L410.516 109.063L430.033 89.5473L469.065 128.58Z" fill="#8338EC"/>
<path d="M430.032 89.5474L469.065 50.5151L508.097 89.5473L469.065 128.58L430.032 89.5474Z" fill="#8338EC"/>
<path d="M430.032 167.612L469.065 128.58L508.097 167.612L469.065 206.644L430.032 167.612Z" fill="#FFBE0B"/>
<path d="M508.097 167.612L469.065 206.644L469.065 128.58L508.097 167.612Z" fill="#FF006E"/>
<path d="M469.065 128.58L508.097 89.5473L547.129 128.58L508.097 167.612L469.065 128.58Z" fill="#8338EC"/>
<path d="M508.097 167.612L469.065 128.58L547.129 128.58L508.097 167.612Z" fill="#3A86FF"/>
<path d="M391 -27.5496L469.065 -105.614L547.129 -27.5496L469.065 50.515L391 -27.5496Z" fill="#FFBE0B"/>
<path d="M391 -27.5496L430.033 -66.5818L508.097 11.4827L469.065 50.515L391 -27.5496Z" fill="#3A86FF"/>
<path d="M469.065 50.515L547.129 -27.5496L625.194 50.515L547.129 128.58L469.065 50.515Z" fill="#FFBE0B"/>
<path d="M547.129 -27.5496L625.194 50.515L469.065 50.515L547.129 -27.5496Z" fill="#FF006E"/>
<path d="M547.129 -27.5496L586.162 -66.5818L625.194 -27.5496L586.162 11.4827L547.129 -27.5496Z" fill="#3A86FF"/>
<path d="M547.129 -27.5496C557.908 -38.328 575.383 -38.328 586.162 -27.5495C596.94 -16.7711 596.94 0.704257 586.162 11.4827L566.646 -8.03343L547.129 -27.5496Z" fill="#FF006E"/>
<path d="M586.162 11.4828L625.194 -27.5495L664.226 11.4828L625.194 50.5151L586.162 11.4828Z" fill="#3A86FF"/>
<path d="M664.226 11.4827C653.448 22.2612 635.972 22.2612 625.194 11.4827C614.415 0.704234 614.415 -16.7711 625.194 -27.5496L644.71 -8.03345L664.226 11.4827Z" fill="#8338EC"/>
<path d="M625.194 -27.5496L664.226 -66.5819L703.258 -27.5496L664.226 11.4827L625.194 -27.5496Z" fill="#FF006E"/>
<path d="M78.7419 -27.5496L117.774 -66.5819L156.807 -27.5496L117.774 11.4827L78.7419 -27.5496Z" fill="#FB5607"/>
<path d="M117.774 11.4828L156.806 -27.5495L195.839 11.4828L156.806 50.5151L117.774 11.4828Z" fill="#FFBE0B"/>
<path d="M156.806 -27.5495L176.323 -8.03337L137.29 30.9989L117.774 11.4828L156.806 -27.5495Z" fill="#FF006E"/>
<path d="M156.806 -27.5496L195.839 -66.5819L234.871 -27.5496L195.839 11.4827L156.806 -27.5496Z" fill="#3A86FF"/>
<path d="M195.839 11.4827C185.06 0.704234 185.06 -16.7711 195.839 -27.5496C206.617 -38.3281 224.092 -38.3281 234.871 -27.5496L215.355 -8.03344L195.839 11.4827Z" fill="#8338EC"/>
<path d="M156.806 50.515L234.871 -27.5496L312.936 50.515L234.871 128.58L156.806 50.515Z" fill="#3A86FF"/>
<path d="M234.871 128.58L312.936 50.515L391 128.58L312.936 206.644L234.871 128.58Z" fill="#FB5607"/>
<path d="M312.936 206.644L351.968 167.612L391 206.644L351.968 245.676L312.936 206.644Z" fill="#3A86FF"/>
<path d="M391 206.644C380.222 217.423 362.746 217.423 351.968 206.644C341.189 195.866 341.189 178.39 351.968 167.612L371.484 187.128L391 206.644Z" fill="#8338EC"/>
<path d="M351.968 167.612L391 128.58L430.032 167.612L391 206.644L351.968 167.612Z" fill="#FB5607"/>
<path d="M351.968 167.612L391 128.58L391 206.644L351.968 167.612Z" fill="#3A86FF"/>
<path d="M351.968 245.677L391 206.644L430.032 245.677L391 284.709L351.968 245.677Z" fill="#3A86FF"/>
<path d="M391 284.709L351.968 245.677L430.032 245.677L391 284.709Z" fill="#8338EC"/>
<path d="M391 206.644L430.033 167.612L469.065 206.644L430.033 245.676L391 206.644Z" fill="#3A86FF"/>
<path d="M430.033 167.612L469.065 206.644L391 206.644L430.033 167.612Z" fill="#FF006E"/>
<path d="M234.871 -27.5496L273.903 -66.5819L312.936 -27.5496L273.903 11.4827L234.871 -27.5496Z" fill="#8338EC"/>
<path d="M312.936 -27.5496L273.903 11.4827L273.903 -66.5819L312.936 -27.5496Z" fill="#FFBE0B"/>
<path d="M273.903 11.4828L312.936 -27.5495L351.968 11.4828L312.936 50.5151L273.903 11.4828Z" fill="#FF006E"/>
<path d="M351.968 11.4827L332.452 30.9989L293.419 -8.03345L312.936 -27.5496L351.968 11.4827Z" fill="#FFBE0B"/>
<path d="M312.936 -27.5496L351.968 -66.5818L391 -27.5495L351.968 11.4827L312.936 -27.5496Z" fill="#FF006E"/>
<path d="M312.936 -27.5496L351.968 -66.5818L351.968 11.4827L312.936 -27.5496Z" fill="#FFBE0B"/>
<path d="M312.936 50.515L351.968 11.4827L391 50.515L351.968 89.5473L312.936 50.515Z" fill="#FF006E"/>
<path d="M351.968 11.4827L371.484 30.9988L332.452 70.0311L312.936 50.515L351.968 11.4827Z" fill="#FB5607"/>
<path d="M351.968 11.4828L391 -27.5495L430.033 11.4828L391 50.5151L351.968 11.4828Z" fill="#FF006E"/>
<path d="M351.968 89.5474L391 50.5151L430.032 89.5474L391 128.58L351.968 89.5474Z" fill="#8338EC"/>
<path d="M391 50.515L430.033 11.4827L469.065 50.515L430.033 89.5473L391 50.515Z" fill="#3A86FF"/>
<path d="M430.033 11.4827L449.549 30.9989L410.516 70.0312L391 50.515L430.033 11.4827Z" fill="#FFBE0B"/>
<path d="M391 128.58L430.033 89.5473L469.065 128.58L430.033 167.612L391 128.58Z" fill="#FFBE0B"/>
<path d="M430.033 89.5473L469.065 128.58L391 128.58L430.033 89.5473Z" fill="#FF006E"/>
<path d="M430.032 89.5474L469.065 50.5151L508.097 89.5473L469.065 128.58L430.032 89.5474Z" fill="#FF006E"/>
<path d="M469.065 128.58L430.032 89.5474L508.097 89.5473L469.065 128.58Z" fill="#8338EC"/>
<path d="M430.032 167.612L469.065 128.58L508.097 167.612L469.065 206.644L430.032 167.612Z" fill="#FF006E"/>
<path d="M508.097 167.612C497.319 178.39 479.843 178.39 469.065 167.612C458.286 156.834 458.286 139.358 469.065 128.58L488.581 148.096L508.097 167.612Z" fill="#FFBE0B"/>
<path d="M469.065 128.58L508.097 89.5473L547.129 128.58L508.097 167.612L469.065 128.58Z" fill="#FB5607"/>
<path d="M508.097 89.5473L547.129 128.58L469.065 128.58L508.097 89.5473Z" fill="#3A86FF"/>
<path d="M391 -27.5496L430.033 -66.5818L469.065 -27.5496L430.033 11.4827L391 -27.5496Z" fill="#8338EC"/>
<path d="M391 -27.5496L410.516 -47.0657L449.549 -8.03343L430.033 11.4827L391 -27.5496Z" fill="#FB5607"/>
<path d="M430.032 11.4828L469.065 -27.5495L508.097 11.4828L469.065 50.5151L430.032 11.4828Z" fill="#8338EC"/>
<path d="M469.065 50.5151C458.286 39.7366 458.286 22.2612 469.065 11.4828C479.843 0.704289 497.319 0.704294 508.097 11.4828L488.581 30.9989L469.065 50.5151Z" fill="#FF006E"/>
<path d="M469.065 -27.5496L508.097 -66.5819L547.129 -27.5496L508.097 11.4827L469.065 -27.5496Z" fill="#FFBE0B"/>
<path d="M508.097 -66.5819L547.129 -27.5496H469.065L508.097 -66.5819Z" fill="#8338EC"/>
<path d="M469.065 50.515L547.129 -27.5496L625.194 50.515L547.129 128.58L469.065 50.515Z" fill="#FB5607"/>
<path d="M547.129 -27.5496L586.162 -66.5818L625.194 -27.5496L586.162 11.4827L547.129 -27.5496Z" fill="#3A86FF"/>
<path d="M586.162 -66.5818L625.194 -27.5496H547.129L586.162 -66.5818Z" fill="#FF006E"/>
<path d="M586.162 11.4828L625.194 -27.5495L664.226 11.4828L625.194 50.5151L586.162 11.4828Z" fill="#FFBE0B"/>
<path d="M586.162 11.4828L605.678 -8.03333L644.71 30.999L625.194 50.5151L586.162 11.4828Z" fill="#FF006E"/>
<path d="M625.194 -27.5496L664.226 -66.5819L703.258 -27.5496L664.226 11.4827L625.194 -27.5496Z" fill="#3A86FF"/>
<path d="M78.7419 -27.5496L156.807 -105.614L234.871 -27.5496L156.807 50.515L78.7419 -27.5496Z" fill="#8338EC"/>
<path d="M156.806 50.5151L117.774 11.4828L195.839 -66.5818L234.871 -27.5495L156.806 50.5151Z" fill="#FB5607"/>
<path d="M156.806 50.515L195.839 11.4827L234.871 50.515L195.839 89.5473L156.806 50.515Z" fill="#FFBE0B"/>
<path d="M234.871 50.515L215.355 70.0312L176.323 30.9989L195.839 11.4828L234.871 50.515Z" fill="#FB5607"/>
<path d="M195.839 11.4828L234.871 -27.5495L273.903 11.4828L234.871 50.5151L195.839 11.4828Z" fill="#FF006E"/>
<path d="M234.871 -27.5495L273.903 11.4828L195.839 11.4828L234.871 -27.5495Z" fill="#8338EC"/>
<path d="M195.839 89.5474L234.871 50.5151L273.903 89.5474L234.871 128.58L195.839 89.5474Z" fill="#FF006E"/>
<path d="M273.903 89.5474L234.871 128.58L234.871 50.5151L273.903 89.5474Z" fill="#FFBE0B"/>
<path d="M234.871 50.515L273.903 11.4827L312.936 50.515L273.903 89.5473L234.871 50.515Z" fill="#FFBE0B"/>
<path d="M273.903 89.5474C263.125 78.7689 263.125 61.2936 273.903 50.5151C284.682 39.7366 302.157 39.7366 312.936 50.5151L293.42 70.0313L273.903 89.5474Z" fill="#FF006E"/>
<path d="M234.871 128.58L273.903 89.5473L312.936 128.58L273.903 167.612L234.871 128.58Z" fill="#8338EC"/>
<path d="M273.903 89.5473L293.42 109.063L254.387 148.096L234.871 128.58L273.903 89.5473Z" fill="#FF006E"/>
<path d="M273.903 89.5474L312.936 50.5151L351.968 89.5473L312.936 128.58L273.903 89.5474Z" fill="#FF006E"/>
<path d="M312.936 50.5151L332.452 70.0312L293.419 109.063L273.903 89.5474L312.936 50.5151Z" fill="#3A86FF"/>
<path d="M273.903 167.612L312.936 128.58L351.968 167.612L312.936 206.644L273.903 167.612Z" fill="#3A86FF"/>
<path d="M273.903 167.612L312.936 128.58L312.936 206.644L273.903 167.612Z" fill="#FF006E"/>
<path d="M312.936 128.58L351.968 89.5473L391 128.58L351.968 167.612L312.936 128.58Z" fill="#FB5607"/>
<path d="M351.968 89.5473C362.746 100.326 362.746 117.801 351.968 128.58C341.189 139.358 323.714 139.358 312.936 128.58L332.452 109.063L351.968 89.5473Z" fill="#3A86FF"/>
<path d="M312.936 206.644L351.968 167.612L391 206.644L351.968 245.676L312.936 206.644Z" fill="#FFBE0B"/>
<path d="M351.968 167.612L371.484 187.128L332.452 226.16L312.936 206.644L351.968 167.612Z" fill="#FB5607"/>
<path d="M351.968 167.612L391 128.58L430.032 167.612L391 206.644L351.968 167.612Z" fill="#FF006E"/>
<path d="M351.968 245.677L391 206.644L430.032 245.677L391 284.709L351.968 245.677Z" fill="#3A86FF"/>
<path d="M391 206.644L410.516 226.16L371.484 265.193L351.968 245.677L391 206.644Z" fill="#FFBE0B"/>
<path d="M391 206.644L430.033 167.612L469.065 206.644L430.033 245.676L391 206.644Z" fill="#3A86FF"/>
<path d="M391 206.644L410.516 187.128L449.549 226.16L430.033 245.676L391 206.644Z" fill="#8338EC"/>
<path d="M234.871 -27.5496L312.936 -105.614L391 -27.5495L312.936 50.515L234.871 -27.5496Z" fill="#FF006E"/>
<path d="M391 -27.5495L312.936 50.515L312.936 -105.614L391 -27.5495Z" fill="#FB5607"/>
<path d="M312.936 50.515L391 -27.5496L469.065 50.515L391 128.58L312.936 50.515Z" fill="#FFBE0B"/>
<path d="M391 128.58L351.968 89.5474L430.032 11.4828L469.065 50.5151L391 128.58Z" fill="#8338EC"/>
<path d="M391 128.58L469.065 50.515L547.129 128.58L469.065 206.644L391 128.58Z" fill="#8338EC"/>
<path d="M391 128.58C412.557 107.023 447.508 107.023 469.065 128.58C490.622 150.137 490.622 185.087 469.065 206.644L430.033 167.612L391 128.58Z" fill="#3A86FF"/>
<path d="M391 -27.5496L469.065 -105.614L547.129 -27.5496L469.065 50.515L391 -27.5496Z" fill="#3A86FF"/>
<path d="M547.129 -27.5495L508.097 11.4828L430.032 -66.5818L469.065 -105.614L547.129 -27.5495Z" fill="#FF006E"/>
<path d="M469.065 50.515L508.097 11.4827L547.129 50.515L508.097 89.5473L469.065 50.515Z" fill="#8338EC"/>
<path d="M508.097 89.5473L469.065 50.515L547.129 50.515L508.097 89.5473Z" fill="#FF006E"/>
<path d="M508.097 11.4828L547.129 -27.5495L586.162 11.4827L547.129 50.5151L508.097 11.4828Z" fill="#FF006E"/>
<path d="M586.162 11.4827C575.383 22.2611 557.908 22.2611 547.129 11.4827C536.351 0.704225 536.351 -16.7711 547.129 -27.5496L566.646 -8.03347L586.162 11.4827Z" fill="#FFBE0B"/>
<path d="M508.097 89.5474L547.129 50.5151L586.162 89.5474L547.129 128.58L508.097 89.5474Z" fill="#3A86FF"/>
<path d="M547.129 128.58L527.613 109.063L566.646 70.0312L586.162 89.5473L547.129 128.58Z" fill="#FFBE0B"/>
<path d="M547.129 50.515L586.162 11.4827L625.194 50.515L586.162 89.5473L547.129 50.515Z" fill="#FB5607"/>
<path d="M547.129 -27.5496L586.162 -66.5818L625.194 -27.5496L586.162 11.4827L547.129 -27.5496Z" fill="#8338EC"/>
<path d="M586.162 11.4828L625.194 -27.5495L664.226 11.4828L625.194 50.5151L586.162 11.4828Z" fill="#3A86FF"/>
<path d="M664.226 11.4828L625.194 50.5151L625.194 -27.5495L664.226 11.4828Z" fill="#8338EC"/>
<path d="M625.194 -27.5496L664.226 -66.5819L703.258 -27.5496L664.226 11.4827L625.194 -27.5496Z" fill="#FB5607"/>
<path d="M78.7419 -27.5496L156.807 -105.614L234.871 -27.5496L156.807 50.515L78.7419 -27.5496Z" fill="#FFBE0B"/>
<path d="M156.806 50.515L195.839 11.4827L234.871 50.515L195.839 89.5473L156.806 50.515Z" fill="#FB5607"/>
<path d="M195.839 11.4828L234.871 -27.5495L273.903 11.4828L234.871 50.5151L195.839 11.4828Z" fill="#FF006E"/>
<path d="M234.871 -27.5495L254.387 -8.03337L215.355 30.9989L195.839 11.4828L234.871 -27.5495Z" fill="#FB5607"/>
<path d="M195.839 89.5474L234.871 50.5151L273.903 89.5474L234.871 128.58L195.839 89.5474Z" fill="#FB5607"/>
<path d="M234.871 50.5151L273.903 89.5474L195.839 89.5474L234.871 50.5151Z" fill="#3A86FF"/>
<path d="M234.871 50.515L273.903 11.4827L312.936 50.515L273.903 89.5473L234.871 50.515Z" fill="#8338EC"/>
<path d="M273.903 11.4827L293.42 30.9989L254.387 70.0312L234.871 50.515L273.903 11.4827Z" fill="#FF006E"/>
<path d="M234.871 128.58L273.903 89.5473L312.936 128.58L273.903 167.612L234.871 128.58Z" fill="#3A86FF"/>
<path d="M273.903 89.5473C284.682 100.326 284.682 117.801 273.903 128.58C263.125 139.358 245.65 139.358 234.871 128.58L254.387 109.063L273.903 89.5473Z" fill="#FF006E"/>
<path d="M273.903 89.5474L312.936 50.5151L351.968 89.5473L312.936 128.58L273.903 89.5474Z" fill="#3A86FF"/>
<path d="M273.903 89.5474L293.419 70.0312L332.452 109.063L312.936 128.58L273.903 89.5474Z" fill="#FF006E"/>
<path d="M273.903 167.612L312.936 128.58L351.968 167.612L312.936 206.644L273.903 167.612Z" fill="#FFBE0B"/>
<path d="M351.968 167.612L312.936 206.644L312.936 128.58L351.968 167.612Z" fill="#FF006E"/>
<path d="M312.936 128.58L351.968 89.5473L391 128.58L351.968 167.612L312.936 128.58Z" fill="#FF006E"/>
<path d="M312.936 128.58L332.452 109.063L371.484 148.096L351.968 167.612L312.936 128.58Z" fill="#FFBE0B"/>
<path d="M312.936 206.644L351.968 167.612L391 206.644L351.968 245.676L312.936 206.644Z" fill="#3A86FF"/>
<path d="M351.968 245.676L312.936 206.644L391 206.644L351.968 245.676Z" fill="#FF006E"/>
<path d="M351.968 167.612L391 128.58L430.032 167.612L391 206.644L351.968 167.612Z" fill="#8338EC"/>
<path d="M391 206.644L371.484 187.128L410.516 148.096L430.033 167.612L391 206.644Z" fill="#3A86FF"/>
<path d="M351.968 245.677L391 206.644L430.032 245.677L391 284.709L351.968 245.677Z" fill="#8338EC"/>
<path d="M391 206.644L430.033 167.612L469.065 206.644L430.033 245.676L391 206.644Z" fill="#FFBE0B"/>
<path d="M234.871 -27.5496L273.903 -66.5819L312.936 -27.5496L273.903 11.4827L234.871 -27.5496Z" fill="#FF006E"/>
<path d="M273.903 11.4828L312.936 -27.5495L351.968 11.4828L312.936 50.5151L273.903 11.4828Z" fill="#FFBE0B"/>
<path d="M273.903 11.4828L312.936 -27.5495L312.936 50.5151L273.903 11.4828Z" fill="#8338EC"/>
<path d="M312.936 -27.5496L351.968 -66.5818L391 -27.5495L351.968 11.4827L312.936 -27.5496Z" fill="#FB5607"/>
<path d="M312.936 50.515L351.968 11.4827L391 50.515L351.968 89.5473L312.936 50.515Z" fill="#FFBE0B"/>
<path d="M351.968 11.4827L371.484 30.9988L332.452 70.0311L312.936 50.515L351.968 11.4827Z" fill="#FB5607"/>
<path d="M351.968 11.4828L391 -27.5495L430.033 11.4828L391 50.5151L351.968 11.4828Z" fill="#FF006E"/>
<path d="M351.968 89.5474L391 50.5151L430.032 89.5474L391 128.58L351.968 89.5474Z" fill="#FB5607"/>
<path d="M430.033 89.5473C419.254 100.326 401.779 100.326 391 89.5473C380.222 78.7688 380.222 61.2934 391 50.515L410.516 70.0311L430.033 89.5473Z" fill="#3A86FF"/>
<path d="M391 50.515L430.033 11.4827L469.065 50.515L430.033 89.5473L391 50.515Z" fill="#3A86FF"/>
<path d="M430.033 11.4827C440.811 22.2612 440.811 39.7366 430.033 50.515C419.254 61.2935 401.779 61.2935 391 50.515L410.516 30.9989L430.033 11.4827Z" fill="#FFBE0B"/>
<path d="M391 128.58L430.033 89.5473L469.065 128.58L430.033 167.612L391 128.58Z" fill="#FFBE0B"/>
<path d="M430.032 89.5474L469.065 50.5151L508.097 89.5473L469.065 128.58L430.032 89.5474Z" fill="#FB5607"/>
<path d="M430.032 89.5474L469.065 50.5151L469.065 128.58L430.032 89.5474Z" fill="#FFBE0B"/>
<path d="M430.032 167.612L469.065 128.58L508.097 167.612L469.065 206.644L430.032 167.612Z" fill="#FF006E"/>
<path d="M469.065 128.58L488.581 148.096L449.549 187.128L430.032 167.612L469.065 128.58Z" fill="#3A86FF"/>
<path d="M469.065 128.58L508.097 89.5473L547.129 128.58L508.097 167.612L469.065 128.58Z" fill="#8338EC"/>
<path d="M391 -27.5496L430.033 -66.5818L469.065 -27.5496L430.033 11.4827L391 -27.5496Z" fill="#3A86FF"/>
<path d="M391 -27.5496L430.033 -66.5818L430.033 11.4827L391 -27.5496Z" fill="#FB5607"/>
<path d="M430.032 11.4828L469.065 -27.5495L508.097 11.4828L469.065 50.5151L430.032 11.4828Z" fill="#FB5607"/>
<path d="M469.065 -27.5495L508.097 11.4828L430.032 11.4828L469.065 -27.5495Z" fill="#FFBE0B"/>
<path d="M469.065 -27.5496L508.097 -66.5819L547.129 -27.5496L508.097 11.4827L469.065 -27.5496Z" fill="#FB5607"/>
<path d="M469.065 50.515L547.129 -27.5496L625.194 50.515L547.129 128.58L469.065 50.515Z" fill="#3A86FF"/>
<path d="M547.129 128.58L469.065 50.515L625.194 50.515L547.129 128.58Z" fill="#FFBE0B"/>
<path d="M547.129 -27.5496L586.162 -66.5818L625.194 -27.5496L586.162 11.4827L547.129 -27.5496Z" fill="#FF006E"/>
<path d="M586.162 11.4828L625.194 -27.5495L664.226 11.4828L625.194 50.5151L586.162 11.4828Z" fill="#3A86FF"/>
<path d="M664.226 11.4827C653.448 22.2612 635.972 22.2612 625.194 11.4827C614.415 0.704234 614.415 -16.7711 625.194 -27.5496L644.71 -8.03345L664.226 11.4827Z" fill="#FFBE0B"/>
<path d="M625.194 -27.5496L664.226 -66.5819L703.258 -27.5496L664.226 11.4827L625.194 -27.5496Z" fill="#FFBE0B"/>
<path d="M78.7419 -27.5496L117.774 -66.5819L156.807 -27.5496L117.774 11.4827L78.7419 -27.5496Z" fill="#FFBE0B"/>
<path d="M117.774 11.4828L156.806 -27.5495L195.839 11.4828L156.806 50.5151L117.774 11.4828Z" fill="#8338EC"/>
<path d="M156.806 -27.5496L195.839 -66.5819L234.871 -27.5496L195.839 11.4827L156.806 -27.5496Z" fill="#8338EC"/>
<path d="M156.806 -27.5496L195.839 -66.5819L195.839 11.4827L156.806 -27.5496Z" fill="#3A86FF"/>
<path d="M156.806 50.515L195.839 11.4827L234.871 50.515L195.839 89.5473L156.806 50.515Z" fill="#FB5607"/>
<path d="M234.871 50.515L215.355 70.0312L176.323 30.9989L195.839 11.4828L234.871 50.515Z" fill="#8338EC"/>
<path d="M195.839 11.4828L234.871 -27.5495L273.903 11.4828L234.871 50.5151L195.839 11.4828Z" fill="#3A86FF"/>
<path d="M195.839 11.4828C206.617 0.704318 224.092 0.704315 234.871 11.4828C245.649 22.2613 245.649 39.7366 234.871 50.5151L215.355 30.9989L195.839 11.4828Z" fill="#FB5607"/>
<path d="M195.839 89.5474L234.871 50.5151L273.903 89.5474L234.871 128.58L195.839 89.5474Z" fill="#8338EC"/>
<path d="M234.871 50.5151L254.387 70.0312L215.355 109.064L195.839 89.5474L234.871 50.5151Z" fill="#FFBE0B"/>
<path d="M234.871 50.515L273.903 11.4827L312.936 50.515L273.903 89.5473L234.871 50.515Z" fill="#FF006E"/>
<path d="M273.903 89.5474C263.125 78.7689 263.125 61.2936 273.903 50.5151C284.682 39.7366 302.157 39.7366 312.936 50.5151L293.42 70.0313L273.903 89.5474Z" fill="#FB5607"/>
<path d="M234.871 128.58L312.936 50.515L391 128.58L312.936 206.644L234.871 128.58Z" fill="#8338EC"/>
<path d="M312.936 206.644L351.968 167.612L391 206.644L351.968 245.676L312.936 206.644Z" fill="#8338EC"/>
<path d="M391 206.644L371.484 226.16L332.452 187.128L351.968 167.612L391 206.644Z" fill="#3A86FF"/>
<path d="M351.968 167.612L391 128.58L430.032 167.612L391 206.644L351.968 167.612Z" fill="#8338EC"/>
<path d="M351.968 245.677L391 206.644L430.032 245.677L391 284.709L351.968 245.677Z" fill="#FFBE0B"/>
<path d="M391 206.644L430.033 167.612L469.065 206.644L430.033 245.676L391 206.644Z" fill="#8338EC"/>
<path d="M469.065 206.644L449.549 226.16L410.516 187.128L430.033 167.612L469.065 206.644Z" fill="#FB5607"/>
<path d="M234.871 -27.5496L312.936 -105.614L391 -27.5495L312.936 50.515L234.871 -27.5496Z" fill="#3A86FF"/>
<path d="M234.871 -27.5496C256.428 -49.1065 291.379 -49.1065 312.936 -27.5496C334.493 -5.99262 334.493 28.9581 312.936 50.515L273.903 11.4827L234.871 -27.5496Z" fill="#FB5607"/>
<path d="M312.936 50.515L391 -27.5496L469.065 50.515L391 128.58L312.936 50.515Z" fill="#FB5607"/>
<path d="M391 -27.5496L469.065 50.515L312.936 50.515L391 -27.5496Z" fill="#FFBE0B"/>
<path d="M391 128.58L430.033 89.5473L469.065 128.58L430.033 167.612L391 128.58Z" fill="#3A86FF"/>
<path d="M430.032 89.5474L469.065 50.5151L508.097 89.5473L469.065 128.58L430.032 89.5474Z" fill="#3A86FF"/>
<path d="M430.032 89.5474L469.065 50.5151L469.065 128.58L430.032 89.5474Z" fill="#FF006E"/>
<path d="M430.032 167.612L469.065 128.58L508.097 167.612L469.065 206.644L430.032 167.612Z" fill="#3A86FF"/>
<path d="M469.065 128.58L508.097 89.5473L547.129 128.58L508.097 167.612L469.065 128.58Z" fill="#FFBE0B"/>
<path d="M508.097 89.5473C518.875 100.326 518.875 117.801 508.097 128.58C497.319 139.358 479.843 139.358 469.065 128.58L488.581 109.063L508.097 89.5473Z" fill="#8338EC"/>
<path d="M391 -27.5496L469.065 -105.614L547.129 -27.5496L469.065 50.515L391 -27.5496Z" fill="#FB5607"/>
<path d="M469.065 50.515L547.129 -27.5496L625.194 50.515L547.129 128.58L469.065 50.515Z" fill="#8338EC"/>
<path d="M547.129 -27.5496L625.194 -105.614L703.259 -27.5496L625.194 50.515L547.129 -27.5496Z" fill="#8338EC"/>
<path d="M547.129 -27.5496C568.686 -49.1065 603.637 -49.1065 625.194 -27.5495C646.751 -5.9926 646.751 28.9581 625.194 50.515L586.162 11.4827L547.129 -27.5496Z" fill="#FFBE0B"/>
</g>
<path fill-rule="evenodd" clip-rule="evenodd" d="M556.447 35.3591L556.447 8.25233C534.211 8.25233 516.184 26.2473 516.184 48.4452C516.184 70.6431 534.211 88.6381 556.447 88.6381L556.447 61.5313C549.207 61.5313 543.338 55.6725 543.338 48.4452C543.338 41.2179 549.207 35.3591 556.447 35.3591Z" fill="#FFDA54"/>
<path d="M201.06 179.741L228.934 207.615V151.867L201.06 179.741Z" fill="#8338EC"/>
<path fill-rule="evenodd" clip-rule="evenodd" d="M264.791 213.075V202.327C255.973 202.327 248.825 209.462 248.825 218.264C248.825 227.066 255.973 234.201 264.791 234.201V223.453C261.92 223.453 259.593 221.13 259.593 218.264C259.593 215.398 261.92 213.075 264.791 213.075Z" fill="#54ADFF"/>
<path d="M176.312 93.3557L215.403 132.447L176.312 171.539L176.312 93.3557Z" fill="#FF006E"/>
<path d="M196.65 248.294L209.026 235.918L221.402 248.294L209.026 260.67L196.65 248.294Z" fill="#FFBE0B"/>
<path d="M606.188 132.873V93.4524L566.768 132.873H606.188Z" fill="#3A86FF"/>
<path d="M538.829 207.615L521.151 189.938V225.293L538.829 207.615Z" fill="#FFDA54"/>
<path d="M549.99 234.481H562.99V247.481H549.99V234.481Z" fill="#FF006E"/>
<path d="M542.499 167.483C553.277 156.705 570.752 156.705 581.531 167.483C592.309 178.261 592.309 195.737 581.531 206.515L562.015 186.999L542.499 167.483Z" fill="#FB5607"/>
<defs>
<clipPath id="clip0_402_196">
<rect width="552" height="552" fill="white" transform="translate(0.677246 -105.614) rotate(-45)"/>
</clipPath>
</defs>
</svg>
