<svg width="57" height="57" viewBox="0 0 57 57" fill="none" xmlns="http://www.w3.org/2000/svg">
<rect x="0.308838" y="0.216309" width="56" height="56" rx="28" fill="white"/>
<rect x="0.308838" y="0.216309" width="56" height="56" rx="28" fill="url(#paint0_linear_402_2642)"/>
<rect x="0.308838" y="0.216309" width="56" height="56" rx="28" fill="white" fill-opacity="0.98"/>
<rect x="0.308838" y="0.216309" width="56" height="56" rx="28" fill="black"/>
<path d="M17.0996 38.5099L17.1881 38.7564C17.177 38.7296 17.1438 38.6439 17.0996 38.5099ZM20.6872 32.8891C20.8475 31.5549 21.3892 30.8101 22.4063 30.0438C23.8657 29.0097 25.6843 29.5937 25.6843 29.5937V26.1162C26.1265 26.1055 26.5688 26.1323 27.0054 26.1966V30.6708C27.0054 30.6708 25.1868 30.0867 23.7275 31.1208C22.7103 31.8871 22.1686 32.6319 22.0083 33.9661C22.0028 34.6895 22.1354 35.6379 22.7546 36.4523C22.5998 36.372 22.445 36.2809 22.2847 36.1791C20.9304 35.2574 20.6816 33.8696 20.6872 32.8891ZM34.5288 19.6863C33.5283 18.5771 33.1468 17.4519 33.0087 16.6642H34.269C34.269 16.6642 34.0202 18.7325 35.8499 20.7633L35.8776 20.7901C35.3801 20.4793 34.9268 20.1042 34.5288 19.6863V19.6863ZM40.6039 22.8369V27.22C40.6039 27.22 38.9953 27.1557 37.8013 26.8503C36.1374 26.4216 35.0705 25.7626 35.0705 25.7626C35.0705 25.7626 34.3298 25.291 34.2745 25.2589V34.3144C34.2745 34.8181 34.1363 36.0773 33.7217 37.1275C33.18 38.4992 32.3398 39.4048 32.185 39.5869C32.185 39.5869 31.1624 40.8086 29.3658 41.6285C27.7462 42.3679 26.32 42.3518 25.8944 42.3679C25.8944 42.3679 23.4345 42.4643 21.2178 41.0122C20.7369 40.6908 20.2892 40.3264 19.8801 39.9245L19.8912 39.9352C22.1078 41.3927 24.5677 41.2909 24.5677 41.2909C24.9933 41.2748 26.4195 41.2909 28.0391 40.5514C29.8357 39.7316 30.8583 38.5099 30.8583 38.5099C31.0131 38.3277 31.8533 37.4222 32.3951 36.0505C32.8097 35.0002 32.9478 33.7411 32.9478 33.2374V24.1872C33.0087 24.2194 33.7439 24.6909 33.7439 24.6909C33.7439 24.6909 34.8107 25.35 36.4746 25.7786C37.6686 26.0841 39.2772 26.1484 39.2772 26.1484V22.7137C39.83 22.8369 40.2998 22.8691 40.6039 22.8369V22.8369Z" fill="#EE1D52"/>
<path d="M39.2771 22.7083V26.143C39.2771 26.143 37.6685 26.0787 36.4745 25.7733C34.8106 25.3446 33.7438 24.6855 33.7438 24.6855C33.7438 24.6855 33.003 24.214 32.9478 24.1819V33.2374C32.9478 33.741 32.8096 35.0002 32.395 36.0505C31.8532 37.4222 31.013 38.3277 30.8582 38.5099C30.8582 38.5099 29.8356 39.7316 28.0391 40.5514C26.4194 41.2909 24.9932 41.2748 24.5676 41.2909C24.5676 41.2909 22.1077 41.3873 19.8911 39.9352L19.88 39.9245C19.6478 39.6941 19.4267 39.453 19.2222 39.2011C18.5146 38.3277 18.0835 37.2989 17.9729 37.0042V36.9989C17.796 36.4898 17.4312 35.2574 17.4809 34.0733C17.5694 31.9782 18.2991 30.6868 18.4925 30.3653C19.0011 29.4866 19.67 28.6989 20.4549 28.0398C21.1514 27.4718 21.9419 27.0164 22.7876 26.7003C23.7053 26.3252 24.6892 26.1269 25.6842 26.1108V29.5884C25.6842 29.5884 23.8656 29.0043 22.4062 30.0385C21.3891 30.8047 20.8474 31.5495 20.6871 32.8837C20.6815 33.8643 20.9303 35.2521 22.2901 36.1791C22.4504 36.2809 22.6052 36.372 22.76 36.4523C22.9977 36.7631 23.2851 37.0364 23.6168 37.2614C24.949 38.1134 26.0601 38.1723 27.4863 37.6204C28.4371 37.2507 29.1501 36.4202 29.4818 35.4932C29.6919 34.9145 29.6863 34.3358 29.6863 33.7357V16.6642H33.003C33.1412 17.4519 33.5171 18.5771 34.5232 19.6863C34.9267 20.1042 35.38 20.4793 35.872 20.7901C36.0157 20.9455 36.7619 21.6956 37.7238 22.1618C38.2158 22.4029 38.7409 22.5851 39.2771 22.7083V22.7083Z" fill="white"/>
<path d="M16.6519 35.9434L16.7348 36.1738C16.7237 36.147 16.6906 36.0666 16.6519 35.9434Z" fill="#69C9D0"/>
<path d="M22.7877 26.7057C21.9364 27.0218 21.1515 27.4772 20.455 28.0452C19.6645 28.7043 19.0012 29.4973 18.4926 30.3761C18.2991 30.6976 17.5695 31.9836 17.481 34.084C17.4313 35.2736 17.8016 36.5006 17.973 37.0096V37.015C18.0835 37.3043 18.5147 38.3385 19.2223 39.2119C19.4268 39.4637 19.6479 39.7049 19.8801 39.9353C19.1283 39.4316 18.465 38.8261 17.8956 38.1349C17.1936 37.2722 16.7624 36.2488 16.6518 35.9487V35.938C16.4749 35.4289 16.1046 34.1965 16.1599 33.007C16.2483 30.9119 16.978 29.6206 17.1715 29.2991C17.68 28.4203 18.3433 27.6273 19.1338 26.9682C19.8303 26.4002 20.6208 25.9448 21.4666 25.6286C21.9972 25.4143 22.55 25.2589 23.1139 25.1571C23.9651 25.0124 24.833 25.0017 25.6898 25.1196V26.1162C24.6893 26.1323 23.7053 26.3306 22.7877 26.7057V26.7057Z" fill="#69C9D0"/>
<path d="M33.0087 16.6642H29.692V33.7357C29.692 34.3358 29.692 34.9145 29.4874 35.4932C29.1502 36.4148 28.4372 37.2507 27.4919 37.6204C26.0657 38.1777 24.9491 38.1134 23.6224 37.2614C23.2908 37.0417 23.0033 36.7685 22.7656 36.4577C23.8988 37.0417 24.9104 37.031 26.1652 36.5434C27.116 36.1737 27.8291 35.3378 28.1608 34.4162C28.3708 33.8375 28.3653 33.2588 28.3653 32.6587V15.5872H32.9479C32.9423 15.5872 32.8926 16.0105 33.0087 16.6642V16.6642ZM39.2772 21.7599V22.7083C38.741 22.5851 38.2159 22.4029 37.7239 22.1618C36.7676 21.701 36.0213 20.9454 35.8721 20.7901C36.0434 20.8972 36.2148 20.9937 36.3972 21.0848C37.5691 21.6474 38.7134 21.8188 39.2772 21.7599Z" fill="#69C9D0"/>
<defs>
<linearGradient id="paint0_linear_402_2642" x1="28.3088" y1="67.4402" x2="28.3088" y2="-29.6238" gradientUnits="userSpaceOnUse">
<stop stop-color="#F6F7F9"/>
<stop offset="0.261438" stop-color="#EEF3FB"/>
<stop offset="1" stop-color="#EBECEE" stop-opacity="0"/>
</linearGradient>
</defs>
</svg>
