<svg width="57" height="57" viewBox="0 0 57 57" fill="none" xmlns="http://www.w3.org/2000/svg">
<rect x="0.308838" y="0.216309" width="56" height="56" rx="28" fill="white"/>
<rect x="0.308838" y="0.216309" width="56" height="56" rx="28" fill="url(#paint0_linear_402_2638)"/>
<rect x="0.308838" y="0.216309" width="56" height="56" rx="28" fill="white" fill-opacity="0.98"/>
<rect x="0.308838" y="0.216309" width="56" height="56" rx="28" fill="url(#paint1_radial_402_2638)"/>
<path fill-rule="evenodd" clip-rule="evenodd" d="M17.3091 28.2163C17.3091 23.8222 17.3091 21.6252 18.3561 20.0428C18.8237 19.3361 19.4289 18.7309 20.1355 18.2634C21.718 17.2163 23.915 17.2163 28.3091 17.2163C32.7031 17.2163 34.9002 17.2163 36.4826 18.2634C37.1893 18.7309 37.7944 19.3361 38.262 20.0428C39.3091 21.6252 39.3091 23.8222 39.3091 28.2163C39.3091 32.6104 39.3091 34.8074 38.262 36.3899C37.7944 37.0965 37.1893 37.7017 36.4826 38.1692C34.9002 39.2163 32.7031 39.2163 28.3091 39.2163C23.915 39.2163 21.718 39.2163 20.1355 38.1692C19.4289 37.7017 18.8237 37.0965 18.3561 36.3899C17.3091 34.8074 17.3091 32.6104 17.3091 28.2163ZM34.0035 28.2167C34.0035 31.3619 31.4539 33.9116 28.3087 33.9116C25.1635 33.9116 22.6138 31.3619 22.6138 28.2167C22.6138 25.0716 25.1635 22.5219 28.3087 22.5219C31.4539 22.5219 34.0035 25.0716 34.0035 28.2167ZM28.3087 31.9848C30.3898 31.9848 32.0768 30.2978 32.0768 28.2167C32.0768 26.1357 30.3898 24.4486 28.3087 24.4486C26.2276 24.4486 24.5406 26.1357 24.5406 28.2167C24.5406 30.2978 26.2276 31.9848 28.3087 31.9848ZM34.2287 23.5737C34.9677 23.5737 35.5668 22.9746 35.5668 22.2356C35.5668 21.4965 34.9677 20.8974 34.2287 20.8974C33.4896 20.8974 32.8905 21.4965 32.8905 22.2356C32.8905 22.9746 33.4896 23.5737 34.2287 23.5737Z" fill="white"/>
<defs>
<linearGradient id="paint0_linear_402_2638" x1="28.3088" y1="67.4402" x2="28.3088" y2="-29.6238" gradientUnits="userSpaceOnUse">
<stop stop-color="#F6F7F9"/>
<stop offset="0.261438" stop-color="#EEF3FB"/>
<stop offset="1" stop-color="#EBECEE" stop-opacity="0"/>
</linearGradient>
<radialGradient id="paint1_radial_402_2638" cx="0" cy="0" r="1" gradientUnits="userSpaceOnUse" gradientTransform="translate(15.1839 60.5295) rotate(-90) scale(55.5001 51.6195)">
<stop stop-color="#FFDD55"/>
<stop offset="0.1" stop-color="#FFDD55"/>
<stop offset="0.5" stop-color="#FF543E"/>
<stop offset="1" stop-color="#C837AB"/>
</radialGradient>
</defs>
</svg>
