<svg width="49" height="48" viewBox="0 0 49 48" fill="none" xmlns="http://www.w3.org/2000/svg">
<g clip-path="url(#clip0_4033_19946)">
<path fill-rule="evenodd" clip-rule="evenodd" d="M24.5 0C37.755 0 48.5 10.7456 48.5 24C48.5 37.2544 37.7544 48 24.5 48C11.2456 48 0.5 37.255 0.5 24C0.5 10.745 11.2456 0 24.5 0Z" fill="#F5F7FF"/>
<path fill-rule="evenodd" clip-rule="evenodd" d="M36.653 34.6602C31.0652 36.6022 24.6976 36.1963 19.1728 33.0062C13.7643 29.8837 10.2627 24.7281 9.07434 19.0621C8.10205 14.4277 8.509 14.0822 11.3053 13.4497C12.9724 13.0726 14.5761 12.6604 16.2281 12.2173C17.0756 11.9902 17.955 12.4978 18.1821 13.3453L19.6044 18.6531C19.8314 19.5006 19.3306 20.4078 18.4763 20.6071C17.2061 20.9034 14.8404 20.8174 16.5233 23.3892C17.8328 25.3904 19.619 27.1231 21.8316 28.4007C24.0437 29.6776 26.4361 30.3578 28.8228 30.4921C31.8944 30.6646 30.5697 28.4531 30.2587 27.41C30.008 26.5688 30.5392 25.6831 31.3867 25.456L36.6945 24.0332C37.5425 23.8061 38.4214 24.3138 38.6485 25.1613L39.2296 27.3303L39.9328 29.9556C40.8773 33.4803 40.678 33.26 36.6525 34.6592" fill="#6E81BE"/>
</g>
<defs>
<clipPath id="clip0_4033_19946">
<rect width="48" height="48" fill="white" transform="translate(0.5)"/>
</clipPath>
</defs>
</svg>
