<svg width="49" height="48" viewBox="0 0 49 48" fill="none" xmlns="http://www.w3.org/2000/svg">
<g clip-path="url(#clip0_4033_19951)">
<path fill-rule="evenodd" clip-rule="evenodd" d="M24.5 0C37.755 0 48.5 10.745 48.5 24C48.5 37.255 37.7544 48 24.5 48C11.2456 48 0.5 37.255 0.5 24C0.5 10.745 11.2456 0 24.5 0Z" fill="#F5F7FF"/>
<path fill-rule="evenodd" clip-rule="evenodd" d="M10.2949 16.1092C10.2949 14.8553 11.3207 13.8301 12.5741 13.8301H36.4246C37.5501 13.8301 38.4909 14.6561 38.6723 15.7317L23.9568 24.1981L10.2949 16.1092ZM10.2949 31.8909V19.0083L23.9568 26.5973L38.6708 18.4236L38.7038 18.401V31.8909C38.7038 33.1443 37.678 34.1701 36.4246 34.1701H12.5741C11.3207 34.1701 10.2949 33.1443 10.2949 31.8909Z" fill="#6E81BE"/>
</g>
<defs>
<clipPath id="clip0_4033_19951">
<rect width="48" height="48" fill="white" transform="translate(0.5)"/>
</clipPath>
</defs>
</svg>
