<svg width="49" height="48" viewBox="0 0 49 48" fill="none" xmlns="http://www.w3.org/2000/svg">
<g clip-path="url(#clip0_4033_19956)">
<path fill-rule="evenodd" clip-rule="evenodd" d="M24.5 0C37.755 0 48.5 10.7456 48.5 24C48.5 37.2544 37.755 48 24.5 48C11.245 48 0.5 37.255 0.5 24C0.5 10.745 11.245 0 24.5 0Z" fill="#F5F7FF"/>
<path fill-rule="evenodd" clip-rule="evenodd" d="M24.4998 24.0781C21.7387 24.0781 19.5005 21.8398 19.5005 19.0787C19.5005 16.3176 21.7387 14.0793 24.4998 14.0793C27.261 14.0793 29.4992 16.3176 29.4992 19.0787C29.4992 21.8398 27.261 24.0781 24.4998 24.0781ZM17.5548 12.118C17.5852 12.0881 17.6151 12.0577 17.6455 12.0283L17.6587 12.0157C19.5068 10.2316 21.98 9.2593 24.4998 9.25195C27.0203 9.2593 29.4935 10.2321 31.3416 12.0157L31.3541 12.0283L31.4449 12.118C34.5123 15.188 35.2837 20.0699 33.0166 23.9958L24.4993 38.7474L15.9826 23.9958C13.716 20.0699 14.4874 15.188 17.5543 12.118H17.5548Z" fill="#6E81BE"/>
</g>
<defs>
<clipPath id="clip0_4033_19956">
<rect width="48" height="48" fill="white" transform="translate(0.5)"/>
</clipPath>
</defs>
</svg>
