<svg width="320" height="302" fill="none" xmlns="http://www.w3.org/2000/svg"><path d="M157.112 4.831c-2.221 5.443-2.332 5.554-8.33 5.665-3.61.056-4.888.444-4.888 1.444 0 .5 5.276 5.554 7.72 7.33.167.112-.333 2.611-1 5.499-1.555 6.442-1.166 7.33 2.055 4.72 1.222-.944 2.388-1.721 2.61-1.721.223 0 .223 2.666.056 5.942-.389 5.943-.5 6.276-9.608 32.1-4.998 14.329-9.274 26.213-9.385 26.324-.112.112-.667-.166-1.222-.666-.556-.555-1.222-.778-1.389-.555-.222.166-.388 16.827-.388 36.931v36.543h-8.053c-9.275 0-8.83-.278-8.497 5.831l.166 3.333 3.221.166 3.166.167v12.051l-1.666.389c-.889.222-2.444 1.111-3.388 1.999l-1.777 1.666-1.444-1.333c-1.999-1.888-3.554-2.61-5.553-2.61h-1.722v8.331c0 7.941-.056 8.33-1.111 8.33s-1.111-.389-1.111-8.386v-8.441l-2.554.333c-1.833.166-2.999.722-4.332 1.999l-1.833 1.777-1.777-1.666c-1.833-1.666-4.887-2.665-6.442-2.055-.666.223-.833 1.667-.833 8.386 0 7.664-.056 8.053-1.11 8.053-1.056 0-1.112-.389-1.112-8.33v-8.331h-1.666c-1.999 0-4.276 1.055-5.72 2.666-1.055 1.111-1.055 1.111-3.554-.777-2-1.556-2.944-1.889-4.554-1.778l-2 .167-.166 8.219c-.111 6.665-.278 8.164-.944 8.164-.667 0-.833-1.499-.944-8.164-.167-8.164-.167-8.219-1.5-8.386-2.055-.333-3.776.334-5.776 2.111l-1.888 1.666-1.055-1.166c-1.5-1.667-3.776-2.722-5.776-2.722h-1.666v8.331c0 7.941-.055 8.33-1.11 8.33-1 0-1.111-.444-1.222-8.164-.167-8.164-.167-8.219-1.5-8.386-2.055-.333-3.665.334-5.61 2.111l-1.832 1.721-1.444-1.333c-1.999-1.888-3.554-2.61-5.553-2.61h-1.722v8.331c0 7.941-.056 8.33-1.11 8.33-1.056 0-1.111-.389-1.111-8.386v-8.441l-2.555.333c-1.888.166-2.999.722-4.443 2.11-1.888 1.833-1.888 1.833-2.721.667-1.056-1.5-4.165-2.944-6.331-2.944H8.386v106.019l-4.054.167-3.999.166-.166 4.277L0 301.006h320l-.167-4.331-.166-4.277-3.999-.166-4.054-.167V186.046h-1.722c-2.165 0-5.276 1.444-6.331 2.944-.833 1.166-.833 1.166-2.721-.667-1.444-1.388-2.555-1.944-4.443-2.11l-2.555-.333v8.441c0 7.997-.055 8.386-1.11 8.386-1.055 0-1.111-.389-1.111-8.33v-8.331h-1.722c-1.999 0-3.554.722-5.553 2.61l-1.444 1.333-1.777-1.666c-1.833-1.666-4.888-2.665-6.443-2.055-.666.223-.833 1.667-.833 8.386 0 7.664-.055 8.053-1.11 8.053-1.056 0-1.111-.389-1.111-8.33v-8.331h-1.666c-1.999 0-4.276 1.055-5.776 2.722l-1.055 1.166-1.888-1.666c-2-1.777-3.721-2.444-5.776-2.111-1.333.167-1.333.222-1.5 8.386-.111 6.665-.277 8.164-.944 8.164-.666 0-.833-1.499-.944-8.164l-.166-8.219-2-.167c-1.61-.111-2.554.222-4.554 1.778-2.499 1.888-2.499 1.888-3.554.777-1.444-1.611-3.721-2.666-5.72-2.666h-1.666v8.331c0 7.941-.056 8.33-1.111 8.33s-1.111-.389-1.111-8.053c0-6.719-.166-8.163-.833-8.386-1.555-.61-4.609.389-6.442 2.055l-1.777 1.666-1.833-1.777c-1.333-1.277-2.499-1.833-4.332-1.999l-2.554-.333v8.441c0 7.997-.056 8.386-1.111 8.386s-1.111-.389-1.111-8.33v-8.331h-1.722c-1.999 0-3.554.722-5.553 2.61l-1.444 1.333-1.777-1.666c-.944-.888-2.499-1.832-3.444-1.999l-1.666-.389.167-5.887.167-5.942 3.054-.278 3.055-.277.166-3.333c.333-6.109.778-5.831-8.497-5.831h-8.053l-.111-36.82c-.166-36.599-.166-36.765-1.277-36.599-1.055.111-2.166-2.61-10.663-25.547l-9.552-25.713-.389-5.998c-.167-3.276-.167-5.942.056-5.942.222 0 1.388.777 2.61 1.721 3.221 2.61 3.61 1.722 2.055-4.72-.667-2.888-1.167-5.387-1-5.498 2.444-1.777 7.72-6.831 7.72-7.33 0-1-1.278-1.39-4.888-1.445-5.998-.11-6.109-.222-8.33-5.665C161.555 1.555 160.611 0 160 0c-.611 0-1.499 1.555-2.888 4.831zm4.776 3.444l1.5 3.776 4.498.444 4.499.39-3.333 2.998-3.387 3 .777 3.165c1 4.332 1 4.276-.888 2.943-1-.666-2.111-1.055-2.611-.889-.777.334-.833 1.222-.499 7.831l.388 7.498h-5.664l.388-7.498c.334-6.609.278-7.497-.499-7.83-.5-.167-1.611.222-2.611.888-1.888 1.333-1.888 1.389-.888-2.943l.777-3.166-3.387-2.999-3.333-2.999 4.499-.389 4.498-.444 1.5-3.776c.833-2.11 1.666-3.832 1.888-3.832.222 0 1.055 1.721 1.888 3.832zm11.163 59.479c8.386 22.492 9.552 25.935 8.83 26.657-.666.722-1.555.056-6.775-5.164-3.277-3.277-6.109-5.943-6.331-5.943-.222 0-2.222 2.5-4.388 5.554-2.221 3.054-4.22 5.553-4.387 5.553-.167 0-2.166-2.499-4.387-5.553-2.166-3.055-4.166-5.554-4.388-5.554-.222 0-3.054 2.777-6.331 6.22-4.72 5.054-5.998 6.11-6.275 5.332-.334-.778 10.052-31.378 17.049-50.316l1.111-2.944 3.332.167 3.332.167 9.608 25.824zm6.664 30.212c0 .333-1.055.666-2.332.777-1.999.167-2.388 0-2.388-.833 0-.555-1.389-2.499-3.055-4.332l-3.054-3.332-2.999 3.332c-1.722 1.833-3.055 3.777-3.11 4.332 0 .833-.444 1-2.888.833-2.388-.11-2.943-.388-3.221-1.333-.167-.61-1.444-2.499-2.944-4.165l-2.61-2.999-3.054 3.332c-1.666 1.833-3.055 3.777-3.055 4.277 0 .777-.5 1-2.166 1-1.222 0-2.332-.167-2.499-.445-.444-.722 10.719-12.107 11.163-11.385 3.61 5.22 7.831 10.663 8.386 10.663.389.056 2.61-2.555 4.998-5.776l4.276-5.776 5.276 5.61c2.888 3.11 5.276 5.886 5.276 6.22zm-26.601-2.055l1.61 2.11.167 11.941c.111 6.553 0 12.773-.167 13.717l-.333 1.833h-7.164V98.021l1.721-2.11c.944-1.11 1.889-2.055 2.166-2.055.222 0 1.166.944 2 2.055zm17.938 0l1.721 2.11v27.491h-7.775V98.188l1.722-2.166c.944-1.166 1.888-2.166 2.166-2.166.277 0 1.222.944 2.166 2.055zm-33.267 15.55v14.051h-2.776l.055-15.328.056-15.328 1.333 1.277 1.332 1.222v14.106zm47.151-.944l.055 14.995h-2.776v-13.995c0-12.218.111-14.107.944-14.995.499-.556 1.055-1 1.277-1 .222 0 .444 6.72.5 14.995zm-39.82 3.721l.167 13.218 5.72.166 5.665.167v-26.713h6.109l.111 13.162.167 13.218h11.662l.167-13.218.111-13.162h4.998v26.602l2.388.166 2.333.167v36.098l-4.277.167c-3.998.167-5.331-.333-3.776-1.277.278-.167 1.055-2.111 1.722-4.277 2.776-9.108-1.333-18.66-9.886-22.992-2.888-1.444-3.776-1.61-8.497-1.61-4.387 0-5.72.222-7.886 1.333-4.165 2.055-7.442 5.276-9.441 9.385-1.666 3.333-1.833 4.166-1.833 8.442.056 3.943.278 5.276 1.499 7.942l1.5 3.221-4.276-.167-4.277-.167v-36.098l2.388-.167 2.333-.166v-26.602h4.998l.111 13.162zm20.271 22.659c3.61 1.055 8.053 4.998 10.052 8.83 1.166 2.332 1.444 3.61 1.444 7.275.056 3.832-.167 4.887-1.555 7.609-2.61 5.165-6.553 8.163-12.385 9.33-7.33 1.555-15.439-2.777-18.715-9.941-1.666-3.666-1.611-9.886.166-13.829 1.666-3.776 6.387-8.164 9.941-9.219 3.444-1.055 7.609-1.055 11.052-.055zm-17.772 31.044c.833.722 2.555 1.833 3.777 2.444l2.221 1.166-17.327.056h-17.383v-4.998h13.551c13.44 0 13.606 0 15.161 1.332zm53.482 1.167v2.499H183.77l-17.383-.056 2.221-1.166c1.222-.611 2.944-1.722 3.777-2.444 1.555-1.332 1.721-1.332 15.161-1.332h13.551v2.499zm-6.665 63.866v59.147h-6.108v-13.496c0-9.996-.223-14.328-.834-16.994-2.998-12.607-14.495-21.715-27.49-21.715s-24.491 9.108-27.49 21.715c-.611 2.666-.834 6.998-.834 16.994v13.496h-6.108V173.828h68.864v59.146zM12.496 188.823c1.666.611 3.665 3.61 3.665 5.387 0 .889.333 1.277 1.11 1.277.723 0 1.111-.388 1.111-1.11 0-1.889 1.555-4.388 3.333-5.276.888-.445 1.721-.833 1.944-.833.166 0 .277 3.221.277 7.219v7.22H10.607v-7.22c0-3.998.112-7.219.223-7.219.166 0 .888.222 1.666.555zm20.27.278c1.555.777 3.388 3.776 3.388 5.553 0 1.778 1.888.611 2.277-1.388.444-1.999 3.221-4.998 4.665-4.998.722 0 .833 1.222.833 7.219v7.22H30.6v-7.22c0-3.998.112-7.219.278-7.219.222 0 1.055.388 1.888.833zm20.549.611c1 .833 1.944 2.332 2.277 3.61.777 2.832 2.277 2.776 2.832-.056.444-2.055 3.443-5.22 4.554-4.832.444.111.722 2.499.833 7.22l.167 7.053H50.593v-7.22c0-4.054.223-7.219.5-7.219.278 0 1.278.666 2.222 1.444zm20.104.111c.944.833 1.888 2.332 2.11 3.443.39 1.999 2.277 3.166 2.277 1.388 0-2.499 3.221-6.386 5.276-6.386.167 0 .278 3.221.278 7.219v7.22H70.03v-7.22c0-8.052.222-8.497 3.388-5.664zm18.493-1c1.667.611 3.666 3.61 3.666 5.387 0 .889.333 1.277 1.11 1.277.723 0 1.111-.388 1.111-1.11 0-2.444 2.999-6.109 4.999-6.109.333 0 .555 2.61.555 7.219v7.22H90.024v-7.22c0-3.998.111-7.219.222-7.219.167 0 .889.222 1.666.555zm20.716.555c1.388.833 1.999 1.778 2.499 3.61.888 3.277 2.388 3.444 2.888.334.222-1.5.888-2.611 2.054-3.61 3.055-2.611 3.277-2.277 3.277 5.775v7.22h-13.329v-7.22c0-3.998.167-7.219.445-7.219.222 0 1.221.5 2.166 1.11zm87.303.334c1.166.999 1.832 2.11 2.054 3.61.5 3.11 2 2.943 2.888-.334.5-1.832 1.111-2.777 2.499-3.61.945-.61 1.944-1.11 2.222-1.11.222 0 .389 3.221.389 7.219v7.22h-13.329v-7.22c0-8.052.222-8.386 3.277-5.775zm19.271-.556c1.555 1.055 2.999 3.499 2.999 5.221 0 .722.388 1.11 1.11 1.11.722 0 1.111-.388 1.111-1.11 0-1.611 1.444-4.221 2.888-5.221 2.499-1.777 2.666-1.388 2.666 6.331v7.22h-13.329v-7.22c0-4.609.222-7.219.555-7.219.334 0 1.222.388 2 .888zm20.437.833c1.222 1.056 2.11 2.388 2.333 3.61.444 2.555 1.999 2.333 2.499-.333.444-1.999 3.221-4.998 4.665-4.998.722 0 .833 1.222.833 7.219v7.22H236.64v-7.22c0-4.276.222-7.219.555-7.219.278 0 1.389.777 2.444 1.721zm19.715-.277c1 .777 1.944 2.332 2.277 3.61.334 1.221.945 2.165 1.389 2.165.444 0 1.055-.944 1.388-2.165.556-2 3.221-5.054 4.499-5.054.277 0 .499 3.165.499 7.219v7.22h-13.328v-6.831c0-8.386.222-8.775 3.276-6.164zm19.383-.556c1.444 1 2.887 3.61 2.887 5.221 0 .722.389 1.11 1 1.11.722 0 1.166-.722 1.666-2.499.5-1.832 1.111-2.777 2.499-3.61.944-.61 1.944-1.11 2.222-1.11.222 0 .389 3.221.389 7.219v7.22h-13.329v-7.22c0-7.719.166-8.108 2.666-6.331zm19.548-.055c1.777.888 3.332 3.387 3.332 5.276 0 .722.389 1.11 1.111 1.11.778 0 1.111-.388 1.111-1.277 0-2.443 3.11-5.942 5.331-5.942.111 0 .223 3.221.223 7.219v7.22h-13.329v-7.22c0-3.998.111-7.219.278-7.219.222 0 1.055.388 1.943.833zm-175.05 59.535l.111 43.485H10.607v-87.192l56.259.111 56.202.166.167 43.43zm186.158-.111v43.596H196.654v-43.208c0-23.769.167-43.429.389-43.596.166-.222 25.546-.388 56.369-.388h55.981v43.596zm-138.064-3.721c7.498 3.721 12.718 10.496 14.218 18.382.277 1.666.555 8.83.555 15.939v12.996h-2.666l-.222-14.329c-.222-12.051-.389-14.717-1.277-17.049-1.555-4.388-4.665-8.553-8.164-11.163-4.443-3.221-7.997-4.388-13.773-4.388s-9.33 1.167-13.773 4.388c-3.499 2.61-6.609 6.775-8.164 11.163-.888 2.332-1.055 4.998-1.277 17.049l-.222 14.329h-2.666v-12.996c0-7.109.278-14.273.555-15.939 1.777-9.441 9.386-17.605 18.883-20.326 1.555-.444 4.609-.667 7.941-.5 5.054.167 5.721.333 10.052 2.444zm-5.72 3.221c6.22 1.832 10.552 5.609 13.495 11.885l1.722 3.609.167 14.273.222 14.329h-42.43l.222-14.329.167-14.273 1.722-3.609c2.054-4.332 3.943-6.665 7.33-8.997 5.11-3.499 11.552-4.61 17.383-2.888zm152.114 48.538v2.222H2.277v-4.443h315.446v2.221z" fill="#000"/><path d="M158.889 141.062c0 1.833.166 2.222 1.11 2.222.945 0 1.111-.389 1.111-2.222 0-1.832-.166-2.221-1.111-2.221-.944 0-1.11.389-1.11 2.221zm6.442.834c-.944 1.777-.833 3.054.223 3.054.555 0 2.221-2.888 2.221-3.776 0-1.444-1.555-.944-2.444.722zm-13.106-.778c0 .889 1.832 3.832 2.332 3.832 1 0 1.055-1.61.167-2.999-.944-1.444-2.499-1.944-2.499-.833z" fill="#000"/><path d="M158.889 146.894c0 1.777-.333 2.832-1.111 3.61-2.388 2.388-.722 6.109 2.777 6.109 1 0 2.277.888 4.165 2.777 1.5 1.499 3.055 2.777 3.443 2.777 1.722 0 1.167-1.5-1.721-4.388-2.222-2.277-3.11-3.554-3.11-4.665 0-.833-.5-1.999-1.111-2.61-.777-.778-1.111-1.833-1.111-3.61 0-2.11-.166-2.499-1.11-2.499-.944 0-1.111.389-1.111 2.499zm2.055 5.609c.444 1.166-.722 2.333-1.555 1.5-.722-.722-.278-2.388.611-2.388.333 0 .722.388.944.888z" fill="#6E81BE"/><path d="M147.56 145.339c-.722.722-.278 1.61 1.389 2.61 1.721 1 3.276.555 2.443-.722-.5-.889-3.388-2.277-3.832-1.888zm22.548.833c-1.833 1.166-2.166 1.777-1.222 2.388.722.444 3.887-1.444 3.887-2.333 0-1.166-.833-1.222-2.665-.055zm-24.547 6.831c0 .777.499.944 2.499.944 1.666 0 1.943-.111 1.943-.944 0-.611-.61-.833-2.221-.833-1.611 0-2.221.222-2.221.833zm24.435 0c0 .833.278.944 1.944.944 1.999 0 2.499-.167 2.499-.944 0-.611-.611-.833-2.221-.833-1.611 0-2.222.222-2.222.833zm-20.993 5.276c-1.777 1.11-2.221 1.888-1.277 2.443.666.445 3.943-1.444 3.943-2.277 0-1.166-.889-1.221-2.666-.166zm19.661-.722c-.722.722-.278 1.61 1.444 2.554 1.722 1 3.221.611 2.388-.666-.5-.889-3.388-2.277-3.832-1.888zm-15.605 5.498c-.889 1.388-.833 2.999.166 2.999.5 0 2.333-2.944 2.333-3.832 0-1.111-1.555-.611-2.499.833zm11.382-.833c0 .888 1.833 3.832 2.333 3.832 1 0 1.055-1.611.167-2.999-.945-1.444-2.5-1.944-2.5-.833zm-5.439 3.11c.111 1.444.444 2.11.999 2.11.556 0 .889-.666 1-2.11.167-1.777 0-2.055-1-2.055-.999 0-1.166.278-.999 2.055z" fill="#000"/><path d="M139.45 186.046c-1.5 1.5-1.722 2.833-1.555 8.331l.166 4.72 4.61.167 4.665.167-.222-6.165c-.167-5.72-.278-6.275-1.5-7.275-1.721-1.389-4.72-1.389-6.164.055zm4.887 1.778c.389.388.666 2.388.666 4.998v4.332h-4.998v-3.943c0-2.166.278-4.388.555-4.999.667-1.166 2.777-1.388 3.777-.388zm6.777-1.778c-1.5 1.5-1.722 2.833-1.555 8.331l.166 4.72 4.61.167 4.665.167-.222-6.165c-.167-5.72-.278-6.275-1.5-7.275-1.721-1.389-4.72-1.389-6.164.055zm4.887 1.778c.389.388.666 2.388.666 4.998v4.332h-4.998v-3.943c0-2.166.278-4.388.555-4.999.667-1.166 2.777-1.388 3.777-.388zm6.721-1.833c-1.278 1-1.333 1.444-1.333 7.109v5.998h8.885l.167-4.721c.111-2.61 0-5.276-.167-5.998-.833-3.221-4.887-4.554-7.552-2.388zm5.053 2.222c.278.61.556 2.832.556 4.998v3.943h-4.999v-3.943c0-4.554.611-6.054 2.5-6.054.777 0 1.61.445 1.943 1.056zm6.607-2.222c-1.222 1-1.333 1.555-1.5 7.275l-.222 6.165 4.665-.167 4.61-.167.166-4.72c.111-2.61 0-5.276-.166-5.998-.833-3.221-4.887-4.554-7.553-2.388zm5.054 2.221c.277.611.555 2.833.555 4.999v3.943h-4.998v-4.332c0-2.61.277-4.61.666-4.998 1-1 3.11-.778 3.777.388zm-46.037 25.936c-1 1.277-1.167 2.277-1.167 7.219v5.776h8.886v-5.998c0-5.553-.111-6.109-1.277-7.22-1.888-1.777-4.943-1.666-6.442.223zm5.387 5.886l.166 4.888h-4.498v-4.61c0-2.555.166-4.832.389-5.054.222-.222 1.166-.333 2.11-.222l1.666.167.167 4.831zm6.219-6.109c-.999 1.056-1.11 1.944-1.11 7.22v5.998h8.885v-5.998c0-7.108-.666-8.441-4.443-8.441-1.499 0-2.499.388-3.332 1.221zm5.443 6.109l.166 4.888h-4.498v-4.61c0-2.555.167-4.832.389-5.054.222-.222 1.166-.333 2.11-.222l1.666.167.167 4.831zm6.332-6.053c-1.11 1.166-1.221 1.888-1.221 7.22v5.942h8.885v-6.109c0-5.387-.111-6.22-1.11-7.22-1.611-1.61-4.999-1.499-6.554.167zm5.332 6.053l.166 4.888h-4.498v-4.61c0-2.555.167-4.832.389-5.054.222-.222 1.166-.333 2.11-.222l1.666.167.167 4.831zm6.219-6.22c-.999 1-1.11 1.833-1.11 7.22v6.109h8.886v-5.998c0-5.553-.112-6.109-1.278-7.22-1.666-1.61-4.943-1.666-6.498-.111zm5.443 6.22l.167 4.888h-4.777l.167-4.332c.222-5.609.278-5.776 2.444-5.554l1.832.167.167 4.831zm6.22-6.109c-1 1.056-1.111 1.944-1.111 7.22v5.998h8.886v-5.998c0-5.553-.111-6.109-1.278-7.22-1.721-1.666-4.942-1.666-6.497 0zm5.442 6.109l.167 4.888h-4.499v-4.61c0-2.555.167-4.832.389-5.054.222-.222 1.166-.333 2.11-.222l1.666.167.167 4.831zm-165.998-.666l-1.666 1.611.166 6.275.167 6.276 4.887.167 4.831.166v-6.442c0-6.387 0-6.498-1.61-8.108-2.222-2.166-4.554-2.166-6.775.055zm5.276 1.444c.666.667.888 2.055.888 5.832v4.942H20.05v-4.831c0-3.666.222-5.054.944-5.832 1.11-1.221 2.554-1.277 3.72-.111zm24.158-1.499c-1.61 1.611-1.61 1.722-1.61 8.053v6.442h9.996v-6.442c0-6.331 0-6.442-1.61-8.053-1.111-1.111-2.166-1.61-3.388-1.61s-2.277.499-3.388 1.61zm5.276 1.5c.667.666.889 2.054.889 5.831v4.943h-5.554v-4.943c0-5.276.611-6.72 2.777-6.72.555 0 1.444.389 1.888.889zm24.158-1.5c-1.61 1.611-1.61 1.722-1.61 8.053v6.442h9.996v-6.442c0-6.331 0-6.442-1.61-8.053-1.111-1.111-2.167-1.61-3.388-1.61-1.222 0-2.277.499-3.388 1.61zm5.276 1.5c.666.666.888 2.054.888 5.831v4.943h-5.553v-4.943c0-3.777.222-5.165.888-5.831 1.111-1.111 2.666-1.111 3.777 0zm24.269-1.667l-1.722 1.444v13.273l4.887-.166 4.832-.167v-6.553c0-6.553 0-6.609-1.555-7.942-2.055-1.722-4.332-1.722-6.442.111zm5.053 1.722c.833.722 1 1.777 1 5.831v4.887h-5.554v-5.165c0-3.276.223-5.387.667-5.831.944-.944 2.666-.833 3.887.278zm92.801-1.833c-1.555 1.333-1.555 1.389-1.555 7.942v6.553l4.888.167 4.831.166V220.59l-1.721-1.444c-2.111-1.833-4.388-1.833-6.443-.111zm4.888 1.444c.944.5 1.055 1.222 1.055 5.831v5.276h-5.554v-4.831c0-6.165 1.277-7.942 4.499-6.276zm24.324-1.166c-1.61 1.611-1.61 1.722-1.61 8.053v6.442h9.996v-6.442c0-6.331 0-6.442-1.61-8.053-1.111-1.111-2.166-1.61-3.388-1.61s-2.277.499-3.388 1.61zm5.276 1.5c.667.666.889 2.054.889 5.831v4.943h-5.554v-4.943c0-3.777.222-5.165.889-5.831 1.11-1.111 2.665-1.111 3.776 0zm24.16-1.5c-1.611 1.611-1.611 1.722-1.611 8.053v6.442h9.997v-6.442c0-6.331 0-6.442-1.611-8.053-1.111-1.111-2.166-1.61-3.388-1.61-1.221 0-2.277.499-3.387 1.61zm5.276 1.5c.666.666.888 2.054.888 5.831v4.943h-5.553v-4.943c0-5.276.611-6.72 2.776-6.72.556 0 1.444.389 1.889.889zm24.157-1.5c-1.61 1.61-1.61 1.721-1.61 8.108v6.442l4.887-.166 4.832-.167.166-6.276.167-6.275-1.666-1.611c-2.222-2.221-4.554-2.221-6.776-.055zm5.165 1.555c.833.722 1 1.777 1 5.831v4.887h-5.554v-4.942c0-3.777.222-5.165.889-5.832 1.111-1.166 2.388-1.11 3.665.056z" fill="#6E81BE"/></svg>