<svg width="228" height="248" fill="none" xmlns="http://www.w3.org/2000/svg"><path d="M98.081 55.703a4.108 4.108 0 100-8.215 4.108 4.108 0 000 8.215z" fill="#6E81BE"/><path d="M46.083 53.599a8.015 8.015 0 100-16.03 8.015 8.015 0 000 16.03z" fill="#6E81BE" stroke="#6E81BE" stroke-width="3" stroke-linecap="round" stroke-linejoin="round"/><path d="M46.636 80.438v5.67m0 17.009v5.67m-14.17-14.175h5.667m16.997 0h5.67m109.52 3.071v48.904m-37.717-48.904h45.439l-27.765-52.099-24.419 45.823m24.424-45.823V1.5m-12.025 12.023h24.046m15.744 148.281h32.642a68.73 68.73 0 003.715-22.899c0-22.767-22.042-41.222-22.042-41.222s-22.042 18.455-22.042 41.222c-.005 4.1.326 8.193.99 12.239m6.744 10.66h32.349v30.803" stroke="#000" stroke-width="3" stroke-linecap="round" stroke-linejoin="round"/><path d="M98.809 145.774h38.389a52.404 52.404 0 005.069-22.899c0-22.768-30.057-41.223-30.057-41.223s-24.274 14.905-29.195 34.446m51.238 31.283v45.226m92.173 53.357H2m164.307-104.198l-27.765 52.099h55.529l-27.764-52.099zM34.06 129.744l-16.03 52.099h32.06l-16.03-52.099z" stroke="#000" stroke-width="3" stroke-linecap="round" stroke-linejoin="round"/><path d="M95.145 177.835a82.67 82.67 0 003.041-22.9c0-22.787-18.034-41.222-18.034-41.222s-18.034 18.435-18.034 41.222a82.667 82.667 0 003.042 22.9h29.985zm123.266 66.983v-50.953H94.175v-16.03H66.123v16.03H10.016v50.632" stroke="#000" stroke-width="3" stroke-linecap="round" stroke-linejoin="round"/><path d="M86.161 244.818v-6.869a28.055 28.055 0 00-56.106 0v6.869m16.028-52.211v-9.045m-24.045 0v9.045m84.161 21.297v32.06m16.029-32.06v32.06m16.029-32.06v32.06m16.035-32.06v32.06m16.028-32.06v32.06m16.03-32.06v32.06m16.032-32.06v32.06" stroke="#000" stroke-width="3" stroke-linecap="round" stroke-linejoin="round"/></svg>