<svg width="32" height="33" fill="none" xmlns="http://www.w3.org/2000/svg"><path d="M16 3.775c-6.805 0-12.342 5.537-12.342 12.342v5.113c0 1.264 1.107 2.292 2.469 2.292H7.36a1.234 1.234 0 001.234-1.234v-6.347a1.234 1.234 0 00-1.234-1.235H6.24C6.925 9.93 11.035 6.245 16 6.245s9.074 3.686 9.76 8.463h-1.12a1.234 1.234 0 00-1.235 1.234v7.581a2.47 2.47 0 01-2.468 2.469h-2.469v-1.235h-4.936v3.703h7.405a4.942 4.942 0 004.936-4.937c1.362 0 2.469-1.028 2.469-2.292v-5.113c0-6.805-5.537-12.342-12.342-12.342z" fill="#fff"/></svg>