<svg width="86" height="85" fill="none" xmlns="http://www.w3.org/2000/svg"><g clip-path="url(#clip0_168_120)"><path d="M74.134 59.384a.803.803 0 01-.562-1.38 32.901 32.901 0 10-55.917-23.497 32.58 32.58 0 006.901 20.159.803.803 0 01-1.268.979 34.122 34.122 0 01-7.238-21.138 34.507 34.507 0 1158.646 24.669.866.866 0 01-.562.208zM59.497 68.05a.803.803 0 01-.787-.641.787.787 0 01.61-.947 65.215 65.215 0 0012.262-4.093c3.756-1.605 6.228-2.648 7.88-1.01a4.012 4.012 0 01-.208 5.536.807.807 0 01-1.204-1.075c.177-.193 1.605-1.958.29-3.322-.851-.835-2.697-.113-6.132 1.348a65.512 65.512 0 01-12.55 4.189l-.161.016z" fill="#1B3249"/><path d="M41.104 85.064a85.982 85.982 0 01-25.31-3.788.803.803 0 01-.53-.77V58.229a.818.818 0 01.786-.803c14.316-.369 19.019 2.648 23.176 5.329 3.707 2.391 6.629 4.285 16.05 2.857 3.53-.546 5.184 1.525 5.505 3.45a5.216 5.216 0 01-.514 3.21 77.036 77.036 0 0016.371-5.874c3.58-1.605 5.553-2.616 6.998-1.412a3.386 3.386 0 011.428 2.808c-.112 2.231-2.6 3.949-2.873 4.141-13.401 10.304-28.617 13.13-41.087 13.13zm-24.236-5.136c4.623 1.445 38.103 10.914 64.376-9.293.61-.433 2.215-1.717 2.215-2.92a1.846 1.846 0 00-.802-1.493c-.674-.546-2.616.353-5.297 1.605a77.342 77.342 0 01-20.014 6.692.816.816 0 01-.289-1.605 3.21 3.21 0 002.2-3.643c-.29-1.605-1.606-2.44-3.692-2.118-10.048 1.508-13.354-.626-17.19-3.098-3.836-2.472-8.297-5.345-21.49-5.088l-.017 20.961z" fill="#1B3249"/><path d="M47.588 75.434a33.56 33.56 0 01-10.304-1.412.844.844 0 01-.13-1.552.841.841 0 01.643-.053c6.148 2.054 14.99 1.284 19.26.514a.815.815 0 11.29 1.605 56.75 56.75 0 01-9.76.898zm-33.143 7.271H2.407A2.407 2.407 0 010 80.249V58.486a2.407 2.407 0 012.407-2.408h12.038a2.407 2.407 0 012.407 2.408v21.763a2.408 2.408 0 01-2.407 2.456zM2.407 57.683a.803.803 0 00-.802.803v21.763a.802.802 0 00.802.803h12.038a.802.802 0 00.802-.803V58.486a.802.802 0 00-.802-.803H2.407z" fill="#1B3249"/><path d="M10.031 77.473a1.605 1.605 0 100-3.21 1.605 1.605 0 000 3.21z" fill="#1B3249"/><path d="M61.792 54.57a8.827 8.827 0 118.827-8.828 8.843 8.843 0 01-8.827 8.828zm0-16.05a7.223 7.223 0 107.222 7.222 7.238 7.238 0 00-7.222-7.222zm-22.47-6.42a8.827 8.827 0 118.828-8.828 8.843 8.843 0 01-8.828 8.827zm0-16.05a7.222 7.222 0 107.223 7.222 7.238 7.238 0 00-7.223-7.223zm-6.42 36.914a.755.755 0 01-.562-.24.77.77 0 010-1.124l35.31-35.31a.794.794 0 011.124 1.124l-35.31 35.31a.756.756 0 01-.562.24z" fill="#6E81BE"/></g><defs><clipPath id="clip0_168_120"><path fill="#fff" d="M0 0h85.064v85H0z"/></clipPath></defs></svg>