<svg width="85" height="85" fill="none" xmlns="http://www.w3.org/2000/svg"><g clip-path="url(#clip0_171_1666)" fill="#1B3249"><path d="M56.934 85H8.821A8.837 8.837 0 010 76.18V8.82A8.837 8.837 0 018.82 0h48.114a8.837 8.837 0 018.82 8.82v6.416a.802.802 0 01-1.603 0V8.82a7.233 7.233 0 00-7.217-7.217H8.821A7.233 7.233 0 001.604 8.82v67.358a7.233 7.233 0 007.217 7.217h48.113a7.233 7.233 0 007.217-7.217v-6.415a.802.802 0 011.604 0v6.415A8.837 8.837 0 0156.934 85z"/><path d="M45.708 7.217a1.604 1.604 0 100-3.207 1.604 1.604 0 000 3.207zM32.877 80.99a1.604 1.604 0 100-3.207 1.604 1.604 0 000 3.208zm16.038 0a1.604 1.604 0 100-3.207 1.604 1.604 0 000 3.208zm-32.075 0a1.604 1.604 0 100-3.207 1.604 1.604 0 000 3.208zM39.292 6.415h-12.83a.802.802 0 110-1.603h12.83a.802.802 0 010 1.603zM16.84 48.113h-3.208a4.01 4.01 0 01-4.01-4.01v-3.207a4.009 4.009 0 014.01-4.01h3.208a4.01 4.01 0 014.009 4.01v3.208a4.01 4.01 0 01-4.01 4.01zm-3.208-9.623a2.405 2.405 0 00-2.406 2.406v3.208a2.406 2.406 0 002.406 2.405h3.208a2.406 2.406 0 002.405-2.405v-3.208a2.406 2.406 0 00-2.405-2.406h-3.208zm19.245 27.265h-1.603a4.01 4.01 0 01-4.01-4.01v-3.207a4.01 4.01 0 014.01-4.01h1.603a.802.802 0 010 1.604h-1.603a2.406 2.406 0 00-2.406 2.406v3.207a2.406 2.406 0 002.406 2.406h1.603a.802.802 0 110 1.604zm-16.037 0h-3.208a4.01 4.01 0 01-4.01-4.01v-3.207a4.009 4.009 0 014.01-4.01h3.208a4.01 4.01 0 014.009 4.01v3.207a4.009 4.009 0 01-4.01 4.01zm-3.208-9.623a2.405 2.405 0 00-2.406 2.406v3.207a2.406 2.406 0 002.406 2.406h3.208a2.406 2.406 0 002.405-2.406v-3.207a2.406 2.406 0 00-2.405-2.406h-3.208zm19.245-25.661h-1.603a4.01 4.01 0 01-4.01-4.009v-3.207a4.01 4.01 0 014.01-4.01h1.603a.802.802 0 010 1.604h-1.603a2.406 2.406 0 00-2.406 2.406v3.207a2.406 2.406 0 002.406 2.406h1.603a.802.802 0 110 1.604zm-16.037 0h-3.208a4.01 4.01 0 01-4.01-4.009v-3.207a4.009 4.009 0 014.01-4.01h3.208a4.01 4.01 0 014.009 4.01v3.207a4.01 4.01 0 01-4.01 4.01zm-3.208-9.622a2.405 2.405 0 00-2.406 2.406v3.207a2.406 2.406 0 002.406 2.406h3.208a2.406 2.406 0 002.405-2.406v-3.207a2.406 2.406 0 00-2.405-2.406h-3.208z"/><path d="M82.594 67.359H37.69a2.406 2.406 0 01-2.406-2.406V53.245l-9.414-10.2a.834.834 0 010-1.09l9.414-10.2V20.047a2.406 2.406 0 012.406-2.405h44.905A2.406 2.406 0 0185 20.047v44.906a2.406 2.406 0 01-2.406 2.406zM27.553 42.5l9.125 9.88c.135.15.209.343.209.545v12.028a.802.802 0 00.802.802h44.905a.802.802 0 00.802-.802V20.047a.802.802 0 00-.802-.802H37.69a.802.802 0 00-.802.802v12.029a.818.818 0 01-.209.545l-9.125 9.88z"/></g><path d="M64.864 51.846a.822.822 0 10-1.01-1.296 6.23 6.23 0 01-7.71 0 .822.822 0 10-1.008 1.296 7.875 7.875 0 009.727 0z" fill="#6E81BE"/><path d="M66.394 53.148l-.071.061a9.86 9.86 0 01-12.72-.064.821.821 0 00-1.08 1.238 11.496 11.496 0 0014.954 0 .82.82 0 00-1.083-1.235zm-1.453-20.084a.825.825 0 00-.077-1.232 7.875 7.875 0 00-9.728 0 .827.827 0 00-.077 1.232.819.819 0 001.086.064l.13-.1a6.23 6.23 0 017.58.1.818.818 0 001.086-.064z" fill="#6E81BE"/><path d="M53.605 30.53l.072-.062a9.858 9.858 0 0112.72.064.822.822 0 001.08-1.238 11.495 11.495 0 00-14.954 0 .821.821 0 001.082 1.235zm7.233 5.1h-1.676a3.767 3.767 0 00-3.767 3.766 38.23 38.23 0 019.21 0 3.767 3.767 0 00-3.767-3.766zm-6.682 1.482H42.109a1.45 1.45 0 00-1.452 1.452h12.047a1.452 1.452 0 001.452-1.452zM70.7 42.513a36.837 36.837 0 00-21.4 0v-2.679h-3.786v5.575a1.934 1.934 0 001.857 1.955 1.89 1.89 0 001.928-1.892v-.149h2.822l-3.439 4.823c-.164.23-.272.496-.315.775l-.825 5.315a1.069 1.069 0 002.089.445l1.324-4.86 3.98-4.32h10.13l3.98 4.32 1.324 4.86a1.069 1.069 0 002.089-.445l-.825-5.315a1.817 1.817 0 00-.315-.775l-3.439-4.823h2.822v.086a1.934 1.934 0 001.857 1.955 1.891 1.891 0 001.928-1.892v-5.638h-3.785v2.679zm-3.404-3.949h12.046a1.451 1.451 0 00-1.451-1.452H65.844a1.453 1.453 0 001.452 1.452z" fill="#6E81BE"/><defs><clipPath id="clip0_171_1666"><path fill="#fff" d="M0 0h85v85H0z"/></clipPath></defs></svg>