<svg width="85" height="85" fill="none" xmlns="http://www.w3.org/2000/svg"><g clip-path="url(#clip0_168_82)"><path d="M52.123 30.087a.85.85 0 01-.385-.097.802.802 0 01-.305-1.09c.209-.385 5.004-9.382-2.037-15.316-8.708-7.313-19.02 1.604-19.454 1.973a.818.818 0 01-1.138 0 .786.786 0 01.064-1.123c.112-.112 11.788-10.2 21.539-1.989 8.019 6.768 2.47 17.193 2.405 17.305a.82.82 0 01-.69.337z" fill="#000"/><path d="M23.287 30.087a.802.802 0 01-.674-.385 15.14 15.14 0 01-1.604-11.547c1.267-4.058 4.62-7.297 9.96-9.623a.802.802 0 011.126.724.803.803 0 01-.485.752c-4.891 2.133-8.018 5.036-9.06 8.628a13.744 13.744 0 001.507 10.232.818.818 0 01-.257 1.107.85.85 0 01-.513.112zm-12.59 33.551h-.16a.818.818 0 01-.626-.963c0-.208 1.187-5.42 4.715-7.233 1.604-.801 7.923-1.94 13.296-2.822.433 0 1.042-.321 1.347-1.524l.946-3.769a.785.785 0 01.962-.577.818.818 0 01.594.978l-.947 3.753a3.207 3.207 0 01-2.63 2.71c-7.505 1.251-11.835 2.15-12.83 2.663-2.855 1.475-3.865 6.11-3.881 6.158a.802.802 0 01-.786.626zm43.383-8.26h-.145c-2.486-.465-5.1-.898-6.768-1.187a3.207 3.207 0 01-2.63-2.71l-.946-3.753a.818.818 0 01.903-.995.786.786 0 01.652.594l.946 3.77c.305 1.202.915 1.443 1.348 1.523 1.603.272 4.298.705 6.784 1.187a.801.801 0 01.641.946.786.786 0 01-.786.625z" fill="#000"/><path d="M37.673 50.519a12.397 12.397 0 01-7.298-2.406 18.395 18.395 0 01-6.543-9.863 2.422 2.422 0 01-1.604-.593 5.886 5.886 0 01-1.732-3.978c-.224-2.566.818-4.667 2.518-5.132a3.208 3.208 0 012.245.193 3.063 3.063 0 00.995-2.951.818.818 0 01.288-.738 17.53 17.53 0 0111.949-3.512 17.867 17.867 0 0111.723 7.104 3.096 3.096 0 012.085-.128c1.7.465 2.727 2.566 2.502 5.132a5.805 5.805 0 01-1.764 3.961 2.47 2.47 0 01-1.604.594 18.315 18.315 0 01-6.527 9.911 12.398 12.398 0 01-7.233 2.406zm-13.264-14.05a.834.834 0 01.337 0 .881.881 0 01.433.53 16.952 16.952 0 006.143 9.703 10.665 10.665 0 0012.718 0 17.112 17.112 0 006.142-9.703.786.786 0 01.433-.53.802.802 0 01.69 0 .52.52 0 00.176 0 .834.834 0 00.578-.224 4.378 4.378 0 001.202-2.87c.16-1.893-.561-3.208-1.347-3.449a1.716 1.716 0 00-1.363.209l-.289.144a.85.85 0 01-.866-.272c-3.207-4.186-6.992-6.544-11.034-6.993-3.715-.31-7.42.708-10.456 2.87a4.507 4.507 0 01-2.246 4.46.881.881 0 01-.61 0l-.288-.145a1.717 1.717 0 00-1.363-.209c-.786.225-1.508 1.604-1.331 3.449a4.459 4.459 0 001.187 2.87.85.85 0 00.577.225.848.848 0 00.192 0 .673.673 0 01.385-.064zM37.705 61.28a10.071 10.071 0 01-10.44-7.746.815.815 0 011.603-.288c0 .256 1.283 6.415 8.853 6.415s8.788-6.143 8.788-6.415a.802.802 0 01.93-.642.787.787 0 01.658.914 9.992 9.992 0 01-10.392 7.763z" fill="#000"/><path d="M37.689 75.377A37.689 37.689 0 1175.377 37.69a37.304 37.304 0 01-3.576 16.037.802.802 0 01-1.443-.673A36.086 36.086 0 1048.24 72.17a.835.835 0 01.466 1.604 37.48 37.48 0 01-11.018 1.603z" fill="#000"/><path d="M80.99 85H55.33a4.01 4.01 0 01-4.01-4.009V61.746a4.01 4.01 0 014.01-4.01h3.705l-2.903-8.564a.801.801 0 01.273-.898.818.818 0 01.93 0l14.274 9.462h9.382A4.01 4.01 0 0185 61.746V80.99A4.01 4.01 0 0180.99 85zM55.33 59.34a2.406 2.406 0 00-2.405 2.406V80.99a2.406 2.406 0 002.405 2.406h25.66a2.406 2.406 0 002.406-2.406V61.746a2.406 2.406 0 00-2.405-2.406h-9.623a.865.865 0 01-.45-.128l-12.477-8.34 2.502 7.41a.77.77 0 01-.385.966.833.833 0 01-.368.092h-4.86z" fill="#6E81BE"/><path d="M69.764 78.585H58.538a.802.802 0 010-1.604h11.226a.802.802 0 010 1.604zm8.019-6.415H58.538a.802.802 0 010-1.604h19.245a.802.802 0 010 1.604zm0-6.415H58.538a.802.802 0 110-1.604h19.245a.802.802 0 010 1.604z" fill="#6E81BE"/></g><defs><clipPath id="clip0_168_82"><path fill="#fff" d="M0 0h85v85H0z"/></clipPath></defs></svg>