<svg width="33" height="33" fill="none" xmlns="http://www.w3.org/2000/svg"><path d="M28.814 4.495a.786.786 0 00-1.483.519c1.208 3.47-1.19 6.063-3.017 7.451l-.739-1.058c-.248-.355-.803-.65-1.235-.655l-4.144.018a2.81 2.81 0 00-1.426.44L4.558 19.772a1.313 1.313 0 00-.321 1.825l5.55 7.94c.415.592 1.08.52 1.672.107l12.213-8.565c.35-.248.756-.784.9-1.193l1.297-4.089c.143-.408.055-1.03-.193-1.385l-.45-.645c2.455-1.881 5.003-5.205 3.588-9.273zM23.132 16.66a2.091 2.091 0 01-3.26-2.08 2.09 2.09 0 013.29-1.332 8.017 8.017 0 01-.642.357.787.787 0 00.67 1.422c.253-.12.523-.26.805-.428a2.1 2.1 0 01-.863 2.061z" fill="#fff"/></svg>