<svg width="26" height="26" fill="none" xmlns="http://www.w3.org/2000/svg"><path d="M21.252 25.5h-.24a24.44 24.44 0 01-13.84-6.26l-.87-.87A24.44 24.44 0 01.012 4.5a2.08 2.08 0 011.33-2.17L5.832.59a1.29 1.29 0 011.6.59l3.15 5.79a1.3 1.3 0 01-.22 1.53l-2.88 2.83a.29.29 0 000 .38 29.668 29.668 0 002.89 3.6 27.179 27.179 0 003.48 2.77.29.29 0 00.37 0l2.79-2.93a1.3 1.3 0 011.54-.23l5.79 3.15a1.3 1.3 0 01.59 1.6l-1.74 4.49a2.08 2.08 0 01-1.94 1.34zm-13.39-7a23.43 23.43 0 0013.26 6 1.08 1.08 0 001.13-.69l1.76-4.49a.29.29 0 00-.13-.36l-5.82-3.16a.29.29 0 00-.35.05l-2.83 2.88a1.28 1.28 0 01-1.64.17 28.13 28.13 0 01-3.62-2.89 30.66 30.66 0 01-3-3.75 1.29 1.29 0 01.16-1.65l2.88-2.82a.29.29 0 00.05-.35l-3.16-5.79a.29.29 0 00-.36-.15l-4.49 1.76a1.08 1.08 0 00-.69 1.13 23.44 23.44 0 006 13.27l.85.84z" fill="#6E81BE"/></svg>