<svg width="33" height="33" fill="none" xmlns="http://www.w3.org/2000/svg"><path d="M18.617 26.776a2.59 2.59 0 001.81-.733 2.47 2.47 0 00.75-1.767 2.47 2.47 0 00-.75-1.768 2.591 2.591 0 00-1.81-.732c-.68 0-1.33.263-1.81.732a2.47 2.47 0 00-.75 1.768c0 .663.27 1.299.75 1.767.48.47 1.13.733 1.81.733zm-8.96 0a2.59 2.59 0 001.81-.733 2.47 2.47 0 00.75-1.767 2.47 2.47 0 00-.75-1.768 2.591 2.591 0 00-1.81-.732c-.68 0-1.33.263-1.81.732a2.47 2.47 0 00-.75 1.768c0 .663.27 1.299.75 1.767.48.47 1.13.733 1.81.733zM26.345 9.179c.32-.01.623-.14.845-.365a1.184 1.184 0 000-1.673 1.245 1.245 0 00-.845-.365h-1.473c-1.154 0-2.153.782-2.404 1.882l-1.604 7.053c-.25 1.1-1.249 1.882-2.404 1.882H8.845L7 10.381h11.962c.317-.014.615-.147.834-.37a1.188 1.188 0 000-1.661 1.244 1.244 0 00-.834-.372H6.999a2.51 2.51 0 00-1.08.243c-.336.16-.63.394-.86.682a2.349 2.349 0 00-.448 2.063l1.846 7.21c.133.52.44.982.873 1.312a2.5 2.5 0 001.515.509h9.615c1.12 0 2.208-.373 3.081-1.058a4.793 4.793 0 001.726-2.707l1.605-7.053h1.473z" fill="#fff"/></svg>