<svg width="336" height="204" viewBox="0 0 336 204" fill="none" xmlns="http://www.w3.org/2000/svg">
<mask id="path-1-inside-1_231_1780" fill="white">
<path fill-rule="evenodd" clip-rule="evenodd" d="M20.7012 0.0288086C9.65548 0.0288086 0.701172 8.98311 0.701172 20.0288V149.029C0.701172 160.075 9.65548 169.029 20.7012 169.029H65.3946L52.9998 204L91.9549 169.029H315.701C326.747 169.029 335.701 160.075 335.701 149.029V20.0288C335.701 8.98311 326.747 0.0288086 315.701 0.0288086H20.7012Z"/>
</mask>
<path d="M65.3946 169.029L68.2223 170.031L69.6408 166.029H65.3946V169.029ZM52.9998 204L50.1722 202.998L55.0039 206.232L52.9998 204ZM91.9549 169.029V166.029H90.8059L89.9509 166.796L91.9549 169.029ZM3.70117 20.0288C3.70117 10.64 11.3123 3.02881 20.7012 3.02881V-2.97119C7.99863 -2.97119 -2.29883 7.32626 -2.29883 20.0288H3.70117ZM3.70117 149.029V20.0288H-2.29883V149.029H3.70117ZM20.7012 166.029C11.3123 166.029 3.70117 158.418 3.70117 149.029H-2.29883C-2.29883 161.731 7.99863 172.029 20.7012 172.029V166.029ZM65.3946 166.029H20.7012V172.029H65.3946V166.029ZM55.8275 205.002L68.2223 170.031L62.567 168.027L50.1722 202.998L55.8275 205.002ZM89.9509 166.796L50.9957 201.767L55.0039 206.232L93.959 171.261L89.9509 166.796ZM315.701 166.029H91.9549V172.029H315.701V166.029ZM332.701 149.029C332.701 158.418 325.09 166.029 315.701 166.029V172.029C328.404 172.029 338.701 161.731 338.701 149.029H332.701ZM332.701 20.0288V149.029H338.701V20.0288H332.701ZM315.701 3.02881C325.09 3.02881 332.701 10.64 332.701 20.0288H338.701C338.701 7.32626 328.404 -2.97119 315.701 -2.97119V3.02881ZM20.7012 3.02881H315.701V-2.97119H20.7012V3.02881Z" fill="#6E81BE" mask="url(#path-1-inside-1_231_1780)"/>
</svg>
