<svg width="336" height="204" fill="none" xmlns="http://www.w3.org/2000/svg"><mask id="path-1-inside-1_231_1780" fill="#fff"><path fill-rule="evenodd" clip-rule="evenodd" d="M20.701.029c-11.046 0-20 8.954-20 20v129c0 11.046 8.954 20 20 20h44.694L53 204l38.955-34.971H315.7c11.046 0 20-8.954 20-20v-129c0-11.046-8.954-20-20-20h-295z"/></mask><path d="M65.395 169.029l2.827 1.002 1.419-4.002h-4.246v3zM53 204l-2.828-1.002 4.832 3.234L53 204zm38.955-34.971v-3h-1.15l-.854.767 2.004 2.233zM3.7 20.029c0-9.389 7.611-17 17-17v-6c-12.702 0-23 10.297-23 23h6zm0 129v-129h-6v129h6zm17 17c-9.389 0-17-7.611-17-17h-6c0 12.702 10.298 23 23 23v-6zm44.694 0H20.7v6h44.694v-6zm-9.567 38.973l12.394-34.971-5.655-2.004-12.395 34.971 5.656 2.004zm34.123-38.206l-38.955 34.971 4.008 4.465 38.955-34.971-4.008-4.465zm225.75-.767H91.955v6H315.7v-6zm17-17c0 9.389-7.611 17-17 17v6c12.703 0 23-10.298 23-23h-6zm0-129v129h6v-129h-6zm-17-17c9.389 0 17 7.611 17 17h6c0-12.703-10.297-23-23-23v6zm-295 0h295v-6h-295v6z" fill="#6E81BE" mask="url(#path-1-inside-1_231_1780)"/></svg>