<svg width="36" height="37" fill="none" xmlns="http://www.w3.org/2000/svg"><circle cx="18" cy="18.5" r="18" fill="#6E81BE"/><path d="M16.863 27.5a.812.812 0 01-.603-.236.825.825 0 01-.234-.607v-6.37h-6.19a.812.812 0 01-.602-.236.783.783 0 01-.234-.573v-2.124c0-.247.078-.45.234-.607a.812.812 0 01.602-.236h6.19v-6.168c0-.248.078-.45.234-.607a.812.812 0 01.602-.236h2.309c.245 0 .446.079.602.236.156.157.234.36.234.607v6.168h6.19c.223 0 .413.079.569.236.156.157.234.36.234.607v2.123a.783.783 0 01-.234.574.771.771 0 01-.569.236h-6.19v6.37c0 .247-.078.45-.234.607a.812.812 0 01-.602.236h-2.308z" fill="#fff"/></svg>