<svg width="33" height="33" fill="none" xmlns="http://www.w3.org/2000/svg"><path d="M25.385 8.71a6.02 6.02 0 00-8.68 0l-.498.512-.497-.512a6.021 6.021 0 00-8.68 0 6.447 6.447 0 00-1.823 4.518 6.45 6.45 0 001.823 4.52l8.646 8.885a.74.74 0 00.531.23.739.739 0 00.532-.23l8.646-8.885a6.448 6.448 0 001.822-4.52 6.447 6.447 0 00-1.822-4.518zm-1.064 7.826l-8.114 8.338-8.113-8.337a4.723 4.723 0 01-1.343-3.308c0-1.242.477-2.417 1.343-3.308a4.55 4.55 0 013.276-1.395c1.186 0 2.373.465 3.276 1.396l1.03 1.058a.73.73 0 001.063 0l1.03-1.059a4.544 4.544 0 016.552 0 4.724 4.724 0 011.342 3.308 4.724 4.724 0 01-1.342 3.307z" fill="#fff"/></svg>