<svg width="507" height="113" fill="none" xmlns="http://www.w3.org/2000/svg"><path d="M443.06 89.285l27.874-27.874v55.748L443.06 89.285z" fill="#8338EC"/><path fill-rule="evenodd" clip-rule="evenodd" d="M506.791 63.95V74.7c-8.818 0-15.966-7.136-15.966-15.938s7.148-15.937 15.966-15.937v10.748a5.193 5.193 0 00-5.198 5.189 5.193 5.193 0 005.198 5.189z" fill="#54ADFF"/><path d="M379.22 128.579l39.092 39.091 39.091-39.091-39.091-39.092-39.092 39.092z" fill="#FF006E"/><path d="M449.65 12.731l12.376 12.376 12.376-12.376L462.026.356 449.65 12.73z" fill="#FFBE0B"/><path d="M63.952 89.285L36.077 61.41v55.748l27.875-27.874z" fill="#8338EC"/><path fill-rule="evenodd" clip-rule="evenodd" d="M.22 63.95V74.7c8.818 0 15.966-7.136 15.966-15.938S9.038 42.825.22 42.825v10.748a5.193 5.193 0 015.198 5.189A5.193 5.193 0 01.22 63.95z" fill="#54ADFF"/><path d="M127.791 128.579L88.699 167.67l-39.091-39.091 39.091-39.092 39.092 39.092z" fill="#FF006E"/><path d="M63.36 12.731L50.986 25.107 38.609 12.731 50.985.356 63.36 12.73z" fill="#FFBE0B"/></svg>