<svg width="322" height="782" fill="none" xmlns="http://www.w3.org/2000/svg"><g clip-path="url(#clip0_201_9595)"><path d="M-67.677 703.258l39.032-39.032 39.032 39.032-39.032 39.033-39.032-39.033z" fill="#3A86FF"/><path d="M-67.677 547.129l39.032-39.032 39.032 39.032-39.032 39.032-39.032-39.032z" fill="#FF006E"/><path d="M-67.677 625.194l78.064-78.065 78.065 78.065-78.065 78.064-78.064-78.064z" fill="#3A86FF"/><path d="M10.387 703.258l-39.032-39.032 78.065-78.065 39.032 39.033-78.065 78.064zM-67.677 391l39.032-39.032L10.387 391l-39.032 39.032L-67.677 391z" fill="#8338EC"/><path d="M10.387 391l-39.032 39.032v-78.064L10.387 391z" fill="#FFBE0B"/><path d="M-67.677 469.064L10.387 391l78.065 78.064-78.065 78.065-78.064-78.065z" fill="#FB5607"/><path d="M10.387 547.129l-78.064-78.064 156.129-.001-78.065 78.065z" fill="#8338EC"/><path d="M10.387 547.129l78.065-78.065 78.064 78.065-78.064 78.065-78.065-78.065z" fill="#8338EC"/><path d="M-145.742 234.871l78.065-78.065 78.065 78.065-78.065 78.064-78.065-78.064z" fill="#FFBE0B"/><path d="M-67.677 312.935l-78.065-78.064h156.13l-78.065 78.064z" fill="#FF006E"/><path d="M-67.677 312.935l78.064-78.064 78.065 78.064L10.387 391l-78.064-78.065z" fill="#FF006E"/><path d="M88.452 312.935L49.42 351.968l-78.065-78.065 39.032-39.032 78.065 78.064z" fill="#FFBE0B"/><path d="M10.387 391l78.065-78.065L166.516 391l-78.064 78.065L10.387 391z" fill="#8338EC"/><path d="M88.452 469.065L166.517 391l78.064 78.065-78.064 78.064-78.065-78.064z" fill="#FF006E"/><path d="M88.452 469.065L166.517 391v156.129l-78.065-78.064zM-67.677 78.742l39.032-39.033 39.032 39.033-39.032 39.032-39.032-39.032z" fill="#FB5607"/><path d="M-67.677 156.806l39.032-39.032 39.032 39.032-39.032 39.033-39.032-39.033z" fill="#3A86FF"/><path d="M-28.645 195.838l-39.032-39.032h78.064l-39.032 39.032z" fill="#FF006E"/><path d="M-28.645 117.774l39.032-39.032 39.033 39.032-39.033 39.032-39.032-39.032z" fill="#3A86FF"/><path d="M-28.645 117.774c10.779-10.779 28.254-10.779 39.032 0 10.779 10.778 10.779 28.254 0 39.032L-9.129 137.29l-19.516-19.516z" fill="#8338EC"/><path d="M-28.645 195.838l39.032-39.032 39.032 39.032-39.032 39.033-39.032-39.033z" fill="#FF006E"/><path d="M10.387 156.806l19.516 19.516-39.032 39.033-19.516-19.517 39.032-39.032z" fill="#FFBE0B"/><path d="M10.387 156.806l39.032-39.032 39.033 39.032-39.032 39.033-39.033-39.033z" fill="#FB5607"/><path d="M10.387 234.871l39.032-39.032 39.033 39.032-39.032 39.032-39.033-39.032z" fill="#FF006E"/><path d="M10.387 234.871l19.516-19.516 39.033 39.032-19.517 19.516-39.032-39.032z" fill="#FFBE0B"/><path d="M49.42 195.838l39.032-39.032 39.033 39.032-39.033 39.033-39.032-39.033z" fill="#FF006E"/><path d="M88.452 156.806c10.778 10.779 10.778 28.254 0 39.032-10.779 10.779-28.254 10.779-39.033.001l19.517-19.517 19.516-19.516z" fill="#FB5607"/><path d="M49.42 273.903l39.032-39.032 39.032 39.032-39.032 39.032-39.032-39.032z" fill="#FF006E"/><path d="M49.42 273.903l39.032-39.032v78.064l-39.033-39.032zm39.032-39.032l39.032-39.033 39.033 39.033-39.033 39.032-39.032-39.032z" fill="#8338EC"/><path d="M88.452 312.935l78.065-78.064 78.064 78.064L166.517 391l-78.065-78.065z" fill="#FF006E"/><path d="M166.517 391c-21.557-21.557-21.557-56.508 0-78.065 21.557-21.557 56.507-21.557 78.064 0l-39.032 39.033L166.517 391z" fill="#FFBE0B"/><path d="M166.517 391l39.032-39.032L244.581 391l-39.032 39.032L166.517 391z" fill="#FB5607"/><path d="M166.517 391c10.778-10.779 28.253-10.779 39.032 0 10.778 10.778 10.778 28.254 0 39.032l-19.516-19.516L166.517 391z" fill="#8338EC"/><path d="M205.549 351.968l39.032-39.033 39.032 39.033L244.581 391l-39.032-39.032z" fill="#FB5607"/><path d="M244.581 312.935l19.516 19.517-39.032 39.032-19.516-19.516 39.032-39.033z" fill="#3A86FF"/><path d="M205.549 430.032L244.581 391l39.032 39.032-39.032 39.032-39.032-39.032z" fill="#8338EC"/><path d="M205.549 430.032c10.778-10.778 28.254-10.778 39.032 0 10.779 10.779 10.779 28.254 0 39.033l-19.516-19.517-19.516-19.516zM244.581 391l39.032-39.032L322.646 391l-39.033 39.032L244.581 391z" fill="#FB5607"/><path d="M283.613 351.968L322.646 391h-78.065l39.032-39.032zm-429.355 351.29l78.065-78.064 78.065 78.064-78.065 78.065-78.065-78.065z" fill="#3A86FF"/><path d="M-67.677 625.194l78.065 78.064h-156.13l78.065-78.064z" fill="#FF006E"/><path d="M-145.742 547.129l78.065-78.065 78.065 78.065-78.065 78.065-78.065-78.065z" fill="#FFBE0B"/><path d="M-67.677 625.194c-21.557-21.557-21.557-56.508 0-78.065 21.557-21.557 56.508-21.557 78.064 0l-39.032 39.032-39.032 39.033z" fill="#FF006E"/><path d="M-67.677 625.194l78.064-78.065 78.065 78.065-78.065 78.064-78.064-78.064zm0-234.194l39.032-39.032L10.387 391l-39.032 39.032L-67.677 391z" fill="#3A86FF"/><path d="M10.387 391l-39.032 39.032v-78.064L10.387 391z" fill="#FB5607"/><path d="M-67.677 469.064L10.387 391l78.065 78.064-78.065 78.065-78.064-78.065z" fill="#FFBE0B"/><path d="M-67.677 469.065l39.032-39.033 78.065 78.065-39.033 39.032-78.064-78.064z" fill="#FB5607"/><path d="M10.387 547.129l78.065-78.065 78.064 78.065-78.064 78.065-78.065-78.065z" fill="#FB5607"/><path d="M-145.742 234.871l78.065-78.065 78.065 78.065-78.065 78.064-78.065-78.064z" fill="#FFBE0B"/><path d="M-67.677 312.935l78.064-78.064 78.065 78.064L10.387 391l-78.064-78.065z" fill="#8338EC"/><path d="M10.387 391l39.032-39.032L88.453 391 49.42 430.032 10.386 391z" fill="#FF006E"/><path d="M49.42 351.968c10.778 10.778 10.778 28.253 0 39.032-10.779 10.778-28.254 10.778-39.033 0l19.516-19.516 19.517-19.516z" fill="#FFBE0B"/><path d="M49.42 351.968l39.032-39.033 39.032 39.033L88.452 391 49.42 351.968z" fill="#3A86FF"/><path d="M88.452 312.935l19.516 19.516-39.032 39.033-19.517-19.516 39.033-39.033z" fill="#FB5607"/><path d="M49.42 430.032L88.452 391l39.032 39.032-39.032 39.032-39.032-39.032z" fill="#3A86FF"/><path d="M88.452 391c10.778 10.778 10.778 28.254 0 39.032-10.779 10.779-28.254 10.779-39.033 0l19.517-19.516L88.452 391z" fill="#8338EC"/><path d="M88.452 391l39.032-39.032L166.517 391l-39.033 39.032L88.452 391z" fill="#FF006E"/><path d="M88.452 469.065L166.517 391l78.064 78.065-78.064 78.064-78.065-78.064z" fill="#3A86FF"/><path d="M88.452 469.065c21.557-21.557 56.508-21.557 78.065 0 21.557 21.556 21.557 56.507 0 78.064l-39.033-39.032-39.032-39.032z" fill="#FFBE0B"/><path d="M-145.742 78.742L-67.677.677l78.065 78.065-78.065 78.064-78.065-78.064z" fill="#3A86FF"/><path d="M-67.677.677l78.065 78.065h-156.13L-67.677.677z" fill="#FFBE0B"/><path d="M-67.677 156.806l78.064-78.064 78.065 78.064-78.065 78.065-78.064-78.065z" fill="#FF006E"/><path d="M10.387 234.871c-21.557-21.557-21.557-56.508 0-78.065 21.557-21.557 56.508-21.557 78.065 0L49.42 195.838l-39.033 39.033z" fill="#8338EC"/><path d="M10.387 234.871l39.032-39.032 39.033 39.032-39.032 39.032-39.033-39.032z" fill="#FF006E"/><path d="M49.42 195.839l39.032 39.032H10.387l39.032-39.032z" fill="#8338EC"/><path d="M49.42 195.838l39.032-39.032 39.033 39.032-39.033 39.033-39.032-39.033z" fill="#3A86FF"/><path d="M127.484 195.839c-10.778 10.778-28.253 10.778-39.032 0-10.778-10.779-10.778-28.254 0-39.033l19.516 19.516 19.516 19.517z" fill="#8338EC"/><path d="M49.42 273.903l39.032-39.032 39.032 39.032-39.032 39.032-39.032-39.032z" fill="#FFBE0B"/><path d="M88.452 234.871l39.032-39.033 39.033 39.033-39.033 39.032-39.032-39.032z" fill="#8338EC"/><path d="M166.517 234.871c-10.779 10.778-28.254 10.778-39.033 0-10.778-10.779-10.778-28.254 0-39.033l19.517 19.517 19.516 19.516z" fill="#FFBE0B"/><path d="M88.452 312.935l78.065-78.064 78.064 78.064L166.517 391l-78.065-78.065z" fill="#3A86FF"/><path d="M88.452 312.935l78.065-78.064V391l-78.065-78.065z" fill="#FB5607"/><path d="M166.517 391l78.064-78.065L322.646 391l-78.065 78.065L166.517 391z" fill="#3A86FF"/><path d="M166.517 391c21.557-21.557 56.507-21.557 78.064 0 21.557 21.557 21.557 56.508 0 78.065l-39.032-39.033L166.517 391z" fill="#8338EC"/><path d="M-67.677 703.258l39.032-39.032 39.032 39.032-39.032 39.033-39.032-39.033z" fill="#FFBE0B"/><path d="M-145.742 547.129l78.065-78.065 78.065 78.065-78.065 78.065-78.065-78.065z" fill="#FF006E"/><path d="M-67.677 625.194c-21.557-21.557-21.557-56.508 0-78.065 21.557-21.557 56.508-21.557 78.064 0l-39.032 39.032-39.032 39.033z" fill="#FB5607"/><path d="M-67.677 625.194l39.032-39.033 39.032 39.033-39.032 39.032-39.032-39.032z" fill="#FF006E"/><path d="M10.387 625.194L-9.129 644.71l-39.032-39.032 19.516-19.517 39.032 39.033z" fill="#8338EC"/><path d="M-28.645 586.161l39.032-39.032 39.032 39.032-39.032 39.033-39.032-39.033z" fill="#8338EC"/><path d="M-28.645 664.226l39.032-39.032 39.033 39.032-39.033 39.032-39.032-39.032z" fill="#FFBE0B"/><path d="M49.42 664.226l-39.033 39.032v-78.064l39.033 39.032z" fill="#FF006E"/><path d="M10.387 625.194l39.032-39.033 39.033 39.033-39.032 39.032-39.033-39.032z" fill="#8338EC"/><path d="M49.42 664.226l-39.033-39.032h78.065L49.42 664.226z" fill="#3A86FF"/><path d="M-67.677 391l39.032-39.032L10.387 391l-39.032 39.032L-67.677 391z" fill="#FF006E"/><path d="M-28.645 430.032l-19.516-19.516 39.032-39.032L10.387 391l-39.032 39.032z" fill="#8338EC"/><path d="M-67.677 469.064L10.387 391l78.065 78.064-78.065 78.065-78.064-78.065z" fill="#FFBE0B"/><path d="M-67.677 469.065l39.032-39.033 78.065 78.065-39.033 39.032-78.064-78.064z" fill="#3A86FF"/><path d="M10.387 547.129l78.065-78.065 78.064 78.065-78.064 78.065-78.065-78.065z" fill="#FFBE0B"/><path d="M88.452 469.064l78.064 78.065H10.387l78.065-78.065z" fill="#FF006E"/><path d="M-145.742 234.871l78.065-78.065 78.065 78.065-78.065 78.064-78.065-78.064z" fill="#3A86FF"/><path d="M10.387 234.871c-21.556 21.557-56.507 21.557-78.064 0-21.557-21.557-21.557-56.508 0-78.065l39.032 39.032 39.032 39.033z" fill="#FB5607"/><path d="M-67.677 312.935l78.064-78.064 78.065 78.064L10.387 391l-78.064-78.065z" fill="#8338EC"/><path d="M-67.677 312.935l39.032-39.032 78.065 78.065L10.387 391l-78.064-78.065z" fill="#FF006E"/><path d="M10.387 391l39.032-39.032L88.453 391 49.42 430.032 10.386 391z" fill="#3A86FF"/><path d="M49.42 351.968c10.778 10.778 10.778 28.253 0 39.032-10.779 10.778-28.254 10.778-39.033 0l19.516-19.516 19.517-19.516z" fill="#FB5607"/><path d="M49.42 351.968l39.032-39.033 39.032 39.033L88.452 391 49.42 351.968z" fill="#FFBE0B"/><path d="M49.42 351.968l39.032-39.033V391l-39.033-39.032z" fill="#FF006E"/><path d="M49.42 430.032L88.452 391l39.032 39.032-39.032 39.032-39.032-39.032z" fill="#8338EC"/><path d="M88.452 391c10.778 10.778 10.778 28.254 0 39.032-10.779 10.779-28.254 10.779-39.033 0l19.517-19.516L88.452 391z" fill="#3A86FF"/><path d="M88.452 391l39.032-39.032L166.517 391l-39.033 39.032L88.452 391z" fill="#FF006E"/><path d="M127.484 351.968l19.517 19.516-39.033 39.032L88.452 391l39.032-39.032z" fill="#FB5607"/><path d="M88.452 469.065l39.032-39.033 39.033 39.033-39.033 39.032-39.032-39.032z" fill="#3A86FF"/><path d="M88.452 469.065c10.779-10.779 28.254-10.779 39.032 0 10.779 10.778 10.779 28.253 0 39.032l-19.516-19.516-19.516-19.516zm39.032-39.033L166.517 391l39.032 39.032-39.032 39.033-39.033-39.033z" fill="#FF006E"/><path d="M127.484 430.032l19.517-19.516 39.032 39.032-19.516 19.517-39.033-39.033z" fill="#FFBE0B"/><path d="M127.484 508.097l39.033-39.032 39.032 39.032-39.032 39.032-39.033-39.032z" fill="#3A86FF"/><path d="M205.549 508.097c-10.779 10.778-28.254 10.778-39.032 0-10.779-10.779-10.779-28.254 0-39.032l19.516 19.516 19.516 19.516z" fill="#8338EC"/><path d="M166.517 469.064l39.032-39.032 39.032 39.032-39.032 39.033-39.032-39.033zM-145.742 78.742L-67.677.677l78.065 78.065-78.065 78.064-78.065-78.064z" fill="#FF006E"/><path d="M10.387 78.742c-21.556 21.557-56.507 21.557-78.064 0-21.557-21.557-21.557-56.508 0-78.065l39.032 39.032 39.032 39.033z" fill="#FFBE0B"/><path d="M-67.677 156.806l39.032-39.032 39.032 39.032-39.032 39.033-39.032-39.033z" fill="#FB5607"/><path d="M-28.645 117.774l39.032-39.032 39.033 39.032-39.033 39.032-39.032-39.032z" fill="#FF006E"/><path d="M49.42 117.774L29.902 137.29-9.129 98.258l19.516-19.516 39.032 39.032zm-78.065 78.064l39.032-39.032 39.032 39.032-39.032 39.033-39.032-39.033z" fill="#FB5607"/><path d="M10.387 234.871l-39.032-39.033 78.064.001-39.032 39.032zm0-78.065l39.032-39.032 39.033 39.032-39.032 39.033-39.033-39.033z" fill="#FFBE0B"/><path d="M10.387 156.806c10.779-10.778 28.254-10.778 39.032 0 10.779 10.779 10.779 28.254 0 39.033l-19.516-19.517-19.516-19.516zm0 78.065l39.032-39.032 39.033 39.032-39.032 39.032-39.033-39.032z" fill="#FB5607"/><path d="M49.42 195.838l39.032-39.032 39.033 39.032-39.033 39.033-39.032-39.033z" fill="#FF006E"/><path d="M88.452 156.806l19.516 19.516-39.032 39.033-19.517-19.516 39.033-39.033z" fill="#FFBE0B"/><path d="M49.42 273.903l39.032-39.032 39.032 39.032-39.032 39.032-39.032-39.032z" fill="#FF006E"/><path d="M127.484 273.903l-39.032 39.032v-78.064l39.032 39.032z" fill="#FFBE0B"/><path d="M88.452 234.871l39.032-39.033 39.033 39.033-39.033 39.032-39.032-39.032z" fill="#FFBE0B"/><path d="M127.484 195.838l19.517 19.517-39.033 39.032-19.516-19.516 39.032-39.033z" fill="#3A86FF"/><path d="M88.452 312.935l78.065-78.064 78.064 78.064L166.517 391l-78.065-78.065z" fill="#FB5607"/><path d="M166.517 234.871l78.064 78.064H88.452l78.065-78.064z" fill="#8338EC"/><path d="M166.517 391l78.064-78.065L322.646 391l-78.065 78.065L166.517 391z" fill="#FFBE0B"/><path d="M244.581 469.065L166.517 391h156.129l-78.065 78.065z" fill="#8338EC"/><path d="M-67.677 703.258l39.032-39.032 39.032 39.032-39.032 39.033-39.032-39.033z" fill="#3A86FF"/><path d="M-28.645 664.226l39.032 39.032h-78.064l39.032-39.032z" fill="#FF006E"/><path d="M-67.677 547.129l39.032-39.032 39.032 39.032-39.032 39.032-39.032-39.032z" fill="#3A86FF"/><path d="M-67.677 625.194l39.032-39.033 39.032 39.033-39.032 39.032-39.032-39.032z" fill="#FFBE0B"/><path d="M-28.645 586.161l39.032 39.033h-78.064l39.032-39.033z" fill="#FF006E"/><path d="M-28.645 586.161l39.032-39.032 39.032 39.032-39.032 39.033-39.032-39.033z" fill="#FF006E"/><path d="M10.387 625.194l-39.032-39.033H49.42l-39.033 39.033z" fill="#8338EC"/><path d="M-28.645 664.226l39.032-39.032 39.033 39.032-39.033 39.032-39.032-39.032z" fill="#FF006E"/><path d="M49.42 664.226c-10.779 10.778-28.254 10.778-39.033 0-10.778-10.779-10.778-28.254 0-39.032l19.516 19.516 19.517 19.516z" fill="#FFBE0B"/><path d="M10.387 625.194l39.032-39.033 39.033 39.033-39.032 39.032-39.033-39.032z" fill="#FB5607"/><path d="M49.42 586.161l39.032 39.033H10.387l39.032-39.033z" fill="#3A86FF"/><path d="M-145.742 391l78.065-78.065L10.388 391l-78.065 78.065L-145.742 391z" fill="#FB5607"/><path d="M10.387 391c-21.556 21.557-56.507 21.557-78.064 0-21.557-21.557-21.557-56.508 0-78.065l39.032 39.033L10.387 391z" fill="#FF006E"/><path d="M-67.677 469.064l39.032-39.032 39.032 39.032-39.032 39.033-39.032-39.033z" fill="#8338EC"/><path d="M-28.645 430.032L10.387 391l39.033 39.032-39.033 39.033-39.032-39.033z" fill="#8338EC"/><path d="M10.387 391l39.033 39.032h-78.065L10.387 391z" fill="#FF006E"/><path d="M-28.645 508.097l39.032-39.032 39.033 39.032-39.033 39.032-39.032-39.032z" fill="#8338EC"/><path d="M10.387 547.129c-10.778-10.778-10.778-28.254 0-39.032 10.779-10.779 28.254-10.779 39.032 0l-19.516 19.516-19.516 19.516z" fill="#FF006E"/><path d="M10.387 469.065l39.032-39.033 39.033 39.033-39.032 39.032-39.033-39.032z" fill="#FFBE0B"/><path d="M49.42 430.032l39.032 39.033H10.387l39.032-39.033z" fill="#8338EC"/><path d="M10.387 547.129l78.065-78.065 78.064 78.065-78.064 78.065-78.065-78.065z" fill="#FB5607"/><path d="M-67.677 234.871l39.032-39.033 39.032 39.033-39.032 39.032-39.032-39.032z" fill="#3A86FF"/><path d="M-28.645 273.903c-10.778-10.778-10.778-28.254 0-39.032 10.779-10.779 28.254-10.779 39.032 0l-19.516 19.516-19.516 19.516z" fill="#FB5607"/><path d="M-67.677 312.935l39.032-39.032 39.032 39.032-39.032 39.033-39.032-39.033z" fill="#8338EC"/><path d="M10.387 312.935l-39.032 39.033v-78.065l39.032 39.032z" fill="#3A86FF"/><path d="M-28.645 273.903l39.032-39.032 39.033 39.032-39.033 39.032-39.032-39.032z" fill="#3A86FF"/><path d="M10.387 234.871l39.033 39.032h-78.065l39.032-39.032zm-39.032 117.097l39.032-39.033 39.033 39.033L10.387 391l-39.032-39.032z" fill="#8338EC"/><path d="M-28.645 351.968c10.778-10.779 28.254-10.779 39.032 0 10.779 10.778 10.779 28.253 0 39.032l-19.516-19.516-19.516-19.516zm39.032-39.033l39.032-39.032 39.033 39.032-39.032 39.033-39.033-39.033z" fill="#3A86FF"/><path d="M88.452 312.935c-10.779 10.779-28.254 10.779-39.032 0-10.779-10.778-10.779-28.253 0-39.032l19.516 19.516 19.516 19.516z" fill="#FFBE0B"/><path d="M10.387 391l78.065-78.065L166.516 391l-78.064 78.065L10.387 391z" fill="#8338EC"/><path d="M10.387 391l39.032-39.032 78.065 78.064-39.032 39.033L10.387 391z" fill="#FFBE0B"/><path d="M88.452 469.065l39.032-39.033 39.033 39.033-39.033 39.032-39.032-39.032z" fill="#3A86FF"/><path d="M127.484 430.032l39.033 39.033H88.452l39.032-39.033z" fill="#FF006E"/><path d="M127.484 430.032L166.517 391l39.032 39.032-39.032 39.033-39.033-39.033z" fill="#8338EC"/><path d="M127.484 508.097l39.033-39.032 39.032 39.032-39.032 39.032-39.033-39.032z" fill="#FFBE0B"/><path d="M127.484 508.097L147 488.581l39.033 39.032-19.516 19.516-39.033-39.032z" fill="#FF006E"/><path d="M166.517 469.064l39.032-39.032 39.032 39.032-39.032 39.033-39.032-39.033z" fill="#3A86FF"/><path d="M244.581 469.065l-19.516 19.516-39.032-39.033 19.516-19.516 39.032 39.033z" fill="#FF006E"/><path d="M-145.742 78.742L-67.677.677l78.065 78.065-78.065 78.064-78.065-78.064z" fill="#FFBE0B"/><path d="M-67.677.677l78.065 78.065h-156.13L-67.677.677z" fill="#3A86FF"/><path d="M-67.677 156.806l39.032-39.032 39.032 39.032-39.032 39.033-39.032-39.033z" fill="#FF006E"/><path d="M-28.645 117.774l39.032-39.032 39.033 39.032-39.033 39.032-39.032-39.032z" fill="#FFBE0B"/><path d="M-28.645 195.838l39.032-39.032 39.032 39.032-39.032 39.033-39.032-39.033z" fill="#FB5607"/><path d="M10.387 156.806l39.032-39.032 39.033 39.032-39.032 39.033-39.033-39.033z" fill="#FB5607"/><path d="M49.42 117.774c10.778 10.778 10.778 28.254 0 39.032-10.779 10.779-28.254 10.779-39.033 0l19.516-19.516 19.517-19.516zM10.387 234.871l78.065-78.065 78.064 78.065-78.064 78.064-78.065-78.064z" fill="#8338EC"/><path d="M88.452 312.935c-21.557-21.557-21.557-56.507 0-78.064 21.557-21.557 56.507-21.557 78.064 0l-39.032 39.032-39.032 39.032z" fill="#FFBE0B"/><path d="M88.452 312.935l39.032-39.032 39.033 39.032-39.033 39.033-39.032-39.033z" fill="#8338EC"/><path d="M88.452 312.935l39.032-39.032v78.065l-39.032-39.033z" fill="#FB5607"/><path d="M127.484 273.903l39.033-39.032 39.032 39.032-39.032 39.032-39.033-39.032z" fill="#FFBE0B"/><path d="M205.549 273.903l-19.516 19.516L147 254.387l19.517-19.516 39.032 39.032z" fill="#8338EC"/><path d="M127.484 351.968l39.033-39.033 39.032 39.033L166.517 391l-39.033-39.032z" fill="#FF006E"/><path d="M166.517 312.935c10.778 10.779 10.778 28.254 0 39.033-10.779 10.778-28.254 10.778-39.033 0l19.517-19.516 19.516-19.517z" fill="#FB5607"/><path d="M166.517 312.935l39.032-39.032 39.032 39.032-39.032 39.033-39.032-39.033z" fill="#FFBE0B"/><path d="M244.581 312.935l-19.516 19.517-39.032-39.033 19.516-19.516 39.032 39.032z" fill="#8338EC"/><path d="M166.517 391l39.032-39.032L244.581 391l-39.032 39.032L166.517 391z" fill="#3A86FF"/><path d="M205.549 351.968l19.516 19.516-39.032 39.032L166.517 391l39.032-39.032z" fill="#FB5607"/><path d="M205.549 351.968l39.032-39.033 39.032 39.033L244.581 391l-39.032-39.032z" fill="#FB5607"/><path d="M205.549 430.032L244.581 391l39.032 39.032-39.032 39.032-39.032-39.032z" fill="#FFBE0B"/><path d="M244.581 391l39.032-39.032L322.646 391l-39.033 39.032L244.581 391z" fill="#8338EC"/><path d="M-67.677 703.258l39.032-39.032 39.032 39.032-39.032 39.033-39.032-39.033z" fill="#3A86FF"/><path d="M-145.742 547.129l78.065-78.065 78.065 78.065-78.065 78.065-78.065-78.065z" fill="#FFBE0B"/><path d="M-67.677 625.194l-39.032-39.033 78.064-78.064 39.032 39.032-78.064 78.065z" fill="#8338EC"/><path d="M-67.677 625.194l78.064-78.065 78.065 78.065-78.065 78.064-78.064-78.064z" fill="#8338EC"/><path d="M-67.677 625.194c21.557-21.557 56.507-21.557 78.064 0 21.557 21.557 21.557 56.507 0 78.064l-39.032-39.032-39.032-39.032z" fill="#3A86FF"/><path d="M-67.677 391l39.032-39.032L10.387 391l-39.032 39.032L-67.677 391z" fill="#8338EC"/><path d="M10.387 391c-10.778 10.778-28.253 10.778-39.032 0-10.778-10.779-10.778-28.254 0-39.032l19.516 19.516L10.387 391z" fill="#3A86FF"/><path d="M-67.677 469.064L10.387 391l78.065 78.064-78.065 78.065-78.064-78.065z" fill="#3A86FF"/><path d="M88.452 469.065L49.42 508.097l-78.065-78.065L10.387 391l78.065 78.065z" fill="#FF006E"/><path d="M10.387 547.129l39.032-39.032 39.033 39.032-39.032 39.032-39.033-39.032z" fill="#8338EC"/><path d="M49.42 586.161l-39.033-39.032h78.065L49.42 586.161z" fill="#FF006E"/><path d="M49.42 508.097l39.032-39.032 39.032 39.032-39.032 39.032-39.032-39.032z" fill="#FF006E"/><path d="M127.484 508.097c-10.778 10.778-28.253 10.778-39.032 0-10.778-10.779-10.778-28.254 0-39.032l19.516 19.516 19.516 19.516z" fill="#FFBE0B"/><path d="M49.42 586.161l39.032-39.032 39.033 39.032-39.033 39.033-39.032-39.033z" fill="#3A86FF"/><path d="M88.452 625.194l-19.516-19.516 39.032-39.033 19.516 19.516-39.032 39.033z" fill="#FFBE0B"/><path d="M88.452 547.129l39.032-39.032 39.033 39.032-39.033 39.032-39.032-39.032zm-234.194-312.258l78.065-78.065 78.065 78.065-78.065 78.064-78.065-78.064z" fill="#FB5607"/><path d="M10.387 234.871l-78.064 78.064V156.806l78.065 78.065z" fill="#FF006E"/><path d="M-67.677 312.935l78.064-78.064 78.065 78.064L10.387 391l-78.064-78.065z" fill="#8338EC"/><path d="M10.387 391l-39.032-39.032 78.065-78.065 39.032 39.032L10.387 391z" fill="#FF006E"/><path d="M10.387 391l39.032-39.032L88.453 391 49.42 430.032 10.386 391z" fill="#3A86FF"/><path d="M10.387 391l19.516-19.516 39.033 39.032-19.517 19.516L10.388 391z" fill="#FFBE0B"/><path d="M49.42 351.968l39.032-39.033 39.032 39.033L88.452 391 49.42 351.968z" fill="#FF006E"/><path d="M49.42 351.968l19.516-19.516 39.032 39.032L88.452 391l-39.033-39.032z" fill="#3A86FF"/><path d="M49.42 430.032L88.452 391l39.032 39.032-39.032 39.032-39.032-39.032z" fill="#FFBE0B"/><path d="M88.452 469.065c-10.778-10.779-10.778-28.254 0-39.033 10.779-10.778 28.254-10.778 39.032 0l-19.516 19.516-19.516 19.517z" fill="#FB5607"/><path d="M88.452 391l39.032-39.032L166.517 391l-39.033 39.032L88.452 391z" fill="#3A86FF"/><path d="M127.484 351.968l19.517 19.516-39.033 39.032L88.452 391l39.032-39.032z" fill="#FFBE0B"/><path d="M88.452 469.065l39.032-39.033 39.033 39.033-39.033 39.032-39.032-39.032z" fill="#8338EC"/><path d="M127.484 430.032L166.517 391l39.032 39.032-39.032 39.033-39.033-39.033z" fill="#FFBE0B"/><path d="M127.484 508.097l39.033-39.032 39.032 39.032-39.032 39.032-39.033-39.032z" fill="#3A86FF"/><path d="M205.549 508.097l-39.032 39.032v-78.064l39.032 39.032z" fill="#8338EC"/><path d="M166.517 469.064l39.032-39.032 39.032 39.032-39.032 39.033-39.032-39.033z" fill="#FB5607"/><path d="M244.581 469.065l-19.516 19.516-39.032-39.033 19.516-19.516 39.032 39.033zM-145.742 78.742L-67.677.677l78.065 78.065-78.065 78.064-78.065-78.064z" fill="#8338EC"/><path d="M-67.677 156.806l39.032-39.032 39.032 39.032-39.032 39.033-39.032-39.033z" fill="#FFBE0B"/><path d="M-28.645 195.838l-19.516-19.516L-9.13 137.29l19.516 19.516-39.032 39.032z" fill="#8338EC"/><path d="M-28.645 117.774l39.032-39.032 39.033 39.032-39.033 39.032-39.032-39.032z" fill="#FF006E"/><path d="M-28.645 117.774c10.779-10.779 28.254-10.779 39.032 0 10.779 10.778 10.779 28.254 0 39.032L-9.129 137.29l-19.516-19.516z" fill="#8338EC"/><path d="M-28.645 195.838l39.032-39.032 39.032 39.032-39.032 39.033-39.032-39.033z" fill="#FB5607"/><path d="M49.42 195.839l-39.033 39.032v-78.065l39.032 39.033z" fill="#3A86FF"/><path d="M10.387 156.806l39.032-39.032 39.033 39.032-39.032 39.033-39.033-39.033z" fill="#8338EC"/><path d="M10.387 234.871l78.065-78.065 78.064 78.065-78.064 78.064-78.065-78.064z" fill="#8338EC"/><path d="M88.452 312.935l-78.065-78.064h156.129l-78.064 78.064z" fill="#FF006E"/><path d="M88.452 312.935l78.065-78.064 78.064 78.064L166.517 391l-78.065-78.065z" fill="#3A86FF"/><path d="M166.517 391l-39.033-39.032 78.065-78.065 39.032 39.032L166.517 391zm0 0l39.032-39.032L244.581 391l-39.032 39.032L166.517 391z" fill="#FFBE0B"/><path d="M205.549 351.968l19.516 19.516-39.032 39.032L166.517 391l39.032-39.032z" fill="#FF006E"/><path d="M205.549 351.968l39.032-39.033 39.032 39.033L244.581 391l-39.032-39.032z" fill="#FFBE0B"/><path d="M244.581 312.935c10.779 10.779 10.779 28.254 0 39.033-10.778 10.778-28.254 10.778-39.032 0l19.516-19.516 19.516-19.517z" fill="#FF006E"/><path d="M205.549 430.032L244.581 391l39.032 39.032-39.032 39.032-39.032-39.032z" fill="#FB5607"/><path d="M205.549 430.032l19.516-19.516 39.032 39.032-19.516 19.517-39.032-39.033z" fill="#FFBE0B"/><path d="M244.581 391l39.032-39.032L322.646 391l-39.033 39.032L244.581 391z" fill="#3A86FF"/><path d="M-67.677 703.258l39.032-39.032 39.032 39.032-39.032 39.033-39.032-39.033z" fill="#FFBE0B"/><path d="M-67.677 547.129l39.032-39.032 39.032 39.032-39.032 39.032-39.032-39.032z" fill="#3A86FF"/><path d="M-67.677 625.194l39.032-39.033 39.032 39.033-39.032 39.032-39.032-39.032z" fill="#FFBE0B"/><path d="M-28.645 586.161l39.032-39.032 39.032 39.032-39.032 39.033-39.032-39.033z" fill="#FB5607"/><path d="M-28.645 586.161l39.032-39.032v78.065l-39.032-39.033z" fill="#FFBE0B"/><path d="M-28.645 664.226l39.032-39.032 39.033 39.032-39.033 39.032-39.032-39.032z" fill="#FF006E"/><path d="M10.387 625.194l19.516 19.516-39.032 39.032-19.516-19.516 39.032-39.032z" fill="#3A86FF"/><path d="M10.387 625.194l39.032-39.033 39.033 39.033-39.032 39.032-39.033-39.032zM-67.677 391l39.032-39.032L10.387 391l-39.032 39.032L-67.677 391z" fill="#8338EC"/><path d="M-28.645 430.032c-10.778-10.778-10.778-28.254 0-39.032 10.779-10.779 28.254-10.779 39.032 0l-19.516 19.516-19.516 19.516z" fill="#FF006E"/><path d="M-67.677 469.064l39.032-39.032 39.032 39.032-39.032 39.033-39.032-39.033z" fill="#3A86FF"/><path d="M-67.677 469.065l39.032-39.033v78.065l-39.032-39.032z" fill="#FB5607"/><path d="M-28.645 430.032L10.387 391l39.033 39.032-39.033 39.033-39.032-39.033z" fill="#FFBE0B"/><path d="M-28.645 430.032L10.387 391v78.065l-39.032-39.033z" fill="#3A86FF"/><path d="M-28.645 508.097l39.032-39.032 39.033 39.032-39.033 39.032-39.032-39.032z" fill="#FB5607"/><path d="M10.387 469.064l39.033 39.033h-78.065l39.032-39.033z" fill="#FFBE0B"/><path d="M10.387 469.065l39.032-39.033 39.033 39.033-39.032 39.032-39.033-39.032z" fill="#FB5607"/><path d="M49.42 430.032l19.516 19.516-39.033 39.033-19.516-19.516 39.032-39.033zM10.387 547.129l78.065-78.065 78.064 78.065-78.064 78.065-78.065-78.065z" fill="#3A86FF"/><path d="M88.452 625.194l-78.065-78.065h156.129l-78.064 78.065z" fill="#FFBE0B"/><path d="M-67.677 234.871l39.032-39.033 39.032 39.033-39.032 39.032-39.032-39.032z" fill="#8338EC"/><path d="M-28.645 273.903c-10.778-10.778-10.778-28.254 0-39.032 10.779-10.779 28.254-10.779 39.032 0l-19.516 19.516-19.516 19.516z" fill="#FFBE0B"/><path d="M-67.677 312.935l39.032-39.032 39.032 39.032-39.032 39.033-39.032-39.033z" fill="#FB5607"/><path d="M-28.645 273.903l39.032-39.032 39.033 39.032-39.033 39.032-39.032-39.032z" fill="#FF006E"/><path d="M49.42 273.903l-19.517 19.516-39.032-39.032 19.516-19.516 39.032 39.032zm-78.065 78.065l39.032-39.033 39.033 39.033L10.387 391l-39.032-39.032z" fill="#8338EC"/><path d="M10.387 391l-19.516-19.516 39.032-39.032 19.517 19.516L10.386 391z" fill="#3A86FF"/><path d="M10.387 312.935l39.032-39.032 39.033 39.032-39.032 39.033-39.033-39.033z" fill="#FFBE0B"/><path d="M88.452 312.935l-19.516 19.517-39.033-39.033 19.517-19.516 39.032 39.032z" fill="#8338EC"/><path d="M10.387 391l39.032-39.032L88.453 391 49.42 430.032 10.386 391z" fill="#3A86FF"/><path d="M10.387 391l39.032-39.032v78.064L10.388 391z" fill="#FFBE0B"/><path d="M49.42 351.968l39.032-39.033 39.032 39.033L88.452 391 49.42 351.968z" fill="#3A86FF"/><path d="M49.42 351.968l39.032-39.033V391l-39.033-39.032zm0 78.064L88.452 391l39.032 39.032-39.032 39.032-39.032-39.032z" fill="#8338EC"/><path d="M49.42 430.032c10.778-10.778 28.253-10.778 39.032 0 10.778 10.779 10.778 28.254 0 39.033l-19.516-19.517-19.517-19.516z" fill="#3A86FF"/><path d="M88.452 391l39.032-39.032L166.517 391l-39.033 39.032L88.452 391z" fill="#FF006E"/><path d="M88.452 391l19.516-19.516 39.033 39.032-19.517 19.516L88.452 391z" fill="#3A86FF"/><path d="M88.452 469.065l39.032-39.033 39.033 39.033-39.033 39.032-39.032-39.032z" fill="#FF006E"/><path d="M127.484 430.032c10.779 10.779 10.779 28.254 0 39.033-10.778 10.778-28.253 10.778-39.032 0l19.516-19.517 19.516-19.516z" fill="#FFBE0B"/><path d="M127.484 430.032L166.517 391l39.032 39.032-39.032 39.033-39.033-39.033z" fill="#FB5607"/><path d="M127.484 508.097l39.033-39.032 39.032 39.032-39.032 39.032-39.033-39.032z" fill="#3A86FF"/><path d="M205.549 508.097c-10.779 10.778-28.254 10.778-39.032 0-10.779-10.779-10.779-28.254 0-39.032l19.516 19.516 19.516 19.516z" fill="#FFBE0B"/><path d="M166.517 469.064l39.032-39.032 39.032 39.032-39.032 39.033-39.032-39.033zM-145.742 78.742L-67.677.677l78.065 78.065-78.065 78.064-78.065-78.064z" fill="#FFBE0B"/><path d="M-67.677 156.806l39.032-39.032 39.032 39.032-39.032 39.033-39.032-39.033z" fill="#FB5607"/><path d="M-28.645 117.774l39.032 39.032h-78.064l39.032-39.032z" fill="#FF006E"/><path d="M-28.645 117.774l39.032-39.032 39.033 39.032-39.033 39.032-39.032-39.032zm0 78.064l39.032-39.032 39.032 39.032-39.032 39.033-39.032-39.033z" fill="#FB5607"/><path d="M10.387 234.871l-19.516-19.516 39.032-39.033 19.517 19.517-39.033 39.032z" fill="#8338EC"/><path d="M10.387 156.806l39.032-39.032 39.033 39.032-39.032 39.033-39.033-39.033z" fill="#FB5607"/><path d="M10.387 156.806c10.779-10.778 28.254-10.778 39.032 0 10.779 10.779 10.779 28.254 0 39.033l-19.516-19.517-19.516-19.516z" fill="#8338EC"/><path d="M10.387 234.871l39.032-39.032 39.033 39.032-39.032 39.032-39.033-39.032z" fill="#FF006E"/><path d="M10.387 234.871c10.779-10.779 28.254-10.779 39.032 0 10.779 10.778 10.779 28.254 0 39.032l-19.516-19.516-19.516-19.516z" fill="#3A86FF"/><path d="M49.42 195.838l39.032-39.032 39.033 39.032-39.033 39.033-39.032-39.033z" fill="#FF006E"/><path d="M127.484 195.838l-39.032 39.033v-78.065l39.032 39.032zM49.42 273.903l39.032-39.032 39.032 39.032-39.032 39.032-39.032-39.032z" fill="#8338EC"/><path d="M88.452 234.871l39.032-39.033 39.033 39.033-39.033 39.032-39.032-39.032z" fill="#FB5607"/><path d="M127.484 273.903l-19.516-19.516 39.033-39.032 19.516 19.516-39.033 39.032zm-39.032 39.032l39.032-39.032 39.033 39.032-39.033 39.033-39.032-39.033z" fill="#3A86FF"/><path d="M88.452 312.935l19.516-19.516 39.033 39.032-19.517 19.517-39.032-39.033z" fill="#FFBE0B"/><path d="M127.484 273.903l39.033-39.032 39.032 39.032-39.032 39.032-39.033-39.032z" fill="#8338EC"/><path d="M166.517 234.871c10.778 10.778 10.778 28.254 0 39.032-10.779 10.779-28.254 10.779-39.033 0l19.517-19.516 19.516-19.516z" fill="#FFBE0B"/><path d="M127.484 351.968l39.033-39.033 39.032 39.033L166.517 391l-39.033-39.032z" fill="#8338EC"/><path d="M166.517 312.935l39.032-39.032 39.032 39.032-39.032 39.033-39.032-39.033z" fill="#3A86FF"/><path d="M166.517 391l78.064-78.065L322.646 391l-78.065 78.065L166.517 391z" fill="#FF006E"/><path d="M166.517 391c21.557-21.557 56.507-21.557 78.064 0 21.557 21.557 21.557 56.508 0 78.065l-39.032-39.033L166.517 391z" fill="#3A86FF"/><path d="M-67.677 703.258l39.032-39.032 39.032 39.032-39.032 39.033-39.032-39.033z" fill="#8338EC"/><path d="M10.387 703.258l-19.516 19.516-39.032-39.032 19.516-19.516 39.032 39.032zm-156.129-156.129l78.065-78.065 78.065 78.065-78.065 78.065-78.065-78.065z" fill="#FB5607"/><path d="M-67.677 469.065l78.065 78.064h-156.13l78.065-78.064z" fill="#FFBE0B"/><path d="M-67.677 625.194l39.032-39.033 39.032 39.033-39.032 39.032-39.032-39.032zm39.032-39.033l39.032-39.032 39.032 39.032-39.032 39.033-39.032-39.033z" fill="#3A86FF"/><path d="M-28.645 586.161l39.032-39.032v78.065l-39.032-39.033z" fill="#FF006E"/><path d="M-28.645 664.226l39.032-39.032 39.033 39.032-39.033 39.032-39.032-39.032z" fill="#3A86FF"/><path d="M10.387 625.194l39.032-39.033 39.033 39.033-39.032 39.032-39.033-39.032z" fill="#FFBE0B"/><path d="M49.42 586.161c10.778 10.779 10.778 28.254 0 39.033-10.779 10.778-28.254 10.778-39.033 0l19.516-19.516 19.517-19.517z" fill="#8338EC"/><path d="M-67.677 391l39.032-39.032L10.387 391l-39.032 39.032L-67.677 391z" fill="#FF006E"/><path d="M-28.645 430.032l-19.516-19.516 39.032-39.032L10.387 391l-39.032 39.032z" fill="#3A86FF"/><path d="M-67.677 469.064L10.387 391l78.065 78.064-78.065 78.065-78.064-78.065z" fill="#FB5607"/><path d="M10.387 547.129l78.065-78.065 78.064 78.065-78.064 78.065-78.065-78.065zm-156.129-312.258l78.065-78.065 78.065 78.065-78.065 78.064-78.065-78.064z" fill="#8338EC"/><path d="M-67.677 312.935l39.032-39.032 39.032 39.032-39.032 39.033-39.032-39.033z" fill="#FF006E"/><path d="M-28.645 273.903l39.032 39.032h-78.064l39.032-39.032z" fill="#8338EC"/><path d="M-28.645 273.903l39.032-39.032 39.033 39.032-39.033 39.032-39.032-39.032z" fill="#8338EC"/><path d="M10.387 234.871l39.033 39.032h-78.065l39.032-39.032z" fill="#FFBE0B"/><path d="M-28.645 351.968l39.032-39.033 39.033 39.033L10.387 391l-39.032-39.032z" fill="#FF006E"/><path d="M10.387 312.935l39.033 39.033h-78.065l39.032-39.033z" fill="#FFBE0B"/><path d="M10.387 312.935l39.032-39.032 39.033 39.032-39.032 39.033-39.033-39.033z" fill="#8338EC"/><path d="M49.42 351.968l-19.517-19.516 39.033-39.033 19.516 19.516-39.032 39.033zM10.387 391l39.032-39.032L88.453 391 49.42 430.032 10.386 391z" fill="#FB5607"/><path d="M49.42 430.032L10.386 391h78.065L49.42 430.032z" fill="#8338EC"/><path d="M49.42 351.968l39.032-39.033 39.032 39.033L88.452 391 49.42 351.968z" fill="#FF006E"/><path d="M127.484 351.968L88.452 391v-78.065l39.032 39.033zM49.42 430.032L88.452 391l39.032 39.032-39.032 39.032-39.032-39.032z" fill="#FFBE0B"/><path d="M88.452 469.065l-19.516-19.517 39.032-39.032 19.516 19.516-39.032 39.033zm0-78.065l39.032-39.032L166.517 391l-39.033 39.032L88.452 391z" fill="#FF006E"/><path d="M88.452 391l39.032-39.032v78.064L88.452 391z" fill="#FB5607"/><path d="M88.452 469.065L166.517 391l78.064 78.065-78.064 78.064-78.065-78.064z" fill="#8338EC"/><path d="M88.452 469.065c21.557-21.557 56.508-21.557 78.065 0 21.557 21.556 21.557 56.507 0 78.064l-39.033-39.032-39.032-39.032z" fill="#FFBE0B"/><path d="M-67.677 78.742l39.032-39.033 39.032 39.033-39.032 39.032-39.032-39.032z" fill="#8338EC"/><path d="M10.387 78.742l-39.032 39.032V39.709l39.032 39.033z" fill="#FF006E"/><path d="M-67.677 156.806l78.064-78.064 78.065 78.064-78.065 78.065-78.064-78.065z" fill="#FF006E"/><path d="M10.387 78.742l78.065 78.064h-156.13l78.065-78.064z" fill="#FB5607"/><path d="M10.387 234.871l39.032-39.032 39.033 39.032-39.032 39.032-39.033-39.032z" fill="#FFBE0B"/><path d="M10.387 234.871l19.516-19.516 39.033 39.032-19.517 19.516-39.032-39.032z" fill="#FB5607"/><path d="M49.42 195.838l39.032-39.032 39.033 39.032-39.033 39.033-39.032-39.033zm0 78.065l39.032-39.032 39.032 39.032-39.032 39.032-39.032-39.032z" fill="#FFBE0B"/><path d="M88.452 234.871c10.778 10.778 10.778 28.254 0 39.032-10.779 10.779-28.254 10.779-39.033 0l19.517-19.516 19.516-19.516z" fill="#FF006E"/><path d="M88.452 234.871l39.032-39.033 39.033 39.033-39.033 39.032-39.032-39.032z" fill="#FB5607"/><path d="M127.484 273.903c-10.778-10.778-10.778-28.254 0-39.032 10.779-10.779 28.254-10.779 39.033 0l-19.516 19.516-19.517 19.516z" fill="#8338EC"/><path d="M88.452 312.935l39.032-39.032 39.033 39.032-39.033 39.033-39.032-39.033z" fill="#3A86FF"/><path d="M127.484 351.968l-19.516-19.517 39.033-39.032 19.516 19.516-39.033 39.033z" fill="#FF006E"/><path d="M127.484 273.903l39.033-39.032 39.032 39.032-39.032 39.032-39.033-39.032z" fill="#FFBE0B"/><path d="M127.484 351.968l39.033-39.033 39.032 39.033L166.517 391l-39.033-39.032z" fill="#3A86FF"/><path d="M166.517 312.935l39.032-39.032 39.032 39.032-39.032 39.033-39.032-39.033zm0 78.065l39.032-39.032L244.581 391l-39.032 39.032L166.517 391z" fill="#FF006E"/><path d="M205.549 430.032L166.517 391h78.064l-39.032 39.032z" fill="#3A86FF"/><path d="M205.549 351.968l39.032-39.033 39.032 39.033L244.581 391l-39.032-39.032z" fill="#8338EC"/><path d="M283.613 351.968L244.581 391v-78.065l39.032 39.033z" fill="#3A86FF"/><path d="M205.549 430.032L244.581 391l39.032 39.032-39.032 39.032-39.032-39.032z" fill="#FFBE0B"/><path d="M244.581 469.065c-10.778-10.779-10.778-28.254 0-39.033 10.779-10.778 28.254-10.778 39.032 0l-19.516 19.516-19.516 19.517z" fill="#3A86FF"/><path d="M244.581 391l39.032-39.032L322.646 391l-39.033 39.032L244.581 391z" fill="#3A86FF"/></g><defs><clipPath id="clip0_201_9595"><path fill="#fff" transform="rotate(-45 242.479 749.562)" d="M0 0h552v552H0z"/></clipPath></defs></svg>