<svg width="282" height="781" fill="none" xmlns="http://www.w3.org/2000/svg"><g clip-path="url(#clip0_201_10770)"><path d="M1.35 390.323l39.032-39.032 39.032 39.032-39.032 39.032L1.35 390.323z" fill="#3A86FF"/><path d="M40.382 429.355l-19.516-19.516 39.032-39.032 19.517 19.516-39.033 39.032z" fill="#FFBE0B"/><path d="M40.382 351.291l39.032-39.033 39.032 39.033-39.032 39.032-39.032-39.032z" fill="#FF006E"/><path d="M79.415 312.258c10.778 10.779 10.778 28.254 0 39.033-10.779 10.778-28.254 10.778-39.033 0L59.9 331.774l19.516-19.516z" fill="#FFBE0B"/><path d="M40.382 429.355l39.032-39.032 39.032 39.032-39.032 39.033-39.032-39.033z" fill="#8338EC"/><path d="M79.414 390.323l39.032-39.032 39.033 39.032-39.033 39.032-39.032-39.032z" fill="#FFBE0B"/><path d="M118.447 429.355c-10.779-10.778-10.779-28.254 0-39.032 10.778-10.779 28.254-10.779 39.032 0l-19.516 19.516-19.516 19.516z" fill="#FF006E"/><path d="M79.415 468.388l78.064-78.065 78.065 78.065-78.065 78.064-78.064-78.064z" fill="#3A86FF"/><path d="M79.415 468.388l39.032-39.033 78.064 78.065-39.032 39.032-78.064-78.064z" fill="#FFBE0B"/><path d="M157.479 546.452l39.032-39.032 39.033 39.032-39.033 39.032-39.032-39.032z" fill="#FF006E"/><path d="M157.479 546.452l39.032-39.032v78.064l-39.032-39.032z" fill="#3A86FF"/><path d="M196.511 507.42l39.033-39.032 39.032 39.032-39.032 39.032-39.033-39.032z" fill="#8338EC"/><path d="M196.512 585.484l39.032-39.032 39.032 39.032-39.032 39.033-39.032-39.033z" fill="#FB5607"/><path d="M274.576 585.484l-39.032 39.033v-78.065l39.032 39.032z" fill="#FF006E"/><path d="M235.543 546.452l39.033-39.032 39.032 39.032-39.032 39.032-39.033-39.032z" fill="#FF006E"/><path d="M313.608 546.452l-19.516 19.516-39.032-39.032 19.516-19.516 39.032 39.032z" fill="#3A86FF"/><path d="M235.543 624.517l78.065-78.065 78.065 78.065-78.065 78.064-78.065-78.064z" fill="#FB5607"/><path d="M313.608 702.581c-21.557-21.557-21.557-56.507 0-78.064 21.557-21.557 56.508-21.557 78.065 0l-39.033 39.032-39.032 39.032z" fill="#8338EC"/><path d="M79.415 312.258l39.032-39.032 39.032 39.032-39.032 39.033-39.032-39.033z" fill="#FB5607"/><path d="M79.415 312.258l39.032-39.032v78.065l-39.032-39.033z" fill="#8338EC"/><path d="M118.446 273.226l39.033-39.032 39.032 39.032-39.032 39.032-39.033-39.032z" fill="#3A86FF"/><path d="M118.446 351.291l39.033-39.033 39.032 39.033-39.032 39.032-39.033-39.032z" fill="#FB5607"/><path d="M157.479 390.323l-19.516-19.516 39.032-39.033 19.516 19.517-39.032 39.032z" fill="#3A86FF"/><path d="M157.479 312.258l39.032-39.032 39.033 39.032-39.033 39.033-39.032-39.033z" fill="#FF006E"/><path d="M235.544 312.258c-10.779 10.779-28.254 10.779-39.033 0-10.778-10.778-10.778-28.253 0-39.032l19.516 19.516 19.517 19.516zm-78.065 78.065l39.033-39.032 39.032 39.032-39.032 39.032-39.033-39.032z" fill="#FB5607"/><path d="M196.511 351.291c10.779 10.778 10.779 28.253 0 39.032-10.778 10.778-28.254 10.778-39.032 0l19.516-19.516 19.516-19.516z" fill="#FFBE0B"/><path d="M196.511 351.291l39.033-39.033 39.032 39.033-39.032 39.032-39.033-39.032z" fill="#FF006E"/><path d="M196.511 351.291l19.516-19.516 39.033 39.032-19.516 19.516-39.033-39.032z" fill="#8338EC"/><path d="M196.511 429.355l39.033-39.032 39.032 39.032-39.032 39.033-39.033-39.033z" fill="#FF006E"/><path d="M235.544 468.388l-39.033-39.033h78.065l-39.032 39.033z" fill="#3A86FF"/><path d="M235.544 390.323l39.032-39.032 39.033 39.032-39.033 39.032-39.032-39.032z" fill="#FB5607"/><path d="M274.576 429.355l-19.516-19.516 39.032-39.032 19.516 19.516-39.032 39.032z" fill="#8338EC"/><path d="M235.543 468.388l39.033-39.033 39.032 39.032-39.032 39.033-39.033-39.032z" fill="#FB5607"/><path d="M313.608 468.388c-10.778 10.778-28.254 10.778-39.032 0-10.779-10.779-10.779-28.254 0-39.033l19.516 19.516 19.516 19.517z" fill="#FFBE0B"/><path d="M274.576 429.355l39.032-39.032 39.032 39.032-39.032 39.033-39.032-39.033z" fill="#FFBE0B"/><path d="M274.576 507.42l39.032-39.032 39.032 39.032-39.032 39.032-39.032-39.032z" fill="#FF006E"/><path d="M313.608 468.388c10.778 10.778 10.778 28.253 0 39.032-10.778 10.778-28.254 10.778-39.032 0l19.516-19.516 19.516-19.516z" fill="#8338EC"/><path d="M157.479 234.194l39.032-39.033 39.033 39.033-39.033 39.032-39.032-39.032z" fill="#FFBE0B"/><path d="M196.512 195.161l39.032-39.032 39.032 39.032-39.032 39.033-39.032-39.033z" fill="#8338EC"/><path d="M235.544 156.129l19.516 19.516-39.033 39.033-19.516-19.517 39.033-39.032z" fill="#FB5607"/><path d="M196.511 273.226l39.033-39.032 39.032 39.032-39.032 39.032-39.033-39.032z" fill="#3A86FF"/><path d="M235.543 234.194l39.033-39.033 39.032 39.033-39.032 39.032-39.033-39.032z" fill="#3A86FF"/><path d="M235.543 312.258l39.033-39.032 39.032 39.032-39.032 39.033-39.033-39.033z" fill="#FFBE0B"/><path d="M274.576 273.226l39.032 39.032h-78.065l39.033-39.032z" fill="#FF006E"/><path d="M274.576 273.226l39.032-39.032 39.032 39.032-39.032 39.032-39.032-39.032z" fill="#8338EC"/><path d="M274.576 351.291l39.032-39.033 39.032 39.033-39.032 39.032-39.032-39.032z" fill="#3A86FF"/><path d="M235.543 156.129l78.065-78.064 78.065 78.064-78.065 78.065-78.065-78.065z" fill="#FF006E"/><path d="M391.673 156.129l-78.065 78.065V78.064l78.065 78.065z" fill="#FFBE0B"/><path d="M1.35 390.323l39.032-39.032 39.032 39.032-39.032 39.032L1.35 390.323z" fill="#8338EC"/><path d="M40.382 351.291l39.032-39.033 39.032 39.033-39.032 39.032-39.032-39.032z" fill="#3A86FF"/><path d="M118.447 351.291l-39.032 39.032v-78.065l39.032 39.033zm-78.065 78.064l39.032-39.032 39.032 39.032-39.032 39.033-39.032-39.033z" fill="#8338EC"/><path d="M118.447 429.355l-39.032 39.033v-78.065l39.032 39.032z" fill="#FB5607"/><path d="M79.414 390.323l39.032-39.032 39.033 39.032-39.033 39.032-39.032-39.032z" fill="#3A86FF"/><path d="M79.415 390.323l39.032-39.032v78.064l-39.032-39.032zm0 78.065l78.064-78.065 78.065 78.065-78.065 78.064-78.064-78.064z" fill="#FF006E"/><path d="M157.479 546.452l39.032-39.032 39.033 39.032-39.033 39.032-39.032-39.032z" fill="#3A86FF"/><path d="M196.511 585.484l-39.032-39.032h78.065l-39.033 39.032z" fill="#FFBE0B"/><path d="M196.511 507.42l39.033-39.032 39.032 39.032-39.032 39.032-39.033-39.032z" fill="#FB5607"/><path d="M235.544 468.388l19.516 19.516-39.033 39.032-19.516-19.516 39.033-39.032z" fill="#FFBE0B"/><path d="M196.512 585.484l39.032-39.032 39.032 39.032-39.032 39.033-39.032-39.033z" fill="#FF006E"/><path d="M235.543 546.452l39.033-39.032 39.032 39.032-39.032 39.032-39.033-39.032z" fill="#3A86FF"/><path d="M235.543 624.517l39.033-39.033 39.032 39.033-39.032 39.032-39.033-39.032z" fill="#8338EC"/><path d="M274.576 663.549l-39.033-39.032h78.065l-39.032 39.032z" fill="#FB5607"/><path d="M274.576 585.484l39.032-39.032 39.032 39.032-39.032 39.033-39.032-39.033z" fill="#FB5607"/><path d="M274.576 585.484l39.032-39.032v78.065l-39.032-39.033z" fill="#8338EC"/><path d="M274.576 663.549l39.032-39.032 39.033 39.032-39.033 39.032-39.032-39.032z" fill="#8338EC"/><path d="M79.415 312.258l78.064-78.064 78.065 78.064-78.065 78.065-78.064-78.065z" fill="#FB5607"/><path d="M235.544 312.258l-78.065 78.065V234.194l78.065 78.064z" fill="#FF006E"/><path d="M157.479 390.323l78.065-78.065 78.065 78.065-78.065 78.065-78.065-78.065z" fill="#3A86FF"/><path d="M157.479 390.323c21.557-21.557 56.508-21.557 78.065 0 21.557 21.557 21.557 56.508 0 78.065l-39.033-39.033-39.032-39.032z" fill="#FB5607"/><path d="M235.543 468.388l78.065-78.065 78.065 78.065-78.065 78.064-78.065-78.064z" fill="#FB5607"/><path d="M313.608 390.323l39.032 39.032-78.064 78.065-39.033-39.032 78.065-78.065z" fill="#FFBE0B"/><path d="M157.479 234.194l39.032-39.033 39.033 39.033-39.033 39.032-39.032-39.032z" fill="#3A86FF"/><path d="M196.511 195.161l39.033 39.033h-78.065l39.032-39.033z" fill="#FF006E"/><path d="M196.512 195.161l39.032-39.032 39.032 39.032-39.032 39.033-39.032-39.033z" fill="#FB5607"/><path d="M235.544 156.129c10.778 10.779 10.778 28.254 0 39.032-10.779 10.779-28.254 10.779-39.033 0l19.516-19.516 19.517-19.516zm-39.033 117.097l39.033-39.032 39.032 39.032-39.032 39.032-39.033-39.032z" fill="#8338EC"/><path d="M235.543 234.194l39.033-39.033 39.032 39.033-39.032 39.032-39.033-39.032z" fill="#8338EC"/><path d="M274.576 195.161c10.778 10.779 10.778 28.254 0 39.033-10.779 10.778-28.254 10.778-39.033 0l19.517-19.516 19.516-19.517z" fill="#FFBE0B"/><path d="M235.543 312.258l78.065-78.064 78.065 78.064-78.065 78.065-78.065-78.065z" fill="#FB5607"/><path d="M313.608 234.194c21.557 21.557 21.557 56.507 0 78.064-21.557 21.557-56.508 21.557-78.065 0l39.033-39.032 39.032-39.032z" fill="#FFBE0B"/><path d="M235.543 156.129l39.033-39.032 39.032 39.032-39.032 39.033-39.033-39.033z" fill="#3A86FF"/><path d="M274.576 117.097l39.032 39.032h-78.065l39.033-39.032z" fill="#8338EC"/><path d="M274.576 117.097l39.032-39.032 39.033 39.032-39.033 39.032-39.032-39.032z" fill="#FF006E"/><path d="M313.608 78.065l39.032 39.032h-78.064l39.032-39.032z" fill="#8338EC"/><path d="M274.576 195.161l39.032-39.032 39.032 39.032-39.032 39.033-39.032-39.033z" fill="#3A86FF"/><path d="M274.576 195.161l39.032-39.032v78.065l-39.032-39.033z" fill="#FF006E"/><path d="M1.35 390.323l78.064-78.065 78.065 78.065-78.065 78.065L1.35 390.323z" fill="#8338EC"/><path d="M79.414 312.258l78.065 78.065H1.349l78.065-78.065z" fill="#FB5607"/><path d="M79.415 468.388l78.064-78.065 78.065 78.065-78.065 78.064-78.064-78.064z" fill="#FF006E"/><path d="M235.544 468.388l-78.065 78.064V390.323l78.065 78.065z" fill="#8338EC"/><path d="M157.479 546.452l39.032-39.032 39.033 39.032-39.033 39.032-39.032-39.032z" fill="#8338EC"/><path d="M196.511 507.42l39.033-39.032 39.032 39.032-39.032 39.032-39.033-39.032z" fill="#FB5607"/><path d="M274.576 507.42l-19.516 19.516-39.033-39.032 19.516-19.516 39.033 39.032z" fill="#FFBE0B"/><path d="M196.512 585.484l39.032-39.032 39.032 39.032-39.032 39.033-39.032-39.033z" fill="#FB5607"/><path d="M196.511 585.484l19.516-19.516 39.033 39.033-19.516 19.516-39.033-39.033z" fill="#8338EC"/><path d="M235.543 546.452l39.033-39.032 39.032 39.032-39.032 39.032-39.033-39.032z" fill="#FB5607"/><path d="M274.576 507.42l19.516 19.516-39.032 39.032-19.517-19.516 39.033-39.032z" fill="#8338EC"/><path d="M235.543 624.517l78.065-78.065 78.065 78.065-78.065 78.064-78.065-78.064z" fill="#FB5607"/><path d="M79.415 312.258l39.032-39.032 39.032 39.032-39.032 39.033-39.032-39.033z" fill="#8338EC"/><path d="M118.446 273.226l39.033-39.032 39.032 39.032-39.032 39.032-39.033-39.032z" fill="#8338EC"/><path d="M157.479 234.194l19.516 19.516-39.032 39.032-19.516-19.516 39.032-39.032z" fill="#FFBE0B"/><path d="M118.446 351.291l39.033-39.033 39.032 39.033-39.032 39.032-39.033-39.032z" fill="#3A86FF"/><path d="M196.511 351.291c-10.778 10.778-28.253 10.778-39.032 0-10.778-10.779-10.778-28.254 0-39.033l19.516 19.516 19.516 19.517z" fill="#FB5607"/><path d="M157.479 312.258l39.032-39.032 39.033 39.032-39.033 39.033-39.032-39.033z" fill="#FF006E"/><path d="M157.479 312.258l19.516-19.516 39.032 39.033-19.516 19.516-39.032-39.033z" fill="#3A86FF"/><path d="M157.479 390.323l78.065-78.065 78.065 78.065-78.065 78.065-78.065-78.065z" fill="#FFBE0B"/><path d="M157.479 390.323l39.032-39.032 78.065 78.064-39.032 39.033-78.065-78.065z" fill="#3A86FF"/><path d="M235.543 468.388l78.065-78.065 78.065 78.065-78.065 78.064-78.065-78.064z" fill="#8338EC"/><path d="M313.608 390.323l78.065 78.065h-156.13l78.065-78.065zM157.479 234.194l39.032-39.033 39.033 39.033-39.033 39.032-39.032-39.032z" fill="#FB5607"/><path d="M235.544 234.194c-10.779 10.778-28.254 10.778-39.033 0-10.778-10.779-10.778-28.254 0-39.033l19.516 19.517 19.517 19.516z" fill="#FFBE0B"/><path d="M196.512 195.161l39.032-39.032 39.032 39.032-39.032 39.033-39.032-39.033z" fill="#8338EC"/><path d="M196.511 273.226l39.033-39.032 39.032 39.032-39.032 39.032-39.033-39.032z" fill="#FF006E"/><path d="M235.543 312.258c-10.778-10.778-10.778-28.253 0-39.032 10.779-10.778 28.254-10.778 39.033 0l-19.516 19.516-19.517 19.516zm0-78.064l39.033-39.033 39.032 39.033-39.032 39.032-39.033-39.032z" fill="#8338EC"/><path d="M235.543 234.194l19.517-19.516 39.032 39.032-19.516 19.516-39.033-39.032zm0 78.064l39.033-39.032 39.032 39.032-39.032 39.033-39.033-39.033z" fill="#3A86FF"/><path d="M274.576 273.226l39.032 39.032h-78.065l39.033-39.032z" fill="#8338EC"/><path d="M274.576 273.226l39.032-39.032 39.032 39.032-39.032 39.032-39.032-39.032z" fill="#8338EC"/><path d="M313.608 234.194l19.516 19.516-39.032 39.032-19.516-19.516 39.032-39.032z" fill="#FFBE0B"/><path d="M274.576 351.291l39.032-39.033 39.032 39.033-39.032 39.032-39.032-39.032z" fill="#3A86FF"/><path d="M313.608 390.323l-39.032-39.032h78.064l-39.032 39.032z" fill="#8338EC"/><path d="M235.543 156.129l39.033-39.032 39.032 39.032-39.032 39.033-39.033-39.033z" fill="#FF006E"/><path d="M274.576 195.161l-19.516-19.516 39.032-39.032 19.516 19.516-39.032 39.032z" fill="#8338EC"/><path d="M274.576 117.097l39.032-39.032 39.033 39.032-39.033 39.032-39.032-39.032z" fill="#3A86FF"/><path d="M313.608 78.065c10.778 10.778 10.778 28.253 0 39.032-10.778 10.778-28.254 10.778-39.032 0l19.516-19.516 19.516-19.516z" fill="#FFBE0B"/><path d="M274.576 195.161l39.032-39.032 39.032 39.032-39.032 39.033-39.032-39.033z" fill="#FB5607"/><path d="M1.35 390.323l39.032-39.032 39.032 39.032-39.032 39.032L1.35 390.323z" fill="#FFBE0B"/><path d="M40.382 351.291l39.032 39.032H1.35l39.032-39.032z" fill="#8338EC"/><path d="M40.382 351.291l39.032-39.033 39.032 39.033-39.032 39.032-39.032-39.032z" fill="#8338EC"/><path d="M79.415 312.258c10.778 10.779 10.778 28.254 0 39.033-10.779 10.778-28.254 10.778-39.033 0L59.9 331.774l19.516-19.516zM40.382 429.355l39.032-39.032 39.032 39.032-39.032 39.033-39.032-39.033z" fill="#FFBE0B"/><path d="M40.382 429.355l39.033-39.032v78.065l-39.033-39.033z" fill="#FB5607"/><path d="M79.414 390.323l39.032-39.032 39.033 39.032-39.033 39.032-39.032-39.032z" fill="#FF006E"/><path d="M157.479 390.323l-39.032 39.032v-78.064l39.032 39.032zm-78.064 78.065l39.032-39.033 39.032 39.033-39.032 39.032-39.032-39.032z" fill="#FB5607"/><path d="M118.446 429.355l39.033-39.032 39.032 39.032-39.032 39.033-39.033-39.033z" fill="#FB5607"/><path d="M196.511 429.355l-39.032 39.033v-78.065l39.032 39.032z" fill="#FF006E"/><path d="M118.446 507.42l39.033-39.032 39.032 39.032-39.032 39.032-39.033-39.032z" fill="#FFBE0B"/><path d="M157.479 468.388l19.516 19.516-39.032 39.032-19.516-19.516 39.032-39.032z" fill="#FF006E"/><path d="M157.479 468.388l39.032-39.033 39.033 39.032-39.033 39.033-39.032-39.032z" fill="#3A86FF"/><path d="M196.511 507.42c-10.778-10.779-10.778-28.254 0-39.032 10.779-10.779 28.254-10.779 39.033 0l-19.517 19.516-19.516 19.516z" fill="#8338EC"/><path d="M157.479 546.452l78.065-78.065 78.064 78.065-78.064 78.065-78.065-78.065z" fill="#3A86FF"/><path d="M235.543 624.517l78.065-78.065 78.065 78.065-78.065 78.064-78.065-78.064z" fill="#FB5607"/><path d="M79.415 312.258l39.032-39.032 39.032 39.032-39.032 39.033-39.032-39.033z" fill="#8338EC"/><path d="M118.447 273.226c10.778 10.779 10.778 28.254 0 39.032-10.779 10.779-28.254 10.779-39.032 0l19.516-19.516 19.516-19.516z" fill="#3A86FF"/><path d="M118.446 273.226l39.033-39.032 39.032 39.032-39.032 39.032-39.033-39.032z" fill="#FFBE0B"/><path d="M196.511 273.226l-39.032 39.032v-78.064l39.032 39.032z" fill="#FF006E"/><path d="M118.446 351.291l39.033-39.033 39.032 39.033-39.032 39.032-39.033-39.032z" fill="#3A86FF"/><path d="M157.479 312.258l39.032 39.033h-78.064l39.032-39.033z" fill="#FFBE0B"/><path d="M157.479 312.258l39.032-39.032 39.033 39.032-39.033 39.033-39.032-39.033z" fill="#FFBE0B"/><path d="M157.479 390.323l78.065-78.065 78.065 78.065-78.065 78.065-78.065-78.065z" fill="#8338EC"/><path d="M313.608 390.323c-21.557 21.557-56.508 21.557-78.064 0-21.557-21.557-21.557-56.508 0-78.065l39.032 39.033 39.032 39.032z" fill="#FB5607"/><path d="M235.543 468.388l39.033-39.033 39.032 39.032-39.032 39.033-39.033-39.032z" fill="#8338EC"/><path d="M313.608 468.388l-39.032 39.032v-78.065l39.032 39.033z" fill="#FFBE0B"/><path d="M274.576 429.355l39.032-39.032 39.032 39.032-39.032 39.033-39.032-39.033zm0 78.065l39.032-39.032 39.032 39.032-39.032 39.032-39.032-39.032z" fill="#FF006E"/><path d="M157.479 234.194l78.065-78.065 78.064 78.065-78.064 78.064-78.065-78.064z" fill="#3A86FF"/><path d="M235.544 156.129l78.064 78.065H157.479l78.065-78.065zm-.001 156.129l78.065-78.064 78.065 78.064-78.065 78.065-78.065-78.065z" fill="#FFBE0B"/><path d="M235.543 312.258c21.557-21.557 56.508-21.557 78.065 0 21.557 21.557 21.557 56.508 0 78.065l-39.032-39.032-39.033-39.033zm0-156.129l39.033-39.032 39.032 39.032-39.032 39.033-39.033-39.033z" fill="#FB5607"/><path d="M274.576 117.097l19.516 19.516-39.032 39.032-19.517-19.516 39.033-39.032z" fill="#FFBE0B"/><path d="M274.576 117.097l39.032-39.032 39.033 39.032-39.033 39.032-39.032-39.032z" fill="#8338EC"/><path d="M274.576 117.097l39.032-39.032v78.064l-39.032-39.032z" fill="#FFBE0B"/><path d="M274.576 195.161l39.032-39.032 39.032 39.032-39.032 39.033-39.032-39.033z" fill="#FB5607"/><path d="M313.608 156.129l39.032 39.032h-78.064l39.032-39.032z" fill="#FFBE0B"/><path d="M1.35 390.323l39.032-39.032 39.032 39.032-39.032 39.032L1.35 390.323z" fill="#3A86FF"/><path d="M40.382 429.355l-19.516-19.516 39.032-39.032 19.517 19.516-39.033 39.032z" fill="#FB5607"/><path d="M40.382 351.291l39.032-39.033 39.032 39.033-39.032 39.032-39.032-39.032z" fill="#FF006E"/><path d="M79.415 390.323l-39.033-39.032h78.065l-39.032 39.032z" fill="#FB5607"/><path d="M40.382 429.355l39.032-39.032 39.032 39.032-39.032 39.033-39.032-39.033z" fill="#3A86FF"/><path d="M79.415 390.323l39.032 39.032H40.382l39.033-39.032z" fill="#8338EC"/><path d="M79.414 390.323l39.032-39.032 39.033 39.032-39.033 39.032-39.032-39.032z" fill="#FB5607"/><path d="M118.447 429.355l-19.516-19.516 39.032-39.032 19.516 19.516-39.032 39.032z" fill="#FF006E"/><path d="M79.415 468.388l78.064-78.065 78.065 78.065-78.065 78.064-78.064-78.064z" fill="#8338EC"/><path d="M157.479 546.452l-39.032-39.032 78.064-78.065 39.033 39.033-78.065 78.064z" fill="#FB5607"/><path d="M157.479 546.452l39.032-39.032 39.033 39.032-39.033 39.032-39.032-39.032z" fill="#FFBE0B"/><path d="M235.544 546.452l-19.517 19.516-39.032-39.032 19.516-19.516 39.033 39.032z" fill="#FB5607"/><path d="M196.511 507.42l39.033-39.032 39.032 39.032-39.032 39.032-39.033-39.032z" fill="#FF006E"/><path d="M235.544 468.388l39.032 39.032h-78.065l39.033-39.032z" fill="#8338EC"/><path d="M196.512 585.484l39.032-39.032 39.032 39.032-39.032 39.033-39.032-39.033z" fill="#FF006E"/><path d="M274.576 585.484l-39.032 39.033v-78.065l39.032 39.032z" fill="#FFBE0B"/><path d="M235.543 546.452l39.033-39.032 39.032 39.032-39.032 39.032-39.033-39.032z" fill="#FFBE0B"/><path d="M274.576 585.484c-10.779-10.778-10.779-28.253 0-39.032 10.778-10.778 28.254-10.778 39.032 0l-19.516 19.516-19.516 19.516z" fill="#FF006E"/><path d="M235.543 624.517l39.033-39.033 39.032 39.033-39.032 39.032-39.033-39.032z" fill="#8338EC"/><path d="M274.576 585.484l19.516 19.517-39.032 39.032-19.517-19.516 39.033-39.033zm0 0l39.032-39.032 39.032 39.032-39.032 39.033-39.032-39.033z" fill="#FF006E"/><path d="M313.608 546.452l19.516 19.516-39.032 39.033-19.516-19.517 39.032-39.032zm-39.032 117.097l39.032-39.032 39.033 39.032-39.033 39.032-39.032-39.032z" fill="#3A86FF"/><path d="M274.576 663.549l39.032-39.032v78.064l-39.032-39.032z" fill="#FF006E"/><path d="M79.415 312.258l39.032-39.032 39.032 39.032-39.032 39.033-39.032-39.033z" fill="#8338EC"/><path d="M118.447 273.226l19.516 19.516-39.032 39.032-19.516-19.516 39.032-39.032z" fill="#FB5607"/><path d="M118.446 273.226l39.033-39.032 39.032 39.032-39.032 39.032-39.033-39.032z" fill="#FFBE0B"/><path d="M118.446 351.291l39.033-39.033 39.032 39.033-39.032 39.032-39.033-39.032z" fill="#FF006E"/><path d="M157.479 390.323c-10.778-10.779-10.778-28.254 0-39.032 10.779-10.779 28.254-10.779 39.032 0l-19.516 19.516-19.516 19.516z" fill="#3A86FF"/><path d="M157.479 312.258l39.032-39.032 39.033 39.032-39.033 39.033-39.032-39.033z" fill="#FB5607"/><path d="M157.479 312.258l19.516-19.516 39.032 39.033-19.516 19.516-39.032-39.033z" fill="#8338EC"/><path d="M157.479 390.323l39.033-39.032 39.032 39.032-39.032 39.032-39.033-39.032z" fill="#FB5607"/><path d="M196.511 351.291l39.033-39.033 39.032 39.033-39.032 39.032-39.033-39.032z" fill="#FF006E"/><path d="M235.544 312.258l39.032 39.033h-78.065l39.033-39.033z" fill="#8338EC"/><path d="M196.511 429.355l39.033-39.032 39.032 39.032-39.032 39.033-39.033-39.033z" fill="#FFBE0B"/><path d="M196.511 429.355l39.033-39.032v78.065l-39.033-39.033z" fill="#FB5607"/><path d="M235.544 390.323l39.032-39.032 39.033 39.032-39.033 39.032-39.032-39.032z" fill="#FFBE0B"/><path d="M235.543 390.323l19.517-19.516 39.032 39.032-19.516 19.516-39.033-39.032zm0 78.065l78.065-78.065 78.065 78.065-78.065 78.064-78.065-78.064z" fill="#FF006E"/><path d="M391.673 468.388l-78.065 78.064V390.323l78.065 78.065z" fill="#FB5607"/><path d="M157.479 234.194l78.065-78.065 78.064 78.065-78.064 78.064-78.065-78.064z" fill="#FFBE0B"/><path d="M313.608 234.194l-39.032 39.032-78.065-78.065 39.033-39.032 78.064 78.065z" fill="#8338EC"/><path d="M235.543 312.258l78.065-78.064 78.065 78.064-78.065 78.065-78.065-78.065z" fill="#3A86FF"/><path d="M313.608 234.194l78.065 78.064h-156.13l78.065-78.064z" fill="#FB5607"/><path d="M235.543 156.129l39.033-39.032 39.032 39.032-39.032 39.033-39.033-39.033z" fill="#3A86FF"/><path d="M313.608 156.129l-19.516 19.516-39.032-39.032 19.516-19.516 39.032 39.032zm-39.032-39.032l39.032-39.032 39.033 39.032-39.033 39.032-39.032-39.032z" fill="#FFBE0B"/><path d="M313.608 78.065l39.032 39.032h-78.064l39.032-39.032z" fill="#8338EC"/><path d="M274.576 195.161l39.032-39.032 39.032 39.032-39.032 39.033-39.032-39.033z" fill="#3A86FF"/><path d="M1.35 390.323l78.064-78.065 78.065 78.065-78.065 78.065L1.35 390.323z" fill="#FF006E"/><path d="M79.415 468.388l78.064-78.065 78.065 78.065-78.065 78.064-78.064-78.064z" fill="#FFBE0B"/><path d="M157.479 546.452l39.032-39.032 39.033 39.032-39.033 39.032-39.032-39.032z" fill="#FB5607"/><path d="M196.511 507.42l39.033-39.032 39.032 39.032-39.032 39.032-39.033-39.032z" fill="#FF006E"/><path d="M235.544 468.388l19.516 19.516-39.033 39.032-19.516-19.516 39.033-39.032zm-39.032 117.096l39.032-39.032 39.032 39.032-39.032 39.033-39.032-39.033z" fill="#FB5607"/><path d="M235.544 546.452l39.032 39.032h-78.065l39.033-39.032z" fill="#3A86FF"/><path d="M235.543 546.452l39.033-39.032 39.032 39.032-39.032 39.032-39.033-39.032z" fill="#8338EC"/><path d="M274.576 507.42l19.516 19.516-39.032 39.032-19.517-19.516 39.033-39.032z" fill="#FF006E"/><path d="M235.543 624.517l39.033-39.033 39.032 39.033-39.032 39.032-39.033-39.032z" fill="#3A86FF"/><path d="M274.576 585.484c10.778 10.779 10.778 28.254 0 39.033-10.779 10.778-28.254 10.778-39.033 0l19.517-19.516 19.516-19.517z" fill="#FF006E"/><path d="M274.576 585.484l39.032-39.032 39.032 39.032-39.032 39.033-39.032-39.033z" fill="#3A86FF"/><path d="M274.576 585.484l19.516-19.516 39.032 39.033-19.516 19.516-39.032-39.033z" fill="#FF006E"/><path d="M274.576 663.549l39.032-39.032 39.033 39.032-39.033 39.032-39.032-39.032z" fill="#FFBE0B"/><path d="M352.64 663.549l-39.032 39.032v-78.064l39.032 39.032z" fill="#FF006E"/><path d="M79.415 312.258l39.032-39.032 39.032 39.032-39.032 39.033-39.032-39.033z" fill="#FB5607"/><path d="M118.447 273.226c10.778 10.779 10.778 28.254 0 39.032-10.779 10.779-28.254 10.779-39.032 0l19.516-19.516 19.516-19.516z" fill="#8338EC"/><path d="M118.446 273.226l39.033-39.032 39.032 39.032-39.032 39.032-39.033-39.032z" fill="#8338EC"/><path d="M196.511 273.226l-39.032 39.032v-78.064l39.032 39.032z" fill="#3A86FF"/><path d="M118.446 351.291l39.033-39.033 39.032 39.033-39.032 39.032-39.033-39.032z" fill="#8338EC"/><path d="M157.479 312.258l19.516 19.516-39.032 39.033-19.516-19.516 39.032-39.033z" fill="#FB5607"/><path d="M157.479 312.258l39.032-39.032 39.033 39.032-39.033 39.033-39.032-39.033z" fill="#FF006E"/><path d="M235.544 312.258l-39.033 39.033v-78.065l39.033 39.032z" fill="#8338EC"/><path d="M157.479 390.323l78.065-78.065 78.065 78.065-78.065 78.065-78.065-78.065z" fill="#8338EC"/><path d="M157.479 390.323l39.032-39.032 78.065 78.064-39.032 39.033-78.065-78.065z" fill="#FB5607"/><path d="M235.543 468.388l39.033-39.033 39.032 39.032-39.032 39.033-39.033-39.032z" fill="#FF006E"/><path d="M313.608 468.388l-19.516 19.516-39.032-39.033 19.516-19.516 39.032 39.033z" fill="#FB5607"/><path d="M274.576 429.355l39.032-39.032 39.032 39.032-39.032 39.033-39.032-39.033z" fill="#FB5607"/><path d="M274.576 507.42l39.032-39.032 39.032 39.032-39.032 39.032-39.032-39.032z" fill="#FFBE0B"/><path d="M274.576 507.42l39.032-39.032v78.064l-39.032-39.032z" fill="#8338EC"/><path d="M157.479 234.194l78.065-78.065 78.064 78.065-78.064 78.064-78.065-78.064z" fill="#FF006E"/><path d="M235.543 312.258l78.065-78.064 78.065 78.064-78.065 78.065-78.065-78.065z" fill="#FFBE0B"/><path d="M235.543 156.129l39.033-39.032 39.032 39.032-39.032 39.033-39.033-39.033z" fill="#8338EC"/><path d="M274.576 117.097l39.032 39.032h-78.065l39.033-39.032z" fill="#FFBE0B"/><path d="M274.576 117.097l39.032-39.032 39.033 39.032-39.033 39.032-39.032-39.032z" fill="#3A86FF"/><path d="M274.576 117.097l19.516-19.516 39.032 39.032-19.516 19.516-39.032-39.032z" fill="#FFBE0B"/><path d="M274.576 195.161l39.032-39.032 39.032 39.032-39.032 39.033-39.032-39.033z" fill="#8338EC"/><path d="M313.608 156.129l39.032 39.032h-78.064l39.032-39.032z" fill="#FFBE0B"/><path d="M1.35 390.323l78.064-78.065 78.065 78.065-78.065 78.065L1.35 390.323z" fill="#3A86FF"/><path d="M79.415 468.388l39.032-39.033 39.032 39.033-39.032 39.032-39.032-39.032z" fill="#FFBE0B"/><path d="M157.479 468.388c-10.778 10.778-28.254 10.778-39.032 0-10.779-10.779-10.779-28.254 0-39.033l19.516 19.516 19.516 19.517z" fill="#8338EC"/><path d="M118.446 429.355l39.033-39.032 39.032 39.032-39.032 39.033-39.033-39.033z" fill="#3A86FF"/><path d="M157.479 468.388l-19.516-19.517 39.032-39.032 19.516 19.516-39.032 39.033zm-39.033 39.032l39.033-39.032 39.032 39.032-39.032 39.032-39.033-39.032z" fill="#8338EC"/><path d="M157.479 468.388l39.032-39.033 39.033 39.032-39.033 39.033-39.032-39.032z" fill="#8338EC"/><path d="M157.479 468.388l39.032-39.033v78.065l-39.032-39.032z" fill="#3A86FF"/><path d="M157.479 546.452l39.032-39.032 39.033 39.032-39.033 39.032-39.032-39.032z" fill="#FB5607"/><path d="M235.544 546.452l-19.517 19.516-39.032-39.032 19.516-19.516 39.033 39.032z" fill="#8338EC"/><path d="M196.511 507.42l39.033-39.032 39.032 39.032-39.032 39.032-39.033-39.032z" fill="#3A86FF"/><path d="M196.511 507.42c10.779-10.779 28.254-10.779 39.033 0 10.778 10.778 10.778 28.254 0 39.032l-19.517-19.516-19.516-19.516z" fill="#FB5607"/><path d="M196.512 585.484l39.032-39.032 39.032 39.032-39.032 39.033-39.032-39.033z" fill="#8338EC"/><path d="M235.544 546.452l19.516 19.516-39.033 39.033-19.516-19.517 39.033-39.032z" fill="#FFBE0B"/><path d="M235.543 546.452l39.033-39.032 39.032 39.032-39.032 39.032-39.033-39.032z" fill="#FF006E"/><path d="M274.576 585.484c-10.779-10.778-10.779-28.253 0-39.032 10.778-10.778 28.254-10.778 39.032 0l-19.516 19.516-19.516 19.516z" fill="#FB5607"/><path d="M235.543 624.517l78.065-78.065 78.065 78.065-78.065 78.064-78.065-78.064z" fill="#8338EC"/><path d="M79.415 312.258l78.064-78.064 78.065 78.064-78.065 78.065-78.064-78.065z" fill="#3A86FF"/><path d="M157.479 390.323c-21.557-21.557-21.557-56.508 0-78.065 21.557-21.557 56.508-21.557 78.065 0l-39.033 39.033-39.032 39.032z" fill="#FFBE0B"/><path d="M157.479 390.323l39.033-39.032 39.032 39.032-39.032 39.032-39.033-39.032z" fill="#FFBE0B"/><path d="M235.544 390.323l-19.517 19.516-39.032-39.032 19.516-19.516 39.033 39.032z" fill="#FF006E"/><path d="M196.511 351.291l39.033-39.033 39.032 39.033-39.032 39.032-39.033-39.032z" fill="#FB5607"/><path d="M196.511 429.355l39.033-39.032 39.032 39.032-39.032 39.033-39.033-39.033z" fill="#3A86FF"/><path d="M274.576 429.355c-10.779 10.779-28.254 10.779-39.033 0-10.778-10.778-10.778-28.254 0-39.032l19.517 19.516 19.516 19.516z" fill="#FB5607"/><path d="M235.544 390.323l39.032-39.032 39.033 39.032-39.033 39.032-39.032-39.032z" fill="#8338EC"/><path d="M313.608 390.323l-19.516 19.516-39.032-39.032 19.516-19.516 39.032 39.032z" fill="#FFBE0B"/><path d="M235.543 468.388l78.065-78.065 78.065 78.065-78.065 78.064-78.065-78.064z" fill="#3A86FF"/><path d="M235.543 468.388c21.557-21.557 56.508-21.557 78.065 0 21.557 21.556 21.557 56.507 0 78.064l-39.032-39.032-39.033-39.032z" fill="#FB5607"/><path d="M157.479 234.194l39.032-39.033 39.033 39.033-39.033 39.032-39.032-39.032z" fill="#FFBE0B"/><path d="M196.512 195.161l39.032-39.032 39.032 39.032-39.032 39.033-39.032-39.033z" fill="#3A86FF"/><path d="M274.576 195.161l-19.516 19.517-39.033-39.033 19.516-19.516 39.033 39.032z" fill="#FF006E"/><path d="M196.511 273.226l39.033-39.032 39.032 39.032-39.032 39.032-39.033-39.032z" fill="#FFBE0B"/><path d="M196.511 273.226l39.033-39.032v78.064l-39.033-39.032z" fill="#8338EC"/><path d="M235.543 234.194l39.033-39.033 39.032 39.033-39.032 39.032-39.033-39.032z" fill="#FB5607"/><path d="M235.543 312.258l39.033-39.032 39.032 39.032-39.032 39.033-39.033-39.033z" fill="#3A86FF"/><path d="M274.576 351.291c-10.779-10.779-10.779-28.254 0-39.033 10.778-10.778 28.254-10.778 39.032 0l-19.516 19.517-19.516 19.516z" fill="#FFBE0B"/><path d="M274.576 273.226l39.032-39.032 39.032 39.032-39.032 39.032-39.032-39.032z" fill="#8338EC"/><path d="M274.576 351.291l39.032-39.033 39.032 39.033-39.032 39.032-39.032-39.032z" fill="#3A86FF"/><path d="M235.543 156.129l39.033-39.032 39.032 39.032-39.032 39.033-39.033-39.033z" fill="#FB5607"/><path d="M274.576 117.097c10.778 10.778 10.778 28.254 0 39.032-10.779 10.779-28.254 10.779-39.033 0l19.517-19.516 19.516-19.516z" fill="#FFBE0B"/><path d="M274.576 117.097l39.032-39.032 39.033 39.032-39.033 39.032-39.032-39.032zm0 78.064l39.032-39.032 39.032 39.032-39.032 39.033-39.032-39.033z" fill="#3A86FF"/></g><defs><clipPath id="clip0_201_10770"><path fill="#fff" transform="rotate(-45 471.337 194.739)" d="M0 0h552v552H0z"/></clipPath></defs></svg>