<svg width="782" height="285" fill="none" xmlns="http://www.w3.org/2000/svg"><g clip-path="url(#clip0_402_196)"><path d="M78.742-27.55l78.065-78.064 78.064 78.064-78.064 78.065L78.742-27.55z" fill="#3A86FF"/><path d="M78.742-27.55l39.032-39.032 78.065 78.065-39.032 39.032L78.742-27.55z" fill="#FFBE0B"/><path d="M156.806 50.515l39.033-39.032 39.032 39.032-39.032 39.032-39.033-39.032z" fill="#FF006E"/><path d="M156.806 50.515l39.033-39.032v78.064l-39.033-39.032z" fill="#3A86FF"/><path d="M195.839 11.483l39.032-39.032 39.032 39.032-39.032 39.032-39.032-39.032z" fill="#8338EC"/><path d="M195.839 89.547l39.032-39.032 39.032 39.032-39.032 39.033-39.032-39.033z" fill="#FB5607"/><path d="M273.903 89.547l-39.032 39.033V50.515l39.032 39.032z" fill="#FF006E"/><path d="M234.871 50.515l39.032-39.032 39.033 39.032-39.033 39.032-39.032-39.032z" fill="#FF006E"/><path d="M312.936 50.515L293.42 70.031 254.387 31l19.516-19.516 39.033 39.032z" fill="#3A86FF"/><path d="M234.871 128.58l78.065-78.065L391 128.58l-78.064 78.064-78.065-78.064z" fill="#FB5607"/><path d="M312.936 206.644c-21.557-21.557-21.557-56.507 0-78.064 21.557-21.557 56.507-21.557 78.064 0l-39.032 39.032-39.032 39.032z" fill="#8338EC"/><path d="M312.936 206.644l39.032-39.032L391 206.644l-39.032 39.032-39.032-39.032z" fill="#FFBE0B"/><path d="M391 206.644l-39.032 39.032v-78.064L391 206.644z" fill="#FB5607"/><path d="M351.968 167.612L391 128.58l39.032 39.032L391 206.644l-39.032-39.032z" fill="#FFBE0B"/><path d="M430.032 167.612L391 206.644V128.58l39.032 39.032z" fill="#3A86FF"/><path d="M351.968 245.677L391 206.644l39.032 39.033L391 284.709l-39.032-39.032z" fill="#FF006E"/><path d="M391 284.709l-39.032-39.032h78.064L391 284.709z" fill="#8338EC"/><path d="M391 206.644l39.033-39.032 39.032 39.032-39.032 39.032L391 206.644z" fill="#3A86FF"/><path d="M430.033 167.612l19.516 19.516-39.033 39.032L391 206.644l39.033-39.032z" fill="#FFBE0B"/><path d="M234.871-27.55l39.032-39.032 39.033 39.032-39.033 39.033-39.032-39.033z" fill="#FB5607"/><path d="M273.903 11.483l39.033-39.032 39.032 39.032-39.032 39.032-39.033-39.032z" fill="#FF006E"/><path d="M312.936-27.55c10.778 10.779 10.778 28.254 0 39.033-10.779 10.778-28.254 10.778-39.033 0l19.516-19.516 19.517-19.517z" fill="#8338EC"/><path d="M312.936-27.55l39.032-39.032L391-27.55l-39.032 39.033-39.032-39.033z" fill="#FF006E"/><path d="M312.936 50.515l39.032-39.032L391 50.515l-39.032 39.032-39.032-39.032z" fill="#FFBE0B"/><path d="M351.968 11.483c10.778 10.778 10.778 28.253 0 39.032-10.779 10.778-28.254 10.779-39.032 0l19.516-19.516 19.516-19.516z" fill="#FF006E"/><path d="M351.968 11.483L391-27.55l39.033 39.032L391 50.515l-39.032-39.032z" fill="#FB5607"/><path d="M351.968 89.547L391 50.515l39.032 39.032L391 128.58l-39.032-39.033z" fill="#FFBE0B"/><path d="M430.033 89.547l-19.517 19.516-39.032-39.032L391 50.515l39.033 39.032z" fill="#FF006E"/><path d="M391 50.515l39.033-39.032 39.032 39.032-39.032 39.032L391 50.515z" fill="#FF006E"/><path d="M391 128.58l78.065-78.065 78.064 78.065-78.064 78.064L391 128.58z" fill="#3A86FF"/><path d="M469.065 206.644l-39.033-39.032 78.065-78.065 39.032 39.033-78.064 78.064z" fill="#8338EC"/><path d="M391-27.55l78.065-78.064 78.064 78.064-78.064 78.065L391-27.55z" fill="#FB5607"/><path d="M469.065 50.515L391-27.55h156.129l-78.064 78.065z" fill="#8338EC"/><path d="M469.065 50.515l78.064-78.065 78.065 78.065-78.065 78.065-78.064-78.065z" fill="#8338EC"/><path d="M547.129-27.55l78.065-78.064 78.065 78.064-78.065 78.065-78.065-78.065z" fill="#FF006E"/><path d="M547.129-27.55l78.065-78.064V50.515L547.129-27.55z" fill="#FB5607"/><path d="M78.742-27.55l78.065-78.064 78.064 78.064-78.064 78.065L78.742-27.55z" fill="#FF006E"/><path d="M156.806 50.515l39.033-39.032 39.032 39.032-39.032 39.032-39.033-39.032z" fill="#3A86FF"/><path d="M195.839 89.547l-39.033-39.032h78.065l-39.032 39.032z" fill="#FFBE0B"/><path d="M195.839 11.483l39.032-39.032 39.032 39.032-39.032 39.032-39.032-39.032z" fill="#FB5607"/><path d="M234.871-27.55l19.516 19.517-39.032 39.032-19.516-19.516 39.032-39.032z" fill="#FFBE0B"/><path d="M195.839 89.547l39.032-39.032 39.032 39.032-39.032 39.033-39.032-39.033z" fill="#FF006E"/><path d="M234.871 50.515l39.032-39.032 39.033 39.032-39.033 39.032-39.032-39.032z" fill="#3A86FF"/><path d="M234.871 128.58l39.032-39.033 39.033 39.033-39.033 39.032-39.032-39.032z" fill="#8338EC"/><path d="M273.903 167.612l-39.032-39.032h78.065l-39.033 39.032zm0-78.065l39.033-39.032 39.032 39.032-39.032 39.033-39.033-39.033z" fill="#FB5607"/><path d="M273.903 89.547l39.033-39.032v78.065l-39.033-39.033zm0 78.065l39.033-39.032 39.032 39.032-39.032 39.032-39.033-39.032z" fill="#8338EC"/><path d="M312.936 128.58l39.032-39.033L391 128.58l-39.032 39.032-39.032-39.032z" fill="#FFBE0B"/><path d="M391 128.58l-19.516 19.516-39.032-39.033 19.516-19.516L391 128.58z" fill="#8338EC"/><path d="M312.936 206.644L391 128.58l78.065 78.064L391 284.709l-78.064-78.065z" fill="#3A86FF"/><path d="M391 128.58l78.065 78.064H312.936L391 128.58z" fill="#FF006E"/><path d="M234.871-27.55l78.065-78.064L391-27.549l-78.064 78.064-78.065-78.065z" fill="#FB5607"/><path d="M312.936-105.614l39.032 39.032-78.065 78.065-39.032-39.033 78.065-78.064zm0 156.129L391-27.55l78.065 78.065L391 128.58l-78.064-78.065z" fill="#FFBE0B"/><path d="M391 128.58c-21.557-21.557-21.557-56.508 0-78.065 21.557-21.557 56.508-21.557 78.065 0l-39.033 39.032L391 128.58z" fill="#FF006E"/><path d="M391 128.58l78.065-78.065 78.064 78.065-78.064 78.064L391 128.58z" fill="#3A86FF"/><path d="M391-27.55l78.065-78.064 78.064 78.064-78.064 78.065L391-27.55z" fill="#FFBE0B"/><path d="M391-27.55l39.033-39.032 78.064 78.065-39.032 39.032L391-27.55z" fill="#FB5607"/><path d="M469.065 50.515l78.064-78.065 78.065 78.065-78.065 78.065-78.064-78.065z" fill="#FB5607"/><path d="M547.129-27.55l78.065-78.064 78.065 78.064-78.065 78.065-78.065-78.065z" fill="#3A86FF"/><path d="M547.129-27.55c21.557-21.556 56.508-21.556 78.065 0 21.557 21.557 21.557 56.508 0 78.065l-39.032-39.032-39.033-39.033z" fill="#FFBE0B"/><path d="M78.742-27.55l78.065-78.064 78.064 78.064-78.064 78.065L78.742-27.55z" fill="#FF006E"/><path d="M234.871-27.55l-78.064 78.065v-156.129l78.064 78.064z" fill="#8338EC"/><path d="M156.806 50.515l39.033-39.032 39.032 39.032-39.032 39.032-39.033-39.032z" fill="#8338EC"/><path d="M195.839 11.483l39.032-39.032 39.032 39.032-39.032 39.032-39.032-39.032z" fill="#FB5607"/><path d="M273.903 11.483l-19.516 19.516-39.032-39.032 19.516-19.517 39.032 39.033z" fill="#FFBE0B"/><path d="M195.839 89.547l39.032-39.032 39.032 39.032-39.032 39.033-39.032-39.033z" fill="#FB5607"/><path d="M195.839 89.547l19.516-19.516 39.032 39.033-19.516 19.516-39.032-39.033z" fill="#8338EC"/><path d="M234.871 50.515l39.032-39.032 39.033 39.032-39.033 39.032-39.032-39.032z" fill="#FB5607"/><path d="M273.903 11.483l19.517 19.516-39.033 39.032-19.516-19.516 39.032-39.032z" fill="#8338EC"/><path d="M234.871 128.58l78.065-78.065L391 128.58l-78.064 78.064-78.065-78.064z" fill="#FB5607"/><path d="M312.936 206.644l39.032-39.032L391 206.644l-39.032 39.032-39.032-39.032z" fill="#8338EC"/><path d="M391 206.644l-39.032 39.032v-78.064L391 206.644z" fill="#FF006E"/><path d="M351.968 167.612L391 128.58l39.032 39.032L391 206.644l-39.032-39.032z" fill="#8338EC"/><path d="M391 128.58l39.032 39.032h-78.064L391 128.58z" fill="#FB5607"/><path d="M351.968 245.677L391 206.644l39.032 39.033L391 284.709l-39.032-39.032z" fill="#8338EC"/><path d="M351.968 245.677l19.516-19.517 39.032 39.033L391 284.709l-39.032-39.032zM391 206.644l39.033-39.032 39.032 39.032-39.032 39.032L391 206.644z" fill="#FFBE0B"/><path d="M430.033 167.612l19.516 19.516-39.033 39.032L391 206.644l39.033-39.032z" fill="#3A86FF"/><path d="M234.871-27.55l78.065-78.064L391-27.549l-78.064 78.064-78.065-78.065z" fill="#8338EC"/><path d="M312.936-105.614L391-27.549H234.871l78.065-78.065z" fill="#FB5607"/><path d="M312.936 50.515L391-27.55l78.065 78.065L391 128.58l-78.064-78.065z" fill="#FF006E"/><path d="M391 128.58c-21.557-21.557-21.557-56.508 0-78.065 21.557-21.557 56.508-21.557 78.065 0l-39.033 39.032L391 128.58z" fill="#FB5607"/><path d="M391 128.58l39.033-39.033 39.032 39.033-39.032 39.032L391 128.58z" fill="#FF006E"/><path d="M469.065 128.58l-19.516 19.516-39.033-39.033 19.517-19.516 39.032 39.033z" fill="#8338EC"/><path d="M430.032 89.547l39.033-39.032 39.032 39.032-39.032 39.033-39.033-39.033z" fill="#8338EC"/><path d="M430.032 167.612l39.033-39.032 39.032 39.032-39.032 39.032-39.033-39.032z" fill="#FFBE0B"/><path d="M508.097 167.612l-39.032 39.032V128.58l39.032 39.032z" fill="#FF006E"/><path d="M469.065 128.58l39.032-39.033 39.032 39.033-39.032 39.032-39.032-39.032z" fill="#8338EC"/><path d="M508.097 167.612l-39.032-39.032h78.064l-39.032 39.032z" fill="#3A86FF"/><path d="M391-27.55l78.065-78.064 78.064 78.064-78.064 78.065L391-27.55z" fill="#FFBE0B"/><path d="M391-27.55l39.033-39.032 78.064 78.065-39.032 39.032L391-27.55z" fill="#3A86FF"/><path d="M469.065 50.515l78.064-78.065 78.065 78.065-78.065 78.065-78.064-78.065z" fill="#FFBE0B"/><path d="M547.129-27.55l78.065 78.065H469.065l78.064-78.065z" fill="#FF006E"/><path d="M547.129-27.55l39.033-39.032 39.032 39.032-39.032 39.033-39.033-39.033z" fill="#3A86FF"/><path d="M547.129-27.55c10.779-10.778 28.254-10.778 39.033 0 10.778 10.779 10.778 28.254 0 39.033L566.646-8.033 547.129-27.55z" fill="#FF006E"/><path d="M586.162 11.483l39.032-39.032 39.032 39.032-39.032 39.032-39.032-39.032z" fill="#3A86FF"/><path d="M664.226 11.483c-10.778 10.778-28.254 10.778-39.032 0-10.779-10.779-10.779-28.254 0-39.033L644.71-8.033l19.516 19.516z" fill="#8338EC"/><path d="M625.194-27.55l39.032-39.032 39.032 39.032-39.032 39.033-39.032-39.033z" fill="#FF006E"/><path d="M78.742-27.55l39.032-39.032 39.033 39.032-39.033 39.033L78.742-27.55z" fill="#FB5607"/><path d="M117.774 11.483l39.032-39.032 39.033 39.032-39.033 39.032-39.032-39.032z" fill="#FFBE0B"/><path d="M156.806-27.55l19.517 19.517-39.033 39.032-19.516-19.516 39.032-39.032z" fill="#FF006E"/><path d="M156.806-27.55l39.033-39.032 39.032 39.032-39.032 39.033-39.033-39.033z" fill="#3A86FF"/><path d="M195.839 11.483c-10.779-10.779-10.779-28.254 0-39.033 10.778-10.778 28.253-10.778 39.032 0L215.355-8.033l-19.516 19.516z" fill="#8338EC"/><path d="M156.806 50.515l78.065-78.065 78.065 78.065-78.065 78.065-78.065-78.065z" fill="#3A86FF"/><path d="M234.871 128.58l78.065-78.065L391 128.58l-78.064 78.064-78.065-78.064z" fill="#FB5607"/><path d="M312.936 206.644l39.032-39.032L391 206.644l-39.032 39.032-39.032-39.032z" fill="#3A86FF"/><path d="M391 206.644c-10.778 10.779-28.254 10.779-39.032 0-10.779-10.778-10.779-28.254 0-39.032l19.516 19.516L391 206.644z" fill="#8338EC"/><path d="M351.968 167.612L391 128.58l39.032 39.032L391 206.644l-39.032-39.032z" fill="#FB5607"/><path d="M351.968 167.612L391 128.58v78.064l-39.032-39.032zm0 78.065L391 206.644l39.032 39.033L391 284.709l-39.032-39.032z" fill="#3A86FF"/><path d="M391 284.709l-39.032-39.032h78.064L391 284.709z" fill="#8338EC"/><path d="M391 206.644l39.033-39.032 39.032 39.032-39.032 39.032L391 206.644z" fill="#3A86FF"/><path d="M430.033 167.612l39.032 39.032H391l39.033-39.032z" fill="#FF006E"/><path d="M234.871-27.55l39.032-39.032 39.033 39.032-39.033 39.033-39.032-39.033z" fill="#8338EC"/><path d="M312.936-27.55l-39.033 39.033v-78.065l39.033 39.032z" fill="#FFBE0B"/><path d="M273.903 11.483l39.033-39.032 39.032 39.032-39.032 39.032-39.033-39.032z" fill="#FF006E"/><path d="M351.968 11.483l-19.516 19.516-39.033-39.032 19.517-19.517 39.032 39.033z" fill="#FFBE0B"/><path d="M312.936-27.55l39.032-39.032L391-27.55l-39.032 39.033-39.032-39.033z" fill="#FF006E"/><path d="M312.936-27.55l39.032-39.032v78.065L312.936-27.55z" fill="#FFBE0B"/><path d="M312.936 50.515l39.032-39.032L391 50.515l-39.032 39.032-39.032-39.032z" fill="#FF006E"/><path d="M351.968 11.483l19.516 19.516-39.032 39.032-19.516-19.516 39.032-39.032z" fill="#FB5607"/><path d="M351.968 11.483L391-27.55l39.033 39.032L391 50.515l-39.032-39.032z" fill="#FF006E"/><path d="M351.968 89.547L391 50.515l39.032 39.032L391 128.58l-39.032-39.033z" fill="#8338EC"/><path d="M391 50.515l39.033-39.032 39.032 39.032-39.032 39.032L391 50.515z" fill="#3A86FF"/><path d="M430.033 11.483l19.516 19.516-39.033 39.032L391 50.515l39.033-39.032zM391 128.58l39.033-39.033 39.032 39.033-39.032 39.032L391 128.58z" fill="#FFBE0B"/><path d="M430.033 89.547l39.032 39.033H391l39.033-39.033z" fill="#FF006E"/><path d="M430.032 89.547l39.033-39.032 39.032 39.032-39.032 39.033-39.033-39.033z" fill="#FF006E"/><path d="M469.065 128.58l-39.033-39.033h78.065l-39.032 39.033z" fill="#8338EC"/><path d="M430.032 167.612l39.033-39.032 39.032 39.032-39.032 39.032-39.033-39.032z" fill="#FF006E"/><path d="M508.097 167.612c-10.778 10.778-28.254 10.778-39.032 0-10.779-10.778-10.779-28.254 0-39.032l19.516 19.516 19.516 19.516z" fill="#FFBE0B"/><path d="M469.065 128.58l39.032-39.033 39.032 39.033-39.032 39.032-39.032-39.032z" fill="#FB5607"/><path d="M508.097 89.547l39.032 39.033h-78.064l39.032-39.033z" fill="#3A86FF"/><path d="M391-27.55l39.033-39.032 39.032 39.032-39.032 39.033L391-27.55z" fill="#8338EC"/><path d="M391-27.55l19.516-19.516 39.033 39.033-19.516 19.516L391-27.55z" fill="#FB5607"/><path d="M430.032 11.483l39.033-39.032 39.032 39.032-39.032 39.032-39.033-39.032z" fill="#8338EC"/><path d="M469.065 50.515c-10.779-10.778-10.779-28.254 0-39.032 10.778-10.779 28.254-10.779 39.032 0l-19.516 19.516-19.516 19.516z" fill="#FF006E"/><path d="M469.065-27.55l39.032-39.032 39.032 39.032-39.032 39.033-39.032-39.033z" fill="#FFBE0B"/><path d="M508.097-66.582l39.032 39.032h-78.064l39.032-39.032z" fill="#8338EC"/><path d="M469.065 50.515l78.064-78.065 78.065 78.065-78.065 78.065-78.064-78.065z" fill="#FB5607"/><path d="M547.129-27.55l39.033-39.032 39.032 39.032-39.032 39.033-39.033-39.033z" fill="#3A86FF"/><path d="M586.162-66.582l39.032 39.032h-78.065l39.033-39.032z" fill="#FF006E"/><path d="M586.162 11.483l39.032-39.032 39.032 39.032-39.032 39.032-39.032-39.032z" fill="#FFBE0B"/><path d="M586.162 11.483l19.516-19.516 39.032 39.032-19.516 19.516-39.032-39.032z" fill="#FF006E"/><path d="M625.194-27.55l39.032-39.032 39.032 39.032-39.032 39.033-39.032-39.033z" fill="#3A86FF"/><path d="M78.742-27.55l78.065-78.064 78.064 78.064-78.064 78.065L78.742-27.55z" fill="#8338EC"/><path d="M156.806 50.515l-39.032-39.032 78.065-78.065 39.032 39.032-78.065 78.065z" fill="#FB5607"/><path d="M156.806 50.515l39.033-39.032 39.032 39.032-39.032 39.032-39.033-39.032z" fill="#FFBE0B"/><path d="M234.871 50.515l-19.516 19.516L176.323 31l19.516-19.516 39.032 39.032z" fill="#FB5607"/><path d="M195.839 11.483l39.032-39.032 39.032 39.032-39.032 39.032-39.032-39.032z" fill="#FF006E"/><path d="M234.871-27.55l39.032 39.033h-78.064l39.032-39.032z" fill="#8338EC"/><path d="M195.839 89.547l39.032-39.032 39.032 39.032-39.032 39.033-39.032-39.033z" fill="#FF006E"/><path d="M273.903 89.547l-39.032 39.033V50.515l39.032 39.032z" fill="#FFBE0B"/><path d="M234.871 50.515l39.032-39.032 39.033 39.032-39.033 39.032-39.032-39.032z" fill="#FFBE0B"/><path d="M273.903 89.547c-10.778-10.778-10.778-28.253 0-39.032 10.779-10.778 28.254-10.778 39.033 0L293.42 70.031l-19.517 19.516z" fill="#FF006E"/><path d="M234.871 128.58l39.032-39.033 39.033 39.033-39.033 39.032-39.032-39.032z" fill="#8338EC"/><path d="M273.903 89.547l19.517 19.516-39.033 39.033-19.516-19.516 39.032-39.033z" fill="#FF006E"/><path d="M273.903 89.547l39.033-39.032 39.032 39.032-39.032 39.033-39.033-39.033z" fill="#FF006E"/><path d="M312.936 50.515l19.516 19.516-39.033 39.032-19.516-19.516 39.033-39.032zm-39.033 117.097l39.033-39.032 39.032 39.032-39.032 39.032-39.033-39.032z" fill="#3A86FF"/><path d="M273.903 167.612l39.033-39.032v78.064l-39.033-39.032z" fill="#FF006E"/><path d="M312.936 128.58l39.032-39.033L391 128.58l-39.032 39.032-39.032-39.032z" fill="#FB5607"/><path d="M351.968 89.547c10.778 10.779 10.778 28.254 0 39.033-10.779 10.778-28.254 10.778-39.032 0l19.516-19.517 19.516-19.516z" fill="#3A86FF"/><path d="M312.936 206.644l39.032-39.032L391 206.644l-39.032 39.032-39.032-39.032z" fill="#FFBE0B"/><path d="M351.968 167.612l19.516 19.516-39.032 39.032-19.516-19.516 39.032-39.032z" fill="#FB5607"/><path d="M351.968 167.612L391 128.58l39.032 39.032L391 206.644l-39.032-39.032z" fill="#FF006E"/><path d="M351.968 245.677L391 206.644l39.032 39.033L391 284.709l-39.032-39.032z" fill="#3A86FF"/><path d="M391 206.644l19.516 19.516-39.032 39.033-19.516-19.516L391 206.644z" fill="#FFBE0B"/><path d="M391 206.644l39.033-39.032 39.032 39.032-39.032 39.032L391 206.644z" fill="#3A86FF"/><path d="M391 206.644l19.516-19.516 39.033 39.032-19.516 19.516L391 206.644z" fill="#8338EC"/><path d="M234.871-27.55l78.065-78.064L391-27.549l-78.064 78.064-78.065-78.065z" fill="#FF006E"/><path d="M391-27.55l-78.064 78.065v-156.129L391-27.549z" fill="#FB5607"/><path d="M312.936 50.515L391-27.55l78.065 78.065L391 128.58l-78.064-78.065z" fill="#FFBE0B"/><path d="M391 128.58l-39.032-39.033 78.064-78.064 39.033 39.032L391 128.58z" fill="#8338EC"/><path d="M391 128.58l78.065-78.065 78.064 78.065-78.064 78.064L391 128.58z" fill="#8338EC"/><path d="M391 128.58c21.557-21.557 56.508-21.557 78.065 0 21.557 21.557 21.557 56.507 0 78.064l-39.032-39.032L391 128.58zm0-156.13l78.065-78.064 78.064 78.064-78.064 78.065L391-27.55z" fill="#3A86FF"/><path d="M547.129-27.55l-39.032 39.033-78.065-78.065 39.033-39.032 78.064 78.065z" fill="#FF006E"/><path d="M469.065 50.515l39.032-39.032 39.032 39.032-39.032 39.032-39.032-39.032z" fill="#8338EC"/><path d="M508.097 89.547l-39.032-39.032h78.064l-39.032 39.032zm0-78.064l39.032-39.032 39.033 39.032-39.033 39.032-39.032-39.032z" fill="#FF006E"/><path d="M586.162 11.483c-10.779 10.778-28.254 10.778-39.033 0-10.778-10.779-10.778-28.254 0-39.033l19.517 19.517 19.516 19.516z" fill="#FFBE0B"/><path d="M508.097 89.547l39.032-39.032 39.033 39.032-39.033 39.033-39.032-39.033z" fill="#3A86FF"/><path d="M547.129 128.58l-19.516-19.517 39.033-39.032 19.516 19.516-39.033 39.033z" fill="#FFBE0B"/><path d="M547.129 50.515l39.033-39.032 39.032 39.032-39.032 39.032-39.033-39.032z" fill="#FB5607"/><path d="M547.129-27.55l39.033-39.032 39.032 39.032-39.032 39.033-39.033-39.033z" fill="#8338EC"/><path d="M586.162 11.483l39.032-39.032 39.032 39.032-39.032 39.032-39.032-39.032z" fill="#3A86FF"/><path d="M664.226 11.483l-39.032 39.032V-27.55l39.032 39.033z" fill="#8338EC"/><path d="M625.194-27.55l39.032-39.032 39.032 39.032-39.032 39.033-39.032-39.033z" fill="#FB5607"/><path d="M78.742-27.55l78.065-78.064 78.064 78.064-78.064 78.065L78.742-27.55z" fill="#FFBE0B"/><path d="M156.806 50.515l39.033-39.032 39.032 39.032-39.032 39.032-39.033-39.032z" fill="#FB5607"/><path d="M195.839 11.483l39.032-39.032 39.032 39.032-39.032 39.032-39.032-39.032z" fill="#FF006E"/><path d="M234.871-27.55l19.516 19.517-39.032 39.032-19.516-19.516 39.032-39.032zM195.839 89.547l39.032-39.032 39.032 39.032-39.032 39.033-39.032-39.033z" fill="#FB5607"/><path d="M234.871 50.515l39.032 39.032h-78.064l39.032-39.032z" fill="#3A86FF"/><path d="M234.871 50.515l39.032-39.032 39.033 39.032-39.033 39.032-39.032-39.032z" fill="#8338EC"/><path d="M273.903 11.483l19.517 19.516-39.033 39.032-19.516-19.516 39.032-39.032z" fill="#FF006E"/><path d="M234.871 128.58l39.032-39.033 39.033 39.033-39.033 39.032-39.032-39.032z" fill="#3A86FF"/><path d="M273.903 89.547c10.779 10.779 10.779 28.254 0 39.033-10.778 10.778-28.253 10.778-39.032 0l19.516-19.517 19.516-19.516z" fill="#FF006E"/><path d="M273.903 89.547l39.033-39.032 39.032 39.032-39.032 39.033-39.033-39.033z" fill="#3A86FF"/><path d="M273.903 89.547l19.516-19.516 39.033 39.032-19.516 19.517-39.033-39.033z" fill="#FF006E"/><path d="M273.903 167.612l39.033-39.032 39.032 39.032-39.032 39.032-39.033-39.032z" fill="#FFBE0B"/><path d="M351.968 167.612l-39.032 39.032V128.58l39.032 39.032z" fill="#FF006E"/><path d="M312.936 128.58l39.032-39.033L391 128.58l-39.032 39.032-39.032-39.032z" fill="#FF006E"/><path d="M312.936 128.58l19.516-19.517 39.032 39.033-19.516 19.516-39.032-39.032z" fill="#FFBE0B"/><path d="M312.936 206.644l39.032-39.032L391 206.644l-39.032 39.032-39.032-39.032z" fill="#3A86FF"/><path d="M351.968 245.676l-39.032-39.032H391l-39.032 39.032z" fill="#FF006E"/><path d="M351.968 167.612L391 128.58l39.032 39.032L391 206.644l-39.032-39.032z" fill="#8338EC"/><path d="M391 206.644l-19.516-19.516 39.032-39.032 19.517 19.516L391 206.644z" fill="#3A86FF"/><path d="M351.968 245.677L391 206.644l39.032 39.033L391 284.709l-39.032-39.032z" fill="#8338EC"/><path d="M391 206.644l39.033-39.032 39.032 39.032-39.032 39.032L391 206.644z" fill="#FFBE0B"/><path d="M234.871-27.55l39.032-39.032 39.033 39.032-39.033 39.033-39.032-39.033z" fill="#FF006E"/><path d="M273.903 11.483l39.033-39.032 39.032 39.032-39.032 39.032-39.033-39.032z" fill="#FFBE0B"/><path d="M273.903 11.483l39.033-39.032v78.064l-39.033-39.032z" fill="#8338EC"/><path d="M312.936-27.55l39.032-39.032L391-27.55l-39.032 39.033-39.032-39.033z" fill="#FB5607"/><path d="M312.936 50.515l39.032-39.032L391 50.515l-39.032 39.032-39.032-39.032z" fill="#FFBE0B"/><path d="M351.968 11.483l19.516 19.516-39.032 39.032-19.516-19.516 39.032-39.032z" fill="#FB5607"/><path d="M351.968 11.483L391-27.55l39.033 39.032L391 50.515l-39.032-39.032z" fill="#FF006E"/><path d="M351.968 89.547L391 50.515l39.032 39.032L391 128.58l-39.032-39.033z" fill="#FB5607"/><path d="M430.033 89.547c-10.779 10.779-28.254 10.779-39.033 0-10.778-10.778-10.778-28.254 0-39.032l19.516 19.516 19.517 19.516z" fill="#3A86FF"/><path d="M391 50.515l39.033-39.032 39.032 39.032-39.032 39.032L391 50.515z" fill="#3A86FF"/><path d="M430.033 11.483c10.778 10.778 10.778 28.254 0 39.032-10.779 10.779-28.254 10.779-39.033 0l19.516-19.516 19.517-19.516zM391 128.58l39.033-39.033 39.032 39.033-39.032 39.032L391 128.58z" fill="#FFBE0B"/><path d="M430.032 89.547l39.033-39.032 39.032 39.032-39.032 39.033-39.033-39.033z" fill="#FB5607"/><path d="M430.032 89.547l39.033-39.032v78.065l-39.033-39.033z" fill="#FFBE0B"/><path d="M430.032 167.612l39.033-39.032 39.032 39.032-39.032 39.032-39.033-39.032z" fill="#FF006E"/><path d="M469.065 128.58l19.516 19.516-39.032 39.032-19.517-19.516 39.033-39.032z" fill="#3A86FF"/><path d="M469.065 128.58l39.032-39.033 39.032 39.033-39.032 39.032-39.032-39.032z" fill="#8338EC"/><path d="M391-27.55l39.033-39.032 39.032 39.032-39.032 39.033L391-27.55z" fill="#3A86FF"/><path d="M391-27.55l39.033-39.032v78.065L391-27.55z" fill="#FB5607"/><path d="M430.032 11.483l39.033-39.032 39.032 39.032-39.032 39.032-39.033-39.032z" fill="#FB5607"/><path d="M469.065-27.55l39.032 39.033h-78.065l39.033-39.032z" fill="#FFBE0B"/><path d="M469.065-27.55l39.032-39.032 39.032 39.032-39.032 39.033-39.032-39.033z" fill="#FB5607"/><path d="M469.065 50.515l78.064-78.065 78.065 78.065-78.065 78.065-78.064-78.065z" fill="#3A86FF"/><path d="M547.129 128.58l-78.064-78.065h156.129l-78.065 78.065z" fill="#FFBE0B"/><path d="M547.129-27.55l39.033-39.032 39.032 39.032-39.032 39.033-39.033-39.033z" fill="#FF006E"/><path d="M586.162 11.483l39.032-39.032 39.032 39.032-39.032 39.032-39.032-39.032z" fill="#3A86FF"/><path d="M664.226 11.483c-10.778 10.778-28.254 10.778-39.032 0-10.779-10.779-10.779-28.254 0-39.033L644.71-8.033l19.516 19.516z" fill="#FFBE0B"/><path d="M625.194-27.55l39.032-39.032 39.032 39.032-39.032 39.033-39.032-39.033zm-546.452 0l39.032-39.032 39.033 39.032-39.033 39.033L78.742-27.55z" fill="#FFBE0B"/><path d="M117.774 11.483l39.032-39.032 39.033 39.032-39.033 39.032-39.032-39.032z" fill="#8338EC"/><path d="M156.806-27.55l39.033-39.032 39.032 39.032-39.032 39.033-39.033-39.033z" fill="#8338EC"/><path d="M156.806-27.55l39.033-39.032v78.065L156.806-27.55z" fill="#3A86FF"/><path d="M156.806 50.515l39.033-39.032 39.032 39.032-39.032 39.032-39.033-39.032z" fill="#FB5607"/><path d="M234.871 50.515l-19.516 19.516L176.323 31l19.516-19.516 39.032 39.032z" fill="#8338EC"/><path d="M195.839 11.483l39.032-39.032 39.032 39.032-39.032 39.032-39.032-39.032z" fill="#3A86FF"/><path d="M195.839 11.483c10.778-10.779 28.253-10.779 39.032 0 10.778 10.778 10.778 28.254 0 39.032L215.355 31l-19.516-19.516z" fill="#FB5607"/><path d="M195.839 89.547l39.032-39.032 39.032 39.032-39.032 39.033-39.032-39.033z" fill="#8338EC"/><path d="M234.871 50.515l19.516 19.516-39.032 39.033-19.516-19.517 39.032-39.032z" fill="#FFBE0B"/><path d="M234.871 50.515l39.032-39.032 39.033 39.032-39.033 39.032-39.032-39.032z" fill="#FF006E"/><path d="M273.903 89.547c-10.778-10.778-10.778-28.253 0-39.032 10.779-10.778 28.254-10.778 39.033 0L293.42 70.031l-19.517 19.516z" fill="#FB5607"/><path d="M234.871 128.58l78.065-78.065L391 128.58l-78.064 78.064-78.065-78.064z" fill="#8338EC"/><path d="M312.936 206.644l39.032-39.032L391 206.644l-39.032 39.032-39.032-39.032z" fill="#8338EC"/><path d="M391 206.644l-19.516 19.516-39.032-39.032 19.516-19.516L391 206.644z" fill="#3A86FF"/><path d="M351.968 167.612L391 128.58l39.032 39.032L391 206.644l-39.032-39.032z" fill="#8338EC"/><path d="M351.968 245.677L391 206.644l39.032 39.033L391 284.709l-39.032-39.032z" fill="#FFBE0B"/><path d="M391 206.644l39.033-39.032 39.032 39.032-39.032 39.032L391 206.644z" fill="#8338EC"/><path d="M469.065 206.644l-19.516 19.516-39.033-39.032 19.517-19.516 39.032 39.032z" fill="#FB5607"/><path d="M234.871-27.55l78.065-78.064L391-27.549l-78.064 78.064-78.065-78.065z" fill="#3A86FF"/><path d="M234.871-27.55c21.557-21.556 56.508-21.556 78.065 0 21.557 21.557 21.557 56.508 0 78.065l-39.033-39.032-39.032-39.033z" fill="#FB5607"/><path d="M312.936 50.515L391-27.55l78.065 78.065L391 128.58l-78.064-78.065z" fill="#FB5607"/><path d="M391-27.55l78.065 78.065H312.936L391-27.55z" fill="#FFBE0B"/><path d="M391 128.58l39.033-39.033 39.032 39.033-39.032 39.032L391 128.58z" fill="#3A86FF"/><path d="M430.032 89.547l39.033-39.032 39.032 39.032-39.032 39.033-39.033-39.033z" fill="#3A86FF"/><path d="M430.032 89.547l39.033-39.032v78.065l-39.033-39.033z" fill="#FF006E"/><path d="M430.032 167.612l39.033-39.032 39.032 39.032-39.032 39.032-39.033-39.032z" fill="#3A86FF"/><path d="M469.065 128.58l39.032-39.033 39.032 39.033-39.032 39.032-39.032-39.032z" fill="#FFBE0B"/><path d="M508.097 89.547c10.778 10.779 10.778 28.254 0 39.033-10.778 10.778-28.254 10.778-39.032 0l19.516-19.517 19.516-19.516z" fill="#8338EC"/><path d="M391-27.55l78.065-78.064 78.064 78.064-78.064 78.065L391-27.55z" fill="#FB5607"/><path d="M469.065 50.515l78.064-78.065 78.065 78.065-78.065 78.065-78.064-78.065z" fill="#8338EC"/><path d="M547.129-27.55l78.065-78.064 78.065 78.064-78.065 78.065-78.065-78.065z" fill="#8338EC"/><path d="M547.129-27.55c21.557-21.556 56.508-21.556 78.065 0 21.557 21.557 21.557 56.508 0 78.065l-39.032-39.032-39.033-39.033z" fill="#FFBE0B"/></g><path fill-rule="evenodd" clip-rule="evenodd" d="M556.447 35.36V8.251c-22.236 0-40.263 17.995-40.263 40.193 0 22.198 18.027 40.193 40.263 40.193V61.531c-7.24 0-13.109-5.858-13.109-13.086 0-7.227 5.869-13.086 13.109-13.086z" fill="#FFDA54"/><path d="M201.06 179.741l27.874 27.874v-55.748l-27.874 27.874z" fill="#8338EC"/><path fill-rule="evenodd" clip-rule="evenodd" d="M264.791 213.075v-10.748c-8.818 0-15.966 7.135-15.966 15.937s7.148 15.937 15.966 15.937v-10.748a5.193 5.193 0 01-5.198-5.189 5.193 5.193 0 015.198-5.189z" fill="#54ADFF"/><path d="M176.312 93.356l39.091 39.091-39.091 39.092V93.356z" fill="#FF006E"/><path d="M196.65 248.294l12.376-12.376 12.376 12.376-12.376 12.376-12.376-12.376z" fill="#FFBE0B"/><path d="M606.188 132.873v-39.42l-39.42 39.42h39.42z" fill="#3A86FF"/><path d="M538.829 207.615l-17.678-17.677v35.355l17.678-17.678z" fill="#FFDA54"/><path d="M549.99 234.481h13v13h-13v-13z" fill="#FF006E"/><path d="M542.499 167.483c10.778-10.778 28.253-10.778 39.032 0 10.778 10.778 10.778 28.254 0 39.032l-19.516-19.516-19.516-19.516z" fill="#FB5607"/><defs><clipPath id="clip0_402_196"><path fill="#fff" transform="rotate(-45 -127.149 -53.625)" d="M0 0h552v552H0z"/></clipPath></defs></svg>