<svg width="18" height="24" viewBox="0 0 18 24" fill="none" xmlns="http://www.w3.org/2000/svg">
<path d="M3.85905 5.82981C4.06581 5.90001 4.16693 6.09346 4.11366 6.25623C4.04276 6.47287 3.85305 6.56765 3.70234 6.51649C3.49557 6.44629 3.39446 6.25285 3.44773 6.09007C3.51863 5.87343 3.70834 5.77865 3.85905 5.82981Z" fill="white" stroke="#6E81BE" stroke-width="0.4"/>
<path d="M7.61539 6.84544C7.82216 6.91564 7.92328 7.10908 7.87001 7.27185C7.79911 7.48849 7.6094 7.58328 7.45869 7.53211C7.25192 7.46192 7.1508 7.26847 7.20407 7.1057C7.27498 6.88906 7.46469 6.79427 7.61539 6.84544Z" fill="white" stroke="#6E81BE" stroke-width="0.4"/>
<path d="M8.96138 2.34004L5.06399 1.24952L5.06804 1.23386L5.25459 0.511824L9.14906 1.61363L8.96138 2.34004Z" fill="white" stroke="#6E81BE" stroke-width="0.4"/>
<path d="M8.90932 3.31411L9.13868 3.38085L6.74312 4.84478L5.72305 4.59543L4.40847 2.07993L8.90932 3.31411Z" fill="white" stroke="#6E81BE" stroke-width="0.4"/>
<path d="M4.5881 1.31254L4.49383 1.50457L4.72547 1.56939L8.86202 2.72683L8.82257 2.87415L4.07146 1.57134L3.62865 1.44992L3.84131 1.85685L5.1948 4.44681L4.53051 4.25736L2.44436 0.730301L4.5881 1.31254Z" fill="white" stroke="#6E81BE" stroke-width="0.4"/>
<path d="M7.94072 5.18221L7.26992 4.99091L9.73363 3.48534L10.1201 3.24919L9.68522 3.12265L9.20747 2.98363L9.29915 2.64124L11.4774 3.23285L7.94072 5.18221Z" fill="white" stroke="#6E81BE" stroke-width="0.4"/>
<path d="M6.9192 12.364L6.91563 12.364L4.26163 12.4115L1.83762 10.9871L1.8369 10.9867C1.19776 10.6147 0.774859 10.0591 0.931621 9.41687L2.02484 5.25358L2.02486 5.25358L2.02563 5.25046C2.18993 4.58109 2.88627 4.17144 3.53007 4.37635L3.53702 4.37856L3.54412 4.38026L4.34908 4.57317L8.72029 5.78297L8.72027 5.78301L8.72428 5.78403C9.37487 5.94969 9.78505 6.6583 9.58097 7.32343L9.58081 7.32338L9.57873 7.3313L8.48509 11.4962L8.47853 11.5212V11.547C8.47853 11.588 8.45744 11.6402 8.40552 11.7461C8.17464 12.1733 7.61457 12.364 6.9192 12.364ZM7.37795 7.91048L7.39305 7.91561L7.40877 7.91828C7.78022 7.98133 8.16861 7.79128 8.29802 7.39588C8.43494 6.9775 8.15567 6.58979 7.79184 6.46627C7.37195 6.32372 6.99107 6.61637 6.87177 6.98088C6.73484 7.39926 7.01412 7.78696 7.37795 7.91048ZM4.49864 6.31593C4.62451 5.90313 4.34749 5.52292 3.98787 5.40083C3.56799 5.25828 3.1871 5.55093 3.0678 5.91544C2.93088 6.33382 3.21016 6.72152 3.57398 6.84504C3.96607 6.97815 4.42154 6.72494 4.49864 6.31593Z" fill="white" stroke="#6E81BE" stroke-width="0.4"/>
<path d="M1.41075 17.9912L1.9252 16.0566L3.68049 16.5362L3.68048 16.5362L3.68385 16.5371L4.43897 16.7294L3.92228 18.6724L3.68698 18.6192L1.59945 18.0393L1.59946 18.0393L1.59527 18.0382L1.41075 17.9912Z" fill="white" stroke="#6E81BE" stroke-width="0.4"/>
<path d="M1.68814 18.4776L3.39486 18.9517L2.8286 21.1255C2.82783 21.1274 2.82665 21.1302 2.82492 21.134C2.82133 21.1419 2.81628 21.1522 2.8095 21.1651C2.79588 21.191 2.77721 21.2237 2.75342 21.2631C2.70591 21.3419 2.64158 21.4415 2.56475 21.556C2.41128 21.7849 2.21217 22.0673 2.00767 22.3511C1.774 22.6753 1.53564 22.998 1.35257 23.2416C1.31777 22.9388 1.27387 22.5385 1.23367 22.1392C1.19808 21.7858 1.16559 21.4352 1.14498 21.1556C1.13466 21.0156 1.12744 20.895 1.12423 20.8014C1.12262 20.7546 1.12207 20.716 1.12251 20.686C1.12273 20.671 1.12319 20.6591 1.12378 20.6499L1.12446 20.6415L1.68814 18.4776Z" fill="white" stroke="#6E81BE" stroke-width="0.4"/>
<path d="M1.35972 13.2903L1.81745 11.4679L4.05978 12.7855L4.10669 12.813H4.1611H6.70625L5.87054 15.9489C5.75235 16.3455 5.3295 16.5965 4.98034 16.4898L4.96805 16.4861L4.95537 16.4839L4.67932 16.437L3.78809 16.1982L1.55677 15.5212C1.55673 15.5212 1.5567 15.5212 1.55666 15.5212C1.17204 15.4036 0.916832 14.9722 1.02449 14.6067L1.02454 14.6067L1.02583 14.6019L1.16848 14.0692L1.16852 14.0692L1.16952 14.0652L1.35946 13.2913L1.35972 13.2903Z" fill="white" stroke="#6E81BE" stroke-width="0.4"/>
<path d="M8.66808 11.5872L8.67691 11.5692L8.68199 11.5498L9.77522 7.38651C9.88441 6.99575 9.82909 6.64921 9.61348 6.31462C9.43712 5.96522 9.09925 5.74691 8.73463 5.6408L8.73464 5.64077L8.73106 5.6398L3.54988 4.23582C3.45622 4.2087 3.36242 4.19149 3.2696 4.1836C3.37427 4.18761 3.47968 4.20388 3.58405 4.2334L3.58619 4.234L8.76909 5.63844L8.76904 5.63861L8.77725 5.64047C9.13851 5.72224 9.43133 5.96939 9.64948 6.32487C9.85571 6.66096 9.89739 7.03566 9.77251 7.41722L9.77217 7.41711L9.76915 7.42863L8.68032 11.5752C8.66652 11.6047 8.6531 11.6365 8.6404 11.6678C8.65026 11.6325 8.65678 11.6102 8.66808 11.5872ZM1.72803 11.221C1.15333 10.8785 0.829235 10.4702 0.731927 10.0369C0.780973 10.2337 0.874483 10.4089 0.988354 10.56C1.20735 10.8507 1.50656 11.0606 1.73312 11.1888L1.73302 11.189L1.73595 11.1905C1.73784 11.1931 1.74049 11.1977 1.74257 11.2041C1.74399 11.2084 1.74476 11.2124 1.74511 11.2156C1.74306 11.2167 1.74054 11.2179 1.7376 11.2189C1.73377 11.2202 1.73046 11.2208 1.72803 11.221ZM8.55927 11.8548C8.56459 11.8479 8.56953 11.8409 8.57414 11.8339C8.56459 11.8568 8.55555 11.8773 8.54677 11.8952L8.54665 11.8951L8.54366 11.9018C8.35632 12.3216 7.80314 12.6039 6.93201 12.6066C6.93214 12.6063 6.93227 12.6059 6.9324 12.6056C6.9363 12.5954 6.94243 12.584 6.9497 12.5741C6.95062 12.5729 6.95151 12.5717 6.95235 12.5707C7.21642 12.5687 7.5246 12.542 7.80988 12.4451C8.10372 12.3454 8.38493 12.1667 8.55927 11.8548Z" fill="#6E81BE" stroke="#6E81BE" stroke-width="0.4"/>
<path d="M4.96541 16.6481L4.94732 16.6389H4.95833C4.95864 16.639 4.95897 16.6391 4.95931 16.6392C4.96919 16.6419 4.98142 16.646 5.00055 16.6525L5.00263 16.6532C5.01884 16.6587 5.04099 16.6662 5.06265 16.6723C5.0222 16.6692 4.99353 16.6624 4.96541 16.6481ZM0.938701 15.2679C0.971917 15.3355 1.01015 15.3944 1.05287 15.4455C0.996617 15.3929 0.949193 15.3365 0.913893 15.2782C0.790092 15.0229 0.758992 14.7895 0.832817 14.5639L0.833077 14.564L0.835806 14.5539L1.73925 11.2123L1.74299 11.1985C1.74572 11.1952 1.74917 11.1913 1.75351 11.1866C1.75513 11.1848 1.75679 11.1831 1.75849 11.1813C1.76572 11.1832 1.77445 11.1864 1.78428 11.1911L4.20382 12.5924L4.25201 12.6203L4.30769 12.6193L6.95302 12.5711C6.95761 12.5729 6.9638 12.5756 6.97117 12.5793C6.9813 12.5845 6.99131 12.5905 6.99986 12.5964C7.00037 12.5968 7.00087 12.5971 7.00136 12.5975C7.00263 12.6054 7.00353 12.6151 7.00404 12.6265C7.00418 12.6297 7.00429 12.6329 7.00436 12.636L6.10859 15.9973C6.02993 16.2616 5.82616 16.4774 5.567 16.59C5.80429 16.4709 5.98511 16.2556 6.06327 16.0168L6.06363 16.0169L6.06672 16.0051L6.87506 12.9056L6.94038 12.6551H6.68153H4.25084L4.21486 12.6341L1.98003 11.3265L1.75213 11.1932L1.6855 11.4487L0.877157 14.5481L0.877137 14.5481L0.87645 14.5509C0.821057 14.7766 0.817469 15.0209 0.938701 15.2679Z" fill="#6E81BE" stroke="#6E81BE" stroke-width="0.4"/>
<path d="M3.63446 18.8108L3.62115 18.8608L3.45636 18.8129L1.79212 18.3286L1.59591 18.2715L1.54305 18.4689L0.972452 20.5998L0.97241 20.5998L0.971411 20.6038C0.959077 20.6541 0.956717 20.7221 0.956271 20.7822C0.955771 20.8496 0.957969 20.933 0.962125 21.0273C0.970453 21.2162 0.987017 21.4566 1.0079 21.7149C1.0497 22.2318 1.10936 22.8274 1.15716 23.2412L1.21005 23.699C1.17641 23.4673 1.09418 22.8357 1.02573 22.1922C0.987225 21.8301 0.953397 21.4672 0.935088 21.1718C0.925922 21.024 0.920792 20.8953 0.920704 20.7932C0.920612 20.6865 0.926297 20.6264 0.931696 20.6033L1.54939 18.232L1.54948 18.2316L3.63224 18.8102L3.63446 18.8108ZM3.63349 18.8051C3.63349 18.8051 3.63353 18.8051 3.63363 18.8052L3.63349 18.8051Z" fill="#6E81BE" stroke="#6E81BE" stroke-width="0.4"/>
<path d="M7.523 7.76056C7.52288 7.76054 7.52277 7.76052 7.52266 7.76051L7.49796 7.73535L7.44378 7.72155C7.3958 7.70934 7.35103 7.68753 7.30565 7.65673C7.34923 7.67252 7.39512 7.6795 7.44197 7.6795H7.53707C7.7636 7.6795 7.98474 7.52951 8.06 7.29957L8.06235 7.29238L8.06415 7.28503C8.06549 7.27958 8.06676 7.27412 8.06795 7.26866C8.06541 7.29084 8.06148 7.31299 8.05608 7.33497L8.05366 7.34482L8.05226 7.35487C8.01866 7.59435 7.81851 7.7638 7.58462 7.7638C7.57255 7.7638 7.56194 7.76377 7.55078 7.76325C7.53967 7.76274 7.5304 7.76182 7.523 7.76056ZM7.08377 7.44509C7.08911 7.45525 7.09484 7.46564 7.10103 7.47613C7.09573 7.47081 7.09038 7.4654 7.08496 7.45992C7.07932 7.44773 7.07397 7.4357 7.06893 7.4238C7.0735 7.43097 7.07844 7.43808 7.08377 7.44509ZM7.53707 6.64992C7.36096 6.64992 7.1881 6.74059 7.08452 6.88899C7.18645 6.71709 7.35756 6.61406 7.53707 6.61406C7.54915 6.61406 7.55975 6.61409 7.57092 6.61461C7.58203 6.61512 7.5913 6.61604 7.5987 6.6173C7.59881 6.61731 7.59892 6.61733 7.59903 6.61735L7.62373 6.64251L7.65286 6.64992H7.63217H7.53707Z" fill="#6E81BE" stroke="#6E81BE" stroke-width="0.4"/>
<path d="M3.71957 6.69376C3.71945 6.69374 3.71934 6.69372 3.71923 6.6937L3.69453 6.66854L3.66318 6.66056C3.67079 6.66094 3.67843 6.66113 3.68609 6.66113H3.78119C3.98358 6.66113 4.18168 6.54139 4.27527 6.35188C4.24437 6.46033 4.18766 6.53611 4.12111 6.58849C4.03123 6.65923 3.91046 6.69699 3.78119 6.69699C3.76912 6.69699 3.75852 6.69697 3.74735 6.69645C3.73624 6.69593 3.72697 6.69501 3.71957 6.69376ZM3.32789 6.42671C3.33016 6.43103 3.3325 6.43539 3.33492 6.43979C3.32393 6.42429 3.31383 6.40823 3.30474 6.39168C3.3115 6.4035 3.31917 6.41524 3.32789 6.42671ZM3.25623 6.24071C3.26077 6.27309 3.26934 6.31639 3.28911 6.36078C3.20859 6.19268 3.1949 6.07523 3.24748 5.96811L3.25556 5.95165L3.26052 5.934C3.33519 5.6678 3.5513 5.49883 3.78119 5.49883C3.79327 5.49883 3.80387 5.49885 3.81504 5.49937C3.82615 5.49989 3.83542 5.5008 3.84282 5.50206C3.84293 5.50208 3.84304 5.5021 3.84315 5.50212L3.86785 5.52728L3.92204 5.54107C4.11062 5.58909 4.25956 5.76653 4.30285 5.9704C4.29118 5.93387 4.27499 5.8985 4.25394 5.86481C4.17936 5.74544 4.05917 5.67173 3.92564 5.63773L3.90136 5.63155H3.87629H3.78119C3.55467 5.63155 3.33352 5.78154 3.25827 6.01149L3.24835 6.0418V6.0737C3.24835 6.07555 3.24835 6.07743 3.24835 6.07934C3.24833 6.12372 3.24831 6.18424 3.25623 6.24071Z" fill="#6E81BE" stroke="#6E81BE" stroke-width="0.4"/>
<path d="M7.58505 11.4638L7.58529 11.4639L7.58792 11.4542L8.05754 9.73235C8.06168 9.72539 8.06599 9.71918 8.07026 9.71392C8.07557 9.70739 8.07986 9.70349 8.08265 9.70133C8.08756 9.70457 8.09203 9.70789 8.09596 9.71121C8.10424 9.71818 8.10837 9.7236 8.11012 9.72645C8.11064 9.72731 8.11092 9.72787 8.11106 9.72818C8.11108 9.72945 8.11086 9.73354 8.10833 9.74125L8.1081 9.74117L8.10546 9.75083L7.64987 11.4213C7.64351 11.4262 7.63754 11.431 7.63196 11.4356C7.6194 11.4459 7.60787 11.4561 7.59856 11.4643C7.59693 11.4657 7.59537 11.4671 7.59389 11.4684C7.5898 11.472 7.58625 11.4752 7.58293 11.4781C7.58262 11.4775 7.58243 11.4771 7.58232 11.4769C7.58231 11.4756 7.58253 11.4715 7.58505 11.4638Z" fill="#6E81BE" stroke="#6E81BE" stroke-width="0.4"/>
<path d="M6.72909 11.2216L6.72933 11.2217L6.73197 11.2121L7.20158 9.49017C7.20572 9.4832 7.21003 9.477 7.21431 9.47173C7.21961 9.46521 7.2239 9.4613 7.22669 9.45914C7.2316 9.46238 7.23607 9.4657 7.24001 9.46902C7.24828 9.47599 7.25241 9.48142 7.25416 9.48426C7.25469 9.48512 7.25497 9.48568 7.2551 9.48599C7.25512 9.48726 7.2549 9.49136 7.25238 9.49906L7.25214 9.49898L7.2495 9.50864L6.78815 11.2003C6.77514 11.2124 6.76189 11.2239 6.74826 11.2338C6.74248 11.238 6.73745 11.2413 6.73319 11.2439C6.73017 11.2407 6.72833 11.2381 6.72731 11.2364C6.72678 11.2356 6.7265 11.235 6.72637 11.2347C6.72635 11.2334 6.72657 11.2293 6.72909 11.2216Z" fill="#6E81BE" stroke="#6E81BE" stroke-width="0.4"/>
<path d="M16.1605 18.2552L16.1613 18.2541C16.811 17.3888 17.0237 16.45 16.7145 15.5051L16.7146 15.5051L16.7125 15.4993C16.5358 15.0107 16.247 14.5766 15.9462 14.2511C15.6536 13.9345 15.3233 13.6924 15.0497 13.6294C14.6142 13.5193 14.1476 13.6039 13.766 13.8116C13.3841 14.0195 13.0669 14.3623 12.9549 14.7902L12.9548 14.7906L11.6234 19.9241L11.6234 19.9241L11.6228 19.9267C11.4523 20.6211 10.8391 21.0927 10.1637 21.1339C10.7991 21.0738 11.3719 20.6153 11.5803 19.9362L11.5804 19.9362L11.5827 19.9277L12.9132 14.7975C13.1691 13.9353 14.1533 13.3667 15.0475 13.5816C15.2646 13.6428 15.5904 13.836 15.9121 14.1637C16.2319 14.4894 16.5352 14.9356 16.7147 15.4842C16.9367 16.1624 17.0305 17.1565 16.1746 18.3041C15.3153 19.4298 15.0885 20.4648 15.0822 21.2319C15.0791 21.614 15.1306 21.9269 15.1835 22.1486C15.2099 22.2595 15.2366 22.3473 15.2567 22.4089C15.2644 22.4328 15.2714 22.4532 15.2765 22.4682C15.2771 22.4701 15.2777 22.4719 15.2783 22.4736V22.4907L15.297 22.5286C15.297 22.5288 15.297 22.5289 15.297 22.529C15.297 22.5305 15.2969 22.5325 15.2966 22.5348H15.2958C15.2912 22.5276 15.2851 22.517 15.2775 22.5014C15.2775 22.5015 15.2763 22.4991 15.274 22.4939C15.2718 22.4889 15.2689 22.482 15.2652 22.4733C15.258 22.4558 15.2484 22.4313 15.2373 22.4002C15.215 22.3379 15.1867 22.2496 15.1591 22.1381C15.1038 21.9151 15.0514 21.6004 15.0542 21.2168C15.0599 20.4525 15.2847 19.4054 16.1605 18.2552ZM8.5401 19.0536L9.87075 13.9229C9.87077 13.9229 9.87079 13.9228 9.87081 13.9227C9.87678 13.8999 9.88214 13.877 9.8869 13.854C9.88072 13.8925 9.87301 13.9307 9.86374 13.9687L8.5328 19.1004C8.53278 19.1005 8.53277 19.1005 8.53275 19.1006C8.52785 19.1193 8.52331 19.1381 8.51912 19.1568C8.52511 19.1225 8.53209 19.088 8.5401 19.0536ZM15.2847 22.4927C15.2847 22.4929 15.2847 22.4929 15.2846 22.4926L15.2847 22.4927Z" fill="#6E81BE" stroke="#6E81BE" stroke-width="0.4"/>
<mask id="path-19-inside-1_4033_19509" fill="white">
<path d="M4.06631 14.26H4.01876L1.11823 13.4851C1.02314 13.4851 0.975586 13.3882 0.975586 13.2914C0.975586 13.1945 1.07068 13.0977 1.16578 13.0977H1.21333L4.11386 13.8725C4.20896 13.921 4.30406 14.0178 4.25651 14.1631C4.25651 14.2115 4.16141 14.26 4.06631 14.26Z"/>
</mask>
<path d="M4.06631 14.26H4.01876L1.11823 13.4851C1.02314 13.4851 0.975586 13.3882 0.975586 13.2914C0.975586 13.1945 1.07068 13.0977 1.16578 13.0977H1.21333L4.11386 13.8725C4.20896 13.921 4.30406 14.0178 4.25651 14.1631C4.25651 14.2115 4.16141 14.26 4.06631 14.26Z" fill="#6E81BE"/>
<path d="M4.01876 14.26L3.91552 14.6464L3.96625 14.66H4.01876V14.26ZM1.11823 13.4851L1.22147 13.0986L1.17074 13.0851H1.11823V13.4851ZM1.21333 13.0977L1.31657 12.7112L1.26584 12.6977H1.21333V13.0977ZM4.11386 13.8725L4.29538 13.5161L4.25782 13.497L4.2171 13.4861L4.11386 13.8725ZM4.25651 14.1631L3.87635 14.0387L3.85651 14.0993V14.1631H4.25651ZM4.06631 13.86H4.01876V14.66H4.06631V13.86ZM4.122 13.8735L1.22147 13.0986L1.015 13.8715L3.91552 14.6464L4.122 13.8735ZM1.11823 13.0851C1.16542 13.0851 1.21533 13.0979 1.26014 13.1246C1.30295 13.15 1.33012 13.1813 1.34593 13.2055C1.37446 13.2491 1.37559 13.2818 1.37559 13.2914H0.575586C0.575586 13.3978 0.600482 13.5274 0.676569 13.6436C0.760305 13.7715 0.912133 13.8851 1.11823 13.8851V13.0851ZM1.37559 13.2914C1.37559 13.3705 1.34061 13.4179 1.32045 13.4384C1.30073 13.4585 1.25094 13.4977 1.16578 13.4977V12.6977C0.985528 12.6977 0.840637 12.7852 0.7496 12.878C0.658113 12.9711 0.575586 13.1154 0.575586 13.2914H1.37559ZM1.16578 13.4977H1.21333V12.6977H1.16578V13.4977ZM1.1101 13.4841L4.01062 14.259L4.2171 13.4861L1.31657 12.7112L1.1101 13.4841ZM3.93234 14.229C3.9323 14.2289 3.9318 14.2287 3.93081 14.228C3.92984 14.2274 3.92788 14.2261 3.92516 14.2238C3.92016 14.2196 3.90911 14.2092 3.89775 14.1907C3.8857 14.1711 3.87458 14.1441 3.87063 14.1119C3.86664 14.0794 3.87145 14.0536 3.87635 14.0387L4.63666 14.2875C4.69788 14.1005 4.66916 13.9182 4.5796 13.7723C4.49925 13.6413 4.38442 13.5614 4.29538 13.5161L3.93234 14.229ZM3.85651 14.1631C3.85651 14.0404 3.91593 13.9604 3.94526 13.9284C3.9764 13.8944 4.00485 13.8787 4.01555 13.8732C4.03718 13.8622 4.05197 13.86 4.06631 13.86V14.66C4.17575 14.66 4.28564 14.6335 4.37859 14.5861C4.42495 14.5625 4.48312 14.5256 4.53506 14.4689C4.5852 14.4142 4.65651 14.31 4.65651 14.1631H3.85651Z" fill="#6E81BE" mask="url(#path-19-inside-1_4033_19509)"/>
<mask id="path-21-inside-2_4033_19509" fill="white">
<path d="M3.87637 15.0334H3.82882L0.928293 14.2585C0.833194 14.2585 0.785645 14.1617 0.785645 14.0648C0.785645 13.968 0.880743 13.8711 0.975843 13.8711H1.02339L3.92392 14.646C4.01901 14.6944 4.11411 14.7912 4.06656 14.9365C4.06656 14.9365 3.97147 15.0334 3.87637 15.0334Z"/>
</mask>
<path d="M3.87637 15.0334H3.82882L0.928293 14.2585C0.833194 14.2585 0.785645 14.1617 0.785645 14.0648C0.785645 13.968 0.880743 13.8711 0.975843 13.8711H1.02339L3.92392 14.646C4.01901 14.6944 4.11411 14.7912 4.06656 14.9365C4.06656 14.9365 3.97147 15.0334 3.87637 15.0334Z" fill="#6E81BE"/>
<path d="M3.82882 15.0334L3.72558 15.4198L3.77631 15.4334H3.82882V15.0334ZM0.928293 14.2585L1.03153 13.8721L0.980802 13.8585H0.928293V14.2585ZM1.02339 13.8711L1.12663 13.4846L1.0759 13.4711H1.02339V13.8711ZM3.92392 14.646L4.10543 14.2895L4.06787 14.2704L4.02715 14.2595L3.92392 14.646ZM4.06656 14.9365L4.35199 15.2168L4.4176 15.15L4.44672 15.061L4.06656 14.9365ZM3.87637 14.6334H3.82882V15.4334H3.87637V14.6334ZM3.93206 14.6469L1.03153 13.8721L0.825054 14.645L3.72558 15.4198L3.93206 14.6469ZM0.928293 13.8585C0.975477 13.8585 1.02539 13.8714 1.07019 13.898C1.11301 13.9234 1.14018 13.9548 1.15599 13.9789C1.18452 14.0225 1.18564 14.0552 1.18564 14.0648H0.385645C0.385645 14.1712 0.41054 14.3008 0.486628 14.4171C0.570364 14.545 0.722192 14.6585 0.928293 14.6585V13.8585ZM1.18564 14.0648C1.18564 14.1439 1.15067 14.1913 1.1305 14.2119C1.11079 14.2319 1.061 14.2711 0.975843 14.2711V13.4711C0.795586 13.4711 0.650696 13.5587 0.559659 13.6514C0.468172 13.7446 0.385645 13.8889 0.385645 14.0648H1.18564ZM0.975843 14.2711H1.02339V13.4711H0.975843V14.2711ZM0.920154 14.2575L3.82068 15.0324L4.02715 14.2595L1.12663 13.4846L0.920154 14.2575ZM3.7424 15.0024C3.74236 15.0024 3.74186 15.0021 3.74087 15.0015C3.73989 15.0008 3.73794 14.9995 3.73522 14.9972C3.73022 14.993 3.71917 14.9827 3.70781 14.9641C3.69576 14.9445 3.68464 14.9176 3.68069 14.8854C3.6767 14.8529 3.68151 14.8271 3.68641 14.8121L4.44672 15.061C4.50794 14.8739 4.47922 14.6917 4.38966 14.5457C4.3093 14.4148 4.19448 14.3349 4.10543 14.2895L3.7424 15.0024ZM4.06656 14.9365C3.78114 14.6563 3.78121 14.6562 3.78128 14.6562C3.7813 14.6561 3.78137 14.6561 3.78141 14.656C3.7815 14.6559 3.78159 14.6558 3.78167 14.6558C3.78185 14.6556 3.78202 14.6554 3.78218 14.6552C3.78251 14.6549 3.78282 14.6546 3.78312 14.6543C3.7837 14.6537 3.78423 14.6532 3.78468 14.6527C3.78559 14.6518 3.78626 14.6512 3.7867 14.6508C3.78756 14.65 3.78766 14.6499 3.78716 14.6503C3.78574 14.6516 3.78378 14.6531 3.78243 14.654C3.78041 14.6554 3.78458 14.6522 3.79529 14.6478C3.80516 14.6438 3.83374 14.6334 3.87637 14.6334V15.4334C4.0463 15.4334 4.17662 15.3534 4.23183 15.3159C4.26613 15.2926 4.2939 15.2699 4.31328 15.253C4.32318 15.2444 4.33145 15.2367 4.33788 15.2306C4.34111 15.2275 4.34391 15.2248 4.34626 15.2225C4.34744 15.2213 4.34851 15.2203 4.34946 15.2193C4.34994 15.2188 4.35039 15.2184 4.35081 15.218C4.35102 15.2178 4.35122 15.2176 4.35142 15.2174C4.35152 15.2173 4.35161 15.2172 4.35171 15.2171C4.35176 15.217 4.35183 15.2169 4.35185 15.2169C4.35192 15.2168 4.35199 15.2168 4.06656 14.9365Z" fill="#6E81BE" mask="url(#path-21-inside-2_4033_19509)"/>
<path d="M1.16987 18.1817L1.16956 18.1816L1.18193 18.1341L1.35066 18.1804L3.82324 18.8584L4.01687 18.9115L4.06921 18.7176L4.59226 16.7804L4.64419 16.5881L4.45206 16.5354L1.97948 15.8574L1.80002 15.8082C1.80322 15.805 1.80575 15.803 1.80738 15.8018C1.80896 15.8021 1.81138 15.8027 1.81475 15.8038L1.81461 15.8042L1.82743 15.8077L4.70585 16.5766C4.71282 16.5806 4.71816 16.5839 4.72222 16.5867V16.6058L4.12989 18.8798C4.12395 18.8844 4.11836 18.8889 4.11312 18.8932C4.10055 18.9035 4.08902 18.9136 4.07972 18.9218C4.07808 18.9233 4.07652 18.9247 4.07503 18.926C4.06739 18.9327 4.06162 18.9379 4.05578 18.9428C4.05242 18.9457 4.0496 18.948 4.04728 18.9498H4.04503L1.16987 18.1817Z" fill="#6E81BE" stroke="#6E81BE" stroke-width="0.4"/>
<path d="M2.45433 0.602918L2.02451 0.486775L2.00815 0.459453C2.00406 0.450352 2.00117 0.44207 1.99923 0.434891C2.00323 0.432747 2.0077 0.430556 2.01261 0.428411C2.02571 0.422693 2.03829 0.418931 2.04946 0.416849L4.79848 1.17614C4.80463 1.18 4.81017 1.18402 4.81493 1.18804C4.82321 1.19501 4.82734 1.20043 4.82909 1.20328C4.82961 1.20414 4.82989 1.2047 4.83003 1.20501C4.83003 1.20536 4.83002 1.20592 4.82995 1.20671C4.82592 1.21342 4.82174 1.21942 4.81759 1.22454C4.81126 1.23233 4.80636 1.23638 4.80375 1.23819C4.80217 1.23791 4.79975 1.23733 4.79638 1.23619L4.79651 1.23581L4.78426 1.2325L2.45433 0.602918ZM4.4652 4.4463L5.46486 4.7119C5.47074 4.71563 5.47604 4.7195 5.48062 4.72337C5.4889 4.73034 5.49303 4.73576 5.49478 4.73861C5.49522 4.73932 5.49548 4.73983 5.49564 4.74016L4.4652 4.4463ZM5.49572 4.74018C5.49572 4.74015 5.49571 4.74012 5.49571 4.74009L5.49572 4.74018ZM5.54304 4.9587C5.543 4.9587 5.54261 4.95827 5.54197 4.95742L5.54304 4.9587Z" fill="#6E81BE" stroke="#6E81BE" stroke-width="0.4"/>
<path d="M6.80738 5.0542L6.81477 5.05671L6.82233 5.05863L7.96351 5.34921L8.04074 5.36887L8.11033 5.33003L11.5814 3.39287L12.0047 3.15666L12.0448 3.16772C12.0448 3.1684 12.0448 3.1691 12.0448 3.1698C12.0448 3.17847 12.0436 3.18704 12.042 3.19454L8.10351 5.39125H7.96532H7.94186L6.8032 5.11292C6.79787 5.10947 6.79305 5.10591 6.78883 5.10235C6.78055 5.09538 6.77642 5.08996 6.77467 5.08711C6.77415 5.08625 6.77387 5.08569 6.77373 5.08538C6.77373 5.08503 6.77374 5.08447 6.77381 5.08368C6.77784 5.07696 6.78202 5.07097 6.78617 5.06585C6.7925 5.05806 6.7974 5.05401 6.80001 5.0522C6.80159 5.05248 6.80401 5.05306 6.80738 5.0542ZM9.25261 2.39652L9.28298 2.40491L9.21813 2.53699L9.25261 2.39652Z" fill="#6E81BE" stroke="#6E81BE" stroke-width="0.4"/>
<path d="M6.71068 5.08606L5.59545 4.76802L5.58248 4.76432C5.5795 4.76169 5.57594 4.75843 5.57173 4.75441C5.56793 4.75078 5.56405 4.74697 5.55993 4.74286L3.9592 1.81785C3.95439 1.80759 3.95108 1.7983 3.94893 1.79036C3.95294 1.78822 3.95741 1.78602 3.96232 1.78388C3.97542 1.77816 3.988 1.7744 3.99916 1.77232L9.57249 3.31169C9.57251 3.31237 9.57251 3.31306 9.57251 3.31376C9.57251 3.3226 9.57134 3.33132 9.56968 3.33893L8.69681 3.87234L9.16509 3.58033L9.55477 3.33734L9.11144 3.21755L4.45158 1.95839L3.99756 1.8357L4.22416 2.24782L5.55554 4.66928L5.59543 4.74182L5.67492 4.76496L6.67346 5.05553L6.73252 5.07272L6.72015 5.08027L6.71068 5.08606Z" fill="#6E81BE" stroke="#6E81BE" stroke-width="0.4"/>
<path d="M4.77939 1.39089L4.7798 1.39102L4.78305 1.37831L5.06235 0.287879C5.06628 0.281368 5.07035 0.275542 5.0744 0.27056C5.08073 0.26277 5.08563 0.258711 5.08823 0.256904C5.08982 0.257188 5.09224 0.257762 5.09561 0.258906L5.09547 0.259305L5.10802 0.262675L9.41132 1.41861C9.41808 1.42281 9.42453 1.42736 9.43033 1.43205C9.43135 1.43287 9.43231 1.43367 9.43323 1.43445L9.15052 2.53821L9.14771 2.54917C9.14494 2.55247 9.14141 2.55649 9.13693 2.56136C9.13116 2.56763 9.12493 2.57411 9.11772 2.5815L9.10652 2.58156H9.08536L4.80772 1.43252C4.80176 1.42875 4.79639 1.42484 4.79176 1.42093C4.78348 1.41396 4.77935 1.40853 4.7776 1.40569C4.77708 1.40483 4.7768 1.40427 4.77666 1.40396C4.77664 1.40269 4.77687 1.39859 4.77939 1.39089ZM4.87224 1.1778L4.81785 1.37167L5.01209 1.42475L8.91115 2.49019L9.10278 2.54255L9.15644 2.35128L9.34663 1.67327L9.40102 1.4794L9.20678 1.42633L5.30772 0.360887L5.11609 0.308523L5.06244 0.499794L4.87224 1.1778Z" fill="#6E81BE" stroke="#6E81BE" stroke-width="0.4"/>
</svg>
