<svg width="21" height="20" fill="none" xmlns="http://www.w3.org/2000/svg"><path d="M10.916 6.665A3.342 3.342 0 007.58 10a3.342 3.342 0 003.335 3.335A3.342 3.342 0 0014.25 10a3.342 3.342 0 00-3.335-3.335zM20.918 10c0-1.38.012-2.75-.066-4.128-.077-1.6-.442-3.022-1.613-4.193C18.065.506 16.647.143 15.046.066 13.666-.012 12.296 0 10.918 0c-1.38 0-2.75-.013-4.128.065-1.6.077-3.022.443-4.192 1.613C1.424 2.853 1.062 4.271.984 5.872.906 7.253.919 8.622.919 10c0 1.378-.013 2.75.065 4.128.078 1.6.443 3.022 1.614 4.193 1.173 1.173 2.591 1.536 4.192 1.613 1.381.078 2.75.065 4.128.065 1.381 0 2.75.013 4.128-.065 1.601-.077 3.022-.443 4.193-1.613 1.173-1.174 1.536-2.592 1.613-4.193.08-1.379.066-2.747.066-4.128zm-10.002 5.131A5.124 5.124 0 015.785 10a5.124 5.124 0 015.13-5.131A5.124 5.124 0 0116.048 10a5.124 5.124 0 01-5.131 5.131zm5.34-9.274A1.197 1.197 0 0115.06 4.66c0-.663.535-1.198 1.198-1.198a1.197 1.197 0 01.848 2.046 1.196 1.196 0 01-.848.35z" fill="#fff"/></svg>