<svg width="24" height="33" viewBox="0 0 24 33" fill="none" xmlns="http://www.w3.org/2000/svg">
<path d="M20.9857 20.9328C18.7432 24.2473 12.0001 32.5351 12.0001 32.5351C12.0001 32.5351 5.25693 24.2473 3.01448 20.9328C-1.40206 14.405 -0.803811 7.97245 3.75182 3.41682C6.02944 1.13881 9.01476 0 12.0001 0C14.9854 0 17.9707 1.13881 20.2483 3.41682C24.804 7.97245 25.4018 14.405 20.9857 20.9328Z" fill="#EB001B"/>
<path d="M12.0002 19.02C15.8771 19.02 19.02 15.8771 19.02 12.0002C19.02 8.12332 15.8771 4.98047 12.0002 4.98047C8.12332 4.98047 4.98047 8.12332 4.98047 12.0002C4.98047 15.8771 8.12332 19.02 12.0002 19.02Z" fill="white"/>
</svg>
