<svg width="180" height="69" fill="none" xmlns="http://www.w3.org/2000/svg"><path d="M56.359.065c-.666.295-3.014 3.498-5.877 7.997-2.87 4.513-8.032 13.195-7.902 13.298.027.028.364.151.741.274 1.696.556 3.385 1.537 4.868 2.847.446.398.474.404.57.281.158-.22 2.856-4.972 4.23-7.441 2.986-5.398 5.141-9.61 6.343-12.407.474-1.105.913-2.476.865-2.682-.254-1.042-2.952-2.565-3.838-2.167zm-18.77 4.883c-9.488.555-17.933 5.336-23.123 13.1-2.087 3.12-3.577 6.632-4.34 10.24-.11.514-.192.939-.185.945.014.007.666-.013 1.456-.047 2.574-.117 7.669-.206 11.52-.206h3.762l.138-.316c.213-.507.865-1.584 1.387-2.29.583-.796 2.004-2.223 2.78-2.778a13.952 13.952 0 014.312-2.12c1.373-.39 1.956-.473 3.659-.493l1.531-.02 1.284-2.216c2.403-4.143 4.922-8.34 6.639-11.049.357-.562.645-1.036.631-1.042-.013-.014-.46-.158-1.002-.336a29.89 29.89 0 00-5.925-1.242c-.975-.103-3.652-.178-4.524-.13zm20.232 7.517c-2.011 3.758-2.636 4.903-3.604 6.639-.618 1.11-1.75 3.1-2.506 4.423-.755 1.317-1.448 2.531-1.538 2.689l-.165.281.371.576c.453.693.845 1.42 1.147 2.126.13.295.254.535.281.535.048 0 14.136-7.386 14.191-7.441.055-.048-1.194-2.408-1.73-3.279-1.29-2.091-2.499-3.607-4.325-5.431-.762-.762-1.476-1.448-1.6-1.53l-.22-.15-.302.562zM37.767 23.541c-.295.048-1.49 1.276-2.018 2.064-.721 1.077-1.147 2.106-1.435 3.45-.24 1.111-.138 3.436.192 4.3.069.172.076.158.247-.294.096-.268.213-.624.261-.803.11-.384 1.105-1.893 1.703-2.586 1.778-2.043 4.304-3.257 7.188-3.47.515-.041 1.455.02 2.3.137l.275.042-.344-.316c-.81-.74-2.327-1.598-3.584-2.023-1.187-.398-1.785-.487-3.247-.515-.735-.013-1.428-.007-1.538.014z" fill="#fff"/><path d="M35.117 24.206c-1.455.55-2.67 1.338-3.851 2.51a11.195 11.195 0 00-2.122 2.95l-.281.59.11.507a9.252 9.252 0 005.458 6.598c.322.137.769.302.995.37.227.062.453.13.508.151.055.02-.11-.22-.37-.542-.255-.315-.509-.583-.55-.596-.123-.028-1.098-2.092-1.339-2.826-1.043-3.21-.33-7.05 1.765-9.52.171-.198.302-.377.288-.39-.014-.014-.288.075-.61.198zm8.548 2.997c-2.026.158-3.934.988-5.54 2.415-.262.226-.468.432-.468.46 0 .027.193.006.433-.042.233-.048.522-.09.645-.096.117 0 .24-.034.261-.069.096-.157 2.231-.02 3.31.213 1.95.418 3.535 1.303 5.032 2.798 1.091 1.09 1.826 2.202 2.3 3.45.068.178.144.309.171.295.11-.069.22-1.207.22-2.195-.007-1.687-.336-3.168-1.037-4.664-.336-.713-.947-1.714-1.153-1.9-.172-.15-1.16-.452-1.867-.562a9.384 9.384 0 00-2.307-.103zm-27.119 3.773c-9.296.185-15.351.7-16.052 1.35-.343.323-.494.988-.494 2.14 0 1.701.254 2.216 1.201 2.428 1.813.419 5.65.741 10.985.933 2.362.082 9.18.206 11.87.206 1.738 0 1.944-.014 1.902-.11-.205-.535-.453-2.428-.453-3.456 0-1.03.248-2.922.454-3.457.04-.103-.282-.11-3.413-.096a456.7 456.7 0 00-6 .062z" fill="#fff"/><path d="M42.12 31.092c0 .028.11.158.24.288.13.13.323.35.419.494.103.144.22.26.26.26.124 0 1.175 2.161 1.401 2.881.392 1.248.46 1.701.46 3.155 0 1.152-.02 1.433-.157 2.05-.33 1.468-.982 2.916-1.806 4.013-.261.343-.46.63-.446.638.04.048.96-.33 1.572-.638 2.087-1.05 3.927-2.942 4.936-5.075.254-.542.254-.57.185-.954-.11-.59-.446-1.57-.748-2.194-.412-.844-.934-1.578-1.661-2.34a9.084 9.084 0 00-3.797-2.4c-.735-.246-.858-.267-.858-.178zm-13.944 1.639c-.144.899-.123 2.785.034 3.622.275 1.481.886 3.01 1.69 4.204l.418.624.536.171c1.057.337 1.613.419 2.821.412.907 0 1.277-.034 1.84-.151a9.885 9.885 0 003.399-1.433c.5-.343 1.682-1.434 1.469-1.365-.062.02-.391.075-.72.123-.33.048-.619.11-.64.144-.061.09-2.21-.055-2.931-.192-1.318-.254-2.85-.905-3.961-1.694-.817-.57-1.957-1.721-2.486-2.496-.46-.672-1.05-1.804-1.188-2.277-.047-.158-.11-.288-.144-.288-.027 0-.089.267-.137.596z" fill="#fff"/><path d="M43.3 35.996c-.13.35-.24.7-.253.789-.014.089-.323.61-.694 1.166-1.785 2.681-4.242 4.28-7.27 4.711-1.037.151-2.527.117-3.296-.075-.226-.055.467.549 1.147 1.008a11.404 11.404 0 003.934 1.64c.782.164 2.341.246 3.151.17l.536-.047.583-.556c2.15-2.057 3.186-5.096 2.733-8.004-.09-.59-.268-1.35-.323-1.406-.014-.013-.124.261-.247.604z" fill="#fff"/><path d="M9.99 39.837c0 .288.404 2.002.727 3.065a29.91 29.91 0 005.286 10.082c.962 1.207 3.296 3.54 4.49 4.486 2.973 2.352 6.228 4.087 9.715 5.178a29.595 29.595 0 0016.066.445c.844-.212 2.574-.74 2.732-.83.027-.02 0-.116-.069-.212-1.078-1.625-4.703-7.62-7.016-11.611l-1.456-2.51-.981.034a13.1 13.1 0 01-6.276-1.324c-2.739-1.317-4.88-3.395-6.192-6.008l-.337-.658-5.547-.041c-5.115-.041-8.43-.117-10.367-.227l-.776-.04v.17zm40.945 1.097c-.103.199-.35.61-.549.926l-.37.569 1.64 2.86c2.369 4.136 4.264 7.565 6.007 10.87l.46.879.357-.295c.666-.563 1.991-1.88 2.726-2.71a30.3 30.3 0 004.298-6.343l.37-.748-.288-.124c-.165-.068-3.35-1.447-7.092-3.058-3.735-1.612-6.927-2.99-7.092-3.06l-.288-.123-.179.357zm-2.842 3.587c-1.476 1.296-3.296 2.332-5.026 2.853-.295.09-.535.178-.535.206 0 .116 3.845 6.639 5.753 9.76 1.902 3.1 3.955 6.282 5.156 7.99 1.023 1.46 2.444 3.23 2.774 3.463.206.144.837.13 1.29-.028 1.243-.425 2.397-1.296 2.664-2.009.337-.892-3.309-8.347-8.904-18.23-.975-1.728-2.547-4.471-2.582-4.506-.007-.007-.274.22-.59.501zM86.57 23.94v4.11h-8.58v4.44h6.42v3.99h-6.42V45h-5.13V23.94h13.71zm18.746 6.78c0 1.22-.28 2.34-.84 3.36-.56 1-1.42 1.81-2.58 2.43-1.16.62-2.6.93-4.32.93h-3.18V45h-5.13V23.94h8.31c1.68 0 3.1.29 4.26.87 1.16.58 2.03 1.38 2.61 2.4.58 1.02.87 2.19.87 3.51zm-8.13 2.64c.98 0 1.71-.23 2.19-.69.48-.46.72-1.11.72-1.95 0-.84-.24-1.49-.72-1.95-.48-.46-1.21-.69-2.19-.69h-2.79v5.28h2.79zm30.571-9.42L120.287 45h-6.42l-7.47-21.06h5.46l5.22 15.9 5.25-15.9h5.43zm4.544 21.3c-.9 0-1.64-.26-2.22-.78-.56-.54-.84-1.2-.84-1.98 0-.8.28-1.47.84-2.01.58-.54 1.32-.81 2.22-.81.88 0 1.6.27 2.16.81.58.54.87 1.21.87 2.01 0 .78-.29 1.44-.87 1.98-.56.52-1.28.78-2.16.78zm11.107-21.3v12.6c0 1.26.31 2.23.93 2.91.62.68 1.53 1.02 2.73 1.02s2.12-.34 2.76-1.02c.64-.68.96-1.65.96-2.91v-12.6h5.13v12.57c0 1.88-.4 3.47-1.2 4.77-.8 1.3-1.88 2.28-3.24 2.94-1.34.66-2.84.99-4.5.99-1.66 0-3.15-.32-4.47-.96-1.3-.66-2.33-1.64-3.09-2.94-.76-1.32-1.14-2.92-1.14-4.8V23.94h5.13zm29.222 17.34h-7.86L163.51 45h-5.37l7.62-21.06h5.94L179.32 45h-5.43l-1.26-3.72zm-1.32-3.96l-2.61-7.71-2.58 7.71h5.19z" fill="#fff"/></svg>