<svg width="105" height="40" fill="none" xmlns="http://www.w3.org/2000/svg"><path d="M32.723.038c-.387.17-1.75 2.03-3.412 4.643-1.667 2.62-4.664 7.661-4.589 7.721.016.016.212.088.43.16.985.322 1.966.891 2.827 1.652.26.23.275.235.33.163.093-.127 1.66-2.887 2.456-4.32 1.734-3.134 2.986-5.58 3.684-7.204.275-.641.53-1.438.502-1.557-.148-.605-1.714-1.49-2.228-1.258zM21.825 2.873c-5.51.322-10.412 3.098-13.426 7.606a17.129 17.129 0 00-2.627 6.494c.008.004.387-.008.845-.027 1.495-.068 4.453-.12 6.689-.12h2.184l.08-.183c.124-.295.502-.92.805-1.33.34-.462 1.164-1.29 1.615-1.613a8.1 8.1 0 012.503-1.23c.797-.227 1.136-.275 2.125-.287l.889-.012.745-1.286c1.395-2.405 2.858-4.842 3.855-6.415.207-.327.375-.602.367-.606-.009-.008-.268-.091-.582-.195-1.1-.35-2.245-.593-3.44-.72-.567-.06-2.121-.104-2.628-.076zm11.747 4.364a217.553 217.553 0 01-2.093 3.855c-.359.645-1.016 1.8-1.455 2.568l-.893 1.561-.096.163.216.335c.263.402.49.824.665 1.234.076.172.148.311.164.311.028 0 8.208-4.289 8.24-4.32.031-.028-.694-1.398-1.005-1.904-.75-1.214-1.451-2.094-2.511-3.154-.443-.442-.858-.84-.93-.888l-.127-.087-.175.326zm-11.644 6.431c-.171.028-.865.74-1.172 1.199-.419.625-.666 1.222-.833 2.003-.14.645-.08 1.995.112 2.497.04.1.043.091.143-.172.056-.155.124-.362.151-.465.064-.224.642-1.1.99-1.502 1.032-1.186 2.498-1.891 4.173-2.015.299-.024.845.012 1.335.08l.16.024-.2-.183c-.47-.43-1.351-.928-2.08-1.175-.69-.231-1.037-.283-1.886-.299-.427-.008-.83-.004-.893.008z" fill="#0156FF"/><path d="M20.39 14.055c-.846.318-1.551.776-2.237 1.457a6.5 6.5 0 00-1.232 1.712l-.163.343.064.294a5.372 5.372 0 003.169 3.831c.187.08.446.175.578.215.131.036.263.076.295.088.031.012-.064-.128-.216-.315-.147-.183-.295-.338-.319-.346-.071-.016-.637-1.215-.777-1.64-.606-1.864-.191-4.094 1.025-5.528.1-.115.175-.219.167-.227-.008-.008-.167.044-.355.116zm4.962 1.74c-1.176.091-2.284.573-3.217 1.401-.151.132-.27.251-.27.267 0 .016.11.004.25-.024.136-.028.303-.052.375-.055.068 0 .14-.02.152-.04.055-.092 1.295-.012 1.921.123 1.132.243 2.053.757 2.922 1.625.634.633 1.06 1.278 1.335 2.003.04.103.084.179.1.171.064-.04.127-.7.127-1.274a6.226 6.226 0 00-.602-2.708c-.195-.414-.55-.995-.67-1.103-.099-.088-.673-.263-1.083-.327a5.45 5.45 0 00-1.34-.06zm-15.745 2.19c-5.398.107-8.913.406-9.32.784-.2.187-.287.574-.287 1.243 0 .987.147 1.286.698 1.41 1.052.242 3.28.43 6.377.54 1.372.049 5.33.12 6.893.12 1.008 0 1.128-.008 1.104-.063-.12-.31-.263-1.41-.263-2.007 0-.598.143-1.697.263-2.007.024-.06-.164-.064-1.981-.056-1.104.004-2.671.02-3.484.036z" fill="#0156FF"/><path d="M24.455 18.052c0 .017.064.092.14.168.076.075.187.203.243.287.06.083.127.15.151.15.072 0 .682 1.255.814 1.673.227.725.267.988.267 1.832 0 .669-.012.832-.092 1.19-.191.853-.57 1.693-1.048 2.33-.152.2-.267.367-.26.37.024.028.559-.19.913-.37 1.212-.61 2.28-1.708 2.866-2.947.148-.314.148-.33.108-.553a6.103 6.103 0 00-.434-1.274 5.25 5.25 0 00-.965-1.358 5.276 5.276 0 00-2.205-1.394c-.426-.143-.498-.155-.498-.104zm-8.095.952c-.084.522-.072 1.617.02 2.103.159.86.513 1.748.98 2.44l.243.363.31.1c.615.195.938.243 1.64.239.525 0 .74-.02 1.067-.088a5.739 5.739 0 001.974-.832c.29-.2.976-.832.853-.793a5.297 5.297 0 01-.419.072c-.191.028-.359.064-.37.084-.036.052-1.284-.032-1.703-.112a6.332 6.332 0 01-2.3-.983c-.474-.33-1.136-1-1.443-1.45-.267-.39-.61-1.047-.69-1.322-.027-.091-.063-.167-.083-.167-.016 0-.052.155-.08.346z" fill="#0156FF"/><path d="M25.141 20.9c-.076.203-.14.406-.147.458-.008.051-.188.354-.403.677-1.036 1.557-2.463 2.484-4.221 2.735-.602.088-1.467.068-1.914-.043-.131-.032.271.318.666.585a6.622 6.622 0 002.284.952c.454.095 1.36.143 1.83.1l.31-.029.34-.322c1.247-1.195 1.849-2.959 1.586-4.647-.052-.343-.155-.785-.187-.817-.008-.008-.072.152-.144.35z" fill="#0156FF"/><path d="M5.8 23.13c0 .167.235 1.162.423 1.78a17.366 17.366 0 003.069 5.853c.558.701 1.913 2.055 2.607 2.604a17.444 17.444 0 005.64 3.007 17.182 17.182 0 009.328.259c.49-.124 1.495-.43 1.587-.482.015-.012 0-.068-.04-.123-.626-.944-2.73-4.424-4.074-6.742l-.845-1.458-.57.02a7.607 7.607 0 01-3.644-.768c-1.59-.765-2.834-1.971-3.595-3.488l-.196-.383-3.22-.024c-2.97-.023-4.895-.067-6.02-.131l-.45-.024v.1zm23.774.637c-.06.115-.204.354-.32.537l-.215.33.953 1.661a204.37 204.37 0 013.488 6.312l.267.51.207-.172c.387-.326 1.156-1.09 1.583-1.573a17.591 17.591 0 002.495-3.683l.216-.434-.168-.072c-.096-.04-1.945-.84-4.118-1.776l-4.117-1.776-.168-.071-.103.207zm-1.651 2.083c-.857.752-1.913 1.353-2.918 1.656-.171.052-.31.104-.31.12 0 .067 2.232 3.854 3.34 5.666 1.104 1.8 2.296 3.648 2.994 4.64.593.847 1.419 1.875 1.61 2.01.12.084.486.076.75-.016.72-.247 1.39-.753 1.546-1.167.195-.517-1.921-4.846-5.17-10.584a185.034 185.034 0 00-1.499-2.616 4.825 4.825 0 00-.343.29z" fill="#0156FF"/><path d="M50.264 13.9v2.386h-4.982v2.578h3.728v2.317h-3.728v4.947h-2.979V13.9h7.96zm10.884 3.936c0 .709-.163 1.359-.488 1.951-.325.58-.824 1.051-1.498 1.411-.673.36-1.51.54-2.508.54h-1.846v4.39h-2.979V13.9h4.825c.975 0 1.8.168 2.473.505.674.337 1.179.801 1.516 1.394.337.592.505 1.271.505 2.037zm-4.72 1.533c.569 0 .992-.133 1.271-.4.279-.268.418-.645.418-1.133 0-.487-.14-.865-.418-1.132-.279-.267-.703-.4-1.271-.4h-1.62v3.065h1.62zM74.177 13.9L69.84 26.128h-3.728L61.775 13.9h3.17l3.031 9.232 3.049-9.232h3.152zm2.639 12.367c-.523 0-.953-.151-1.29-.453a1.535 1.535 0 01-.487-1.15c0-.464.162-.853.488-1.167.336-.313.766-.47 1.288-.47.511 0 .93.157 1.255.47.336.314.505.703.505 1.167 0 .453-.169.836-.505 1.15-.325.302-.743.453-1.254.453zM83.264 13.9v7.316c0 .731.18 1.294.54 1.69.36.394.889.591 1.585.591.697 0 1.231-.197 1.603-.592.371-.395.557-.958.557-1.69V13.9h2.979v7.298c0 1.092-.233 2.015-.697 2.77a4.45 4.45 0 01-1.881 1.707c-.778.383-1.65.575-2.613.575-.964 0-1.829-.186-2.595-.558a4.303 4.303 0 01-1.794-1.707c-.442-.766-.662-1.695-.662-2.787V13.9h2.978zm16.967 10.068h-4.563l-.732 2.16h-3.118L96.242 13.9h3.45l4.423 12.228h-3.152l-.732-2.16zm-.766-2.3l-1.516-4.476-1.498 4.477h3.014z" fill="#182131"/></svg>