<svg width="230" height="50" fill="none" xmlns="http://www.w3.org/2000/svg"><path d="M159.471 46.187L170.19 12.03h-10.072l-6.731 23.387-6.731-23.387h-10.421l10.669 34.156h12.567zm-36.896-25.48c2.941 0 4.387 1.546 4.387 4.089 0 2.592-1.694 4.088-4.387 4.088h-3.988v-8.177h3.988zm1.046 16.854c8.626 0 13.362-5.833 13.362-13.165 0-6.73-4.139-12.365-12.215-12.365h-16.004v34.156h9.823V37.56h5.034zm-19.097-2.294v-8.375h-14.26v-6.185h15.756v-8.676H80.44v34.156h9.824v-10.92h14.26z" fill="#fff"/><path d="M222.094 34.67h-15.109l7.58-19.198 7.529 19.198zm4.538 11.517h2.841L215.91 12.03h-2.643l-13.513 34.156h2.693l3.542-9.026h17.101l3.542 9.026zm-40.539.499c7.979 0 13.114-5.285 13.114-13.66V12.034h-2.643v20.74c0 7.231-3.891 11.417-10.471 11.417S175.622 40 175.622 32.774v-20.74h-2.643v20.992c0 8.374 5.139 13.66 13.114 13.66z" fill="#C0BEFF"/><path d="M16.875 16.608H5.88v33.393h10.207v-7.173h10.486v-8.704h-5.929c-2.797 0-4.56-1.554-4.56-4.247 0-2.643 1.503-4.247 4.56-4.247h1.721l-5.491-9.022z" fill="#fff"/><path d="M39.746 10.413l-6.281 8.239-6.015-8.239H13.106l20.197 23.705 21.1-23.705H39.747zm-.213-1.975c-.709-.232-.48-.027-1.964-.818-1.485-.794-2.88-2.96-.206-4.654C41.456.374 52.713-.797 60.254.586c7.541 1.388 7.67 2.938 6.995 4.593-.457 1.12-2.054 2.104-4.104 2.848.581-.476.655-1.011-.012-1.527-.813-.631-1.329-1.057-5.735-1.538-4.406-.48-11.936-.128-15.594.934-2.767.802-3.375 1.74-2.27 2.542zm-11.559 0c.709-.232.48-.027 1.964-.818 1.485-.794 2.88-2.96.206-4.654C26.052.374 14.794-.797 7.253.586-.288 1.975-.417 3.525.258 5.18.715 6.3 2.312 7.284 4.362 8.028c-.581-.48-.655-1.011.012-1.527.813-.631 1.329-1.057 5.735-1.538 4.406-.48 11.936-.128 15.594.934 2.767.802 3.375 1.74 2.27 2.542z" fill="#C0BEFF"/><path d="M47.907 43.138c8.964 0 13.89-6.065 13.89-13.68 0-6.708-3.957-12.37-11.684-12.819l-6.2 8.987h2.91c3.057 0 4.56 1.604 4.56 4.247 0 2.693-1.763 4.247-4.56 4.247h-8.778l-5.581 8.088V50h10.207v-6.863h5.236z" fill="#fff"/><path fill-rule="evenodd" clip-rule="evenodd" d="M46.241 32.271a2.458 2.458 0 11.002-4.915 2.458 2.458 0 01-.002 4.915zm-24.976 0a2.458 2.458 0 11.002-4.915 2.458 2.458 0 01-.002 4.915z" fill="#fff"/></svg>