<svg width="159" height="82" fill="none" xmlns="http://www.w3.org/2000/svg"><path d="M97.544 13.04c1.063-.36.722-.043 2.945-1.264 2.223-1.226 4.301-4.572.273-7.187C94.596.586 77.68-1.22 66.365.915 55.05 3.057 54.869 5.45 55.895 8.006c.695 1.736 3.1 3.25 6.185 4.399-.877-.736-.992-1.562.006-2.358 1.217-.975 1.988-1.634 8.601-2.376 6.614-.742 17.925-.197 23.427 1.442 4.162 1.24 5.083 2.687 3.43 3.926zm19.016 0c-1.064-.36-.722-.043-2.945-1.264-2.223-1.226-4.302-4.572-.273-7.187 6.165-4.003 23.081-5.81 34.397-3.674 11.315 2.142 11.495 4.536 10.47 7.091-.695 1.736-3.101 3.25-6.185 4.399.876-.736.991-1.562-.006-2.358-1.217-.975-1.988-1.634-8.602-2.376-6.614-.742-17.925-.197-23.427 1.442-4.161 1.24-5.082 2.687-3.429 3.926z" fill="#fff"/><path fill-rule="evenodd" clip-rule="evenodd" d="M96.356 57.622l13.622 23.594 35.117-60.824h-12.252a10.61 10.61 0 00-9.189 5.306l-13.676 23.687-8.612-14.916c.458 2.048.683 4.208.683 6.465 0 6.48-1.822 12.163-5.693 16.688z" fill="#fff"/><path d="M49.192 81.17h16.213V61.475H77.12c5.829 0 10.667-1.867 14.515-5.602 3.849-3.735 5.772-8.715 5.772-14.94 0-6.168-1.924-11.12-5.772-14.854-3.848-3.792-8.686-5.688-14.515-5.688H40.704l8.356 14.515h25.682c3.849.17 5.772 2.18 5.772 6.027 0 1.98-.537 3.48-1.612 4.5-1.019 1.018-2.405 1.527-4.16 1.527h-25.55v34.208z" fill="#fff"/><path d="M.782 20.392h34.415l8.358 14.515h-26.56v12.054h26.693v14.515H16.995V81.17H.782V20.392zm119.596 55.392v-.637l3.968-6.873v7.093c0 .626.195 1.141.585 1.545.39.39 1.017.585 1.88.585s1.483-.195 1.858-.585c.376-.404.564-.919.564-1.546V65.99h3.989v9.794c0 1.267-.271 2.297-.814 3.091-.543.794-1.295 1.378-2.256 1.754-.96.376-2.074.564-3.341.564-1.267 0-2.388-.188-3.363-.564-.96-.376-1.712-.96-2.255-1.754-.543-.793-.815-1.824-.815-3.09z" fill="#fff"/><path fill-rule="evenodd" clip-rule="evenodd" d="M133.733 80.943l5.451-14.953h4.093l5.451 14.953h-4.218l-.71-2.11h-5.138l-.71 2.11h-4.219zm8.793-5.284h-2.987l1.504-4.616 1.483 4.616z" fill="#fff"/></svg>