<svg width="18" height="15" viewBox="0 0 18 15" fill="none" xmlns="http://www.w3.org/2000/svg">
<path d="M1.10177 6.48145C1.10177 6.48145 9.06248 3.21568 11.8274 2.06031C12.8826 1.59949 16.4756 0.130234 16.4756 0.130234C16.4756 0.130234 18.1318 -0.510893 17.9916 1.05186C17.9448 1.69299 17.5775 3.95031 17.2102 6.38795C16.6559 9.84071 16.0615 13.614 16.0615 13.614C16.0615 13.614 15.968 14.6759 15.1866 14.8562C14.4052 15.0432 13.1163 14.2151 12.8826 14.0281C12.6956 13.8878 9.42981 11.8175 8.23437 10.8091C7.9138 10.5353 7.54647 9.98095 8.2811 9.33314C9.93736 7.81713 11.9142 5.92713 13.1163 4.73169C13.6706 4.17737 14.2182 2.88844 11.9209 4.45788C8.6551 6.71519 5.42941 8.83225 5.42941 8.83225C5.42941 8.83225 4.69477 9.29307 3.31233 8.87901C1.92989 8.46494 0.320401 7.91063 0.320401 7.91063C0.320401 7.91063 -0.781555 7.22275 1.10177 6.48145Z" fill="white"/>
</svg>
