<svg width="18" height="19" viewBox="0 0 18 19" fill="none" xmlns="http://www.w3.org/2000/svg">
<g clip-path="url(#clip0_5053_26611)">
<path d="M17.5969 4.56482V4.54291C17.1591 2.75029 15.1978 0.826182 13.4038 0.427336H13.3823C10.4724 -0.142445 7.52395 -0.142445 4.61837 0.427336H4.59691C2.79863 0.826182 0.841547 2.75029 0.408071 4.54291V4.56482C-0.132702 7.06747 -0.132702 9.60957 0.403779 12.1122V12.1341C0.82438 13.8523 2.63554 15.6843 4.36944 16.1884V18.1914C4.36944 18.9145 5.23211 19.2696 5.72567 18.748L7.71279 16.6398C8.14198 16.6661 8.57545 16.6792 9.00464 16.6792C10.4682 16.6792 11.9317 16.539 13.3866 16.2541H13.4081C15.2064 15.8509 17.1634 13.9268 17.5969 12.1341V12.1122C18.1377 9.60957 18.1377 7.07186 17.6012 4.56482H17.5969ZM16.0261 11.7484C15.7385 12.9187 14.2493 14.3738 13.069 14.6412C11.524 14.9436 9.96601 15.0707 8.40807 15.0269C8.37803 15.0269 8.34798 15.04 8.32653 15.0619C8.10764 15.2942 6.87588 16.5828 6.87588 16.5828L5.33511 18.2001C5.22352 18.3185 5.0261 18.2396 5.0261 18.073V14.7595C5.0261 14.7069 4.98747 14.6587 4.93597 14.6456C3.75571 14.3782 2.27073 12.9231 1.97889 11.7528C1.49391 9.49124 1.49391 7.19458 1.97889 4.93299C2.27073 3.76275 3.75571 2.30761 4.93597 2.04025C7.63554 1.5143 10.3737 1.5143 13.0733 2.04025C14.2536 2.30761 15.7428 3.76275 16.0304 4.93299C16.5154 7.19458 16.5154 9.49124 16.0304 11.7528L16.0261 11.7484Z" fill="white"/>
<path d="M11.5711 13.2813C11.3909 13.2243 11.2149 13.1893 11.0561 13.1192C9.39086 12.4135 7.85867 11.5019 6.64407 10.1081C5.95309 9.31478 5.41231 8.42066 4.95738 7.46956C4.74279 7.01812 4.55824 6.55353 4.37369 6.08894C4.20631 5.6638 4.45523 5.22989 4.71704 4.90993C4.96596 4.61189 5.28356 4.3796 5.62691 4.21305C5.89729 4.08156 6.1591 4.15607 6.35652 4.38836C6.78141 4.8924 7.17197 5.41835 7.48528 6.00128C7.67841 6.36068 7.62691 6.79897 7.27498 7.04004C7.18914 7.1014 7.11188 7.16714 7.03034 7.23727C6.96167 7.29425 6.893 7.35561 6.84579 7.4345C6.75995 7.57914 6.75566 7.75007 6.81146 7.90786C7.24493 9.12631 7.97455 10.0686 9.17197 10.5814C9.3651 10.6647 9.55824 10.7568 9.77712 10.7305C10.1462 10.6866 10.2664 10.2703 10.5282 10.0555C10.7814 9.84511 11.1033 9.84073 11.378 10.016C11.6527 10.1914 11.9145 10.3798 12.1806 10.5727C12.4381 10.7611 12.6956 10.9452 12.9359 11.16C13.1634 11.366 13.2449 11.6377 13.1162 11.9139C12.8801 12.4267 12.5368 12.8518 12.0389 13.1235C11.8973 13.2024 11.7299 13.2243 11.5754 13.2726C11.7342 13.2243 11.3951 13.2156 11.5754 13.2726L11.5711 13.2813Z" fill="white"/>
<path d="M9.00409 3.63281C11.1801 3.69417 12.9698 5.17122 13.356 7.37145C13.4204 7.74838 13.4462 8.1297 13.4719 8.51101C13.4848 8.67318 13.3947 8.8222 13.2273 8.82658C13.0513 8.82658 12.9741 8.67757 12.9612 8.51978C12.9397 8.20421 12.9225 7.88426 12.8796 7.57307C12.6522 5.91632 11.3603 4.54446 9.74658 4.25081C9.50195 4.20698 9.25302 4.19383 9.00838 4.16753C8.85388 4.15 8.64787 4.14123 8.61353 3.944C8.58349 3.77745 8.72083 3.64596 8.87534 3.6372C8.91826 3.6372 8.96117 3.6372 8.9998 3.6372C11.1758 3.69856 8.95688 3.6372 8.9998 3.6372L9.00409 3.63281Z" fill="white"/>
<path d="M12.3131 8.00819C12.3131 8.03448 12.3089 8.10023 12.2917 8.16159C12.2316 8.38512 11.9011 8.41142 11.8239 8.18789C11.8024 8.12214 11.7981 8.04325 11.7981 7.97312C11.7981 7.50415 11.6951 7.03079 11.4634 6.62318C11.223 6.20242 10.8582 5.8474 10.429 5.63264C10.1715 5.50115 9.88826 5.42226 9.60499 5.37405C9.48053 5.35213 9.35607 5.33898 9.2316 5.32145C9.08139 5.29954 8.99984 5.20311 9.00843 5.04971C9.01701 4.90507 9.11572 4.80426 9.27023 4.81303C9.76808 4.84371 10.2531 4.95328 10.6951 5.19435C11.6007 5.68085 12.1157 6.45663 12.2659 7.48662C12.2745 7.53483 12.2831 7.57866 12.2874 7.62687C12.296 7.74083 12.3003 7.85917 12.3089 8.01257C12.3089 8.03887 12.3003 7.85917 12.3089 8.01257L12.3131 8.00819Z" fill="white"/>
<path d="M10.9614 7.95153C10.7812 7.95153 10.6824 7.85072 10.661 7.67979C10.6481 7.56145 10.6395 7.43872 10.6095 7.32477C10.5537 7.09685 10.4378 6.88647 10.249 6.74622C10.1588 6.68048 10.0601 6.63226 9.95282 6.60158C9.81978 6.56214 9.67815 6.5709 9.5451 6.54022C9.39918 6.50516 9.32192 6.38244 9.34338 6.24657C9.36484 6.11946 9.48501 6.02304 9.61806 6.0318C10.4636 6.09316 11.0644 6.54022 11.1502 7.55706C11.1545 7.62719 11.1631 7.70608 11.1502 7.77183C11.1245 7.89017 11.0387 7.94714 10.9571 7.95591C11.0387 7.95153 10.7769 7.95591 10.9571 7.95591L10.9614 7.95153Z" fill="white"/>
</g>
<defs>
<clipPath id="clip0_5053_26611">
<rect width="18" height="19" fill="white"/>
</clipPath>
</defs>
</svg>
