<svg width="18" height="19" viewBox="0 0 18 19" fill="none" xmlns="http://www.w3.org/2000/svg">
<g clip-path="url(#clip0_5053_26619)">
<path d="M0 18.044L1.29095 13.2176C0.557457 11.8973 0.176039 10.4156 0.176039 8.91198C0.176039 3.99755 4.17359 0 9.08802 0C14.0024 0 18 3.99755 18 8.91198C18 13.8264 14.0024 17.824 9.08802 17.824C7.61369 17.824 6.15403 17.4499 4.84841 16.7457L0 18.044ZM5.09046 14.934L5.39853 15.1174C6.52078 15.7848 7.79707 16.1369 9.08802 16.1369C13.0709 16.1369 16.313 12.8949 16.313 8.91198C16.313 4.9291 13.0709 1.68704 9.08802 1.68704C5.10513 1.68704 1.86308 4.9291 1.86308 8.91198C1.86308 10.2249 2.22983 11.5232 2.91932 12.6601L3.11002 12.9682L2.3912 15.6601L5.10513 14.934H5.09046Z" fill="white"/>
<path fill-rule="evenodd" clip-rule="evenodd" d="M12.4034 10.1531C12.0367 9.93304 11.5599 9.69099 11.1271 9.86703C10.797 9.99905 10.5843 10.5198 10.3716 10.7839C10.2616 10.9233 10.1296 10.9379 9.96086 10.8719C8.71392 10.3731 7.76037 9.54429 7.07822 8.40003C6.96086 8.22399 6.98287 8.08463 7.12223 7.91593C7.32761 7.67387 7.59167 7.39514 7.64302 7.06507C7.70169 6.735 7.54766 6.35358 7.4083 6.06018C7.23226 5.6861 7.04155 5.15064 6.66747 4.93793C6.32272 4.73989 5.86795 4.84991 5.55989 5.0993C5.03177 5.53206 4.77504 6.20688 4.78238 6.8817C4.78238 7.0724 4.80438 7.26311 4.85573 7.44649C4.96575 7.88659 5.1638 8.30468 5.39852 8.69343C5.57456 8.98683 5.75793 9.28023 5.96331 9.55162C6.63079 10.4538 7.45964 11.2387 8.41319 11.8328C8.88996 12.1262 9.41074 12.3829 9.94619 12.559C10.5477 12.757 11.0831 12.9624 11.7286 12.8377C12.4034 12.7057 13.0709 12.2876 13.3423 11.6348C13.423 11.444 13.4596 11.224 13.4156 11.0186C13.3203 10.5932 12.7555 10.3438 12.4107 10.1384L12.4034 10.1531Z" fill="white"/>
</g>
<defs>
<clipPath id="clip0_5053_26619">
<rect width="18" height="18.044" fill="white"/>
</clipPath>
</defs>
</svg>
