<svg width="34" height="22" fill="none" xmlns="http://www.w3.org/2000/svg"><path d="M.385 2.766C.385 1.25 1.628.021 3.162.021h27.761c1.534 0 2.777 1.23 2.777 2.745v16.468c0 1.516-1.243 2.744-2.777 2.744H3.162c-1.534 0-2.777-1.228-2.777-2.744V2.766z" fill="#CCEFFF"/><path d="M20.686 17.476h-7.287V4.529h7.287v12.947z" fill="#6C6BBD"/><path d="M13.866 11a8.188 8.188 0 013.18-6.473 8.352 8.352 0 00-5.146-1.76c-4.6 0-8.327 3.685-8.327 8.233 0 4.547 3.728 8.234 8.327 8.234 1.943 0 3.73-.658 5.147-1.76-1.937-1.508-3.181-3.848-3.181-6.474z" fill="#EB001B"/><path d="M30.513 11c0 4.547-3.728 8.234-8.327 8.234a8.355 8.355 0 01-5.147-1.76A8.188 8.188 0 0020.219 11a8.185 8.185 0 00-3.18-6.473 8.355 8.355 0 015.147-1.76c4.6 0 8.327 3.685 8.327 8.233z" fill="#0099DF"/></svg>