<svg width="14" height="14" viewBox="0 0 14 14" fill="none" xmlns="http://www.w3.org/2000/svg">
<g clip-path="url(#clip0_5053_26829)">
<path d="M7.00093 14C3.14085 14 0 10.861 0 7.00093C0 3.14085 3.14085 0 7.00093 0C10.861 0 14.0019 3.14085 14.0019 7.00093C14.0019 10.861 10.861 14.0019 7.00093 14.0019V14ZM7.00093 0.557547C3.4475 0.557547 0.557547 3.4475 0.557547 7.00093C0.557547 10.5544 3.4475 13.4443 7.00093 13.4443C10.5544 13.4443 13.4443 10.5544 13.4443 7.00093C13.4443 3.4475 10.5525 0.557547 7.00093 0.557547Z" fill="black"/>
<path d="M7 4L7 8" stroke="black" stroke-width="0.5" stroke-linecap="round"/>
<path d="M10 8H7" stroke="black" stroke-width="0.5" stroke-linecap="round"/>
</g>
<defs>
<clipPath id="clip0_5053_26829">
<rect width="14" height="14" fill="white"/>
</clipPath>
</defs>
</svg>
