<svg width="14" height="14" viewBox="0 0 14 14" fill="none" xmlns="http://www.w3.org/2000/svg">
<g clip-path="url(#clip0_5053_26823)">
<path d="M10.6251 6.99905C10.6251 5.00118 8.99888 3.375 7.00101 3.375C5.00313 3.375 3.37695 5.00118 3.37695 6.99905V9.78679C3.37695 10.1232 3.59997 10.6231 4.21327 10.6231H4.77082C5.10721 10.6231 5.60714 10.4001 5.60714 9.78679V8.11415C5.60714 7.77776 5.38412 7.27783 4.77082 7.27783H3.9345V6.99905C3.9345 5.30783 5.30978 3.93255 7.00101 3.93255C8.69223 3.93255 10.0675 5.30783 10.0675 6.99905V7.27783H9.23119C8.61789 7.27783 8.39487 7.77776 8.39487 8.11415V9.78679C8.39487 10.4001 8.89481 10.6231 9.23119 10.6231H9.78874C10.4504 10.6231 10.6251 9.89458 10.6251 9.50801M4.77082 7.83537C4.9957 7.83537 5.04588 7.98963 5.04959 8.11415V9.78679C5.04959 10.0117 4.8972 10.0618 4.77082 10.0656H4.21327C3.9884 10.0656 3.93822 9.91131 3.9345 9.78679V7.83537H4.77082ZM10.0675 9.50801C10.0675 9.50801 10.0526 10.0656 9.78874 10.0656H9.23491C9.10668 10.0618 8.95242 10.0117 8.95242 9.78679V8.11786C8.95614 7.98963 9.00632 7.83537 9.23119 7.83537H10.0675V9.50801Z" fill="black"/>
<path d="M7.00093 14C3.14085 14 0 10.861 0 7.00093C0 3.14085 3.14085 0 7.00093 0C10.861 0 14.0019 3.14085 14.0019 7.00093C14.0019 10.861 10.861 14.0019 7.00093 14.0019V14ZM7.00093 0.557547C3.4475 0.557547 0.557547 3.4475 0.557547 7.00093C0.557547 10.5544 3.4475 13.4443 7.00093 13.4443C10.5544 13.4443 13.4443 10.5544 13.4443 7.00093C13.4443 3.4475 10.5525 0.557547 7.00093 0.557547Z" fill="black"/>
</g>
<defs>
<clipPath id="clip0_5053_26823">
<rect width="14" height="14" fill="white"/>
</clipPath>
</defs>
</svg>
