<svg width="33" height="32" fill="none" xmlns="http://www.w3.org/2000/svg"><path d="M19.08 26a2.59 2.59 0 001.81-.732 2.47 2.47 0 00.75-1.768 2.47 2.47 0 00-.75-1.768A2.592 2.592 0 0019.08 21c-.68 0-1.33.263-1.81.732a2.47 2.47 0 00-.75 1.768c0 .663.27 1.299.75 1.768.48.469 1.13.732 1.81.732zm-8.96 0a2.59 2.59 0 001.81-.732 2.47 2.47 0 00.75-1.768 2.47 2.47 0 00-.75-1.768A2.592 2.592 0 0010.12 21c-.68 0-1.33.263-1.81.732a2.47 2.47 0 00-.75 1.768c0 .663.27 1.299.75 1.768.48.469 1.13.732 1.81.732zM26.807 8.404c.32-.01.623-.141.845-.366a1.184 1.184 0 000-1.673A1.245 1.245 0 0026.808 6h-1.473c-1.155 0-2.153.782-2.404 1.883l-1.604 7.052c-.25 1.1-1.249 1.882-2.404 1.882H9.308L7.462 9.605h11.962c.317-.014.615-.147.834-.37a1.187 1.187 0 00.001-1.661 1.244 1.244 0 00-.835-.372H7.462a2.51 2.51 0 00-1.08.244c-.336.16-.63.393-.86.681a2.349 2.349 0 00-.448 2.063l1.845 7.21c.134.52.44.982.874 1.312a2.5 2.5 0 001.515.51h9.615c1.12 0 2.208-.374 3.081-1.058a4.793 4.793 0 001.726-2.708l1.605-7.052h1.473z" fill="#6E81BE"/></svg>