<svg width="33" height="32" fill="none" xmlns="http://www.w3.org/2000/svg"><path d="M24.072 11.818h-.489V8.255c0-4-3.255-7.255-7.255-7.255-4.001 0-7.256 3.255-7.256 7.255v3.563h-.489a2.588 2.588 0 00-2.585 2.585v14.012A2.588 2.588 0 008.583 31h15.489a2.588 2.588 0 002.585-2.585V14.403a2.588 2.588 0 00-2.585-2.585zM11.288 8.255c0-2.779 2.26-5.04 5.04-5.04a5.046 5.046 0 015.04 5.04v3.563h-10.08V8.255zm13.153 20.16c0 .2-.17.37-.37.37H8.584c-.2 0-.37-.17-.37-.37V14.403c0-.2.17-.37.37-.37h15.489c.2 0 .369.17.369.37v14.012z" fill="#6E81BE"/><path d="M16.327 18.18c-.612 0-1.108.496-1.108 1.108v4.242a1.108 1.108 0 102.216 0v-4.242c0-.612-.496-1.108-1.108-1.108z" fill="#6E81BE"/></svg>