<svg width="32" height="32" fill="none" xmlns="http://www.w3.org/2000/svg"><path d="M26.096 7.033a6.622 6.622 0 00-9.548 0L16 7.595l-.546-.562a6.623 6.623 0 00-9.549 0 7.091 7.091 0 00-2.005 4.97 7.09 7.09 0 002.005 4.971l9.51 9.774A.812.812 0 0016 27c.21 0 .421-.084.585-.253l9.51-9.773a7.093 7.093 0 002.005-4.97 7.09 7.09 0 00-2.004-4.97zm-1.17 8.608L16 24.814l-8.924-9.172a5.195 5.195 0 01-1.477-3.639 5.19 5.19 0 011.477-3.638 5.005 5.005 0 013.603-1.535c1.305 0 2.61.512 3.604 1.536l1.132 1.163a.803.803 0 001.17 0l1.133-1.164a4.999 4.999 0 017.207 0 5.196 5.196 0 011.477 3.638 5.196 5.196 0 01-1.477 3.638z" fill="#6E81BE"/></svg>