<svg width="253" height="253" fill="none" xmlns="http://www.w3.org/2000/svg"><path d="M155.142 89.552a2.53 2.53 0 01-1.146-.286 2.386 2.386 0 01-.907-3.246c.62-1.146 14.893-27.925-6.063-45.588-25.92-21.767-56.614 4.774-57.903 5.872a2.435 2.435 0 01-3.39 0 2.34 2.34 0 01.191-3.342c.335-.334 35.086-30.36 64.11-5.919 23.868 20.145 7.351 51.173 7.16 51.507a2.432 2.432 0 01-2.052 1.002z" fill="#ECEEF8"/><path d="M69.313 89.552a2.387 2.387 0 01-2.005-1.145 45.065 45.065 0 01-4.774-34.37c3.771-12.077 13.748-21.72 29.644-28.642a2.387 2.387 0 013.15 1.242 2.385 2.385 0 01-1.24 3.15c-14.56 6.349-23.869 14.99-26.971 25.682a40.91 40.91 0 004.487 30.455 2.435 2.435 0 01-.764 3.294 2.53 2.53 0 01-1.528.334zM31.84 189.416h-.477a2.436 2.436 0 01-1.862-2.864c0-.621 3.532-16.135 14.034-21.529 4.774-2.387 23.582-5.776 39.573-8.402 1.289 0 3.103-.954 4.01-4.535l2.816-11.218a2.344 2.344 0 011.942-1.77 2.35 2.35 0 01.922.052 2.432 2.432 0 011.767 2.912l-2.817 11.17a9.549 9.549 0 01-7.828 8.067c-22.34 3.724-35.23 6.397-38.19 7.925-8.496 4.391-11.503 18.187-11.551 18.33a2.391 2.391 0 01-2.34 1.862zm129.125-24.584h-.429c-7.399-1.384-15.18-2.673-20.145-3.533a9.55 9.55 0 01-7.829-8.067l-2.816-11.17a2.433 2.433 0 012.689-2.964 2.352 2.352 0 011.553.932c.184.251.316.536.388.838l2.817 11.218c.907 3.581 2.721 4.297 4.01 4.535 4.773.812 12.793 2.101 20.192 3.533a2.396 2.396 0 011.545 1.008 2.385 2.385 0 01.364 1.808 2.336 2.336 0 01-2.339 1.862z" fill="#ECEEF8"/><path d="M112.132 150.368a36.902 36.902 0 01-21.72-7.16 54.755 54.755 0 01-19.477-29.358 7.213 7.213 0 01-4.773-1.766 17.52 17.52 0 01-5.156-11.839c-.668-7.638 2.435-13.89 7.495-15.275a9.548 9.548 0 016.683.573 9.117 9.117 0 002.96-8.784 2.434 2.434 0 01.859-2.196 52.176 52.176 0 0135.563-10.454 53.177 53.177 0 0134.895 21.147 9.214 9.214 0 016.206-.382c5.06 1.385 8.115 7.638 7.446 15.276a17.277 17.277 0 01-5.251 11.791 7.353 7.353 0 01-4.773 1.766 54.52 54.52 0 01-19.429 29.501 36.903 36.903 0 01-21.528 7.16zm-39.478-41.817c.33-.068.672-.068 1.002 0a2.625 2.625 0 011.29 1.576 50.46 50.46 0 0018.282 28.88 31.744 31.744 0 0037.855 0 50.93 50.93 0 0018.282-28.88 2.342 2.342 0 011.289-1.576 2.397 2.397 0 012.053 0c.174.028.351.028.525 0a2.486 2.486 0 001.719-.668 13.038 13.038 0 003.58-8.545c.477-5.632-1.671-9.547-4.01-10.263a5.108 5.108 0 00-4.058.62l-.859.43a2.529 2.529 0 01-2.578-.811c-9.547-12.46-20.812-19.476-32.842-20.813a46.925 46.925 0 00-31.124 8.545 13.414 13.414 0 01-6.683 13.27 2.626 2.626 0 01-1.814 0l-.859-.43a5.108 5.108 0 00-4.057-.62c-2.34.668-4.488 4.774-3.963 10.263a13.27 13.27 0 003.533 8.545c.468.431 1.082.67 1.719.668.19.022.382.022.572 0a2.014 2.014 0 011.146-.191zm39.573 73.848a29.983 29.983 0 01-31.076-23.057 2.424 2.424 0 114.773-.859c0 .764 3.82 19.094 26.351 19.094s26.159-18.282 26.159-19.094a2.386 2.386 0 012.769-1.909 2.33 2.33 0 011.552.947 2.339 2.339 0 01.405 1.774 29.741 29.741 0 01-30.933 23.104z" fill="#ECEEF8"/><path d="M112.179 224.359a112.183 112.183 0 01-103.64-69.251A112.178 112.178 0 01155.108 8.539a112.174 112.174 0 0169.251 103.64 111.034 111.034 0 01-10.646 47.736 2.379 2.379 0 01-1.347 1.032 2.387 2.387 0 01-2.949-3.037 107.402 107.402 0 00-32.175-131.379A107.407 107.407 0 0018.249 163.964a107.403 107.403 0 00125.34 50.847 2.487 2.487 0 012.87 3.585 2.494 2.494 0 01-1.485 1.189 111.575 111.575 0 01-32.795 4.774z" fill="#ECEEF8"/><path d="M241.066 253h-76.377a11.935 11.935 0 01-11.934-11.934v-57.283a11.935 11.935 0 0111.934-11.934h11.027l-8.641-25.491a2.392 2.392 0 01.812-2.673 2.437 2.437 0 012.769 0l42.485 28.164h27.925A11.935 11.935 0 01253 183.783v57.283A11.935 11.935 0 01241.066 253zm-76.377-76.377a7.158 7.158 0 00-7.161 7.16v57.283a7.16 7.16 0 007.161 7.16h76.377a7.16 7.16 0 007.16-7.16v-57.283a7.16 7.16 0 00-7.16-7.16h-28.641a2.584 2.584 0 01-1.337-.382l-37.139-24.823 7.447 22.054a2.293 2.293 0 01-.286 2.148 2.49 2.49 0 01-1.957 1.003h-14.464z" fill="#ECEEF8"/><path d="M207.651 233.906h-33.415a2.39 2.39 0 01-2.387-2.387 2.39 2.39 0 012.387-2.387h33.415a2.39 2.39 0 012.387 2.387 2.39 2.39 0 01-2.387 2.387zm23.868-19.095h-57.283a2.386 2.386 0 110-4.773h57.283a2.386 2.386 0 110 4.773zm0-19.094h-57.283a2.386 2.386 0 110-4.774h57.283a2.39 2.39 0 012.387 2.387 2.39 2.39 0 01-2.387 2.387z" fill="#ECEEF8"/></svg>