<svg width="253" height="253" fill="none" xmlns="http://www.w3.org/2000/svg"><path d="M97.838 157.495H11.93A11.93 11.93 0 010 145.563V11.931A11.931 11.931 0 0111.931 0H212.38a11.932 11.932 0 0111.932 11.931v74.452a2.389 2.389 0 01-2.387 2.387 2.384 2.384 0 01-2.386-2.387V11.931a7.157 7.157 0 00-7.159-7.158H11.931a7.159 7.159 0 00-7.158 7.158v133.632a7.157 7.157 0 007.158 7.159h85.907a2.388 2.388 0 012.386 2.386 2.388 2.388 0 01-2.386 2.387z" fill="#ECEEF8"/><path d="M221.924 66.816H2.386A2.386 2.386 0 010 64.43V35.794a2.386 2.386 0 012.386-2.386h219.538a2.388 2.388 0 012.387 2.386V64.43a2.389 2.389 0 01-2.387 2.386zM4.773 62.043h214.765V38.181H4.773v23.862zm88.292 47.726H69.202a2.385 2.385 0 01-2.386-2.386 2.388 2.388 0 012.386-2.387h23.863a2.389 2.389 0 012.386 2.387 2.384 2.384 0 01-2.386 2.386zm-38.18 0H21.477a2.384 2.384 0 01-2.387-2.386 2.388 2.388 0 012.387-2.387h33.407a2.389 2.389 0 012.387 2.387 2.384 2.384 0 01-2.386 2.386zm19.09 19.09H21.477a2.384 2.384 0 01-1.688-4.073 2.384 2.384 0 011.688-.699h52.498a2.384 2.384 0 011.687 4.073 2.384 2.384 0 01-1.687.699zM26.25 90.679h-4.773a2.386 2.386 0 010-4.773h4.772a2.386 2.386 0 110 4.773zm19.09 0h-4.773a2.387 2.387 0 010-4.773h4.772a2.386 2.386 0 110 4.773zm19.09 0h-4.773a2.386 2.386 0 110-4.773h4.773a2.386 2.386 0 110 4.773zm19.09 0h-4.773a2.386 2.386 0 110-4.773h4.773a2.387 2.387 0 010 4.773zm19.09 0h-4.772a2.386 2.386 0 110-4.773h4.772a2.388 2.388 0 012.386 2.386 2.388 2.388 0 01-2.386 2.387zm19.09 0h-4.772a2.388 2.388 0 01-2.386-2.386 2.388 2.388 0 012.386-2.387h4.772a2.388 2.388 0 012.387 2.386 2.389 2.389 0 01-2.387 2.387zm57.271 162.267a2.58 2.58 0 01-1.05 0c-2.577-1.289-5.488-2.625-8.638-4.104-25.581-12.123-64.287-30.068-64.287-68.487v-72.972a2.337 2.337 0 011.48-2.196l71.588-28.635a2.387 2.387 0 011.814 0l71.588 28.635a2.341 2.341 0 011.48 2.196v72.972c0 38.419-38.706 56.364-64.286 68.296-3.15 1.431-6.062 2.768-8.639 4.056a2.574 2.574 0 01-1.05.239zm-69.202-143.941v71.589c0 35.365 37.035 52.498 61.518 63.952a250.519 250.519 0 017.684 3.58l7.636-3.58c24.531-11.406 61.566-28.635 61.566-63.952v-71.589l-69.202-27.871-69.202 27.871z" fill="#ECEEF8"/><path d="M178.971 209.993a50.108 50.108 0 01-49.149-59.888 50.115 50.115 0 0139.373-39.373 50.106 50.106 0 0128.953 2.852 50.107 50.107 0 0130.935 46.297 50.158 50.158 0 01-50.112 50.112zm0-95.451a45.339 45.339 0 1045.34 45.339 45.39 45.39 0 00-45.34-45.339z" fill="#ECEEF8"/><path d="M190.903 188.516H167.04a4.772 4.772 0 01-4.057-2.1 4.77 4.77 0 01-.668-4.486l6.013-18.088a18.089 18.089 0 01-7.015-17.849 18.327 18.327 0 0114.556-14.318 18.184 18.184 0 0121.238 17.706 17.749 17.749 0 01-7.302 14.318l5.87 18.231a4.765 4.765 0 01-.668 4.486 4.763 4.763 0 01-4.104 2.1zm-12.075-52.498a11.365 11.365 0 00-2.529.239 13.317 13.317 0 00-10.68 10.798 13.32 13.32 0 006.384 13.78 2.432 2.432 0 011.05 2.816l-6.586 19.759 24.436.334-6.205-20.093a2.432 2.432 0 011.05-2.816 13.27 13.27 0 004.821-4.848 13.272 13.272 0 001.765-6.606 13.503 13.503 0 00-4.772-10.261 13.175 13.175 0 00-8.543-3.102h-.191z" fill="#ECEEF8"/></svg>