<svg width="254" height="253" fill="none" xmlns="http://www.w3.org/2000/svg"><path d="M102.25 253h-1.241a28.642 28.642 0 01-14.32-7.972 24.884 24.884 0 00-8.736-5.776 30.225 30.225 0 00-12.46.668 23.533 23.533 0 01-14.559 0 25.587 25.587 0 01-10.788-14.32 28.074 28.074 0 00-4.774-8.068 28.638 28.638 0 00-8.02-4.773 25.782 25.782 0 01-14.32-10.836 24.25 24.25 0 010-14.321 30.217 30.217 0 00.668-12.459 24.967 24.967 0 00-5.585-8.879 28.643 28.643 0 01-7.972-14.321 26.065 26.065 0 014.201-13.509 28.119 28.119 0 004.153-11.791 28.353 28.353 0 00-4.2-12.077A26.256 26.256 0 010 101.009a28.212 28.212 0 017.924-14.32 25.108 25.108 0 005.68-8.736 31.457 31.457 0 00-.668-12.364 23.868 23.868 0 010-14.703 25.539 25.539 0 0114.178-10.55 29.453 29.453 0 008.497-4.773 27.734 27.734 0 004.774-8.02 25.825 25.825 0 0110.836-14.32 23.535 23.535 0 0114.559 0 31.076 31.076 0 0012.46.668 25.538 25.538 0 008.735-5.776 28.26 28.26 0 0114.32-8.02 25.586 25.586 0 0113.271 4.201 28.646 28.646 0 0011.791 4.153 28.642 28.642 0 0012.077-4.153A25.586 25.586 0 01152.039 0a28.209 28.209 0 0114.32 7.972 25.308 25.308 0 008.736 5.776c4.154.646 8.398.419 12.459-.668a23.868 23.868 0 0114.607 0A26.016 26.016 0 01212.95 27.4a26.964 26.964 0 004.773 8.068 28.072 28.072 0 007.972 4.773 26.064 26.064 0 0114.321 10.884 23.533 23.533 0 010 14.56 30.209 30.209 0 00-.668 12.459 25.522 25.522 0 005.776 8.735 27.876 27.876 0 017.971 14.321 26.067 26.067 0 01-4.391 13.366 28.113 28.113 0 00-4.153 11.791 28.247 28.247 0 004.153 12.077A25.444 25.444 0 01253 151.991a28.361 28.361 0 01-7.972 14.321 25.534 25.534 0 00-5.776 8.735 31.94 31.94 0 00.668 12.459 23.864 23.864 0 010 14.608 25.772 25.772 0 01-14.32 10.74 27.93 27.93 0 00-8.115 4.774 27.39 27.39 0 00-4.774 7.972 25.87 25.87 0 01-10.884 14.32 23.866 23.866 0 01-14.321 0 30.502 30.502 0 00-12.506-.668 25.538 25.538 0 00-8.736 5.776A27.735 27.735 0 01151.943 253a25.827 25.827 0 01-13.509-4.296 28.113 28.113 0 00-11.791-4.153 28.247 28.247 0 00-12.077 4.153A28.647 28.647 0 01102.25 253zm-28.02-19.094a19.105 19.105 0 014.773.572 29.044 29.044 0 0110.693 6.731 23.865 23.865 0 0011.838 7.017 22.707 22.707 0 0010.979-3.723 31.806 31.806 0 0114.035-4.774 31.85 31.85 0 0113.986 4.774 22.573 22.573 0 0010.98 3.723 24.34 24.34 0 0011.695-6.874 28.65 28.65 0 0110.693-6.778 33.97 33.97 0 0114.32.621 21.394 21.394 0 0011.6.238 22.2 22.2 0 008.545-11.838 31.254 31.254 0 015.537-9.547 30.913 30.913 0 019.548-5.586 22.044 22.044 0 0011.79-8.497 21.095 21.095 0 000-11.647 33.7 33.7 0 01-.62-14.321 28.634 28.634 0 016.778-10.693 24.238 24.238 0 006.826-11.79 22.378 22.378 0 00-3.723-11.027 31.424 31.424 0 01-4.774-13.987 31.618 31.618 0 014.774-13.987 22.236 22.236 0 003.723-11.027 24.34 24.34 0 00-6.874-11.695 28.655 28.655 0 01-6.778-10.693 33.7 33.7 0 01.621-14.32 21.101 21.101 0 00.238-11.648 22.2 22.2 0 00-11.838-8.545 31.251 31.251 0 01-9.547-5.537 31.116 31.116 0 01-5.538-9.547 22.434 22.434 0 00-8.497-11.934 21.527 21.527 0 00-11.647 0 33.703 33.703 0 01-14.321.62 28.348 28.348 0 01-10.788-6.54 24.445 24.445 0 00-11.696-6.873 22.39 22.39 0 00-11.027 3.723 31.598 31.598 0 01-13.986 4.774 31.41 31.41 0 01-13.987-4.774 22.72 22.72 0 00-11.027-3.723 24.537 24.537 0 00-11.695 6.874 28.642 28.642 0 01-10.693 6.778c-4.763.821-9.647.61-14.32-.62a20.908 20.908 0 00-11.6-.24 22.006 22.006 0 00-8.593 11.84 31.269 31.269 0 01-5.537 9.547 32.177 32.177 0 01-10.073 5.728 22.149 22.149 0 00-11.552 8.21 20.574 20.574 0 000 11.743c1.206 4.68 1.4 9.561.573 14.321A28.118 28.118 0 0111.361 89.6a24.202 24.202 0 00-6.587 11.839 22.1 22.1 0 003.723 10.979 31.078 31.078 0 014.774 14.082 31.606 31.606 0 01-4.774 13.987 22.575 22.575 0 00-3.723 10.979 23.872 23.872 0 006.874 11.743 28.639 28.639 0 016.73 10.645 34.705 34.705 0 01-.573 14.321 21.004 21.004 0 00-.286 11.6 22.152 22.152 0 0011.886 8.592 30.979 30.979 0 019.547 5.537 31.221 31.221 0 015.586 9.548 22.2 22.2 0 008.544 11.838 21.38 21.38 0 0011.6 0 50.198 50.198 0 019.547-1.384z" fill="#ECEEF8"/><path d="M63.68 200.491H28.976a2.386 2.386 0 010-4.774H63.68a.956.956 0 00.907-.907v-70.697a.904.904 0 00-.907-.859h-44.3a2.39 2.39 0 01-2.386-2.387 2.388 2.388 0 012.387-2.387H63.68a5.644 5.644 0 014.014 1.633 5.635 5.635 0 011.666 4v70.697a5.682 5.682 0 01-5.68 5.681z" fill="#ECEEF8"/><path d="M124.113 200.491a297.688 297.688 0 01-39-1.91 120.416 120.416 0 01-19.094-4.773 2.436 2.436 0 01-1.623-2.244V126.5a2.43 2.43 0 01.716-1.718 2.385 2.385 0 011.719-.669h1.05a37.572 37.572 0 0016.23-2.434 13.32 13.32 0 005.49-8.163 42.963 42.963 0 016.92-12.984 46.763 46.763 0 016.875-6.874 25.822 25.822 0 009.213-11.743c2.769-9.118-1.432-32.795-1.48-32.986a2.444 2.444 0 01.621-2.052 18.084 18.084 0 0114.177-3.915c10.407.43 18.76 12.364 20.24 29.024a46.066 46.066 0 01-2.959 17.948c-1.194 3.82-2.578 8.163-1.576 9.261 2.387 2.626 17.997 2.626 27.305 2.626 5.06 0 9.881 0 13.175.286 10.073.811 16.565 6.683 16.565 14.989a15.51 15.51 0 01-1.553 6.851 15.502 15.502 0 01-4.414 5.465 15.081 15.081 0 016.396 11.6 14.313 14.313 0 01-5.871 12.363 12.844 12.844 0 013.675 11.696 13.651 13.651 0 01-9.308 11.934 16.323 16.323 0 01-14.321 21.337c-7.972 1.051-28.737 2.149-49.168 2.149zM69.36 189.798a118.462 118.462 0 0016.421 3.914c21.911 3.246 73.609 1.575 87.071 0a11.594 11.594 0 008.904-5.333 11.59 11.59 0 001.072-10.324 3.967 3.967 0 010-3.294 4.384 4.384 0 012.674-2.196 8.921 8.921 0 006.396-8.258 8.022 8.022 0 00-3.007-8.115 3.733 3.733 0 01-1.422-3.193 3.72 3.72 0 011.851-2.965 9.217 9.217 0 004.774-8.784 10.175 10.175 0 00-4.774-8.115 4.43 4.43 0 01-2.052-3.628 4.247 4.247 0 011.814-3.628 10.643 10.643 0 004.439-8.783c0-5.776-4.773-9.547-12.173-10.263-3.102-.239-7.828-.287-12.793-.239-16.469 0-27.305-.286-30.837-4.201-2.864-3.15-1.289-8.115.573-13.89a42.967 42.967 0 002.864-16.088c-1.289-14.32-7.733-24.345-15.657-24.68a16.711 16.711 0 00-9.548 1.815c.907 5.49 3.772 24.87 1.098 33.75a30.597 30.597 0 01-10.645 13.986 51.36 51.36 0 00-6.158 6.158 39.285 39.285 0 00-6.158 11.695 17.567 17.567 0 01-7.59 10.645 37.564 37.564 0 01-17.28 3.103l.143 60.911zm-18.808-47.736a4.774 4.774 0 100-9.547 4.774 4.774 0 000 9.547z" fill="#ECEEF8"/></svg>