<svg width="35" height="22" fill="none" xmlns="http://www.w3.org/2000/svg"><path d="M0 2.766C0 1.25 1.271.021 2.84.021h28.392c1.568 0 2.84 1.23 2.84 2.745v16.468c0 1.516-1.272 2.744-2.84 2.744H2.839C1.271 21.979 0 20.75 0 19.235V2.766z" fill="#CCDEFF"/><path d="M7.645 7.924c-.355-.236-.82-.355-1.393-.355H4.034c-.175 0-.272.085-.29.255l-.902 5.467a.175.175 0 00.042.147.172.172 0 00.138.067h1.054c.185 0 .286-.084.305-.254l.25-1.474a.258.258 0 01.096-.174.434.434 0 01.208-.087c.084-.014.162-.02.236-.02.074 0 .162.004.263.013.102.009.167.013.194.013.795 0 1.419-.216 1.872-.65.453-.433.68-1.034.68-1.802 0-.527-.179-.909-.535-1.146zM6.502 9.566c-.047.313-.167.518-.36.616-.195.099-.472.148-.832.148l-.458.013.236-1.434c.018-.098.078-.147.18-.147h.264c.37 0 .637.051.804.154.166.103.221.32.166.65z" fill="#003087"/><path d="M31.052 7.57h-1.026c-.102 0-.162.048-.18.147l-.901 5.574-.014.027c0 .045.018.087.055.127a.18.18 0 00.139.06h.915c.175 0 .272-.084.291-.254l.9-5.48v-.014c0-.125-.06-.188-.18-.188z" fill="#009CDE"/><path d="M18.659 9.728a.187.187 0 00-.056-.127.167.167 0 00-.125-.06h-1.067a.296.296 0 00-.25.133l-1.469 2.091-.61-2.01c-.046-.143-.148-.214-.305-.214h-1.04a.166.166 0 00-.124.06.186.186 0 00-.056.127c0 .018.09.281.27.79l.583 1.65c.208.589.316.902.326.937-.758 1-1.137 1.537-1.137 1.608 0 .116.06.174.18.174h1.068a.296.296 0 00.25-.134l3.534-4.931c.018-.018.028-.049.028-.094z" fill="#003087"/><path d="M28.599 9.539h-1.054c-.13 0-.207.147-.235.442-.24-.357-.68-.536-1.317-.536-.666 0-1.232.241-1.698.723-.467.483-.7 1.05-.7 1.702 0 .528.16.947.478 1.26.319.313.746.469 1.282.469.268 0 .54-.054.818-.16.277-.108.494-.25.652-.43 0 .01-.01.05-.028.12a.703.703 0 00-.028.162c0 .143.06.214.18.214h.957c.175 0 .277-.085.305-.255l.568-3.497a.176.176 0 00-.041-.147.173.173 0 00-.14-.067zm-1.809 2.64c-.236.223-.52.335-.853.335-.268 0-.485-.072-.651-.215-.167-.142-.25-.339-.25-.59 0-.33.116-.61.347-.837.23-.228.517-.342.86-.342.258 0 .473.074.644.221.17.148.256.351.256.61 0 .322-.117.594-.353.818z" fill="#009CDE"/><path d="M12.851 9.539h-1.054c-.13 0-.208.147-.235.442-.25-.357-.689-.536-1.317-.536-.666 0-1.232.241-1.698.723-.467.483-.7 1.05-.7 1.702 0 .528.16.947.478 1.26.319.313.746.469 1.282.469.259 0 .527-.054.804-.16.277-.108.5-.25.666-.43a.877.877 0 00-.056.282c0 .143.06.214.18.214h.957c.175 0 .277-.085.305-.255l.568-3.497a.176.176 0 00-.041-.147.173.173 0 00-.139-.067zm-1.809 2.646c-.236.22-.525.329-.866.329-.269 0-.483-.072-.645-.215-.162-.142-.243-.339-.243-.59 0-.33.116-.61.347-.837.23-.228.517-.342.86-.342.258 0 .473.074.644.221.17.148.257.351.257.61 0 .33-.118.606-.354.824z" fill="#003087"/><path d="M23.393 7.924c-.356-.236-.82-.355-1.393-.355h-2.204c-.185 0-.287.085-.305.255l-.901 5.467a.175.175 0 00.041.147.172.172 0 00.139.067h1.137c.11 0 .184-.058.221-.174l.25-1.554a.258.258 0 01.097-.174.434.434 0 01.208-.087c.083-.014.162-.02.236-.02.073 0 .161.004.263.013.102.009.166.013.194.013.795 0 1.418-.216 1.871-.65.453-.433.68-1.034.68-1.802 0-.527-.178-.909-.534-1.146zm-1.42 2.205c-.204.134-.51.2-.916.2l-.443.014.235-1.434c.019-.098.079-.147.18-.147h.25c.203 0 .365.009.485.027.12.018.236.073.347.167.11.094.166.23.166.409 0 .375-.102.63-.305.764z" fill="#009CDE"/></svg>