<svg width="38" height="38" fill="none" xmlns="http://www.w3.org/2000/svg"><path fill="#fff" d="M0 0h38v38H0z"/><path d="M34.045 9.194A.528.528 0 0033.633 9H13.517a.529.529 0 00-.518.42L9.086 28.1a.529.529 0 00.529.639H29.73a.529.529 0 00.518-.42L34.16 9.638a.528.528 0 00-.116-.444zm-14.663.863h8.329l-.6 3.525h-8.328l.599-3.525zm9.908 17.624H10.256l3.701-17.624h4.35l-.673 3.966a.527.527 0 00.521.617h9.404a.528.528 0 00.522-.441l.705-4.142h4.194l-3.69 17.624z" fill="#000"/><path d="M4.88 10.762h5.288a.529.529 0 000-1.057H4.88a.529.529 0 100 1.057zm-.351 5.64H9.11a.529.529 0 100-1.057H4.529a.529.529 0 100 1.057zm3.877 4.23H4.529a.529.529 0 100 1.057h3.877a.529.529 0 100-1.057zm-1.057 5.991h-2.82a.529.529 0 100 1.058h2.82a.529.529 0 100-1.058z" fill="#6E81BE"/><path d="M26.146 19.031a.529.529 0 00-.645.37l-1.304 4.794a.529.529 0 101.019.279l1.3-4.794a.529.529 0 00-.37-.649zm-4.582 0a.528.528 0 00-.645.37l-1.305 4.794a.53.53 0 00.776.618.53.53 0 00.243-.34l1.3-4.793a.529.529 0 00-.37-.649zm-4.582 0a.529.529 0 00-.645.37l-1.304 4.794a.528.528 0 101.019.279l1.3-4.794a.529.529 0 00-.37-.649z" fill="#000"/></svg>