<svg width="38" height="38" fill="none" xmlns="http://www.w3.org/2000/svg"><path fill="#ED1C24" d="M0 0h38v38H0z"/><path fill-rule="evenodd" clip-rule="evenodd" d="M28.442 12.63c.098-.033.23.033.36.213l5.94 5.775c.344.345.344.87 0 1.132l-5.94 5.873c-.13.165-.262.214-.36.165-.099-.05-.164-.214-.164-.427V13.007c0-.213.066-.344.164-.377zM18.287 3h.426l.394.164 6.12 6.054c.262.344.163.59-.263.59H22.42a.798.798 0 00-.788.788v4.495c0 .427-.344.771-.87.771h-4.445a.774.774 0 01-.788-.771v-4.495a.788.788 0 00-.787-.788h-2.707c-.443 0-.525-.246-.262-.59l6.119-6.054.394-.164zm-9.565 9.5c.099.065.164.212.164.426v12.6c0 .229-.065.36-.164.393-.115.05-.262 0-.443-.131L2.26 19.75c-.345-.262-.345-.787 0-1.131l6.02-5.956c.18-.164.328-.213.443-.164zm7.596 9.924h4.446c.525 0 .886.344.886.787v4.742c0 .524.344.869.77.869h2.363c.443 0 .607.246.263.509l-5.94 5.955a.848.848 0 01-.606.262.822.822 0 01-.607-.262l-5.939-5.955c-.36-.263-.18-.509.246-.509h2.543c.443 0 .787-.345.787-.87v-4.74c0-.444.345-.788.788-.788z" fill="#fff"/></svg>