<svg width="38" height="38" fill="none" xmlns="http://www.w3.org/2000/svg"><path fill="#fff" d="M0 0h38v38H0z"/><path d="M31.675 9H6.325A2.328 2.328 0 004 11.325v14.971a2.328 2.328 0 002.325 2.325h25.35A2.327 2.327 0 0034 26.296V11.325A2.328 2.328 0 0031.675 9zm-26.71 2.325c0-.75.61-1.36 1.36-1.36h25.35c.75 0 1.36.61 1.36 1.36v1.071H4.964v-1.07zm28.07 14.97c0 .75-.61 1.36-1.36 1.36H6.325c-.75 0-1.36-.61-1.36-1.36V16.71h28.07v9.586zm0-10.55H4.964v-2.383h28.07v2.383z" fill="#000"/><path d="M8.666 25.752c.929 0 1.684-.755 1.684-1.683s-.755-1.683-1.684-1.683c-.928 0-1.683.755-1.683 1.683s.755 1.683 1.683 1.683zm0-2.4a.72.72 0 01.719.717.718.718 0 11-.719-.718z" fill="#6E81BE"/><path d="M12.267 24.61H25.87a.483.483 0 100-.966H12.266a.483.483 0 100 .965z" fill="#000"/></svg>