<svg width="38" height="38" fill="none" xmlns="http://www.w3.org/2000/svg"><path fill="#fff" d="M0 0h38v38H0z"/><path d="M27.651 20.229v-2.777a1.85 1.85 0 00-.534-1.3 1.817 1.817 0 00-1.288-.54H24.8l1.255-1.263a.4.4 0 00.109-.27.382.382 0 00-.11-.268l-4.857-4.905a.376.376 0 00-.41-.083.376.376 0 00-.123.083l-.905.914-3.536-1.783a.402.402 0 00-.289-.019.4.4 0 00-.218.19l-3.655 7.404H9.807c-.48.005-.94.201-1.278.546-.338.344-.528.81-.529 1.294V28.16c.001.488.193.955.535 1.3.341.345.804.539 1.287.54h16.007a1.817 1.817 0 001.288-.54c.341-.345.533-.812.534-1.3v-3.414c.361-.012.703-.166.954-.427a1.42 1.42 0 00.395-.976v-1.707c0-.366-.14-.717-.392-.98a1.388 1.388 0 00-.957-.427zM20.931 9.71l4.327 4.358-1.502 1.518h-1.383l.376-.357a.381.381 0 000-.538.899.899 0 01-.194-.983.899.899 0 01.194-.292.38.38 0 000-.539l-.661-.614a.374.374 0 00-.53 0 .888.888 0 01-.63.264.88.88 0 01-.629-.264.376.376 0 00-.41-.083.375.375 0 00-.123.083l-3.313 3.35h-1.368l5.846-5.903zm-3.378 5.876a1.334 1.334 0 011.879 0l.03.038h-1.95l.041-.038zm2.83.038c-.1-.215-.236-.41-.403-.577a2.079 2.079 0 00-1.303-.6l1.386-1.399a1.641 1.641 0 001.732 0l.169.167a1.658 1.658 0 00-.248.854c0 .309.087.611.251.872l-.653.66-.932.023zm-4.76-1.628l.826-1.676c.285.067.584.057.864-.03l-1.69 1.707zm.6-5.109l2.976 1.498-.722.729-.334-.175a.375.375 0 00-.507.17.895.895 0 01-.513.451.878.878 0 01-.678-.048.372.372 0 00-.503.167l-1.954 3.933h-1.085l3.32-6.725zm9.606 20.354H9.822a1.07 1.07 0 01-.756-.317 1.09 1.09 0 01-.315-.764V17.452a1.09 1.09 0 01.315-.763c.2-.203.472-.317.756-.318h16.007c.284.001.556.115.756.318.2.202.314.477.315.763v2.773h-2.802c-.3 0-.586.12-.797.333-.212.214-.33.503-.33.805v2.242c0 .301.118.59.33.804.21.214.498.334.797.334H26.9v3.414c0 .287-.113.562-.313.765a1.07 1.07 0 01-.758.32zm-2.107-7.18h.342a.42.42 0 01.38.423.427.427 0 01-.38.423h-.342v-.846zm4.508 1.274a.655.655 0 01-.19.458.643.643 0 01-.453.191h-3.49a.373.373 0 01-.375-.319h.33c.3-.017.58-.149.786-.368a1.19 1.19 0 000-1.626 1.167 1.167 0 00-.786-.369h-.33a.38.38 0 01.375-.319h3.51a.64.64 0 01.452.19.65.65 0 01.19.455l-.02 1.707z" fill="#000"/><path d="M10.914 28a1.22 1.22 0 01-.484-.086.699.699 0 01-.306-.256.823.823 0 01-.121-.41 9.312 9.312 0 010-.495.802.802 0 01.121-.406.709.709 0 01.312-.258 1.17 1.17 0 01.478-.089c.135 0 .258.016.37.047.11.032.206.077.287.136a.66.66 0 01.187.209.59.59 0 01.073.266c0 .017-.007.03-.021.042a.065.065 0 01-.046.017h-.345a.09.09 0 01-.057-.017.11.11 0 01-.033-.056c-.03-.109-.081-.184-.152-.225a.52.52 0 00-.263-.06.437.437 0 00-.297.094c-.072.063-.112.167-.118.314a5.95 5.95 0 000 .466c.006.147.046.251.118.314a.437.437 0 00.297.095.52.52 0 00.263-.061c.073-.043.123-.118.152-.225.008-.028.019-.047.033-.056a.09.09 0 01.057-.017h.345c.019 0 .034.006.046.017a.051.051 0 01.021.042.59.59 0 01-.073.266.652.652 0 01-.187.209.894.894 0 01-.288.136 1.35 1.35 0 01-.369.047zm1.106-.028a.065.065 0 01-.045-.016.06.06 0 01-.018-.042c0-.01 0-.018.003-.025l.72-1.786a.107.107 0 01.037-.053.117.117 0 01.075-.022h.388c.032 0 .057.007.075.022.018.015.03.032.037.053l.72 1.786a.096.096 0 01.003.025.06.06 0 01-.018.042.065.065 0 01-.046.016h-.314c-.03 0-.053-.006-.067-.02a.098.098 0 01-.027-.035l-.13-.311h-.854l-.13.31a.098.098 0 01-.027.037c-.014.013-.036.02-.067.02h-.315zm.651-.725h.627l-.312-.8-.315.8zm2.335.753c-.194 0-.356-.026-.488-.078a.697.697 0 01-.293-.203.452.452 0 01-.106-.266c0-.015.006-.028.018-.04a.06.06 0 01.045-.019h.324c.027 0 .047.006.06.017a.17.17 0 01.04.036.303.303 0 00.067.092.39.39 0 00.13.075.638.638 0 00.203.028c.13 0 .229-.02.293-.059.067-.039.1-.091.1-.158a.144.144 0 00-.054-.117.481.481 0 00-.167-.08 3.456 3.456 0 00-.3-.078 1.9 1.9 0 01-.387-.114.597.597 0 01-.239-.183.482.482 0 01-.079-.28c0-.112.034-.21.1-.295a.643.643 0 01.282-.203c.12-.05.265-.075.433-.075.135 0 .254.017.357.05a.823.823 0 01.26.13c.07.054.124.112.16.173.037.06.056.12.058.178a.06.06 0 01-.018.041.065.065 0 01-.046.017h-.339a.129.129 0 01-.054-.011.086.086 0 01-.04-.04c-.012-.047-.048-.089-.108-.124a.425.425 0 00-.23-.056.477.477 0 00-.236.05.166.166 0 00-.085.153c0 .045.014.082.042.114.03.03.08.056.148.08.071.023.164.048.279.076.177.033.322.073.433.119a.55.55 0 01.245.18.456.456 0 01.079.276c0 .124-.039.23-.116.319a.713.713 0 01-.311.206 1.391 1.391 0 01-.46.069zm1.287-.028a.078.078 0 01-.055-.02.065.065 0 01-.02-.05v-1.805c0-.02.006-.037.02-.05a.078.078 0 01.055-.02h.33c.022 0 .04.007.054.02.015.013.022.03.022.05v.695h.82v-.695c0-.02.007-.037.021-.05a.077.077 0 01.054-.02h.33a.08.08 0 01.055.02c.014.013.021.03.021.05v1.806c0 .02-.007.037-.021.05a.078.078 0 01-.055.02h-.33a.077.077 0 01-.054-.02.065.065 0 01-.021-.05v-.717h-.82v.717c0 .02-.008.037-.022.05a.078.078 0 01-.054.02h-.33z" fill="#6E81BE"/></svg>