<svg width="124" height="24" viewBox="0 0 124 24" fill="none" xmlns="http://www.w3.org/2000/svg">
<path d="M38.7916 14.0734C38.8969 14.2198 39.0126 14.3593 39.1388 14.4918C39.9043 15.2873 41.0263 15.8689 42.5048 16.2367L43.8782 16.5857C44.7188 16.8033 45.2779 17.0322 45.5556 17.2724C45.8408 17.505 45.9834 17.8202 45.9834 18.218C45.9834 18.6908 45.7845 19.0661 45.3867 19.3437C44.9965 19.6214 44.291 19.7603 43.2703 19.7603C42.7675 19.7603 42.2309 19.7303 41.6605 19.6702C41.0976 19.6027 40.5385 19.5164 39.9831 19.4113C39.4278 19.2987 38.9174 19.1636 38.4521 19.006V22.4846C39.1501 22.7097 39.9156 22.8861 40.7487 23.0137C41.5892 23.1488 42.4373 23.2163 43.2928 23.2163C44.7563 23.2163 46.0059 23.0024 47.0416 22.5746C48.0848 22.1469 48.884 21.5389 49.4394 20.7509C49.9948 19.9554 50.2725 19.0135 50.2725 17.9253C50.2725 17.0547 50.0998 16.3005 49.7546 15.6626C49.4169 15.0171 48.8915 14.4768 48.1786 14.0415C47.4731 13.5987 46.5725 13.2422 45.4768 12.972L44.0921 12.623C43.3791 12.4279 42.8988 12.2215 42.6512 12.0039C42.411 11.7787 42.2909 11.4823 42.2909 11.1145C42.2909 10.8218 42.3885 10.5592 42.5836 10.3265C42.7787 10.0864 43.1127 9.89874 43.5855 9.76365C44.0583 9.62856 44.715 9.56101 45.5556 9.56101C46.231 9.56101 46.9065 9.60604 47.5819 9.6961C48.2574 9.78616 48.854 9.91375 49.3719 10.0789V6.6003C48.839 6.4502 48.2236 6.33012 47.5256 6.24006C46.8352 6.15 46.0922 6.10497 45.2967 6.10497C44.5874 6.10497 43.9302 6.14376 43.325 6.22134L38.7916 14.0734Z" fill="#6E80BE"/>
<path d="M93.7809 10.6782V7.72918L98.0813 6.05014V8.99912L93.7809 10.6782Z" fill="#6E80BE"/>
<path d="M52.445 22.9912V9.59479H63.3197L61.8272 12.6906H56.644V14.6494H62.3178V17.7339H56.644V19.8954H63.421L61.9285 22.9912H52.445Z" fill="#6E80BE"/>
<path fill-rule="evenodd" clip-rule="evenodd" d="M65.6153 9.95502V22.9912H69.8369V18.4882C70.0245 18.5032 70.2159 18.5144 70.411 18.522C70.5094 18.5257 70.6079 18.5286 70.7063 18.5304L73.7432 22.9912H78.4038L74.7593 17.7929C75.4266 17.4647 75.966 17.0323 76.3774 16.4956C76.9028 15.8202 77.1617 14.9834 77.1542 13.9852C77.1542 12.4467 76.5988 11.3022 75.4881 10.5517C74.3849 9.79367 72.7338 9.41467 70.5348 9.41467C69.6793 9.41467 68.8237 9.4672 67.9681 9.57227C67.1126 9.66984 66.3283 9.79742 65.6153 9.95502ZM72.64 15.246C72.2872 15.5087 71.7506 15.64 71.0302 15.64C70.7975 15.64 70.5949 15.6363 70.4222 15.6288C70.2571 15.6138 70.062 15.5988 69.8369 15.5838V12.3754C70.0095 12.3379 70.1971 12.3116 70.3997 12.2966C70.6099 12.2816 70.8125 12.2741 71.0076 12.2741C71.7206 12.2741 72.2572 12.4092 72.6175 12.6793C72.9852 12.9495 73.1691 13.381 73.1691 13.9739C73.1691 14.5518 72.9927 14.9759 72.64 15.246Z" fill="#6E80BE"/>
<path d="M81.8521 22.9912L77.6868 9.59479H82.1223L85.1405 19.8567L88.2463 9.59479H92.4116L88.2463 22.9912H81.8521Z" fill="#6E80BE"/>
<path d="M93.7809 12.7663V22.9912H98.0813V11.0873L93.7809 12.7663Z" fill="#6E80BE"/>
<path d="M107.624 23.1713C105.853 23.1713 104.359 22.9236 103.143 22.4283C101.935 21.933 101.019 21.1787 100.397 20.1655C99.7811 19.1524 99.4734 17.8728 99.4734 16.3267C99.4734 14.8558 99.7887 13.6062 100.419 12.578C101.057 11.5498 101.995 10.7656 103.233 10.2252C104.472 9.68485 105.988 9.41467 107.781 9.41467C108.299 9.41467 108.817 9.43718 109.335 9.48221C109.86 9.52724 110.356 9.59479 110.821 9.68485V12.9945C110.408 12.912 109.98 12.8482 109.538 12.8032C109.102 12.7581 108.648 12.7356 108.175 12.7356C107.192 12.7356 106.389 12.8632 105.766 13.1184C105.151 13.366 104.697 13.7525 104.404 14.2779C104.119 14.8032 103.976 15.4787 103.976 16.3042C103.976 17.1373 104.115 17.8165 104.393 18.3418C104.678 18.8597 105.121 19.2424 105.721 19.4901C106.329 19.7303 107.11 19.8503 108.063 19.8503C108.521 19.8503 108.986 19.8166 109.459 19.749C109.939 19.674 110.393 19.5839 110.821 19.4788V22.7773C110.386 22.8973 109.879 22.9912 109.301 23.0587C108.731 23.1338 108.172 23.1713 107.624 23.1713Z" fill="#6E80BE"/>
<path d="M112.779 9.59479V22.9912H122.263L123.755 19.8954H116.978V17.7339H122.652V14.6494H116.978V12.6906H122.161L123.654 9.59479H112.779Z" fill="#6E80BE"/>
<path d="M28.0838 3.8821C28.383 3.78109 28.2868 3.87031 28.9122 3.52687C29.5376 3.18175 30.1224 2.24066 28.989 1.50496C27.2545 0.378681 22.4957 -0.129747 19.3125 0.471272C16.1293 1.07397 16.0786 1.74739 16.367 2.46625C16.5626 2.95447 17.2393 3.38041 18.107 3.70364C17.8604 3.49657 17.8281 3.26424 18.1086 3.04033C18.4511 2.76592 18.668 2.58073 20.5285 2.37197C22.3891 2.16322 25.5711 2.31642 27.119 2.77771C28.2897 3.1262 28.5488 3.53361 28.0838 3.8821Z" fill="#6E80BE"/>
<path d="M33.4333 3.8821C33.1342 3.78109 33.2304 3.87031 32.605 3.52687C31.9796 3.18175 31.3948 2.24066 32.5281 1.50496C34.2626 0.378681 39.0215 -0.129747 42.2047 0.471272C45.3879 1.07397 45.4386 1.74739 45.1502 2.46625C44.9546 2.95447 44.2779 3.38041 43.4102 3.70364C43.6568 3.49657 43.6891 3.26424 43.4085 3.04033C43.0661 2.76592 42.8492 2.58073 40.9886 2.37197C39.1281 2.16322 35.9461 2.31642 34.3982 2.77771C33.2275 3.1262 32.9684 3.53361 33.4333 3.8821Z" fill="#6E80BE"/>
<path d="M0.862549 5.95068H10.5443L12.8957 10.0341H5.42358V13.425H12.933V17.5085H5.42358V23.0486H0.862549V5.95068Z" fill="#182131"/>
<path d="M14.4815 23.0486H19.0425V17.5085H22.3379C23.9777 17.5085 25.3388 16.9831 26.4213 15.9324C27.5039 14.8817 28.0452 13.4808 28.0452 11.7296C28.0452 9.99432 27.5039 8.60133 26.4213 7.55062C25.3388 6.48399 23.9777 5.95068 22.3379 5.95068H12.0935L14.4442 10.0341H21.6693C22.7518 10.0819 23.2931 10.647 23.2931 11.7296C23.2931 12.2868 23.1419 12.7086 22.8394 12.9952C22.5528 13.2818 22.1628 13.425 21.6693 13.425H14.4815V23.0486Z" fill="#182131"/>
<path d="M27.7495 16.4241L31.5818 23.0618L41.4609 5.95068H38.0142C36.9477 5.95068 35.9623 6.51961 35.4291 7.44316L31.5818 14.1069L29.1592 9.91079C29.288 10.4869 29.3511 11.0946 29.3511 11.7296C29.3511 13.5527 28.8387 15.1513 27.7495 16.4241Z" fill="#182131"/>
</svg>
