<svg width="57" height="57" viewBox="0 0 57 57" fill="none" xmlns="http://www.w3.org/2000/svg">
<rect x="0.308838" y="0.216309" width="56" height="56" rx="28" fill="white"/>
<rect x="0.308838" y="0.216309" width="56" height="56" rx="28" fill="url(#paint0_linear_402_2633)"/>
<rect x="0.308838" y="0.216309" width="56" height="56" rx="28" fill="white" fill-opacity="0.98"/>
<rect x="0.308838" y="0.216309" width="56" height="56" rx="28" fill="url(#paint1_linear_402_2633)"/>
<path d="M30.1791 39.7163V29.2249H33.8779L34.4317 25.1362H30.179V22.5258C30.179 21.342 30.5242 20.5353 32.3073 20.5353L34.5813 20.5343V16.8774C34.188 16.8277 32.838 16.7163 31.2677 16.7163C27.9889 16.7163 25.7441 18.6217 25.7441 22.121V25.1362H22.0359V29.2249H25.7441V39.7162H30.1791V39.7163Z" fill="white"/>
<defs>
<linearGradient id="paint0_linear_402_2633" x1="28.3088" y1="67.4402" x2="28.3088" y2="-29.6238" gradientUnits="userSpaceOnUse">
<stop stop-color="#F6F7F9"/>
<stop offset="0.261438" stop-color="#EEF3FB"/>
<stop offset="1" stop-color="#EBECEE" stop-opacity="0"/>
</linearGradient>
<linearGradient id="paint1_linear_402_2633" x1="-3.66512" y1="0.216307" x2="82.1707" y2="28.0045" gradientUnits="userSpaceOnUse">
<stop stop-color="#109DED"/>
<stop offset="1" stop-color="#1072ED"/>
</linearGradient>
</defs>
</svg>
