<svg width="18" height="19" viewBox="0 0 18 19" fill="none" xmlns="http://www.w3.org/2000/svg">
<path fill-rule="evenodd" clip-rule="evenodd" d="M12.0739 2.55786L15.7879 2.55786C15.8376 2.55786 15.8856 2.56511 15.9309 2.5786C15.9762 2.56511 16.0242 2.55786 16.0739 2.55786C16.35 2.55786 16.5739 2.78172 16.5739 3.05786V6.77191C16.5739 7.04805 16.35 7.27191 16.0739 7.27191C15.7978 7.27191 15.5739 7.04805 15.5739 6.77191V4.3242L10.2608 9.63731C10.0655 9.83257 9.74894 9.83257 9.55367 9.63731C9.35841 9.44205 9.35841 9.12547 9.55367 8.9302L14.926 3.55786L12.0739 3.55786C11.7978 3.55786 11.5739 3.334 11.5739 3.05786C11.5739 2.78172 11.7978 2.55786 12.0739 2.55786Z" fill="white"/>
<path fill-rule="evenodd" clip-rule="evenodd" d="M8.21451 3.64124L9.90739 3.64124C10.2296 3.64124 10.4907 3.9024 10.4907 4.22457C10.4907 4.54674 10.2296 4.8079 9.90739 4.8079H8.24073C7.06432 4.8079 6.21711 4.80836 5.55157 4.86273C4.89284 4.91655 4.46364 5.02028 4.11393 5.19846C3.43968 5.54201 2.8915 6.09019 2.54795 6.76444C2.38311 7.08795 2.27027 7.67211 2.21333 8.73891C2.1576 9.78321 2.15739 11.1928 2.15739 13.1042C2.15739 13.5448 2.159 13.814 2.20551 14.0811C2.24967 14.3346 2.33933 14.6086 2.54795 15.018C2.8915 15.6923 3.43968 16.2405 4.11393 16.584C4.46364 16.7622 4.89284 16.8659 5.55157 16.9197C6.21711 16.9741 7.06432 16.9746 8.24073 16.9746C9.41713 16.9746 10.2643 16.9741 10.9299 16.9197C11.5886 16.8659 12.0178 16.7622 12.3675 16.584C13.0418 16.2405 13.59 15.6923 13.9335 15.018C14.1117 14.6683 14.2154 14.2391 14.2692 13.5804C14.3236 12.9149 14.3241 12.0676 14.3241 10.8912V9.22457C14.3241 8.9024 14.5852 8.64124 14.9074 8.64124C15.2296 8.64124 15.4907 8.9024 15.4907 9.22457V10.9174C15.4907 12.062 15.4907 12.9568 15.432 13.6754C15.3723 14.4063 15.249 15.0061 14.973 15.5477C14.5176 16.4415 13.791 17.1681 12.8972 17.6235C12.3556 17.8995 11.7558 18.0228 11.0249 18.0825C10.3063 18.1412 9.41151 18.1412 8.26691 18.1412H8.21454C7.06994 18.1412 6.17516 18.1412 5.45657 18.0825C4.72569 18.0228 4.12586 17.8995 3.58427 17.6235C2.6905 17.1681 1.96384 16.4415 1.50845 15.5477C1.26293 15.0658 1.12552 14.6796 1.05614 14.2812C0.990656 13.9052 0.990689 13.539 0.990724 13.1328L0.990726 13.0844C0.990725 11.1967 0.990725 9.75592 1.04832 8.67673C1.10492 7.61628 1.21915 6.80256 1.50845 6.23478C1.96384 5.34101 2.6905 4.61435 3.58427 4.15895C4.12586 3.883 4.72569 3.75966 5.45657 3.69994C6.17515 3.64123 7.06992 3.64123 8.21451 3.64124Z" fill="white"/>
</svg>
