<svg width="48" height="48" viewBox="0 0 48 48" fill="none" xmlns="http://www.w3.org/2000/svg">
<g clip-path="url(#clip0_5094_31595)">
<path d="M48 23.9967C48 10.745 37.255 0 24 0C10.745 0 0 10.745 0 23.9967C0 37.2483 10.745 47.9967 24 47.9967C37.255 47.9967 48 37.2483 48 23.9967Z" fill="#395196"/>
<path d="M26.1161 18.3182V16.0456C26.1161 14.9393 26.8547 14.6786 27.3728 14.6786H30.5645V9.80912L26.1729 9.78906C21.2967 9.78906 20.1905 13.422 20.1905 15.7481V18.3149H17.373V23.9999H20.2172V38.2141H25.9022V23.9999H30.1234L30.6414 18.3149H26.1228L26.1161 18.3182Z" fill="white"/>
</g>
<defs>
<clipPath id="clip0_5094_31595">
<rect width="48" height="48" fill="white"/>
</clipPath>
</defs>
</svg>
