<svg width="48" height="48" viewBox="0 0 48 48" fill="none" xmlns="http://www.w3.org/2000/svg">
<g clip-path="url(#clip0_5094_31588)">
<path d="M24 48C37.2548 48 48 37.2548 48 24C48 10.7452 37.2548 0 24 0C10.7452 0 0 10.7452 0 24C0 37.2548 10.7452 48 24 48Z" fill="#0080FF"/>
<path d="M24.2556 8.72656C15.3231 8.72656 8.07812 15.4766 8.07812 23.7941C8.07812 28.5341 10.4331 32.7641 14.1081 35.5316V41.2766L19.6131 38.2316C21.0831 38.6441 22.6431 38.8616 24.2556 38.8616C33.1881 38.8616 40.4331 32.1116 40.4331 23.7941C40.4331 15.4766 33.1881 8.72656 24.2556 8.72656ZM25.8606 29.0216L21.7431 24.6041L13.7031 29.0216L22.5456 19.5791L26.7681 23.9966L34.7031 19.5791L25.8606 29.0216Z" fill="white"/>
</g>
<defs>
<clipPath id="clip0_5094_31588">
<rect width="48" height="48" fill="white"/>
</clipPath>
</defs>
</svg>
