<svg width="48" height="48" viewBox="0 0 48 48" fill="none" xmlns="http://www.w3.org/2000/svg">
<g clip-path="url(#clip0_5094_31591)">
<path d="M48 24C48 10.745 37.255 0 24 0C10.745 0 0 10.745 0 24C0 37.255 10.745 48 24 48C37.255 48 48 37.255 48 24Z" fill="#00B456"/>
<path d="M38.4282 22.0175C38.2344 14.3272 32.008 8.30469 24.2575 8.30469C16.5071 8.30469 10.4277 14.2136 10.0968 21.7535C10.0868 21.9607 10.0801 22.1679 10.0801 22.3752C10.0801 24.8784 10.7485 27.3249 12.0119 29.4705C12.0419 29.5207 12.0486 29.5842 12.0286 29.641L9.51861 37.0606C9.48519 37.1608 9.57877 37.2578 9.68237 37.2243L17.4061 34.7679C17.4596 34.7511 17.5164 34.7578 17.5632 34.7812C19.6153 35.8708 21.9247 36.4456 24.2542 36.4456C32.0715 36.4456 38.4316 30.1323 38.4316 22.3752C38.4316 22.2715 38.4249 22.0209 38.4249 22.0209L38.4282 22.0175ZM14.6889 28.7119C13.4189 26.8302 12.7471 24.6512 12.7471 22.3752C12.7471 22.0109 12.7638 21.6499 12.8006 21.2689C13.3721 15.3867 18.2951 10.955 24.2542 10.955C30.2132 10.955 35.2666 15.5806 35.7278 21.4828C35.7545 21.8304 35.7679 22.1145 35.7679 22.3752C35.7679 28.6751 30.6043 33.7986 24.2542 33.7986C22.5597 33.7986 20.9053 33.431 19.3913 32.7258C18.9669 32.5286 18.1648 32.0507 17.9141 31.8969C17.864 31.8669 17.8038 31.8602 17.7436 31.8769L13.8567 33.1135C13.7665 33.1402 13.6829 33.0567 13.713 32.9698L14.9697 29.2667C14.9897 29.2032 14.9797 29.133 14.9429 29.0795C14.8661 28.9726 14.7424 28.7988 14.6856 28.7152L14.6889 28.7119Z" fill="white"/>
<path d="M30.9985 25.5036C30.9083 25.3632 30.3 25.0691 30.3 25.0691C30.0594 24.9488 28.2847 24.0798 27.9505 23.9595C27.6664 23.8559 27.3422 23.7422 27.0514 24.1734C26.8308 24.5009 26.1858 25.2529 25.9752 25.4902C25.8282 25.6573 25.6945 25.7141 25.367 25.5503C25.3135 25.5236 23.7327 24.8485 22.6398 23.8826C21.6739 23.027 21.0021 21.9709 20.7581 21.5565C20.6077 21.3025 20.7047 21.1855 20.8918 21.0017C21.0055 20.8914 21.5068 20.2831 21.5469 20.2263C21.6271 20.106 21.7708 19.8119 21.7708 19.8119C21.9145 19.5278 21.8243 19.2771 21.7441 19.1167C21.6873 19.0031 20.7749 16.8106 20.688 16.6067C20.4273 15.9884 20.1499 15.955 19.8858 15.9717C19.7555 15.9818 18.5523 15.9918 18.168 16.4062L18.1011 16.4764C17.7235 16.8741 16.9414 17.703 16.9414 19.3072C16.9414 19.6748 17.0016 20.0659 17.1219 20.4937C17.3458 21.2657 17.7836 22.1146 18.3618 22.8867C18.3752 22.9034 19.2575 24.1266 19.6953 24.6346C21.089 26.2388 22.6632 27.4253 24.254 28.0469C26.2827 28.839 27.1517 29.0228 27.643 29.0228C27.8569 29.0228 28.3114 28.9126 28.4083 28.9025C29.0266 28.8457 30.5039 28.0804 30.8113 27.2147C31.1055 26.3993 31.1088 25.6874 31.0018 25.5036H30.9985Z" fill="white"/>
</g>
<defs>
<clipPath id="clip0_5094_31591">
<rect width="48" height="48" fill="white"/>
</clipPath>
</defs>
</svg>
