<svg width="48" height="48" viewBox="0 0 48 48" fill="none" xmlns="http://www.w3.org/2000/svg">
<g clip-path="url(#clip0_5094_31577)">
<path d="M48 24C48 37.2547 37.2547 48 24 48C10.7453 48 0 37.2547 0 24C0 10.7453 10.7453 0 24 0C37.2547 0 48 10.7453 48 24Z" fill="#621F90"/>
<path d="M35.5063 24.2361C34.9264 24.2263 34.9199 23.7611 34.9133 23.2697C34.9133 23.1813 34.9133 23.0928 34.9068 23.0076C34.9068 22.9585 34.9002 22.9126 34.8937 22.8635C34.1009 16.7177 31.2933 13.3532 25.0198 12.8881C24.63 12.8586 23.7978 12.7603 23.8208 12.3279C23.8535 11.7677 24.1844 11.6464 24.5284 11.6464C24.6234 11.6464 25.0329 11.6333 25.2852 11.6464C32.5055 12.1084 35.6668 16.7374 36.0992 22.9126C36.1058 23.0076 36.1713 23.9085 35.9584 24.0887C35.8568 24.1739 35.7258 24.2329 35.5325 24.2329H35.5096L35.5063 24.2361Z" fill="white"/>
<path d="M32.4225 23.0901C32.013 23.0901 31.9115 22.8411 31.8754 22.4087C31.8722 22.353 31.8656 22.294 31.8623 22.2383C31.8558 22.1171 31.846 21.9959 31.8296 21.8878C31.2006 18.1564 29.8378 16.7641 26.0048 15.9255C25.8967 15.9025 25.7755 15.8862 25.6543 15.8698C25.3267 15.8272 24.986 15.7781 24.8353 15.5749C24.7534 15.4636 24.7305 15.3161 24.7665 15.1163C24.8288 14.7592 25.0155 14.5725 25.3922 14.6053C30.1523 15.0213 32.8386 17.5471 33.0384 22.6413C33.0483 22.9132 32.8713 23.041 32.606 23.0803C32.5405 23.0901 32.4782 23.0934 32.4225 23.0934V23.0901Z" fill="white"/>
<path d="M29.5402 22.1824C29.3862 22.1824 29.2519 22.1169 29.1471 21.999C29.0455 21.881 28.9767 21.714 28.9571 21.5338C28.7965 19.9613 27.9219 19.0407 26.3559 18.7918C26.0906 18.7525 25.8056 18.6837 25.6942 18.4969C25.6254 18.3823 25.6254 18.2316 25.6942 18.035C25.8252 17.6615 26.1823 17.5927 26.5656 17.6124C27.2994 17.6452 28.2822 18.0514 29.0062 18.7852C29.7335 19.5223 30.1594 20.4298 30.1463 21.2127C30.1594 21.5272 30.1397 21.9072 29.8842 22.0809C29.8056 22.1333 29.7106 22.166 29.6024 22.1792C29.5795 22.1792 29.5566 22.1824 29.5369 22.1824H29.5402Z" fill="white"/>
<path d="M31.5579 36.3609C30.716 36.3609 29.8413 35.935 29.0714 35.5582C28.9306 35.4894 28.793 35.4239 28.6619 35.3617C27.5645 34.8474 26.4965 34.2839 25.4908 33.6844C21.4646 31.2994 17.9887 28.0955 15.44 24.41C14.7357 23.3912 14.0772 22.3068 13.4842 21.1897L13.4023 21.039C12.7963 19.9022 12.1705 18.7229 11.8364 17.5009C11.3122 15.5812 12.0461 13.7597 13.7529 12.7409C14.5522 12.2626 15.2631 12.0234 15.8593 12.0234C16.1869 12.0234 16.4883 12.0955 16.7471 12.2429C17.3204 12.5607 17.8053 13.1078 18.2312 13.5894C19.2074 14.6934 20.3868 16.1479 20.9339 17.6778C21.2025 18.428 20.9208 19.1913 20.164 19.7745C20.069 19.8465 19.9707 19.9186 19.8724 19.9874C19.499 20.256 19.1157 20.5312 18.8765 20.9735C18.6472 21.4026 18.5915 21.9235 18.7226 22.4837C18.9388 23.4239 19.4924 24.446 20.4162 25.6057C21.0911 26.4542 21.9101 27.2143 22.8438 27.8629C23.7545 28.4952 24.8126 29.1831 25.8675 29.3699C25.992 29.3928 26.1165 29.4026 26.2344 29.4026C26.6538 29.4026 27.0403 29.2716 27.3483 29.0226C27.5907 28.8293 27.7741 28.5804 27.9543 28.3412C28.1116 28.1315 28.2721 27.9153 28.4687 27.7417C28.9044 27.3519 29.4154 27.152 29.9855 27.152C30.3458 27.152 30.7193 27.2339 31.096 27.3944C31.594 27.6074 32.0493 27.9252 32.4883 28.2331L32.7569 28.4198C33.2778 28.7769 33.8806 29.193 34.4441 29.6385L34.7586 29.8875V29.8809C34.7782 29.894 34.7946 29.9071 34.8143 29.9202C35.571 30.487 36.354 31.0734 36.3278 32.0496C36.295 33.2225 35.345 34.2904 34.7782 34.8244C33.8839 35.6696 32.852 36.2069 31.8757 36.3445C31.7709 36.3576 31.6628 36.3674 31.5547 36.3674L31.5579 36.3609Z" fill="white"/>
</g>
<defs>
<clipPath id="clip0_5094_31577">
<rect width="48" height="48" fill="white"/>
</clipPath>
</defs>
</svg>
