<svg width="48" height="48" viewBox="0 0 48 48" fill="none" xmlns="http://www.w3.org/2000/svg">
<g clip-path="url(#clip0_5094_31598)">
<path d="M24 48C20.7605 48 17.6171 47.3655 14.6575 46.1133C11.7996 44.9044 9.23289 43.1739 7.0292 40.9702C4.82552 38.7665 3.09505 36.1998 1.88614 33.3419C0.634522 30.3829 0 27.2395 0 24C0 20.7605 0.634522 17.6171 1.88671 14.6575C3.09561 11.7996 4.82608 9.23289 7.02976 7.0292C9.23345 4.82552 11.8002 3.09505 14.6581 1.88614C17.6171 0.634522 20.7605 0 24 0C27.2395 0 30.3829 0.634522 33.3425 1.88671C36.2004 3.09561 38.7671 4.82608 40.9708 7.02976C43.1745 9.23345 44.905 11.8002 46.1139 14.6581C47.3655 17.6177 48.0006 20.7611 48.0006 24.0006C48.0006 27.2401 47.366 30.3834 46.1139 33.343C44.905 36.2009 43.1745 38.7677 40.9708 40.9714C38.7671 43.175 36.2004 44.9055 33.3425 46.1144C30.3829 47.366 27.2395 48.0011 24 48.0011V48Z" fill="#10A4FF"/>
<path d="M7.81836 22.9495L20.5965 26.5543L34.5492 12.6016L7.81836 22.9495Z" fill="white"/>
<path d="M21.4434 27.3981L25.0482 40.1762L35.3961 13.4453L21.4434 27.3981Z" fill="white"/>
</g>
<defs>
<clipPath id="clip0_5094_31598">
<rect width="48" height="48" fill="white"/>
</clipPath>
</defs>
</svg>
