<svg width="33" height="33" fill="none" xmlns="http://www.w3.org/2000/svg"><path d="M21.457 20.026a8.666 8.666 0 001.679-5.985 8.615 8.615 0 00-2.817-5.62 8.356 8.356 0 00-5.841-2.139 8.372 8.372 0 00-5.7 2.502 8.633 8.633 0 00-2.47 5.79 8.649 8.649 0 002.104 5.938 8.389 8.389 0 005.538 2.863 8.34 8.34 0 005.893-1.71l4.403 4.473.07-.07-.07.07a1.142 1.142 0 00.808.34 1.127 1.127 0 00.808-.34 1.16 1.16 0 00.334-.819 1.175 1.175 0 00-.334-.819l-.071.07.071-.07-4.405-4.474zm-2.366-9.603a6.254 6.254 0 011.354 2.028 6.338 6.338 0 01.02 4.808 6.257 6.257 0 01-1.338 2.04 6.141 6.141 0 01-2.007 1.36 6.064 6.064 0 01-4.73-.02 6.145 6.145 0 01-1.995-1.376 6.303 6.303 0 01-1.767-4.41 6.302 6.302 0 011.802-4.394 6.101 6.101 0 014.323-1.83 6.1 6.1 0 014.338 1.794z" fill="#fff" stroke="#fff" stroke-width=".2"/></svg>