<svg width="31" height="32" fill="none" xmlns="http://www.w3.org/2000/svg"><path fill-rule="evenodd" clip-rule="evenodd" d="M17.039 24.47H13.96a.403.403 0 01-.414-.411v-1.53A29.577 29.577 0 0112.244 22l-1.125 1.059c-.178.176-.415.176-.592 0L8.396 20.94c-.178-.176-.178-.412 0-.588l1.065-1.118c-.177-.412-.414-.823-.532-1.294h-1.54a.403.403 0 01-.414-.412V14.47c0-.236.178-.412.414-.412h1.54c.177-.47.355-.882.532-1.294l-1.065-1.118c-.178-.176-.178-.412 0-.588l2.13-2.118c.178-.176.415-.176.593 0L12.244 10c.414-.176.829-.412 1.302-.53V7.942c0-.235.178-.412.414-.412h3.079c.236 0 .414.177.414.412v1.53c.474.176.888.353 1.302.529l1.125-1.059c.178-.176.415-.176.592 0l2.131 2.118c.178.176.178.412 0 .588l-1.065 1.118c.177.412.355.823.532 1.294h1.54c.236 0 .414.176.414.412v3.058a.403.403 0 01-.414.412h-1.54c-.177.47-.355.883-.532 1.294l1.065 1.118c.178.176.178.412 0 .588l-2.13 2.118c-.178.176-.415.176-.593 0L18.755 22c-.414.177-.828.353-1.302.53v1.529a.403.403 0 01-.414.412zm-2.664-.823h2.25v-1.47c0-.177.118-.354.355-.412.591-.118 1.124-.353 1.657-.647.118-.118.355-.06.474.059l1.065 1 1.54-1.53-1.007-1.059c-.118-.117-.178-.353-.06-.47.297-.53.534-1.06.652-1.647.06-.236.237-.353.414-.353h1.48v-2.236h-1.48c-.236 0-.355-.117-.414-.353-.118-.588-.414-1.117-.651-1.647-.119-.117-.06-.353.059-.47l1.006-1.06-1.539-1.528-1.065 1c-.119.117-.356.176-.474.058-.533-.294-1.066-.53-1.657-.647-.237-.058-.356-.176-.356-.411V8.353h-2.25v1.47c0 .177-.118.354-.354.412-.592.118-1.125.353-1.658.647-.118.118-.355.06-.473-.059l-1.066-1-1.54 1.53 1.007 1.059c.119.117.178.353.06.47-.297.53-.533 1.06-.652 1.647-.059.236-.237.353-.414.353h-1.48v2.236h1.48c.237 0 .355.117.414.353.119.588.355 1.117.651 1.588.119.176.06.353-.059.53l-1.006 1.058 1.539 1.53 1.066-1c.118-.118.355-.177.473-.06.533.295 1.066.53 1.658.648.236.058.355.176.355.412v1.47z" fill="#6E81BE"/><path fill-rule="evenodd" clip-rule="evenodd" d="M15.5 20.47c-2.487 0-4.5-2-4.5-4.47 0-2.47 2.013-4.47 4.5-4.47 2.486 0 4.499 2 4.499 4.47 0 2.47-2.013 4.47-4.5 4.47zm0-8.117c-2.013 0-3.67 1.647-3.67 3.647 0 2 1.657 3.647 3.67 3.647 2.012 0 3.67-1.647 3.67-3.647 0-2-1.658-3.647-3.67-3.647z" fill="#6E81BE"/><path fill-rule="evenodd" clip-rule="evenodd" d="M15.5 29c-2.96 0-5.802-1-8.11-2.823a13.016 13.016 0 01-4.559-7c-.059-.236.119-.471.296-.53.237-.059.474.118.533.294 1.362 5.47 6.216 9.236 11.84 9.236 5.623 0 10.478-3.765 11.84-9.236.058-.235.295-.353.532-.294.177.059.355.294.296.53a13.016 13.016 0 01-4.558 7C21.242 28 18.46 29 15.5 29zm12.253-15.647a.445.445 0 01-.414-.294c-1.361-5.47-6.216-9.235-11.84-9.235-5.623 0-10.477 3.764-11.839 9.235-.06.176-.296.353-.533.294-.177-.059-.355-.294-.296-.53a13.016 13.016 0 014.558-7C9.7 3.942 12.54 3 15.5 3c2.96 0 5.743.941 8.11 2.824a13.016 13.016 0 014.559 7c.06.235-.119.47-.296.529h-.119z" fill="#6E81BE"/><path fill-rule="evenodd" clip-rule="evenodd" d="M5.673 19.47H.759a.4.4 0 01-.355-.235.36.36 0 01.06-.412l2.486-3.176a.326.326 0 01.296-.176c.118 0 .236.058.355.176l2.427 3.176a.5.5 0 010 .412.4.4 0 01-.355.236zm-4.085-.823h3.256L3.246 16.53l-1.658 2.118zm26.165-2.117c-.118 0-.236-.06-.355-.177l-2.427-3.177c-.059-.117-.118-.294 0-.411.06-.177.178-.236.355-.236h4.914a.4.4 0 01.355.236.36.36 0 01-.06.412l-2.486 3.176a.326.326 0 01-.296.176zm-1.598-3.177l1.598 2.118 1.658-2.118h-3.256z" fill="#6E81BE"/></svg>