<svg width="31" height="31" fill="none" xmlns="http://www.w3.org/2000/svg"><path fill-rule="evenodd" clip-rule="evenodd" d="M10.654 12.145l4.667 5.111a.752.752 0 001.084.024l9.25-9.25a.749.749 0 10-1.06-1.06L15.9 15.665l-4.138-4.532a.75.75 0 00-1.108 1.012z" fill="#3BAD08"/><path fill-rule="evenodd" clip-rule="evenodd" d="M15.875 5.5h-7a3.75 3.75 0 00-3.75 3.75v12.5a3.75 3.75 0 003.75 3.75h12.5a3.75 3.75 0 003.75-3.75v-7a.75.75 0 00-1.5 0v7a2.25 2.25 0 01-2.25 2.25h-12.5a2.25 2.25 0 01-2.25-2.25V9.25A2.25 2.25 0 018.875 7h7a.75.75 0 000-1.5z" fill="#3BAD08"/></svg>