<svg width="32" height="32" fill="none" xmlns="http://www.w3.org/2000/svg"><path d="M28.527 16.974l-2.082-4.58a2.171 2.171 0 00-1.972-1.27h-3.83V9.498a1.627 1.627 0 00-1.625-1.625H5.473a1.627 1.627 0 00-1.625 1.625V16a.542.542 0 101.083 0V9.498a.542.542 0 01.542-.541h13.545a.542.542 0 01.541.541v8.669a.543.543 0 01-.541.541h-6.502a.542.542 0 000 1.084h6.502a1.627 1.627 0 001.625-1.625v-5.96h3.83a1.086 1.086 0 01.986.635l.204.449h-2.311a1.085 1.085 0 00-1.084 1.083v2.167a1.085 1.085 0 001.084 1.084h4.263c.047.152.07.31.07.47v2.239a.542.542 0 01-.54.542h-1.68a2.71 2.71 0 00-5.31 0h-8.777a2.71 2.71 0 00-5.308 0h-.597a.542.542 0 01-.542-.542v-.542a.542.542 0 000-1.083H3.306a.542.542 0 000 1.083h.542v.542a1.627 1.627 0 001.625 1.625h.597a2.709 2.709 0 005.308 0h8.778a2.709 2.709 0 005.308 0h1.68a1.627 1.627 0 001.626-1.625v-2.24c0-.386-.083-.769-.243-1.12zM8.724 23.043a1.625 1.625 0 110-3.25 1.625 1.625 0 010 3.25zm14.086 0a1.625 1.625 0 110-3.25 1.625 1.625 0 010 3.25zm.542-8.669h2.803l.985 2.167h-3.788v-2.167z" fill="#C72A2A"/><path d="M3.306 18.167h2.709a.542.542 0 000-1.084H3.306a.541.541 0 000 1.084z" fill="#C72A2A"/></svg>