<svg width="34" height="22" fill="none" xmlns="http://www.w3.org/2000/svg"><path d="M.071 2.766C.071 1.25 1.314.021 2.847.021H30.61c1.533 0 2.776 1.23 2.776 2.745v16.468c0 1.516-1.243 2.744-2.776 2.744H2.847c-1.533 0-2.776-1.228-2.776-2.744V2.766z" fill="#D8E3F3"/><path d="M28.742 6.904h-1.745c-.527 0-.933.16-1.177.682l-3.328 7.503h2.354s.406-1.003.487-1.243h2.882c.08.28.284 1.203.284 1.203h2.11l-1.867-8.145zm-2.76 5.256c.203-.481.893-2.287.893-2.287 0 .04.203-.481.285-.762l.162.722s.446 1.966.527 2.367h-1.866v-.04zm-3.328.243c0 1.686-1.542 2.81-3.937 2.81-1.015 0-1.989-.201-2.516-.442l.324-1.846.285.12c.73.321 1.217.442 2.11.442.65 0 1.34-.241 1.34-.803 0-.361-.285-.602-1.178-1.003-.852-.401-1.988-1.043-1.988-2.207 0-1.605 1.582-2.688 3.815-2.688.852 0 1.583.16 2.03.36l-.326 1.766-.162-.16a4.405 4.405 0 00-1.704-.321c-.853.04-1.259.401-1.259.722 0 .361.487.642 1.259 1.003 1.298.602 1.907 1.284 1.907 2.247z" fill="#3362AB"/><path d="M2.847 6.986l.041-.16h3.49c.488 0 .853.16.975.681l.77 3.612c-.77-1.926-2.556-3.491-5.276-4.133z" fill="#F9B50B"/><path d="M13.035 6.906l-3.531 8.146H7.109L5.08 8.23c1.462.923 2.68 2.367 3.126 3.37l.244.843 2.191-5.577h2.395v.04zm.933-.04h2.233l-1.42 8.186h-2.233l1.42-8.186z" fill="#3362AB"/></svg>