<svg width="337" height="247" viewBox="0 0 337 247" fill="none" xmlns="http://www.w3.org/2000/svg">
<path d="M27.109 0.933548C22.701 1.58524 13.7349 3.99146 6.97264 6.29741C2.36432 7.85143 1.06196 8.50311 0.460879 9.55583C-0.190297 10.7088 -0.190297 10.9595 0.711331 11.9621C1.71314 13.0148 1.9135 13.0148 10.7294 12.7641C20.2967 12.4633 25.456 11.6613 33.771 9.1548C36.2756 8.40286 38.7801 7.70105 39.4313 7.55066L40.5332 7.3V14.8194V22.3389L36.1754 22.5394C31.1162 22.79 28.9623 23.6924 27.5097 26.0986C26.9086 27.0009 26.5079 28.6051 26.5079 29.8082C26.5079 32.465 28.8622 47.3535 29.4633 48.4564C29.7137 48.9075 30.6153 49.9101 31.517 50.7623L33.0698 52.2662L41.3848 52.4166C47.045 52.5168 50.1506 52.4166 51.1023 51.9654C53.1059 51.1634 54.9092 48.9075 55.6105 46.401L56.1615 44.3457L74.745 44.6465C85.0136 44.847 103.797 45.1478 116.52 45.3483L139.662 45.6491L139.813 58.2316C139.963 69.9619 140.013 70.9144 141.015 72.6188L142.067 74.3733L140.514 76.3785C137.208 80.5894 129.444 89.9636 125.637 94.3249C120.628 100.14 114.116 108.712 113.315 110.517L112.413 112.622L108.656 111.168C96.2839 106.406 88.5199 103.749 87.9188 103.95C87.0673 104.301 86.5664 105.404 86.917 106.306C87.0172 106.657 92.7776 109.063 99.64 111.62L112.163 116.282V122.397C112.163 129.566 112.664 131.671 114.918 134.178C116.671 136.133 120.678 138.589 122.431 138.74C125.386 139.04 127.19 138.639 128.692 137.436C131.297 135.231 132.199 132.824 132.199 128.162C132.199 124.202 132.249 124.102 133.351 124.403C133.952 124.553 141.015 127.11 148.979 130.117L163.505 135.581L163.806 158.591C163.956 171.274 164.156 194.283 164.207 209.773C164.257 234.637 164.357 237.996 165.058 238.698C165.459 239.149 166.01 239.5 166.21 239.5C167.863 239.5 167.913 238.648 167.663 186.864L167.412 135.782L168.965 135.231C170.468 134.679 188.1 128.513 198.468 124.954L203.327 123.25V127.862C203.377 134.479 205.08 137.737 209.238 139.141C212.794 140.344 218.905 137.637 221.66 133.626C223.063 131.621 223.113 131.371 223.263 123.901L223.464 116.282L224.766 115.73C225.517 115.48 229.174 114.176 232.881 112.923C236.587 111.62 241.346 110.015 243.4 109.314C247.707 107.81 248.409 107.359 248.409 106.155C248.409 103.95 247.357 104.1 236.337 107.86C230.426 109.915 225.067 111.77 224.365 112.071C223.213 112.522 223.013 112.372 221.861 110.216C220.659 108.01 215.599 101.644 203.828 87.5574C200.923 84.0984 197.617 79.9878 196.415 78.4338L194.261 75.6266L195.663 73.5211L197.066 71.4157L197.216 59.0337L197.366 46.6517L218.004 46.3509C229.374 46.1504 248.258 45.8496 260.08 45.6992L281.468 45.3483V46.5514C281.468 48.4564 283.572 51.5644 285.476 52.567C286.928 53.369 288.381 53.5194 294.893 53.5194C307.115 53.5194 307.365 53.3189 309.569 39.9343C310.421 34.771 310.922 30.1591 310.721 29.357C310.27 27.2014 307.716 24.5446 305.612 23.943C304.61 23.6924 302.256 23.4417 300.403 23.4417H296.996V15.9223C296.996 11.7615 297.097 8.40286 297.247 8.40286C297.397 8.40286 299.801 9.05455 302.556 9.90675C311.122 12.4634 317.584 13.5161 326.6 13.7667C336.167 14.0675 337.219 13.8168 336.969 11.2602C336.818 9.75635 336.618 9.55585 332.36 8.00183C320.038 3.38992 308.467 1.03383 301.555 1.63538C299.2 1.83589 295.995 1.98628 294.492 1.93616C280.316 1.63538 279.715 1.68552 274.456 2.83849C267.994 4.24211 254.52 8.6535 253.318 9.75635C252.165 10.8091 252.165 12.0623 253.418 13.1652C254.319 13.9672 255.221 14.0174 263.035 13.7667C273.454 13.4158 284.173 11.3605 292.839 8.05196C293.34 7.85144 293.49 9.30519 293.49 15.5714V23.2913L288.331 23.2412C284.123 23.1911 282.921 23.3415 281.819 24.0934C278.814 26.0485 277.862 29.4573 278.914 34.1193L279.365 36.0242L273.304 35.7235C269.948 35.5731 260.531 35.2222 252.416 34.9715C212.844 33.6682 207.234 33.4676 202.576 33.1668L197.517 32.8661L197.016 29.5575C195.864 22.389 190.905 15.822 184.343 12.714C181.137 11.2101 180.787 11.16 172.021 10.9093C160.55 10.6086 157.044 10.9595 152.936 12.8644C146.424 15.9223 140.915 23.1409 140.313 29.5074L140.113 31.9136L136.507 32.1643C131.247 32.5653 58.4155 34.9715 58.1651 34.771C58.0649 34.6206 58.2152 33.2671 58.5658 31.7632C59.3172 28.204 58.666 26.0986 56.2617 23.943C54.3582 22.2887 54.2079 22.2887 48.0468 22.2386L43.7891 22.1885L43.6389 15.1703C43.5888 11.3605 43.6389 7.90157 43.739 7.55066C43.9394 7.0995 44.6908 7.14963 46.8947 7.95169C51.3528 9.50571 59.2671 11.3605 64.8271 12.1626C70.6376 13.0148 82.2085 13.1652 83.6611 12.4132C84.9134 11.7114 84.9635 9.10466 83.7613 8.45299C82.0582 7.55064 70.7879 3.94133 65.8289 2.6881C58.7662 0.883423 53.0058 0.18161 48.8483 0.632782C44.4904 1.08394 41.1844 1.13408 35.0233 0.733032C32.4186 0.582642 28.8622 0.632782 27.109 0.933548ZM37.2774 4.34238C35.424 6.09691 15.8887 9.90675 8.7759 9.90675C5.87065 9.90675 18.7439 5.89639 25.5061 4.64314C29.864 3.8912 37.9786 3.64056 37.2774 4.34238ZM60.1687 4.89378C65.4783 5.89638 75.5465 8.75375 76.2477 9.40544C76.8488 9.90674 70.287 9.50571 64.2761 8.60338C58.666 7.8013 48.0969 5.14444 47.3455 4.3925C46.4439 3.49016 54.7589 3.84106 60.1687 4.89378ZM289.683 5.3951C288.882 6.19716 275.958 9.30519 270.949 9.85661C263.736 10.6587 260.23 10.8091 261.132 10.3078C262.434 9.55583 271.851 6.84885 276.459 5.84627C281.068 4.8938 290.535 4.54289 289.683 5.3951ZM312.875 5.84627C315.38 6.39769 320.038 7.55066 323.144 8.50313L328.804 10.1574L325.849 10.3078C320.539 10.6086 305.963 7.90158 301.004 5.746C299.25 4.99406 299.25 4.99405 303.759 4.94392C306.363 4.94392 310.22 5.29485 312.875 5.84627ZM53.2562 25.9482C55.8108 26.9007 55.911 28.204 54.1078 36.8764C52.1542 46.5514 51.7034 47.8548 50.5513 48.5065C50.0504 48.8073 46.2436 49.0078 42.1361 49.0078C35.7246 49.0078 34.4723 48.8574 33.5707 48.1055C32.619 47.4036 32.2182 45.8496 31.0661 38.4806C29.0625 26.249 29.0124 26.3492 38.9804 25.8981C50.8519 25.4469 51.9539 25.4469 53.2562 25.9482ZM305.862 27.7529C306.464 28.1038 307.065 28.9058 307.265 29.4573C307.816 31.2118 305.011 47.3535 303.909 48.8073L302.907 50.0104L294.893 49.9101C286.928 49.7597 286.828 49.7597 285.926 48.5065C285.426 47.8047 284.273 43.6439 283.272 38.7814C281.418 29.7079 281.468 28.1038 283.622 27.0009C285.225 26.1989 304.41 26.8004 305.862 27.7529ZM139.712 39.032V42.5912L133.852 42.2904C130.596 42.14 116.22 41.8894 101.894 41.739C87.5682 41.5886 71.5392 41.338 66.2797 41.1876L56.7125 40.8367L56.9629 39.6837C57.2635 38.1798 56.9128 38.1798 88.8705 37.1772C103.497 36.726 119.826 36.1746 125.186 35.9741C130.546 35.7736 136.006 35.6232 137.358 35.5731L139.712 35.4728V39.032ZM243.149 37.9793C262.184 38.5808 278.212 39.1824 278.814 39.2826C279.765 39.4832 280.867 41.2377 280.366 41.739C280.166 41.9897 230.426 42.892 209.338 43.0424L197.567 43.1426L197.417 39.7338L197.266 36.325L202.927 36.6258C206.032 36.7762 224.165 37.4279 243.149 37.9793ZM152.936 77.5816C156.392 77.5816 159.248 77.732 159.248 77.9325C159.248 78.2834 139.963 102.245 133.351 110.166C129.494 114.778 129.043 116.332 128.692 125.054C128.442 132.473 128.392 132.724 127.14 134.027C125.286 135.832 122.732 135.782 120.027 133.877C116.02 131.07 115.919 130.719 115.919 121.295C115.919 114.126 116.07 112.672 116.821 111.219C117.322 110.316 123.834 102.145 131.297 93.0716C143.018 78.7847 144.922 76.6793 145.723 77.0803C146.224 77.3811 149.48 77.5816 152.936 77.5816ZM171.47 78.6343C172.171 79.1858 173.824 81.0406 175.126 82.745C177.531 85.9031 185.745 96.0293 192.007 103.599C193.96 105.955 195.213 107.709 194.812 107.559C194.411 107.409 184.643 104.2 173.173 100.34C161.652 96.5306 152.235 93.222 152.235 93.0215C152.235 92.821 154.94 89.2618 158.296 85.101L164.307 77.5816H167.212C169.416 77.5816 170.468 77.8323 171.47 78.6343ZM205.08 94.4753C214.247 105.654 219.006 111.92 219.356 113.123C219.607 114.126 219.857 118.187 219.857 122.197C219.857 130.819 219.406 132.173 215.7 134.429C212.544 136.384 210.29 136.384 208.436 134.579C207.084 133.225 207.084 133.075 206.834 125.305C206.583 118.588 206.383 117.134 205.481 115.429C204.88 114.327 198.018 105.504 190.153 95.8789C182.289 86.2039 175.978 78.1832 176.128 77.9325C176.228 77.732 179.735 77.5816 183.842 77.6317H191.306L205.08 94.4753ZM175.026 104.802L199.57 113.023L201.223 115.129C202.977 117.485 203.327 119.44 201.975 119.841C201.474 119.991 196.214 121.796 190.304 123.901C184.393 126.007 176.429 128.814 172.622 130.117L165.709 132.473L160.6 130.619C154.739 128.513 132.499 120.142 132.349 119.991C131.898 119.59 133.551 115.881 135.104 113.825C140.013 107.158 148.979 96.6308 149.68 96.6308C150.131 96.6308 161.552 100.34 175.026 104.802Z" fill="#182131"/>
<path d="M161.654 151.616C161.422 151.722 161.119 151.845 160.804 151.964C160.26 152.177 159.698 152.518 159.253 152.885C158.915 153.164 158.742 153.378 158.666 153.486C158.662 153.603 158.657 153.758 158.653 153.952C158.643 154.436 158.632 155.136 158.623 156.032C158.604 157.821 158.587 160.373 158.575 163.499C158.55 169.751 158.54 178.294 158.553 187.62V187.621C158.58 222.724 158.615 223.508 159.651 228.558C160.421 232.3 161.808 236.059 163.261 238.407L163.261 238.407L163.268 238.419C163.693 239.119 164.343 239.932 165.042 240.653C165.757 241.39 166.419 241.923 166.842 242.153C168.651 243.134 171.088 242.611 173.204 239.778L173.207 239.773C176.069 235.971 178.175 229.228 178.73 221.524C178.826 220.102 178.887 203.283 178.897 186.606C178.902 178.29 178.895 170.046 178.873 163.839C178.863 160.735 178.849 158.143 178.831 156.307C178.822 155.388 178.812 154.663 178.802 154.159C178.797 153.942 178.792 153.771 178.788 153.647C178.769 153.616 178.743 153.578 178.708 153.531C178.601 153.387 178.448 153.216 178.256 153.036C177.864 152.669 177.404 152.351 177.021 152.176C176.722 152.045 176.439 151.904 176.217 151.779C176.108 151.718 175.987 151.646 175.877 151.569C175.828 151.534 175.739 151.469 175.647 151.382C175.604 151.34 175.519 151.255 175.436 151.134C175.381 151.055 175.164 150.737 175.164 150.268C175.164 149.748 175.43 149.409 175.484 149.341L175.486 149.339C175.576 149.223 175.664 149.147 175.703 149.114C175.786 149.044 175.861 148.996 175.889 148.979C175.957 148.936 176.023 148.901 176.063 148.88C176.153 148.833 176.265 148.78 176.383 148.725C176.627 148.612 176.967 148.461 177.374 148.285C178.191 147.932 179.31 147.464 180.534 146.97C180.536 146.97 180.537 146.969 180.539 146.968L184.022 145.539L184.022 133.668C184.022 130.134 184.015 126.911 184.003 124.567C184 123.928 183.997 123.354 183.993 122.859C182.795 123.323 181.155 123.97 179.358 124.684C177.243 125.533 175.571 126.179 174.411 126.597C173.835 126.805 173.362 126.966 173.015 127.067C172.849 127.116 172.667 127.164 172.499 127.193C172.425 127.206 172.278 127.229 172.106 127.224C172.023 127.221 171.857 127.211 171.662 127.148C171.479 127.089 171.086 126.923 170.821 126.483L170.816 126.475C170.751 126.364 170.535 126.112 170.206 125.848C170.055 125.726 169.911 125.627 169.793 125.558C169.699 125.503 169.651 125.485 169.648 125.483C169.648 125.483 169.648 125.483 169.648 125.483L169.637 125.48C169.179 125.358 169.027 125.393 168.952 125.417C168.832 125.455 168.595 125.577 168.101 126.059L168.099 126.06L167.118 127.015L166.421 127.692L165.518 127.333L158.998 124.739L158.998 124.738C157.218 124.029 155.585 123.398 154.388 122.95C154.358 122.939 154.327 122.928 154.297 122.916C154.287 123.416 154.278 124 154.27 124.656C154.242 126.968 154.225 130.15 154.225 133.641C154.225 137.118 154.245 140.303 154.275 142.627C154.29 143.791 154.308 144.733 154.326 145.386C154.328 145.431 154.329 145.474 154.33 145.516C154.471 145.578 154.629 145.647 154.803 145.722C155.566 146.05 156.599 146.483 157.717 146.945C158.855 147.41 159.89 147.838 160.648 148.156C161.026 148.315 161.339 148.448 161.562 148.544C161.672 148.592 161.768 148.634 161.84 148.667C161.875 148.683 161.916 148.702 161.954 148.721C161.972 148.73 162.005 148.747 162.042 148.768C162.06 148.778 162.093 148.797 162.132 148.823L162.134 148.824C162.157 148.839 162.263 148.908 162.375 149.019C162.58 149.224 162.745 149.509 162.798 149.854C162.849 150.179 162.784 150.45 162.716 150.627C162.595 150.941 162.401 151.13 162.347 151.182C162.207 151.317 162.067 151.401 162.023 151.427L162.022 151.428C161.899 151.501 161.762 151.567 161.654 151.616ZM178.777 153.438C178.777 153.438 178.777 153.45 178.78 153.471C178.78 153.469 178.78 153.468 178.78 153.467C178.778 153.447 178.777 153.438 178.777 153.438ZM158.674 153.292C158.679 153.256 158.678 153.248 158.675 153.288C158.675 153.289 158.675 153.29 158.674 153.292Z" fill="#6E81BE" stroke="black" stroke-width="3"/>
</svg>
