<svg width="228" height="248" viewBox="0 0 228 248" fill="none" xmlns="http://www.w3.org/2000/svg">
<path d="M98.0814 55.7031C100.35 55.7031 102.189 53.864 102.189 51.5953C102.189 49.3267 100.35 47.4875 98.0814 47.4875C95.8128 47.4875 93.9736 49.3267 93.9736 51.5953C93.9736 53.864 95.8128 55.7031 98.0814 55.7031Z" fill="#6E81BE"/>
<path d="M46.0826 53.5988C50.5093 53.5988 54.0978 50.0103 54.0978 45.5836C54.0978 41.1569 50.5093 37.5684 46.0826 37.5684C41.6559 37.5684 38.0674 41.1569 38.0674 45.5836C38.0674 50.0103 41.6559 53.5988 46.0826 53.5988Z" fill="#6E81BE" stroke="#6E81BE" stroke-width="3" stroke-linecap="round" stroke-linejoin="round"/>
<path d="M46.6357 80.438V86.1088" stroke="black" stroke-width="3" stroke-linecap="round" stroke-linejoin="round"/>
<path d="M46.6357 103.117V108.787" stroke="black" stroke-width="3" stroke-linecap="round" stroke-linejoin="round"/>
<path d="M32.4658 94.6125H38.1326" stroke="black" stroke-width="3" stroke-linecap="round" stroke-linejoin="round"/>
<path d="M55.1299 94.6125H60.8006" stroke="black" stroke-width="3" stroke-linecap="round" stroke-linejoin="round"/>
<path d="M170.32 97.6826V146.587" stroke="black" stroke-width="3" stroke-linecap="round" stroke-linejoin="round"/>
<path d="M132.603 97.6829H178.042L150.277 45.584L125.858 91.407" stroke="black" stroke-width="3" stroke-linecap="round" stroke-linejoin="round"/>
<path d="M150.282 45.5837V1.5" stroke="black" stroke-width="3" stroke-linecap="round" stroke-linejoin="round"/>
<path d="M138.257 13.5227H162.303" stroke="black" stroke-width="3" stroke-linecap="round" stroke-linejoin="round"/>
<path d="M178.047 161.804H210.689C213.216 154.437 214.472 146.693 214.404 138.905C214.404 116.138 192.362 97.6826 192.362 97.6826C192.362 97.6826 170.32 116.138 170.32 138.905C170.315 143.005 170.646 147.098 171.31 151.144" stroke="black" stroke-width="3" stroke-linecap="round" stroke-linejoin="round"/>
<path d="M178.054 161.804H210.403V192.607" stroke="black" stroke-width="3" stroke-linecap="round" stroke-linejoin="round"/>
<path d="M98.8086 145.774H137.198C140.596 138.622 142.329 130.793 142.267 122.875C142.267 100.107 112.21 81.6523 112.21 81.6523C112.21 81.6523 87.936 96.5566 83.0146 116.098" stroke="black" stroke-width="3" stroke-linecap="round" stroke-linejoin="round"/>
<path d="M134.253 147.381V192.607" stroke="black" stroke-width="3" stroke-linecap="round" stroke-linejoin="round"/>
<path d="M226.426 245.964H2" stroke="black" stroke-width="3" stroke-linecap="round" stroke-linejoin="round"/>
<path d="M166.307 141.766L138.542 193.865H194.071L166.307 141.766Z" stroke="black" stroke-width="3" stroke-linecap="round" stroke-linejoin="round"/>
<path d="M34.0597 129.744L18.0293 181.843H50.0902L34.0597 129.744Z" stroke="black" stroke-width="3" stroke-linecap="round" stroke-linejoin="round"/>
<path d="M95.1447 177.835C97.2254 170.382 98.2493 162.673 98.1865 154.935C98.1865 132.148 80.1522 113.713 80.1522 113.713C80.1522 113.713 62.118 132.148 62.118 154.935C62.0551 162.673 63.079 170.382 65.1597 177.835H95.1447Z" stroke="black" stroke-width="3" stroke-linecap="round" stroke-linejoin="round"/>
<path d="M218.411 244.818V193.865H94.1755V177.835H66.1222V193.865H10.0156V244.497" stroke="black" stroke-width="3" stroke-linecap="round" stroke-linejoin="round"/>
<path d="M86.1613 244.818V237.949C86.1613 230.509 83.2056 223.373 77.9446 218.112C72.6836 212.851 65.5482 209.896 58.108 209.896C50.6678 209.896 43.5323 212.851 38.2713 218.112C33.0103 223.373 30.0547 230.509 30.0547 237.949V244.818" stroke="black" stroke-width="3" stroke-linecap="round" stroke-linejoin="round"/>
<path d="M46.083 192.607V183.562" stroke="black" stroke-width="3" stroke-linecap="round" stroke-linejoin="round"/>
<path d="M22.0381 183.562V192.607" stroke="black" stroke-width="3" stroke-linecap="round" stroke-linejoin="round"/>
<path d="M106.199 213.904V245.964" stroke="black" stroke-width="3" stroke-linecap="round" stroke-linejoin="round"/>
<path d="M122.228 213.904V245.964" stroke="black" stroke-width="3" stroke-linecap="round" stroke-linejoin="round"/>
<path d="M138.257 213.904V245.964" stroke="black" stroke-width="3" stroke-linecap="round" stroke-linejoin="round"/>
<path d="M154.292 213.904V245.964" stroke="black" stroke-width="3" stroke-linecap="round" stroke-linejoin="round"/>
<path d="M170.32 213.904V245.964" stroke="black" stroke-width="3" stroke-linecap="round" stroke-linejoin="round"/>
<path d="M186.35 213.904V245.964" stroke="black" stroke-width="3" stroke-linecap="round" stroke-linejoin="round"/>
<path d="M202.382 213.904V245.964" stroke="black" stroke-width="3" stroke-linecap="round" stroke-linejoin="round"/>
</svg>
