<svg width="320" height="302" viewBox="0 0 320 302" fill="none" xmlns="http://www.w3.org/2000/svg">
<path d="M157.112 4.83145C154.891 10.274 154.78 10.3851 148.782 10.4961C145.172 10.5517 143.894 10.9404 143.894 11.9401C143.894 12.4399 149.17 17.4937 151.614 19.2709C151.781 19.3819 151.281 21.8811 150.614 24.769C149.059 31.2112 149.448 32.0997 152.669 29.4895C153.891 28.5454 155.057 27.7679 155.279 27.7679C155.502 27.7679 155.502 30.4337 155.335 33.7103C154.946 39.6527 154.835 39.9859 145.727 65.8103C140.729 80.1386 136.453 92.0234 136.342 92.1344C136.23 92.2455 135.675 91.9678 135.12 91.468C134.564 90.9127 133.898 90.6905 133.731 90.9127C133.509 91.0793 133.343 107.74 133.343 127.844V164.387H125.29C116.015 164.387 116.46 164.109 116.793 170.218L116.959 173.551L120.18 173.717L123.346 173.884V179.937V185.935L121.68 186.324C120.791 186.546 119.236 187.435 118.292 188.323L116.515 189.989L115.071 188.656C113.072 186.768 111.517 186.046 109.518 186.046H107.796V194.377C107.796 202.318 107.74 202.707 106.685 202.707C105.63 202.707 105.574 202.318 105.574 194.321V185.88L103.02 186.213C101.187 186.379 100.021 186.935 98.688 188.212L96.8553 189.989L95.0781 188.323C93.2454 186.657 90.1909 185.658 88.6359 186.268C87.9695 186.491 87.8028 187.935 87.8028 194.654C87.8028 202.318 87.7473 202.707 86.6921 202.707C85.6369 202.707 85.5814 202.318 85.5814 194.377V186.046H83.9153C81.916 186.046 79.639 187.101 78.1951 188.712C77.1399 189.823 77.1399 189.823 74.6408 187.935C72.6414 186.379 71.6973 186.046 70.0868 186.157L68.0875 186.324L67.9209 194.543C67.8098 201.208 67.6432 202.707 66.9767 202.707C66.3103 202.707 66.1437 201.208 66.0326 194.543C65.866 186.379 65.866 186.324 64.5331 186.157C62.4783 185.824 60.7567 186.491 58.7574 188.268L56.8691 189.934L55.814 188.768C54.3145 187.101 52.0375 186.046 50.0382 186.046H48.3721V194.377C48.3721 202.318 48.3166 202.707 47.2614 202.707C46.2617 202.707 46.1506 202.263 46.0396 194.543C45.873 186.379 45.873 186.324 44.5401 186.157C42.4852 185.824 40.8747 186.491 38.9309 188.268L37.0982 189.989L35.6543 188.656C33.655 186.768 32.1 186.046 30.1007 186.046H28.379V194.377C28.379 202.318 28.3235 202.707 27.2683 202.707C26.2131 202.707 26.1576 202.318 26.1576 194.321V185.88L23.6029 186.213C21.7147 186.379 20.604 186.935 19.16 188.323C17.2718 190.156 17.2718 190.156 16.4387 188.99C15.3835 187.49 12.2735 186.046 10.1076 186.046H8.38598V239.083V292.065L4.33183 292.232L0.333218 292.398L0.166609 296.675L0 301.006H160H320L319.833 296.675L319.667 292.398L315.668 292.232L311.614 292.065V239.083V186.046H309.892C307.727 186.046 304.616 187.49 303.561 188.99C302.728 190.156 302.728 190.156 300.84 188.323C299.396 186.935 298.285 186.379 296.397 186.213L293.842 185.88V194.321C293.842 202.318 293.787 202.707 292.732 202.707C291.677 202.707 291.621 202.318 291.621 194.377V186.046H289.899C287.9 186.046 286.345 186.768 284.346 188.656L282.902 189.989L281.125 188.323C279.292 186.657 276.237 185.658 274.682 186.268C274.016 186.491 273.849 187.935 273.849 194.654C273.849 202.318 273.794 202.707 272.739 202.707C271.683 202.707 271.628 202.318 271.628 194.377V186.046H269.962C267.963 186.046 265.686 187.101 264.186 188.768L263.131 189.934L261.243 188.268C259.243 186.491 257.522 185.824 255.467 186.157C254.134 186.324 254.134 186.379 253.967 194.543C253.856 201.208 253.69 202.707 253.023 202.707C252.357 202.707 252.19 201.208 252.079 194.543L251.913 186.324L249.913 186.157C248.303 186.046 247.359 186.379 245.359 187.935C242.86 189.823 242.86 189.823 241.805 188.712C240.361 187.101 238.084 186.046 236.085 186.046H234.419V194.377C234.419 202.318 234.363 202.707 233.308 202.707C232.253 202.707 232.197 202.318 232.197 194.654C232.197 187.935 232.031 186.491 231.364 186.268C229.809 185.658 226.755 186.657 224.922 188.323L223.145 189.989L221.312 188.212C219.979 186.935 218.813 186.379 216.98 186.213L214.426 185.88V194.321C214.426 202.318 214.37 202.707 213.315 202.707C212.26 202.707 212.204 202.318 212.204 194.377V186.046H210.482C208.483 186.046 206.928 186.768 204.929 188.656L203.485 189.989L201.708 188.323C200.764 187.435 199.209 186.491 198.264 186.324L196.598 185.935L196.765 180.048L196.932 174.106L199.986 173.828L203.041 173.551L203.207 170.218C203.54 164.109 203.985 164.387 194.71 164.387H186.657L186.546 127.567C186.38 90.9682 186.38 90.8016 185.269 90.9682C184.214 91.0793 183.103 88.358 174.606 65.4215L165.054 39.7082L164.665 33.7103C164.498 30.4337 164.498 27.7679 164.721 27.7679C164.943 27.7679 166.109 28.5454 167.331 29.4895C170.552 32.0997 170.941 31.2112 169.386 24.769C168.719 21.8811 168.219 19.3819 168.386 19.2709C170.83 17.4937 176.106 12.4399 176.106 11.9401C176.106 10.9404 174.828 10.5517 171.218 10.4961C165.22 10.3851 165.109 10.274 162.888 4.83145C161.555 1.55481 160.611 -0.000213623 160 -0.000213623C159.389 -0.000213623 158.501 1.55481 157.112 4.83145ZM161.888 8.27469L163.388 12.0511L167.886 12.4955L172.385 12.8842L169.052 15.8831L165.665 18.8821L166.442 22.0477C167.442 26.3795 167.442 26.324 165.554 24.9911C164.554 24.3247 163.443 23.9359 162.943 24.1025C162.166 24.4357 162.11 25.3243 162.444 31.9331L162.832 39.4305H160H157.168L157.556 31.9331C157.89 25.3243 157.834 24.4357 157.057 24.1025C156.557 23.9359 155.446 24.3247 154.446 24.9911C152.558 26.324 152.558 26.3795 153.558 22.0477L154.335 18.8821L150.948 15.8831L147.615 12.8842L152.114 12.4955L156.612 12.0511L158.112 8.27469C158.945 6.16431 159.778 4.44269 160 4.44269C160.222 4.44269 161.055 6.16431 161.888 8.27469ZM173.051 67.754C181.437 90.2462 182.603 93.6895 181.881 94.4114C181.215 95.1334 180.326 94.467 175.106 89.2466C171.829 85.9699 168.997 83.3042 168.775 83.3042C168.553 83.3042 166.553 85.8033 164.387 88.8578C162.166 91.9123 160.167 94.4114 160 94.4114C159.833 94.4114 157.834 91.9123 155.613 88.8578C153.447 85.8033 151.447 83.3042 151.225 83.3042C151.003 83.3042 148.171 86.081 144.894 89.5242C140.174 94.578 138.896 95.6332 138.619 94.8557C138.285 94.0782 148.671 63.4777 155.668 44.5399L156.779 41.5964L160.111 41.7631L163.443 41.9297L173.051 67.754ZM179.715 97.9658C179.715 98.299 178.66 98.6322 177.383 98.7433C175.384 98.9099 174.995 98.7433 174.995 97.9102C174.995 97.3549 173.606 95.4111 171.94 93.5784L168.886 90.2462L165.887 93.5784C164.165 95.4111 162.832 97.3549 162.777 97.9102C162.777 98.7433 162.333 98.9099 159.889 98.7433C157.501 98.6322 156.946 98.3545 156.668 97.4104C156.501 96.7995 155.224 94.9113 153.724 93.2452L151.114 90.2462L148.06 93.5784C146.394 95.4111 145.005 97.3549 145.005 97.8547C145.005 98.6322 144.505 98.8543 142.839 98.8543C141.617 98.8543 140.507 98.6877 140.34 98.41C139.896 97.6881 151.059 86.3031 151.503 87.0251C155.113 92.2455 159.334 97.6881 159.889 97.6881C160.278 97.7436 162.499 95.1334 164.887 91.9123L169.163 86.1365L174.439 91.7457C177.327 94.8557 179.715 97.6325 179.715 97.9658ZM153.114 95.9109L154.724 98.0213L154.891 109.962C155.002 116.515 154.891 122.735 154.724 123.679L154.391 125.512H150.837H147.227V111.739V98.0213L148.948 95.9109C149.892 94.8002 150.837 93.8561 151.114 93.8561C151.336 93.8561 152.28 94.8002 153.114 95.9109ZM171.052 95.9109L172.773 98.0213V111.739V125.512H168.886H164.998V111.85V98.1879L166.72 96.022C167.664 94.8557 168.608 93.8561 168.886 93.8561C169.163 93.8561 170.108 94.8002 171.052 95.9109ZM137.785 111.461V125.512H136.397H135.009L135.064 110.184L135.12 94.8557L136.453 96.1331L137.785 97.3549V111.461ZM184.936 110.517L184.991 125.512H183.603H182.215V111.517C182.215 99.2986 182.326 97.4104 183.159 96.5218C183.658 95.9664 184.214 95.5222 184.436 95.5222C184.658 95.5222 184.88 102.242 184.936 110.517ZM145.116 114.238L145.283 127.456L151.003 127.622L156.668 127.789V114.404V101.076H159.722H162.777L162.888 114.238L163.055 127.456H168.886H174.717L174.884 114.238L174.995 101.076H177.494H179.993V114.349V127.678L182.381 127.844L184.714 128.011V146.06V164.109L180.437 164.276C176.439 164.443 175.106 163.943 176.661 162.999C176.939 162.832 177.716 160.888 178.383 158.722C181.159 149.614 177.05 140.062 168.497 135.73C165.609 134.286 164.721 134.12 160 134.12C155.613 134.12 154.28 134.342 152.114 135.453C147.949 137.508 144.672 140.729 142.673 144.838C141.007 148.171 140.84 149.004 140.84 153.28C140.896 157.223 141.118 158.556 142.339 161.222L143.839 164.443L139.563 164.276L135.286 164.109V146.06V128.011L137.674 127.844L140.007 127.678V114.349V101.076H142.506H145.005L145.116 114.238ZM165.387 136.897C168.997 137.952 173.44 141.895 175.439 145.727C176.605 148.059 176.883 149.337 176.883 153.002C176.939 156.834 176.716 157.889 175.328 160.611C172.718 165.776 168.775 168.774 162.943 169.941C155.613 171.496 147.504 167.164 144.228 160C142.562 156.334 142.617 150.114 144.394 146.171C146.06 142.395 150.781 138.007 154.335 136.952C157.779 135.897 161.944 135.897 165.387 136.897ZM147.615 167.941C148.448 168.663 150.17 169.774 151.392 170.385L153.613 171.551L136.286 171.607H118.903V169.108V166.609H132.454C145.894 166.609 146.06 166.609 147.615 167.941ZM201.097 169.108V171.607H183.77L166.387 171.551L168.608 170.385C169.83 169.774 171.552 168.663 172.385 167.941C173.94 166.609 174.106 166.609 187.546 166.609H201.097V169.108ZM194.432 232.974V292.121H191.378H188.324V278.625C188.324 268.629 188.101 264.297 187.49 261.631C184.492 249.024 172.995 239.916 160 239.916C147.005 239.916 135.509 249.024 132.51 261.631C131.899 264.297 131.676 268.629 131.676 278.625V292.121H128.622H125.568V232.974V173.828H160H194.432V232.974ZM12.4957 188.823C14.1617 189.434 16.1611 192.433 16.1611 194.21C16.1611 195.099 16.4943 195.487 17.2718 195.487C17.9938 195.487 18.3825 195.099 18.3825 194.377C18.3825 192.488 19.9375 189.989 21.7147 189.101C22.6033 188.656 23.4363 188.268 23.6585 188.268C23.8251 188.268 23.9361 191.489 23.9361 195.487V202.707H17.2718H10.6074V195.487C10.6074 191.489 10.7185 188.268 10.8296 188.268C10.9962 188.268 11.7182 188.49 12.4957 188.823ZM32.7664 189.101C34.3214 189.878 36.1541 192.877 36.1541 194.654C36.1541 196.432 38.0423 195.265 38.4311 193.266C38.8754 191.267 41.6522 188.268 43.0961 188.268C43.8181 188.268 43.9292 189.49 43.9292 195.487V202.707H37.2648H30.6005V195.487C30.6005 191.489 30.7116 188.268 30.8782 188.268C31.1003 188.268 31.9334 188.656 32.7664 189.101ZM53.3148 189.712C54.3145 190.545 55.2586 192.044 55.5918 193.322C56.3693 196.154 57.8688 196.098 58.4242 193.266C58.8685 191.211 61.8674 188.046 62.9781 188.434C63.4224 188.545 63.7001 190.933 63.8112 195.654L63.9778 202.707H57.2579H50.5935V195.487C50.5935 191.433 50.8157 188.268 51.0934 188.268C51.3711 188.268 52.3707 188.934 53.3148 189.712ZM73.419 189.823C74.3631 190.656 75.3072 192.155 75.5293 193.266C75.9181 195.265 77.8063 196.432 77.8063 194.654C77.8063 192.155 81.0274 188.268 83.0823 188.268C83.2489 188.268 83.3599 191.489 83.3599 195.487V202.707H76.6956H70.0312V195.487C70.0312 187.435 70.2534 186.99 73.419 189.823ZM91.9125 188.823C93.5786 189.434 95.5779 192.433 95.5779 194.21C95.5779 195.099 95.9111 195.487 96.6887 195.487C97.4106 195.487 97.7994 195.099 97.7994 194.377C97.7994 191.933 100.798 188.268 102.798 188.268C103.131 188.268 103.353 190.878 103.353 195.487V202.707H96.6887H90.0243V195.487C90.0243 191.489 90.1354 188.268 90.2464 188.268C90.4131 188.268 91.135 188.49 91.9125 188.823ZM112.628 189.378C114.016 190.211 114.627 191.156 115.127 192.988C116.015 196.265 117.515 196.432 118.015 193.322C118.237 191.822 118.903 190.711 120.069 189.712C123.124 187.101 123.346 187.435 123.346 195.487V202.707H116.682H110.017V195.487C110.017 191.489 110.184 188.268 110.462 188.268C110.684 188.268 111.683 188.768 112.628 189.378ZM199.931 189.712C201.097 190.711 201.763 191.822 201.985 193.322C202.485 196.432 203.985 196.265 204.873 192.988C205.373 191.156 205.984 190.211 207.372 189.378C208.317 188.768 209.316 188.268 209.594 188.268C209.816 188.268 209.983 191.489 209.983 195.487V202.707H203.318H196.654V195.487C196.654 187.435 196.876 187.101 199.931 189.712ZM219.202 189.156C220.757 190.211 222.201 192.655 222.201 194.377C222.201 195.099 222.589 195.487 223.311 195.487C224.033 195.487 224.422 195.099 224.422 194.377C224.422 192.766 225.866 190.156 227.31 189.156C229.809 187.379 229.976 187.768 229.976 195.487V202.707H223.311H216.647V195.487C216.647 190.878 216.869 188.268 217.202 188.268C217.536 188.268 218.424 188.656 219.202 189.156ZM239.639 189.989C240.861 191.045 241.749 192.377 241.972 193.599C242.416 196.154 243.971 195.932 244.471 193.266C244.915 191.267 247.692 188.268 249.136 188.268C249.858 188.268 249.969 189.49 249.969 195.487V202.707H243.304H236.64V195.487C236.64 191.211 236.862 188.268 237.195 188.268C237.473 188.268 238.584 189.045 239.639 189.989ZM259.354 189.712C260.354 190.489 261.298 192.044 261.631 193.322C261.965 194.543 262.576 195.487 263.02 195.487C263.464 195.487 264.075 194.543 264.408 193.322C264.964 191.322 267.629 188.268 268.907 188.268C269.184 188.268 269.406 191.433 269.406 195.487V202.707H262.742H256.078V195.876C256.078 187.49 256.3 187.101 259.354 189.712ZM278.737 189.156C280.181 190.156 281.624 192.766 281.624 194.377C281.624 195.099 282.013 195.487 282.624 195.487C283.346 195.487 283.79 194.765 284.29 192.988C284.79 191.156 285.401 190.211 286.789 189.378C287.733 188.768 288.733 188.268 289.011 188.268C289.233 188.268 289.4 191.489 289.4 195.487V202.707H282.735H276.071V195.487C276.071 187.768 276.237 187.379 278.737 189.156ZM298.285 189.101C300.062 189.989 301.617 192.488 301.617 194.377C301.617 195.099 302.006 195.487 302.728 195.487C303.506 195.487 303.839 195.099 303.839 194.21C303.839 191.767 306.949 188.268 309.17 188.268C309.281 188.268 309.393 191.489 309.393 195.487V202.707H302.728H296.064V195.487C296.064 191.489 296.175 188.268 296.342 188.268C296.564 188.268 297.397 188.656 298.285 189.101ZM123.235 248.636L123.346 292.121H66.9767H10.6074V248.525V204.929L66.8657 205.04L123.068 205.206L123.235 248.636ZM309.393 248.525V292.121H253.023H196.654V248.913C196.654 225.144 196.821 205.484 197.043 205.317C197.209 205.095 222.589 204.929 253.412 204.929H309.393V248.525ZM171.329 244.804C178.827 248.525 184.047 255.3 185.547 263.186C185.824 264.852 186.102 272.016 186.102 279.125V292.121H184.769H183.436L183.214 277.792C182.992 265.741 182.825 263.075 181.937 260.743C180.382 256.355 177.272 252.19 173.773 249.58C169.33 246.359 165.776 245.192 160 245.192C154.224 245.192 150.67 246.359 146.227 249.58C142.728 252.19 139.618 256.355 138.063 260.743C137.175 263.075 137.008 265.741 136.786 277.792L136.564 292.121H135.231H133.898V279.125C133.898 272.016 134.176 264.852 134.453 263.186C136.23 253.745 143.839 245.581 153.336 242.86C154.891 242.416 157.945 242.193 161.277 242.36C166.331 242.527 166.998 242.693 171.329 244.804ZM165.609 248.025C171.829 249.857 176.161 253.634 179.104 259.91L180.826 263.519L180.993 277.792L181.215 292.121H160H138.785L139.007 277.792L139.174 263.519L140.896 259.91C142.95 255.578 144.839 253.245 148.226 250.913C153.336 247.414 159.778 246.303 165.609 248.025ZM317.723 296.563V298.785H160H2.27699V296.563V294.342H160H317.723V296.563Z" fill="black"/>
<path d="M158.889 141.062C158.889 142.895 159.055 143.284 159.999 143.284C160.944 143.284 161.11 142.895 161.11 141.062C161.11 139.23 160.944 138.841 159.999 138.841C159.055 138.841 158.889 139.23 158.889 141.062Z" fill="black"/>
<path d="M165.331 141.896C164.387 143.673 164.498 144.95 165.554 144.95C166.109 144.95 167.775 142.062 167.775 141.174C167.775 139.73 166.22 140.23 165.331 141.896Z" fill="black"/>
<path d="M152.225 141.118C152.225 142.007 154.057 144.95 154.557 144.95C155.557 144.95 155.612 143.34 154.724 141.951C153.78 140.507 152.225 140.007 152.225 141.118Z" fill="black"/>
<path d="M158.889 146.894C158.889 148.671 158.556 149.726 157.778 150.504C155.39 152.892 157.056 156.613 160.555 156.613C161.555 156.613 162.832 157.501 164.72 159.39C166.22 160.889 167.775 162.167 168.163 162.167C169.885 162.167 169.33 160.667 166.442 157.779C164.22 155.502 163.332 154.225 163.332 153.114C163.332 152.281 162.832 151.115 162.221 150.504C161.444 149.726 161.11 148.671 161.11 146.894C161.11 144.784 160.944 144.395 160 144.395C159.056 144.395 158.889 144.784 158.889 146.894ZM160.944 152.503C161.388 153.669 160.222 154.836 159.389 154.003C158.667 153.281 159.111 151.615 160 151.615C160.333 151.615 160.722 152.003 160.944 152.503Z" fill="#6E81BE"/>
<path d="M147.56 145.339C146.838 146.061 147.282 146.949 148.949 147.949C150.67 148.949 152.225 148.504 151.392 147.227C150.892 146.338 148.004 144.95 147.56 145.339Z" fill="black"/>
<path d="M170.108 146.172C168.275 147.338 167.942 147.949 168.886 148.56C169.608 149.004 172.773 147.116 172.773 146.227C172.773 145.061 171.94 145.005 170.108 146.172Z" fill="black"/>
<path d="M145.561 153.003C145.561 153.78 146.06 153.947 148.06 153.947C149.726 153.947 150.003 153.836 150.003 153.003C150.003 152.392 149.393 152.17 147.782 152.17C146.171 152.17 145.561 152.392 145.561 153.003Z" fill="black"/>
<path d="M169.996 153.003C169.996 153.836 170.274 153.947 171.94 153.947C173.939 153.947 174.439 153.78 174.439 153.003C174.439 152.392 173.828 152.17 172.218 152.17C170.607 152.17 169.996 152.392 169.996 153.003Z" fill="black"/>
<path d="M149.003 158.279C147.226 159.389 146.782 160.167 147.726 160.722C148.392 161.167 151.669 159.278 151.669 158.445C151.669 157.279 150.78 157.224 149.003 158.279Z" fill="black"/>
<path d="M168.664 157.557C167.942 158.279 168.386 159.167 170.108 160.111C171.83 161.111 173.329 160.722 172.496 159.445C171.996 158.556 169.108 157.168 168.664 157.557Z" fill="black"/>
<path d="M153.059 163.055C152.17 164.443 152.226 166.054 153.225 166.054C153.725 166.054 155.558 163.11 155.558 162.222C155.558 161.111 154.003 161.611 153.059 163.055Z" fill="black"/>
<path d="M164.441 162.222C164.441 163.11 166.274 166.054 166.774 166.054C167.774 166.054 167.829 164.443 166.941 163.055C165.996 161.611 164.441 161.111 164.441 162.222Z" fill="black"/>
<path d="M159.002 165.332C159.113 166.776 159.446 167.442 160.001 167.442C160.557 167.442 160.89 166.776 161.001 165.332C161.168 163.555 161.001 163.277 160.001 163.277C159.002 163.277 158.835 163.555 159.002 165.332Z" fill="black"/>
<path d="M139.45 186.046C137.95 187.546 137.728 188.879 137.895 194.377L138.061 199.097L142.671 199.264L147.336 199.431L147.114 193.266C146.947 187.546 146.836 186.991 145.614 185.991C143.893 184.602 140.894 184.602 139.45 186.046ZM144.337 187.824C144.726 188.212 145.003 190.212 145.003 192.822V197.154H142.504H140.005V193.211C140.005 191.045 140.283 188.823 140.56 188.212C141.227 187.046 143.337 186.824 144.337 187.824Z" fill="#6E81BE"/>
<path d="M151.114 186.046C149.614 187.546 149.392 188.879 149.559 194.377L149.725 199.097L154.335 199.264L159 199.431L158.778 193.266C158.611 187.546 158.5 186.991 157.278 185.991C155.557 184.602 152.558 184.602 151.114 186.046ZM156.001 187.824C156.39 188.212 156.667 190.212 156.667 192.822V197.154H154.168H151.669V193.211C151.669 191.045 151.947 188.823 152.224 188.212C152.891 187.046 155.001 186.824 156.001 187.824Z" fill="#6E81BE"/>
<path d="M162.722 185.991C161.444 186.991 161.389 187.435 161.389 193.1V199.098H165.832H170.274L170.441 194.377C170.552 191.767 170.441 189.101 170.274 188.379C169.441 185.158 165.387 183.825 162.722 185.991ZM167.775 188.213C168.053 188.823 168.331 191.045 168.331 193.211V197.154H165.832H163.332V193.211C163.332 188.657 163.943 187.157 165.832 187.157C166.609 187.157 167.442 187.602 167.775 188.213Z" fill="#6E81BE"/>
<path d="M174.382 185.991C173.16 186.991 173.049 187.546 172.882 193.266L172.66 199.431L177.325 199.264L181.935 199.097L182.101 194.377C182.212 191.767 182.101 189.101 181.935 188.379C181.102 185.158 177.048 183.825 174.382 185.991ZM179.436 188.212C179.713 188.823 179.991 191.045 179.991 193.211V197.154H177.492H174.993V192.822C174.993 190.212 175.27 188.212 175.659 187.824C176.659 186.824 178.769 187.046 179.436 188.212Z" fill="#6E81BE"/>
<path d="M133.399 214.148C132.399 215.425 132.232 216.425 132.232 221.367V227.143H136.675H141.118V221.145C141.118 215.592 141.007 215.036 139.841 213.925C137.953 212.148 134.898 212.259 133.399 214.148ZM138.786 220.034L138.952 224.922H136.675H134.454V220.312C134.454 217.757 134.62 215.48 134.843 215.258C135.065 215.036 136.009 214.925 136.953 215.036L138.619 215.203L138.786 220.034Z" fill="#6E81BE"/>
<path d="M145.005 213.925C144.006 214.981 143.895 215.869 143.895 221.145V227.143H148.337H152.78V221.145C152.78 214.037 152.114 212.704 148.337 212.704C146.838 212.704 145.838 213.092 145.005 213.925ZM150.448 220.034L150.614 224.922H148.337H146.116V220.312C146.116 217.757 146.283 215.48 146.505 215.258C146.727 215.036 147.671 214.925 148.615 215.036L150.281 215.203L150.448 220.034Z" fill="#6E81BE"/>
<path d="M156.78 213.981C155.67 215.147 155.559 215.869 155.559 221.201V227.143H160.001H164.444V221.034C164.444 215.647 164.333 214.814 163.334 213.814C161.723 212.204 158.335 212.315 156.78 213.981ZM162.112 220.034L162.278 224.922H160.001H157.78V220.312C157.78 217.757 157.947 215.48 158.169 215.258C158.391 215.036 159.335 214.925 160.279 215.036L161.945 215.203L162.112 220.034Z" fill="#6E81BE"/>
<path d="M168.331 213.814C167.332 214.814 167.221 215.647 167.221 221.034V227.143H171.664H176.107V221.145C176.107 215.592 175.995 215.036 174.829 213.925C173.163 212.315 169.886 212.259 168.331 213.814ZM173.774 220.034L173.941 224.922H171.553H169.164L169.331 220.59C169.553 214.981 169.609 214.814 171.775 215.036L173.607 215.203L173.774 220.034Z" fill="#6E81BE"/>
<path d="M179.994 213.925C178.994 214.981 178.883 215.869 178.883 221.145V227.143H183.326H187.769V221.145C187.769 215.592 187.658 215.036 186.491 213.925C184.77 212.259 181.549 212.259 179.994 213.925ZM185.436 220.034L185.603 224.922H183.326H181.104V220.312C181.104 217.757 181.271 215.48 181.493 215.258C181.715 215.036 182.659 214.925 183.603 215.036L185.269 215.203L185.436 220.034Z" fill="#6E81BE"/>
<path d="M19.4376 219.368L17.7715 220.979L17.9381 227.254L18.1047 233.53L22.9919 233.697L27.8235 233.863V227.421C27.8235 221.034 27.8235 220.923 26.213 219.313C23.9915 217.147 21.659 217.147 19.4376 219.368ZM24.7135 220.812C25.38 221.479 25.6021 222.867 25.6021 226.644V231.586H22.8253H20.0485V226.755C20.0485 223.089 20.2706 221.701 20.9926 220.923C22.1033 219.702 23.5473 219.646 24.7135 220.812Z" fill="#6E81BE"/>
<path d="M48.8723 219.313C47.2617 220.924 47.2617 221.035 47.2617 227.366V233.808H52.26H57.2582V227.366C57.2582 221.035 57.2582 220.924 55.6477 219.313C54.537 218.202 53.4818 217.703 52.26 217.703C51.0382 217.703 49.983 218.202 48.8723 219.313ZM54.1482 220.813C54.8147 221.479 55.0368 222.867 55.0368 226.644V231.587H52.26H49.4832V226.644C49.4832 221.368 50.0941 219.924 52.26 219.924C52.8153 219.924 53.7039 220.313 54.1482 220.813Z" fill="#6E81BE"/>
<path d="M78.3059 219.313C76.6953 220.924 76.6953 221.035 76.6953 227.366V233.808H81.6936H86.6918V227.366C86.6918 221.035 86.6918 220.924 85.0813 219.313C83.9706 218.202 82.9154 217.703 81.6936 217.703C80.4718 217.703 79.4166 218.202 78.3059 219.313ZM83.5818 220.813C84.2482 221.479 84.4704 222.867 84.4704 226.644V231.587H81.6936H78.9168V226.644C78.9168 222.867 79.1389 221.479 79.8053 220.813C80.9161 219.702 82.4711 219.702 83.5818 220.813Z" fill="#6E81BE"/>
<path d="M107.851 219.146L106.129 220.59V227.199V233.863L111.016 233.697L115.848 233.53V226.977C115.848 220.424 115.848 220.368 114.293 219.035C112.238 217.313 109.961 217.313 107.851 219.146ZM112.904 220.868C113.737 221.59 113.904 222.645 113.904 226.699V231.586H111.127H108.35V226.421C108.35 223.145 108.573 221.034 109.017 220.59C109.961 219.646 111.683 219.757 112.904 220.868Z" fill="#6E81BE"/>
<path d="M205.705 219.035C204.15 220.368 204.15 220.424 204.15 226.977V233.53L209.038 233.697L213.869 233.863V227.199V220.59L212.148 219.146C210.037 217.313 207.76 217.313 205.705 219.035ZM210.593 220.479C211.537 220.979 211.648 221.701 211.648 226.31V231.586H208.871H206.094V226.755C206.094 220.59 207.371 218.813 210.593 220.479Z" fill="#6E81BE"/>
<path d="M234.917 219.313C233.307 220.924 233.307 221.035 233.307 227.366V233.808H238.305H243.303V227.366C243.303 221.035 243.303 220.924 241.693 219.313C240.582 218.202 239.527 217.703 238.305 217.703C237.083 217.703 236.028 218.202 234.917 219.313ZM240.193 220.813C240.86 221.479 241.082 222.867 241.082 226.644V231.587H238.305H235.528V226.644C235.528 222.867 235.75 221.479 236.417 220.813C237.527 219.702 239.082 219.702 240.193 220.813Z" fill="#6E81BE"/>
<path d="M264.353 219.313C262.742 220.924 262.742 221.035 262.742 227.366V233.808H267.74H272.739V227.366C272.739 221.035 272.739 220.924 271.128 219.313C270.017 218.202 268.962 217.703 267.74 217.703C266.519 217.703 265.463 218.202 264.353 219.313ZM269.629 220.813C270.295 221.479 270.517 222.867 270.517 226.644V231.587H267.74H264.964V226.644C264.964 221.368 265.575 219.924 267.74 219.924C268.296 219.924 269.184 220.313 269.629 220.813Z" fill="#6E81BE"/>
<path d="M293.786 219.313C292.176 220.923 292.176 221.034 292.176 227.421V233.863L297.063 233.697L301.895 233.53L302.061 227.254L302.228 220.979L300.562 219.368C298.34 217.147 296.008 217.147 293.786 219.313ZM298.951 220.868C299.784 221.59 299.951 222.645 299.951 226.699V231.586H297.174H294.397V226.644C294.397 222.867 294.619 221.479 295.286 220.812C296.397 219.646 297.674 219.702 298.951 220.868Z" fill="#6E81BE"/>
</svg>
