<svg width="86" height="85" viewBox="0 0 86 85" fill="none" xmlns="http://www.w3.org/2000/svg">
<g clip-path="url(#clip0_168_120)">
<path d="M74.1342 59.3844C73.9738 59.3853 73.8168 59.3382 73.6834 59.2491C73.5501 59.16 73.4465 59.033 73.386 58.8844C73.3256 58.7358 73.311 58.5726 73.3442 58.4157C73.3775 58.2587 73.457 58.1154 73.5724 58.0041C77.4502 54.2083 80.329 49.5124 81.9523 44.3345C83.5757 39.1567 83.8932 33.6578 82.8766 28.3275C81.86 22.9973 79.5409 18.0012 76.1258 13.7843C72.7107 9.56742 68.3057 6.26064 63.3031 4.15851C58.3005 2.05638 52.8556 1.22417 47.4535 1.73601C42.0513 2.24784 36.8597 4.08783 32.3409 7.09208C27.8221 10.0963 24.1165 14.1716 21.5541 18.9548C18.9917 23.7381 17.6522 29.0808 17.6548 34.5071C17.6309 41.8102 20.0614 48.9096 24.5562 54.6657C24.6708 54.8348 24.7167 55.0412 24.6844 55.2429C24.6521 55.4446 24.5441 55.6264 24.3825 55.7513C24.2208 55.8761 24.0176 55.9346 23.8143 55.9148C23.6109 55.895 23.4228 55.7984 23.2883 55.6448C18.5717 49.6109 16.0221 42.1657 16.0498 34.5071C16.0514 28.8172 17.46 23.2161 20.1501 18.2023C22.8402 13.1885 26.7284 8.91775 31.4684 5.77025C36.2085 2.62275 41.6532 0.696194 47.318 0.162122C52.9827 -0.371951 58.6917 0.503033 63.9364 2.70917C69.1812 4.9153 73.7991 8.38412 77.3788 12.8068C80.9586 17.2294 83.3892 22.4686 84.4543 28.0579C85.5193 33.6472 85.1857 39.4132 83.4831 44.8424C81.7806 50.2715 78.7619 55.1955 74.6959 59.1757C74.5395 59.3099 74.3403 59.3838 74.1342 59.3844Z" fill="#1B3249"/>
<path d="M59.4968 68.0509C59.3118 68.0509 59.1324 67.9871 58.9891 67.8701C58.8458 67.7531 58.7473 67.5902 58.7103 67.4089C58.6868 67.3066 58.684 67.2006 58.7021 67.0972C58.7201 66.9938 58.7587 66.8951 58.8156 66.8068C58.8724 66.7186 58.9464 66.6426 59.033 66.5834C59.1197 66.5241 59.2173 66.4829 59.3202 66.462C63.533 65.5072 67.6406 64.1363 71.5823 62.3693C75.3379 60.7643 77.8096 59.721 79.4628 61.3581C80.1467 62.1308 80.5066 63.1373 80.4677 64.1685C80.4289 65.1997 79.9942 66.1763 79.2541 66.8953C79.1115 67.0549 78.9113 67.1514 78.6976 67.1634C78.4839 67.1755 78.2742 67.1021 78.1146 66.9595C77.9549 66.8169 77.8585 66.6167 77.8465 66.403C77.8344 66.1893 77.9078 65.9796 78.0504 65.82C78.2269 65.6274 79.6554 63.8619 78.3393 62.4977C77.4886 61.6631 75.6429 62.3853 72.2082 63.8458C68.1767 65.6622 63.9716 67.0656 59.6572 68.0349L59.4968 68.0509Z" fill="#1B3249"/>
<path d="M41.1037 85.0642C32.5251 85.0713 23.9938 83.7946 15.7931 81.2764C15.6354 81.2194 15.4995 81.1145 15.4045 80.9763C15.3095 80.8381 15.2602 80.6737 15.2635 80.506V58.2288C15.2674 58.02 15.351 57.8205 15.4972 57.6713C15.6435 57.5221 15.8412 57.4345 16.0499 57.4263C30.3664 57.0572 35.069 60.0745 39.2259 62.7549C42.9334 65.1463 45.8545 67.0402 55.2757 65.6117C58.8067 65.0661 60.4598 67.1365 60.7808 69.0625C60.9559 70.1598 60.776 71.2845 60.2672 72.2724C65.9284 70.9386 71.4204 68.968 76.6381 66.3982C80.2172 64.7932 82.1913 63.7821 83.6358 64.9858C84.0837 65.3031 84.4478 65.7246 84.6966 66.2139C84.9454 66.7032 85.0716 67.2456 85.0642 67.7945C84.9519 70.0255 82.4642 71.7428 82.1913 71.9354C68.7897 82.2394 53.5744 85.0642 41.1037 85.0642ZM16.8684 79.9282C21.4908 81.3727 54.9708 90.8421 81.2444 70.6353C81.8543 70.202 83.4593 68.918 83.4593 67.7143C83.4544 67.4195 83.3791 67.1301 83.2394 66.8704C83.0998 66.6107 82.9 66.3882 82.6568 66.2216C81.9827 65.6759 80.0406 66.5747 77.3603 67.8266C71.0261 70.9615 64.292 73.2134 57.3462 74.5194C57.1333 74.5577 56.914 74.5099 56.7364 74.3865C56.5588 74.2631 56.4375 74.0742 56.3992 73.8614C56.3609 73.6485 56.4087 73.4292 56.5321 73.2516C56.6555 73.074 56.8444 72.9527 57.0573 72.9144C57.8054 72.6804 58.4421 72.1806 58.8472 71.5095C59.2522 70.8383 59.3977 70.0421 59.2561 69.2711C58.9672 67.6661 57.6511 66.8315 55.5646 67.1525C45.5174 68.6612 42.2112 66.5266 38.3752 64.0549C34.5393 61.5832 30.0775 58.7103 16.8845 58.9671L16.8684 79.9282Z" fill="#1B3249"/>
<path d="M47.5878 75.4344C44.1006 75.5019 40.6242 75.0254 37.2838 74.022C37.1784 73.9883 37.0807 73.9341 36.9962 73.8627C36.9118 73.7912 36.8422 73.7038 36.7915 73.6054C36.7409 73.507 36.7101 73.3996 36.7009 73.2894C36.6917 73.1791 36.7044 73.0681 36.7381 72.9627C36.7718 72.8573 36.826 72.7596 36.8974 72.6752C36.9689 72.5907 37.0563 72.5212 37.1547 72.4705C37.2531 72.4198 37.3605 72.389 37.4707 72.3799C37.581 72.3707 37.692 72.3833 37.7974 72.417C43.9445 74.4714 52.7879 73.701 57.0572 72.9306C57.27 72.8923 57.4894 72.9401 57.6669 73.0635C57.8445 73.1869 57.9658 73.3758 58.0041 73.5887C58.0424 73.8015 57.9946 74.0208 57.8712 74.1984C57.7478 74.376 57.5589 74.4973 57.3461 74.5356C54.1254 75.1165 50.8604 75.4172 47.5878 75.4344Z" fill="#1B3249"/>
<path d="M14.4449 82.7048H2.40747C2.08722 82.7049 1.77018 82.6411 1.47491 82.5171C1.17964 82.3931 0.912071 82.2114 0.687875 81.9828C0.463679 81.7541 0.287361 81.483 0.169245 81.1853C0.0511286 80.8876 -0.00641165 80.5694 -6.70247e-06 80.2492V58.4856C-6.70247e-06 57.8471 0.253637 57.2348 0.705127 56.7833C1.15662 56.3318 1.76897 56.0781 2.40747 56.0781H14.4449C15.0834 56.0781 15.6957 56.3318 16.1472 56.7833C16.5987 57.2348 16.8523 57.8471 16.8523 58.4856V80.2492C16.8587 80.5694 16.8012 80.8876 16.6831 81.1853C16.565 81.483 16.3886 81.7541 16.1645 81.9828C15.9403 82.2114 15.6727 82.3931 15.3774 82.5171C15.0821 82.6411 14.7651 82.7049 14.4449 82.7048ZM2.40747 57.6831C2.19464 57.6831 1.99052 57.7677 1.84002 57.9182C1.68953 58.0687 1.60498 58.2728 1.60498 58.4856V80.2492C1.60498 80.462 1.68953 80.6662 1.84002 80.8166C1.99052 80.9671 2.19464 81.0517 2.40747 81.0517H14.4449C14.6577 81.0517 14.8618 80.9671 15.0123 80.8166C15.1628 80.6662 15.2474 80.462 15.2474 80.2492V58.4856C15.2474 58.2728 15.1628 58.0687 15.0123 57.9182C14.8618 57.7677 14.6577 57.6831 14.4449 57.6831H2.40747Z" fill="#1B3249"/>
<path d="M10.0311 77.4727C10.9175 77.4727 11.6361 76.7541 11.6361 75.8677C11.6361 74.9813 10.9175 74.2627 10.0311 74.2627C9.14472 74.2627 8.42615 74.9813 8.42615 75.8677C8.42615 76.7541 9.14472 77.4727 10.0311 77.4727Z" fill="#1B3249"/>
<path d="M61.7919 54.5699C60.046 54.5699 58.3393 54.0522 56.8876 53.0822C55.436 52.1122 54.3046 50.7336 53.6364 49.1206C52.9683 47.5076 52.7935 45.7327 53.1341 44.0203C53.4747 42.308 54.3154 40.7351 55.55 39.5005C56.7845 38.266 58.3574 37.4253 60.0698 37.0847C61.7821 36.7441 63.557 36.9189 65.17 37.587C66.783 38.2551 68.1617 39.3866 69.1316 40.8382C70.1016 42.2899 70.6193 43.9966 70.6193 45.7425C70.6151 48.0823 69.6837 50.3252 68.0291 51.9797C66.3746 53.6342 64.1318 54.5656 61.7919 54.5699ZM61.7919 38.52C60.3634 38.52 58.9671 38.9436 57.7793 39.7372C56.5916 40.5308 55.6659 41.6588 55.1192 42.9786C54.5726 44.2983 54.4296 45.7505 54.7082 47.1515C54.9869 48.5525 55.6748 49.8394 56.6849 50.8495C57.6949 51.8596 58.9819 52.5474 60.3829 52.8261C61.7839 53.1048 63.2361 52.9618 64.5558 52.4151C65.8755 51.8685 67.0035 50.9428 67.7971 49.755C68.5907 48.5673 69.0143 47.1709 69.0143 45.7425C69.0101 43.8283 68.2478 41.9937 66.8942 40.6401C65.5407 39.2866 63.7061 38.5243 61.7919 38.52Z" fill="#6E81BE"/>
<path d="M39.3222 32.0992C37.5763 32.0992 35.8696 31.5815 34.4179 30.6115C32.9663 29.6415 31.8348 28.2629 31.1667 26.6499C30.4986 25.0369 30.3238 23.262 30.6644 21.5496C31.005 19.8373 31.8457 18.2644 33.0802 17.0298C34.3148 15.7953 35.8877 14.9546 37.6 14.614C39.3124 14.2733 41.0873 14.4482 42.7003 15.1163C44.3133 15.7844 45.6919 16.9158 46.6619 18.3675C47.6319 19.8192 48.1496 21.5259 48.1496 23.2718C48.1453 25.6116 47.214 27.8545 45.5594 29.509C43.9049 31.1635 41.662 32.0949 39.3222 32.0992ZM39.3222 16.0493C37.8937 16.0493 36.4973 16.4729 35.3096 17.2665C34.1219 18.0601 33.1962 19.1881 32.6495 20.5079C32.1029 21.8276 31.9598 23.2798 32.2385 24.6808C32.5172 26.0818 33.2051 27.3687 34.2151 28.3788C35.2252 29.3889 36.5121 30.0767 37.9131 30.3554C39.3142 30.6341 40.7663 30.4911 42.0861 29.9444C43.4058 29.3978 44.5338 28.472 45.3274 27.2843C46.121 26.0966 46.5446 24.7002 46.5446 23.2718C46.5404 21.3576 45.7781 19.523 44.4245 18.1694C43.071 16.8159 41.2364 16.0536 39.3222 16.0493Z" fill="#6E81BE"/>
<path d="M32.9022 52.9642C32.797 52.9655 32.6926 52.9447 32.5959 52.9033C32.4991 52.8618 32.4121 52.8006 32.3405 52.7235C32.2637 52.6514 32.2025 52.5644 32.1607 52.4678C32.1189 52.3712 32.0973 52.267 32.0973 52.1617C32.0973 52.0564 32.1189 51.9523 32.1607 51.8557C32.2025 51.759 32.2637 51.672 32.3405 51.6L67.6501 16.2903C67.7239 16.2165 67.8115 16.158 67.9079 16.1181C68.0043 16.0782 68.1076 16.0576 68.2119 16.0576C68.3162 16.0576 68.4195 16.0782 68.5159 16.1181C68.6123 16.158 68.6999 16.2165 68.7736 16.2903C68.8474 16.3641 68.9059 16.4516 68.9458 16.548C68.9858 16.6444 69.0063 16.7477 69.0063 16.852C69.0063 16.9564 68.9858 17.0597 68.9458 17.1561C68.9059 17.2524 68.8474 17.34 68.7736 17.4138L33.464 52.7235C33.3923 52.8006 33.3053 52.8618 33.2086 52.9033C33.1118 52.9447 33.0075 52.9655 32.9022 52.9642Z" fill="#6E81BE"/>
</g>
<defs>
<clipPath id="clip0_168_120">
<rect width="85.0642" height="85" fill="white"/>
</clipPath>
</defs>
</svg>
