<svg width="85" height="85" viewBox="0 0 85 85" fill="none" xmlns="http://www.w3.org/2000/svg">
<g clip-path="url(#clip0_171_1666)">
<path d="M56.934 85H8.82075C6.48265 84.9958 4.24152 84.0651 2.58822 82.4118C0.934928 80.7585 0.00423955 78.5174 0 76.1792L0 8.82075C0.00423955 6.48265 0.934928 4.24152 2.58822 2.58822C4.24152 0.934928 6.48265 0.00423955 8.82075 0L56.934 0C59.2721 0.00423955 61.5132 0.934928 63.1665 2.58822C64.8198 4.24152 65.7505 6.48265 65.7547 8.82075V15.2358C65.7547 15.4485 65.6702 15.6525 65.5199 15.8029C65.3695 15.9533 65.1655 16.0377 64.9528 16.0377C64.7402 16.0377 64.5362 15.9533 64.3858 15.8029C64.2354 15.6525 64.1509 15.4485 64.1509 15.2358V8.82075C64.1467 6.90799 63.385 5.07479 62.0325 3.72226C60.6799 2.36973 58.8467 1.60801 56.934 1.60377H8.82075C6.90799 1.60801 5.07479 2.36973 3.72226 3.72226C2.36973 5.07479 1.60801 6.90799 1.60377 8.82075V76.1792C1.60801 78.092 2.36973 79.9252 3.72226 81.2777C5.07479 82.6303 6.90799 83.392 8.82075 83.3962H56.934C58.8467 83.392 60.6799 82.6303 62.0325 81.2777C63.385 79.9252 64.1467 78.092 64.1509 76.1792V69.7642C64.1509 69.5515 64.2354 69.3475 64.3858 69.1971C64.5362 69.0467 64.7402 68.9623 64.9528 68.9623C65.1655 68.9623 65.3695 69.0467 65.5199 69.1971C65.6702 69.3475 65.7547 69.5515 65.7547 69.7642V76.1792C65.7505 78.5174 64.8198 80.7585 63.1665 82.4118C61.5132 84.0651 59.2721 84.9958 56.934 85Z" fill="#1B3249"/>
<path d="M45.7075 7.21731C46.5933 7.21731 47.3113 6.49928 47.3113 5.61354C47.3113 4.7278 46.5933 4.00977 45.7075 4.00977C44.8218 4.00977 44.1038 4.7278 44.1038 5.61354C44.1038 6.49928 44.8218 7.21731 45.7075 7.21731Z" fill="#1B3249"/>
<path d="M32.8773 80.9908C33.7631 80.9908 34.4811 80.2727 34.4811 79.387C34.4811 78.5012 33.7631 77.7832 32.8773 77.7832C31.9916 77.7832 31.2736 78.5012 31.2736 79.387C31.2736 80.2727 31.9916 80.9908 32.8773 80.9908Z" fill="#1B3249"/>
<path d="M48.9151 80.9908C49.8009 80.9908 50.5189 80.2727 50.5189 79.387C50.5189 78.5012 49.8009 77.7832 48.9151 77.7832C48.0294 77.7832 47.3113 78.5012 47.3113 79.387C47.3113 80.2727 48.0294 80.9908 48.9151 80.9908Z" fill="#1B3249"/>
<path d="M16.8396 80.9908C17.7254 80.9908 18.4434 80.2727 18.4434 79.387C18.4434 78.5012 17.7254 77.7832 16.8396 77.7832C15.9539 77.7832 15.2358 78.5012 15.2358 79.387C15.2358 80.2727 15.9539 80.9908 16.8396 80.9908Z" fill="#1B3249"/>
<path d="M39.2925 6.4153H26.4623C26.2496 6.4153 26.0456 6.33081 25.8953 6.18043C25.7449 6.03005 25.6604 5.82608 25.6604 5.61341C25.6604 5.40074 25.7449 5.19677 25.8953 5.04639C26.0456 4.89601 26.2496 4.81152 26.4623 4.81152H39.2925C39.5051 4.81152 39.7091 4.89601 39.8595 5.04639C40.0099 5.19677 40.0944 5.40074 40.0944 5.61341C40.0944 5.82608 40.0099 6.03005 39.8595 6.18043C39.7091 6.33081 39.5051 6.4153 39.2925 6.4153Z" fill="#1B3249"/>
<path d="M16.8396 48.1131H13.6321C12.5687 48.1131 11.5489 47.6907 10.797 46.9388C10.045 46.1869 9.62262 45.1671 9.62262 44.1037V40.8962C9.62262 39.8328 10.045 38.813 10.797 38.0611C11.5489 37.3091 12.5687 36.8867 13.6321 36.8867H16.8396C17.903 36.8867 18.9228 37.3091 19.6747 38.0611C20.4266 38.813 20.849 39.8328 20.849 40.8962V44.1037C20.849 45.1671 20.4266 46.1869 19.6747 46.9388C18.9228 47.6907 17.903 48.1131 16.8396 48.1131ZM13.6321 38.4905C12.994 38.4905 12.3821 38.7439 11.931 39.1951C11.4798 39.6462 11.2264 40.2581 11.2264 40.8962V44.1037C11.2264 44.7417 11.4798 45.3536 11.931 45.8048C12.3821 46.2559 12.994 46.5094 13.6321 46.5094H16.8396C17.4776 46.5094 18.0895 46.2559 18.5407 45.8048C18.9918 45.3536 19.2453 44.7417 19.2453 44.1037V40.8962C19.2453 40.2581 18.9918 39.6462 18.5407 39.1951C18.0895 38.7439 17.4776 38.4905 16.8396 38.4905H13.6321Z" fill="#1B3249"/>
<path d="M32.8774 65.7547H31.2736C30.7471 65.7547 30.2257 65.651 29.7392 65.4495C29.2528 65.248 28.8108 64.9527 28.4385 64.5804C28.0662 64.2081 27.7709 63.7661 27.5694 63.2796C27.3679 62.7932 27.2642 62.2718 27.2642 61.7453V58.5378C27.2642 57.4744 27.6866 56.4546 28.4385 55.7027C29.1904 54.9507 30.2102 54.5283 31.2736 54.5283H32.8774C33.09 54.5283 33.294 54.6128 33.4444 54.7632C33.5948 54.9136 33.6793 55.1175 33.6793 55.3302C33.6793 55.5429 33.5948 55.7468 33.4444 55.8972C33.294 56.0476 33.09 56.1321 32.8774 56.1321H31.2736C30.6356 56.1321 30.0237 56.3855 29.5725 56.8367C29.1214 57.2878 28.8679 57.8997 28.8679 58.5378V61.7453C28.8679 62.3833 29.1214 62.9952 29.5725 63.4464C30.0237 63.8975 30.6356 64.151 31.2736 64.151H32.8774C33.09 64.151 33.294 64.2354 33.4444 64.3858C33.5948 64.5362 33.6793 64.7402 33.6793 64.9528C33.6793 65.1655 33.5948 65.3695 33.4444 65.5199C33.294 65.6703 33.09 65.7547 32.8774 65.7547Z" fill="#1B3249"/>
<path d="M16.8396 65.7547H13.6321C13.1055 65.7547 12.5842 65.651 12.0977 65.4495C11.6113 65.248 11.1693 64.9527 10.797 64.5804C10.4246 64.2081 10.1293 63.7661 9.92782 63.2796C9.72633 62.7932 9.62262 62.2718 9.62262 61.7453V58.5378C9.62262 57.4744 10.045 56.4546 10.797 55.7027C11.5489 54.9507 12.5687 54.5283 13.6321 54.5283H16.8396C17.903 54.5283 18.9228 54.9507 19.6747 55.7027C20.4266 56.4546 20.849 57.4744 20.849 58.5378V61.7453C20.849 62.2718 20.7453 62.7932 20.5438 63.2796C20.3423 63.7661 20.047 64.2081 19.6747 64.5804C19.3024 64.9527 18.8604 65.248 18.3739 65.4495C17.8875 65.651 17.3661 65.7547 16.8396 65.7547ZM13.6321 56.1321C12.994 56.1321 12.3821 56.3855 11.931 56.8367C11.4798 57.2878 11.2264 57.8997 11.2264 58.5378V61.7453C11.2264 62.3833 11.4798 62.9952 11.931 63.4464C12.3821 63.8975 12.994 64.151 13.6321 64.151H16.8396C17.4776 64.151 18.0895 63.8975 18.5407 63.4464C18.9918 62.9952 19.2453 62.3833 19.2453 61.7453V58.5378C19.2453 57.8997 18.9918 57.2878 18.5407 56.8367C18.0895 56.3855 17.4776 56.1321 16.8396 56.1321H13.6321Z" fill="#1B3249"/>
<path d="M32.8774 30.4715H31.2736C30.2102 30.4715 29.1904 30.0491 28.4385 29.2972C27.6866 28.5453 27.2642 27.5255 27.2642 26.4621V23.2546C27.2642 22.1912 27.6866 21.1714 28.4385 20.4195C29.1904 19.6675 30.2102 19.2451 31.2736 19.2451H32.8774C33.09 19.2451 33.294 19.3296 33.4444 19.48C33.5948 19.6304 33.6793 19.8343 33.6793 20.047C33.6793 20.2597 33.5948 20.4636 33.4444 20.614C33.294 20.7644 33.09 20.8489 32.8774 20.8489H31.2736C30.6356 20.8489 30.0237 21.1023 29.5725 21.5535C29.1214 22.0046 28.8679 22.6165 28.8679 23.2546V26.4621C28.8679 27.1001 29.1214 27.712 29.5725 28.1632C30.0237 28.6143 30.6356 28.8678 31.2736 28.8678H32.8774C33.09 28.8678 33.294 28.9522 33.4444 29.1026C33.5948 29.253 33.6793 29.457 33.6793 29.6696C33.6793 29.8823 33.5948 30.0863 33.4444 30.2367C33.294 30.387 33.09 30.4715 32.8774 30.4715Z" fill="#1B3249"/>
<path d="M16.8396 30.4715H13.6321C12.5687 30.4715 11.5489 30.0491 10.797 29.2972C10.045 28.5453 9.62262 27.5255 9.62262 26.4621V23.2546C9.62262 22.1912 10.045 21.1714 10.797 20.4195C11.5489 19.6675 12.5687 19.2451 13.6321 19.2451H16.8396C17.903 19.2451 18.9228 19.6675 19.6747 20.4195C20.4266 21.1714 20.849 22.1912 20.849 23.2546V26.4621C20.849 27.5255 20.4266 28.5453 19.6747 29.2972C18.9228 30.0491 17.903 30.4715 16.8396 30.4715ZM13.6321 20.8489C12.994 20.8489 12.3821 21.1023 11.931 21.5535C11.4798 22.0046 11.2264 22.6165 11.2264 23.2546V26.4621C11.2264 27.1001 11.4798 27.712 11.931 28.1632C12.3821 28.6143 12.994 28.8678 13.6321 28.8678H16.8396C17.4776 28.8678 18.0895 28.6143 18.5407 28.1632C18.9918 27.712 19.2453 27.1001 19.2453 26.4621V23.2546C19.2453 22.6165 18.9918 22.0046 18.5407 21.5535C18.0895 21.1023 17.4776 20.8489 16.8396 20.8489H13.6321Z" fill="#1B3249"/>
<path d="M82.5943 67.3586H37.6887C37.0506 67.3586 36.4388 67.1051 35.9876 66.654C35.5365 66.2028 35.283 65.5909 35.283 64.9529V53.2454L25.8689 43.0454C25.7379 42.8939 25.6659 42.7003 25.6659 42.5001C25.6659 42.2999 25.7379 42.1063 25.8689 41.9548L35.283 31.7548V20.0473C35.283 19.4092 35.5365 18.7974 35.9876 18.3462C36.4388 17.8951 37.0506 17.6416 37.6887 17.6416H82.5943C83.2323 17.6416 83.8442 17.8951 84.2954 18.3462C84.7465 18.7974 85 19.4092 85 20.0473V64.9529C85 65.5909 84.7465 66.2028 84.2954 66.654C83.8442 67.1051 83.2323 67.3586 82.5943 67.3586ZM27.5528 42.5001L36.6783 52.3793C36.8125 52.5293 36.8867 52.7234 36.8868 52.9246V64.9529C36.8868 65.1656 36.9713 65.3696 37.1216 65.5199C37.272 65.6703 37.476 65.7548 37.6887 65.7548H82.5943C82.807 65.7548 83.011 65.6703 83.1613 65.5199C83.3117 65.3696 83.3962 65.1656 83.3962 64.9529V20.0473C83.3962 19.8346 83.3117 19.6306 83.1613 19.4802C83.011 19.3299 82.807 19.2454 82.5943 19.2454H37.6887C37.476 19.2454 37.272 19.3299 37.1216 19.4802C36.9713 19.6306 36.8868 19.8346 36.8868 20.0473V32.0756C36.8867 32.2768 36.8125 32.4709 36.6783 32.6208L27.5528 42.5001Z" fill="#1B3249"/>
</g>
<path d="M64.8635 51.8459C64.9489 51.7798 65.0204 51.6975 65.074 51.6037C65.1275 51.5098 65.1621 51.4064 65.1756 51.2992C65.1891 51.1921 65.1813 51.0833 65.1527 50.9792C65.1241 50.875 65.0752 50.7775 65.0089 50.6922C64.9426 50.607 64.8601 50.5357 64.7662 50.4823C64.6722 50.429 64.5687 50.3947 64.4615 50.3815C64.3543 50.3682 64.2456 50.3763 64.1415 50.4051C64.0374 50.434 63.94 50.4831 63.8549 50.5496C63.8119 50.5835 63.7685 50.6167 63.7246 50.6494C62.6486 51.4519 61.3421 51.8855 59.9997 51.8855C58.6574 51.8855 57.3509 51.4519 56.2749 50.6494C56.231 50.6167 56.1876 50.5835 56.1446 50.5496C56.0596 50.4828 55.9621 50.4334 55.8579 50.4043C55.7537 50.3752 55.6448 50.367 55.5374 50.3801C55.43 50.3932 55.3263 50.4274 55.2322 50.4808C55.138 50.5341 55.0554 50.6056 54.9889 50.6909C54.9225 50.7763 54.8736 50.874 54.845 50.9783C54.8164 51.0827 54.8088 51.1917 54.8224 51.299C54.8361 51.4063 54.8708 51.5099 54.9247 51.6037C54.9785 51.6976 55.0503 51.7799 55.136 51.8459C56.5232 52.9353 58.2359 53.5275 59.9997 53.5275C61.7636 53.5275 63.4764 52.9353 64.8635 51.8459Z" fill="#6E81BE"/>
<path d="M66.3945 53.1483C66.3707 53.1688 66.3468 53.1892 66.3229 53.2095C64.5496 54.6912 62.3121 55.5031 60.0012 55.5031C57.6903 55.5031 55.4528 54.6912 53.6795 53.2095C53.6541 53.1882 53.6288 53.1668 53.6036 53.1453C53.4392 53.0037 53.2255 52.9329 53.0091 52.9484C52.7927 52.9638 52.5912 53.0642 52.4486 53.2276C52.3059 53.3912 52.2337 53.6043 52.2477 53.8209C52.2616 54.0371 52.3606 54.2393 52.5231 54.3831C54.606 56.1668 57.258 57.1471 60.0003 57.1471C62.7426 57.1471 65.3946 56.1668 67.4774 54.3827C67.6398 54.239 67.7387 54.0365 67.7523 53.8199C67.766 53.6031 67.6933 53.3899 67.5501 53.2268C67.407 53.0636 67.2051 52.9637 66.9885 52.949C66.772 52.9343 66.5584 53.006 66.3945 53.1483Z" fill="#6E81BE"/>
<path d="M64.941 33.0638C65.0232 32.9811 65.0869 32.8819 65.128 32.7727C65.169 32.6636 65.1865 32.547 65.1792 32.4306C65.1719 32.3142 65.1401 32.2007 65.0857 32.0975C65.0314 31.9944 64.9558 31.9039 64.864 31.832C63.4768 30.7426 61.7641 30.1504 60.0002 30.1504C58.2364 30.1504 56.5236 30.7426 55.1365 31.832C55.0446 31.9039 54.9691 31.9944 54.9147 32.0975C54.8604 32.2007 54.8285 32.3142 54.8213 32.4306C54.814 32.547 54.8314 32.6636 54.8725 32.7727C54.9135 32.8819 54.9773 32.9811 55.0594 33.0638C55.2011 33.2056 55.3899 33.2905 55.59 33.3024C55.7901 33.3143 55.9876 33.2524 56.1451 33.1283C56.188 33.0945 56.2315 33.0612 56.2754 33.0285C57.3514 32.226 58.6579 31.7924 60.0003 31.7924C61.3426 31.7924 62.6491 32.226 63.7251 33.0285C63.7689 33.0612 63.8124 33.0945 63.8554 33.1283C64.0128 33.2523 64.2103 33.3143 64.4104 33.3024C64.6105 33.2905 64.7993 33.2056 64.941 33.0638Z" fill="#6E81BE"/>
<path d="M53.6055 30.5292C53.6293 30.5087 53.6532 30.4883 53.6771 30.468C55.4504 28.9861 57.6879 28.1744 59.9988 28.1744C62.3097 28.1744 64.5472 28.9861 66.3205 30.468C66.3459 30.4893 66.3712 30.5107 66.3964 30.5322C66.5534 30.6672 66.7556 30.7381 66.9626 30.7305C67.1695 30.7229 67.366 30.6375 67.5127 30.4913C67.5925 30.4123 67.6552 30.3177 67.6969 30.2134C67.7386 30.1091 67.7584 29.9973 67.755 29.885C67.7516 29.7728 67.7252 29.6624 67.6774 29.5607C67.6295 29.4591 67.5613 29.3684 67.4769 29.2943C65.394 27.5106 62.742 26.5302 59.9997 26.5303C57.2574 26.5304 54.6054 27.5108 52.5226 29.2947C52.3601 29.4386 52.2612 29.6411 52.2475 29.8577C52.2339 30.0744 52.3066 30.2876 52.4498 30.4508C52.5929 30.6141 52.7949 30.7139 53.0115 30.7286C53.2281 30.7433 53.4417 30.6716 53.6055 30.5292Z" fill="#6E81BE"/>
<path d="M60.8382 35.6299H59.1619C58.6673 35.6299 58.1775 35.7273 57.7205 35.9166C57.2635 36.1059 56.8483 36.3833 56.4985 36.7331C56.1488 37.0829 55.8713 37.4981 55.682 37.955C55.4928 38.412 55.3953 38.9018 55.3953 39.3964C58.4539 39.0253 61.5462 39.0254 64.6048 39.3965C64.6048 38.9019 64.5074 38.412 64.3181 37.955C64.1288 37.4981 63.8513 37.0828 63.5016 36.7331C63.1518 36.3833 62.7366 36.1059 62.2796 35.9166C61.8226 35.7273 61.3328 35.6299 60.8382 35.6299Z" fill="#6E81BE"/>
<path d="M54.1556 37.1123H42.1091C41.9185 37.1123 41.7297 37.1498 41.5536 37.2228C41.3775 37.2957 41.2175 37.4027 41.0827 37.5375C40.9479 37.6723 40.8409 37.8323 40.768 38.0084C40.695 38.1846 40.6575 38.3733 40.6575 38.5639H52.7039C53.0889 38.5639 53.4582 38.411 53.7304 38.1388C54.0027 37.8665 54.1556 37.4973 54.1556 37.1123Z" fill="#6E81BE"/>
<path d="M70.7006 42.513C63.724 40.3951 56.2759 40.3951 49.2993 42.513V39.834H45.5137V45.4088C45.5078 45.9124 45.6986 46.3985 46.0454 46.7636C46.3923 47.1287 46.8679 47.3441 47.3711 47.364C47.6226 47.3688 47.8725 47.3233 48.1062 47.2303C48.34 47.1373 48.5528 46.9987 48.7323 46.8225C48.9118 46.6463 49.0545 46.4361 49.1518 46.2041C49.2492 45.9722 49.2993 45.7231 49.2993 45.4716V45.323H52.1208L48.6822 50.1461C48.518 50.3764 48.4099 50.6419 48.3666 50.9214L47.5422 56.2364C47.5004 56.5064 47.5635 56.7823 47.7186 57.007C47.8737 57.232 48.1089 57.3892 48.3762 57.446C48.6433 57.5029 48.9222 57.4554 49.1555 57.3132C49.3888 57.171 49.5588 56.9451 49.6307 56.6814L50.9547 51.8209L54.9342 47.5005H65.0657L69.0452 51.8209L70.3692 56.6814C70.441 56.9451 70.6111 57.171 70.8443 57.3132C71.0777 57.4554 71.3566 57.5032 71.6237 57.446C71.8909 57.3892 72.1262 57.2323 72.2812 57.0073C72.4366 56.7823 72.4997 56.5064 72.4578 56.2364L71.6334 50.9214C71.59 50.6419 71.4819 50.3764 71.3178 50.146L67.8791 45.323H70.7006V45.4088C70.6947 45.9124 70.8854 46.3985 71.2323 46.7636C71.5791 47.1287 72.0547 47.3441 72.5578 47.364C72.8094 47.3688 73.0594 47.3233 73.2931 47.2303C73.5269 47.1373 73.7397 46.9987 73.9191 46.8225C74.0987 46.6463 74.2412 46.4361 74.3387 46.2041C74.4359 45.9722 74.4862 45.7231 74.4862 45.4716V39.834H70.7006V42.513Z" fill="#6E81BE"/>
<path d="M67.2961 38.5639H79.3425C79.3425 38.1789 79.1897 37.8097 78.9175 37.5375C78.645 37.2652 78.276 37.1123 77.891 37.1123H65.8444C65.8444 37.3029 65.882 37.4917 65.9549 37.6678C66.0279 37.844 66.1348 38.004 66.2696 38.1388C66.4044 38.2736 66.5645 38.3805 66.7405 38.4535C66.9167 38.5264 67.1055 38.5639 67.2961 38.5639Z" fill="#6E81BE"/>
<defs>
<clipPath id="clip0_171_1666">
<rect width="85" height="85" fill="white"/>
</clipPath>
</defs>
</svg>
