<svg width="33" height="33" viewBox="0 0 33 33" fill="none" xmlns="http://www.w3.org/2000/svg">
<path d="M28.8143 4.49491C28.7389 4.30707 28.594 4.15555 28.4097 4.07185C28.2254 3.98816 28.0159 3.97874 27.8248 4.04555C27.6338 4.11236 27.4758 4.25027 27.3839 4.43057C27.2919 4.61088 27.273 4.81971 27.331 5.01361C28.5387 8.48461 26.1415 11.0768 24.3137 12.4652L23.5753 11.407C23.327 11.0521 22.7719 10.757 22.3403 10.7518L18.1959 10.77C17.6897 10.7853 17.1969 10.9371 16.7698 11.2094L4.55763 19.7725C4.27357 19.9724 4.08029 20.2767 4.02011 20.6188C3.95993 20.9609 4.03774 21.3129 4.23653 21.5977L9.78623 29.5381C10.2022 30.1296 10.8665 30.0581 11.4593 29.6447L23.6715 21.0803C24.0225 20.832 24.4281 20.2964 24.5711 19.8869L25.8685 15.7984C26.0115 15.3902 25.9244 14.7675 25.6761 14.4126L25.2263 13.7678C27.6807 11.8867 30.2287 8.56261 28.8143 4.49491ZM23.132 16.6603C22.907 16.8178 22.6532 16.9294 22.3851 16.9888C22.117 17.0481 21.8398 17.0541 21.5694 17.0063C21.2989 16.9584 21.0406 16.8578 20.8091 16.7101C20.5775 16.5624 20.3774 16.3706 20.22 16.1455C19.9014 15.6901 19.7766 15.1268 19.8728 14.5794C19.9691 14.032 20.2787 13.5451 20.7335 13.2257C21.0901 12.9759 21.5159 12.8437 21.9513 12.8477C22.3867 12.8516 22.8099 12.9915 23.1619 13.2478C22.8083 13.461 22.5652 13.5858 22.5197 13.6053C22.3586 13.6821 22.2283 13.8114 22.1503 13.972C22.0722 14.1326 22.051 14.3149 22.0901 14.4891C22.1293 14.6633 22.2264 14.819 22.3656 14.9308C22.5048 15.0425 22.6779 15.1037 22.8564 15.1042C22.9682 15.1042 23.0826 15.0782 23.1905 15.0275C23.4427 14.9079 23.7131 14.7662 23.9952 14.5985C24.0601 14.9886 24.0135 15.3891 23.8608 15.7538C23.7081 16.1186 23.4555 16.4328 23.132 16.6603Z" fill="white"/>
</svg>
