<svg width="32" height="33" viewBox="0 0 32 33" fill="none" xmlns="http://www.w3.org/2000/svg">
<path d="M16 3.77539C9.19475 3.77539 3.65823 9.31191 3.65823 16.1172V21.2304C3.65823 22.4942 4.76529 23.5222 6.12659 23.5222H7.36077C7.68809 23.5222 8.00201 23.3922 8.23346 23.1607C8.46491 22.9293 8.59494 22.6154 8.59494 22.2881V15.9407C8.59494 15.6134 8.46491 15.2994 8.23346 15.068C8.00201 14.8365 7.68809 14.7065 7.36077 14.7065H6.24013C6.92634 9.93023 11.0361 6.24375 16 6.24375C20.9639 6.24375 25.0737 9.93023 25.7599 14.7065H24.6392C24.3119 14.7065 23.998 14.8365 23.7666 15.068C23.5351 15.2994 23.4051 15.6134 23.4051 15.9407V23.5222C23.4051 24.8835 22.298 25.9906 20.9367 25.9906H18.4684V24.7564H13.5317V28.4589H20.9367C23.6593 28.4589 25.8734 26.2448 25.8734 23.5222C27.2347 23.5222 28.3418 22.4942 28.3418 21.2304V16.1172C28.3418 9.31191 22.8053 3.77539 16 3.77539Z" fill="white"/>
</svg>
