<svg width="32" height="33" viewBox="0 0 32 33" fill="none" xmlns="http://www.w3.org/2000/svg">
<path d="M18.82 27.1649L16 29.9849L13.18 27.1649C7.6375 25.8849 3.5 20.9149 3.5 14.9849C3.5 8.08486 9.1 2.48486 16 2.48486C22.9 2.48486 28.5 8.08486 28.5 14.9849C28.5 20.9149 24.3625 25.8849 18.82 27.1649ZM8.52875 19.2549C10.3637 21.9924 13.1187 23.7349 16.2 23.7349C19.28 23.7349 22.0362 21.9936 23.87 19.2549C21.7897 17.3106 19.0474 16.2309 16.2 16.2349C13.3521 16.2306 10.6094 17.3103 8.52875 19.2549ZM16 13.7349C16.9946 13.7349 17.9484 13.3398 18.6517 12.6365C19.3549 11.9333 19.75 10.9794 19.75 9.98486C19.75 8.9903 19.3549 8.03647 18.6517 7.33321C17.9484 6.62995 16.9946 6.23486 16 6.23486C15.0054 6.23486 14.0516 6.62995 13.3483 7.33321C12.6451 8.03647 12.25 8.9903 12.25 9.98486C12.25 10.9794 12.6451 11.9333 13.3483 12.6365C14.0516 13.3398 15.0054 13.7349 16 13.7349Z" fill="white"/>
</svg>
