<svg width="85" height="85" viewBox="0 0 85 85" fill="none" xmlns="http://www.w3.org/2000/svg">
<g clip-path="url(#clip0_168_82)">
<path d="M52.1226 30.0867C51.9885 30.0854 51.8566 30.0524 51.7377 29.9904C51.5529 29.886 51.4171 29.7125 51.36 29.5081C51.3029 29.3037 51.3291 29.085 51.433 28.8999C51.6415 28.515 56.4368 19.5178 49.3962 13.5838C40.6877 6.27062 30.3755 15.1876 29.9424 15.5565C29.7898 15.7044 29.5857 15.7871 29.3731 15.7871C29.1606 15.7871 28.9564 15.7044 28.8038 15.5565C28.7331 15.4791 28.6786 15.3884 28.6435 15.2897C28.6084 15.191 28.5934 15.0862 28.5994 14.9816C28.6054 14.877 28.6322 14.7747 28.6783 14.6806C28.7245 14.5865 28.7889 14.5026 28.8679 14.4338C28.9802 14.3216 40.6557 4.23382 50.4066 12.4451C58.4255 19.2131 52.8764 29.6376 52.8123 29.7499C52.7336 29.8581 52.6296 29.9454 52.5094 30.0042C52.3892 30.0629 52.2564 30.0912 52.1226 30.0867Z" fill="black"/>
<path d="M23.2868 30.0871C23.1511 30.0852 23.0182 30.0488 22.9004 29.9815C22.7825 29.9142 22.6837 29.8181 22.6132 29.7022C21.596 27.979 20.9306 26.0712 20.6553 24.0892C20.38 22.1071 20.5004 20.0902 21.0094 18.155C22.2764 14.0975 25.6283 10.8578 30.9689 8.53237C31.0657 8.4899 31.17 8.467 31.2757 8.46499C31.3814 8.46298 31.4865 8.48189 31.5849 8.52065C31.6832 8.5594 31.773 8.61723 31.8489 8.69081C31.9249 8.76438 31.9855 8.85225 32.0274 8.94935C32.0698 9.04619 32.0927 9.15046 32.0947 9.25618C32.0967 9.3619 32.0778 9.46697 32.0391 9.56535C32.0003 9.66373 31.9425 9.75347 31.8689 9.82941C31.7953 9.90535 31.7075 9.96599 31.6104 10.0078C26.7189 12.1409 23.5915 15.0437 22.5491 18.6361C21.7002 22.113 22.241 25.7839 24.0566 28.8682C24.1655 29.05 24.1996 29.2669 24.1517 29.4733C24.1039 29.6797 23.9778 29.8595 23.8 29.9748C23.6451 30.0655 23.4654 30.1048 23.2868 30.0871Z" fill="black"/>
<path d="M10.6972 63.6377H10.5368C10.3271 63.5915 10.144 63.4647 10.027 63.2847C9.90993 63.1047 9.8684 62.8858 9.91131 62.6754C9.91131 62.467 11.0981 57.2547 14.6264 55.4424C16.2302 54.6405 22.5491 53.5019 27.9217 52.6198C28.3547 52.6198 28.9641 52.299 29.2689 51.0962L30.2151 47.3273C30.2394 47.2257 30.2838 47.13 30.3456 47.0457C30.4074 46.9615 30.4854 46.8904 30.575 46.8366C30.6646 46.7828 30.764 46.7475 30.8674 46.7326C30.9709 46.7177 31.0762 46.7236 31.1774 46.75C31.3845 46.8031 31.5627 46.9352 31.6736 47.1181C31.7845 47.301 31.8194 47.52 31.7707 47.7283L30.8245 51.4811C30.7292 52.153 30.4233 52.7774 29.9506 53.2644C29.478 53.7515 28.8631 54.0761 28.1943 54.1915C20.6887 55.4424 16.3585 56.3405 15.3641 56.8537C12.5094 58.3292 11.4991 62.9641 11.483 63.0122C11.4428 63.1904 11.343 63.3495 11.2001 63.4632C11.0572 63.577 10.8798 63.6385 10.6972 63.6377Z" fill="black"/>
<path d="M54.0792 55.3783H53.9349C51.449 54.9132 48.8349 54.4802 47.167 54.1915C46.4982 54.0761 45.8833 53.7515 45.4107 53.2644C44.938 52.7774 44.6321 52.153 44.5368 51.4811L43.5906 47.7283C43.5419 47.52 43.5768 47.301 43.6877 47.1181C43.7986 46.9352 43.9768 46.8031 44.1839 46.75C44.2851 46.7236 44.3904 46.7177 44.4939 46.7326C44.5973 46.7475 44.6967 46.7828 44.7863 46.8366C44.8759 46.8904 44.9539 46.9615 45.0157 47.0457C45.0775 47.13 45.1219 47.2257 45.1462 47.3273L46.0924 51.0962C46.3972 52.299 47.0066 52.5396 47.4396 52.6198C49.0434 52.8924 51.7377 53.3254 54.2236 53.8066C54.3282 53.8258 54.428 53.8656 54.5171 53.9238C54.6062 53.9819 54.6828 54.0572 54.7425 54.1453C54.8023 54.2334 54.8438 54.3324 54.8649 54.4367C54.8859 54.541 54.886 54.6485 54.8651 54.7528C54.8277 54.9324 54.7286 55.0932 54.5851 55.2075C54.4416 55.3217 54.2626 55.3821 54.0792 55.3783Z" fill="black"/>
<path d="M37.6726 50.5188C35.0469 50.51 32.4917 49.6676 30.3755 48.1132C27.1673 45.6361 24.867 42.1688 23.8321 38.25C23.2431 38.2538 22.6729 38.0428 22.2283 37.6566C21.1656 36.5997 20.5461 35.1772 20.4962 33.6792C20.2717 31.1132 21.3141 29.0122 23.0141 28.5471C23.7612 28.3376 24.5589 28.406 25.2594 28.7396C25.6738 28.3815 25.9847 27.9189 26.1595 27.3999C26.3344 26.8809 26.367 26.3245 26.2538 25.7886C26.2355 25.6513 26.2523 25.5115 26.3028 25.3825C26.3533 25.2534 26.4358 25.1393 26.5424 25.0509C29.961 22.4572 34.2122 21.2075 38.4906 21.5386C40.8162 21.8927 43.049 22.7026 45.0609 23.9218C47.0727 25.1411 48.824 26.7456 50.2141 28.6433C50.8733 28.3603 51.6102 28.3149 52.2991 28.515C53.9991 28.9801 55.0255 31.0811 54.8009 33.6471C54.7466 35.1459 54.1144 36.5654 53.0368 37.6084C52.5899 37.9909 52.0212 38.2013 51.433 38.2018C50.4176 42.1385 48.1212 45.6254 44.9057 48.1132C42.8071 49.6548 40.2765 50.4964 37.6726 50.5188ZM24.4094 36.4698C24.5205 36.4469 24.6351 36.4469 24.7462 36.4698C24.85 36.5247 24.9417 36.5998 25.0161 36.6907C25.0905 36.7816 25.1459 36.8864 25.1792 36.999C26.0355 40.8494 28.2077 44.2807 31.3217 46.7018C33.1605 48.0675 35.3902 48.8049 37.6807 48.8049C39.9712 48.8049 42.2008 48.0675 44.0396 46.7018C47.1436 44.2716 49.3133 40.8443 50.1821 36.999C50.2097 36.8839 50.263 36.7765 50.338 36.6848C50.413 36.5932 50.5077 36.5197 50.6151 36.4698C50.7228 36.4185 50.8406 36.3918 50.9599 36.3918C51.0792 36.3918 51.197 36.4185 51.3047 36.4698C51.3631 36.4791 51.4227 36.4791 51.4811 36.4698C51.6953 36.4718 51.902 36.3914 52.0585 36.2452C52.7975 35.4679 53.2255 34.4464 53.2613 33.3745C53.4217 31.482 52.7 30.1669 51.9141 29.9264C51.6849 29.8649 51.4453 29.8518 51.2107 29.8876C50.976 29.9235 50.7514 30.0077 50.5509 30.1349L50.2623 30.2792C50.1069 30.3203 49.9431 30.3165 49.7898 30.2682C49.6365 30.2199 49.5 30.1292 49.3962 30.0066C46.1887 25.8207 42.4038 23.4632 38.3623 23.0141C34.6469 22.7045 30.9421 23.7216 27.9057 25.8849C28.0124 26.7666 27.8562 27.6601 27.4567 28.4534C27.0573 29.2466 26.4323 29.9041 25.6604 30.3433C25.4637 30.4158 25.2476 30.4158 25.0509 30.3433L24.7623 30.199C24.5618 30.0719 24.3372 29.9877 24.1025 29.9518C23.8679 29.9159 23.6283 29.9291 23.3991 29.9905C22.6132 30.215 21.8915 31.5943 22.0679 33.4386C22.1066 34.5069 22.5278 35.5257 23.2547 36.3094C23.4121 36.4542 23.6182 36.5344 23.8321 36.5339C23.896 36.5412 23.9606 36.5412 24.0245 36.5339C24.1437 36.475 24.2776 36.4527 24.4094 36.4698Z" fill="black"/>
<path d="M37.7047 61.2805C35.3298 61.4309 32.9784 60.7354 31.0673 59.3175C29.1562 57.8996 27.8088 55.8508 27.2641 53.5343C27.2259 53.3216 27.2736 53.1025 27.3969 52.925C27.5203 52.7476 27.709 52.6264 27.9217 52.5881C28.1344 52.5498 28.3535 52.5976 28.531 52.7209C28.7084 52.8442 28.8296 53.033 28.8679 53.2456C28.8679 53.5022 30.1509 59.6607 37.7207 59.6607C45.2906 59.6607 46.5094 53.5183 46.5094 53.2456C46.5484 53.0376 46.6681 52.8534 46.8423 52.7332C47.0166 52.613 47.2313 52.5666 47.4396 52.6041C47.5434 52.6197 47.6431 52.6558 47.7327 52.7105C47.8223 52.7652 47.9 52.8372 47.9613 52.9224C48.0226 53.0077 48.0662 53.1043 48.0895 53.2066C48.1129 53.3089 48.1155 53.4149 48.0972 53.5183C47.5717 55.837 46.2366 57.8924 44.3318 59.3151C42.427 60.7379 40.0772 61.4347 37.7047 61.2805Z" fill="black"/>
<path d="M37.6887 75.3774C30.2346 75.3774 22.9479 73.167 16.75 69.0257C10.5521 64.8844 5.72146 58.9982 2.8689 52.1115C0.01633 45.2248 -0.730032 37.6469 0.724194 30.336C2.17842 23.0251 5.76792 16.3096 11.0388 11.0388C16.3096 5.76792 23.0251 2.17842 30.336 0.724194C37.6469 -0.730032 45.2248 0.01633 52.1115 2.8689C58.9982 5.72146 64.8844 10.5521 69.0257 16.75C73.167 22.9479 75.3774 30.2346 75.3774 37.6887C75.3921 43.234 74.1703 48.7128 71.801 53.7264C71.6977 53.8936 71.5366 54.017 71.3484 54.0732C71.1601 54.1295 70.9577 54.1146 70.7797 54.0316C70.6017 53.9485 70.4603 53.8029 70.3825 53.6225C70.3047 53.4421 70.2958 53.2394 70.3576 53.0529C73.8885 45.5712 74.7415 37.1034 72.7736 29.0679C70.8056 21.0323 66.1363 13.917 59.5477 8.91363C52.959 3.91032 44.8513 1.32289 36.5824 1.58472C28.3135 1.84656 20.3857 4.94177 14.1268 10.3519C7.8679 15.762 3.65809 23.1585 2.20248 31.3025C0.746859 39.4465 2.13384 47.8433 6.1311 55.0866C10.1284 62.3299 16.4931 67.9797 24.1594 71.0897C31.8256 74.1997 40.3277 74.581 48.2415 72.1698C48.3468 72.1393 48.4571 72.1298 48.5661 72.1419C48.6751 72.154 48.7806 72.1874 48.8767 72.2403C48.9727 72.2931 49.0574 72.3644 49.1259 72.45C49.1944 72.5356 49.2454 72.6339 49.276 72.7392C49.3065 72.8445 49.316 72.9548 49.3039 73.0637C49.2918 73.1727 49.2584 73.2782 49.2055 73.3743C49.1527 73.4704 49.0814 73.5551 48.9958 73.6236C48.9102 73.6921 48.8119 73.7431 48.7066 73.7736C45.1343 74.8538 41.4207 75.3943 37.6887 75.3774Z" fill="black"/>
<path d="M80.9906 85.0004H55.3302C54.2668 85.0004 53.247 84.578 52.4951 83.8261C51.7432 83.0742 51.3207 82.0544 51.3207 80.991V61.7457C51.3207 60.6823 51.7432 59.6625 52.4951 58.9106C53.247 58.1587 54.2668 57.7363 55.3302 57.7363H59.0349L56.1321 49.1721C56.0774 49.0128 56.0743 48.8402 56.1233 48.679C56.1722 48.5178 56.2707 48.3761 56.4047 48.274C56.5414 48.1795 56.7036 48.1289 56.8698 48.1289C57.036 48.1289 57.1982 48.1795 57.3349 48.274L71.6085 57.7363H80.9906C82.0539 57.7363 83.0737 58.1587 83.8257 58.9106C84.5776 59.6625 85 60.6823 85 61.7457V80.991C85 82.0544 84.5776 83.0742 83.8257 83.8261C83.0737 84.578 82.0539 85.0004 80.9906 85.0004ZM55.3302 59.34C54.6922 59.34 54.0803 59.5935 53.6291 60.0446C53.178 60.4958 52.9245 61.1077 52.9245 61.7457V80.991C52.9245 81.629 53.178 82.2409 53.6291 82.6921C54.0803 83.1432 54.6922 83.3967 55.3302 83.3967H80.9906C81.6286 83.3967 82.2405 83.1432 82.6916 82.6921C83.1428 82.2409 83.3962 81.629 83.3962 80.991V61.7457C83.3962 61.1077 83.1428 60.4958 82.6916 60.0446C82.2405 59.5935 81.6286 59.34 80.9906 59.34H71.3679C71.2093 59.3392 71.054 59.2948 70.9189 59.2117L58.4415 50.8721L60.9434 58.2816C60.9881 58.4005 61.0028 58.5286 60.986 58.6545C60.9692 58.7804 60.9215 58.9002 60.8472 59.0033C60.7708 59.1061 60.6717 59.19 60.5577 59.2484C60.4437 59.3068 60.3177 59.3382 60.1896 59.34H55.3302Z" fill="#6E81BE"/>
<path d="M69.7641 78.5852H58.5377C58.3251 78.5852 58.1211 78.5007 57.9707 78.3504C57.8203 78.2 57.7358 77.996 57.7358 77.7833C57.7358 77.5707 57.8203 77.3667 57.9707 77.2163C58.1211 77.0659 58.3251 76.9814 58.5377 76.9814H69.7641C69.9768 76.9814 70.1808 77.0659 70.3312 77.2163C70.4815 77.3667 70.566 77.5707 70.566 77.7833C70.566 77.996 70.4815 78.2 70.3312 78.3504C70.1808 78.5007 69.9768 78.5852 69.7641 78.5852Z" fill="#6E81BE"/>
<path d="M77.783 72.1702H58.5377C58.3251 72.1702 58.1211 72.0857 57.9707 71.9353C57.8203 71.7849 57.7358 71.581 57.7358 71.3683C57.7358 71.1556 57.8203 70.9517 57.9707 70.8013C58.1211 70.6509 58.3251 70.5664 58.5377 70.5664H77.783C77.9957 70.5664 78.1996 70.6509 78.35 70.8013C78.5004 70.9517 78.5849 71.1556 78.5849 71.3683C78.5849 71.581 78.5004 71.7849 78.35 71.9353C78.1996 72.0857 77.9957 72.1702 77.783 72.1702Z" fill="#6E81BE"/>
<path d="M77.783 65.7551H58.5377C58.3251 65.7551 58.1211 65.6707 57.9707 65.5203C57.8203 65.3699 57.7358 65.1659 57.7358 64.9533C57.7358 64.7406 57.8203 64.5366 57.9707 64.3862C58.1211 64.2359 58.3251 64.1514 58.5377 64.1514H77.783C77.9957 64.1514 78.1996 64.2359 78.35 64.3862C78.5004 64.5366 78.5849 64.7406 78.5849 64.9533C78.5849 65.1659 78.5004 65.3699 78.35 65.5203C78.1996 65.6707 77.9957 65.7551 77.783 65.7551Z" fill="#6E81BE"/>
</g>
<defs>
<clipPath id="clip0_168_82">
<rect width="85" height="85" fill="white"/>
</clipPath>
</defs>
</svg>
