<svg width="26" height="26" viewBox="0 0 26 26" fill="none" xmlns="http://www.w3.org/2000/svg">
<path d="M21.2522 25.5007H21.0122C15.8511 24.937 11.0036 22.7444 7.17223 19.2407L6.30223 18.3707C2.78182 14.5353 0.57812 9.67593 0.0122341 4.50066C-0.037646 4.04275 0.0658868 3.58122 0.306592 3.18849C0.547298 2.79576 0.911558 2.49404 1.34223 2.33066L5.83223 0.590662C6.12505 0.477481 6.44909 0.474961 6.74363 0.583573C7.03817 0.692185 7.283 0.904475 7.43223 1.18066L10.5822 6.97066C10.7141 7.21566 10.7639 7.4965 10.7243 7.77191C10.6847 8.04732 10.5578 8.30275 10.3622 8.50066L7.48223 11.3307C7.4365 11.3834 7.41132 11.4509 7.41132 11.5207C7.41132 11.5905 7.4365 11.6579 7.48223 11.7107C8.35057 12.9839 9.31683 14.1876 10.3722 15.3107C11.4546 16.3276 12.6185 17.254 13.8522 18.0807C13.9043 18.1238 13.9697 18.1473 14.0372 18.1473C14.1048 18.1473 14.1702 18.1238 14.2222 18.0807L17.0122 15.1507C17.2097 14.9512 17.4664 14.8211 17.744 14.7796C18.0216 14.7381 18.3051 14.7876 18.5522 14.9207L24.3422 18.0707C24.6169 18.2215 24.8278 18.4664 24.9362 18.7604C25.0446 19.0544 25.0432 19.3776 24.9322 19.6707L23.1922 24.1607C23.0425 24.5541 22.7768 24.8928 22.4304 25.1321C22.0841 25.3714 21.6732 25.4999 21.2522 25.5007ZM7.86223 18.5007C11.5332 21.8576 16.1774 23.959 21.1222 24.5007C21.3605 24.5274 21.6008 24.4741 21.8054 24.3491C22.01 24.2242 22.1672 24.0348 22.2522 23.8107L24.0122 19.3207C24.038 19.2551 24.039 19.1824 24.0151 19.1162C23.9911 19.0499 23.9439 18.9946 23.8822 18.9607L18.0622 15.8007C18.0065 15.7692 17.942 15.7571 17.8787 15.7662C17.8154 15.7752 17.7569 15.8049 17.7122 15.8507L14.8822 18.7307C14.6727 18.9477 14.3933 19.0838 14.0933 19.1149C13.7932 19.146 13.4918 19.0701 13.2422 18.9007C11.9581 18.0385 10.7474 17.0719 9.62223 16.0107C8.52569 14.841 7.52262 13.5872 6.62223 12.2607C6.45079 12.0107 6.37286 11.7083 6.40211 11.4066C6.43137 11.1048 6.56595 10.8231 6.78223 10.6107L9.66223 7.79066C9.70799 7.746 9.7377 7.68746 9.74674 7.62416C9.75578 7.56087 9.74365 7.49635 9.71223 7.44066L6.55223 1.65066C6.52162 1.58538 6.46778 1.53384 6.40121 1.50611C6.33465 1.47838 6.26015 1.47643 6.19223 1.50066L1.70223 3.26066C1.47813 3.34573 1.28869 3.50294 1.16377 3.70753C1.03884 3.91211 0.985533 4.15244 1.01223 4.39066C1.55253 9.33886 3.65399 13.9866 7.01223 17.6607L7.86223 18.5007Z" fill="#6E81BE"/>
</svg>
