<svg width="33" height="33" viewBox="0 0 33 33" fill="none" xmlns="http://www.w3.org/2000/svg">
<path d="M18.6167 26.7756C19.2957 26.7756 19.9468 26.5122 20.4269 26.0434C20.907 25.5746 21.1767 24.9387 21.1767 24.2756C21.1767 23.6126 20.907 22.9767 20.4269 22.5079C19.9468 22.039 19.2957 21.7756 18.6167 21.7756C17.9377 21.7756 17.2866 22.039 16.8065 22.5079C16.3264 22.9767 16.0567 23.6126 16.0567 24.2756C16.0567 24.9387 16.3264 25.5746 16.8065 26.0434C17.2866 26.5122 17.9377 26.7756 18.6167 26.7756ZM9.65661 26.7756C10.3356 26.7756 10.9867 26.5122 11.4668 26.0434C11.9469 25.5746 12.2166 24.9387 12.2166 24.2756C12.2166 23.6126 11.9469 22.9767 11.4668 22.5079C10.9867 22.039 10.3356 21.7756 9.65661 21.7756C8.97765 21.7756 8.3265 22.039 7.8464 22.5079C7.3663 22.9767 7.09658 23.6126 7.09658 24.2756C7.09658 24.9387 7.3663 25.5746 7.8464 26.0434C8.3265 26.5122 8.97765 26.7756 9.65661 26.7756ZM26.3454 9.17938C26.665 9.16932 26.968 9.03828 27.1904 8.81399C27.4128 8.58969 27.5371 8.28972 27.5371 7.97751C27.5371 7.6653 27.4128 7.36533 27.1904 7.14103C26.968 6.91674 26.665 6.7857 26.3454 6.77563H24.8721C23.7176 6.77563 22.7192 7.55813 22.4683 8.65813L20.8644 15.7106C20.6135 16.8106 19.6151 17.5931 18.4605 17.5931H8.84508L6.9993 10.3806H18.961C19.2776 10.3665 19.5763 10.2338 19.7952 10.0101C20.0141 9.78634 20.1363 9.48882 20.1363 9.17938C20.1363 8.86995 20.0141 8.57243 19.7952 8.34869C19.5763 8.12496 19.2776 7.99224 18.961 7.97813H6.9993C6.62511 7.97803 6.25582 8.06123 5.9195 8.22143C5.58318 8.38162 5.28869 8.61459 5.05841 8.90262C4.82814 9.19064 4.66813 9.52615 4.59057 9.88363C4.51301 10.2411 4.51993 10.6112 4.6108 10.9656L6.45658 18.1756C6.58964 18.6959 6.89702 19.1577 7.32981 19.4877C7.76261 19.8178 8.29598 19.997 8.84508 19.9969H18.4605C19.5808 19.997 20.6676 19.624 21.5415 18.9395C22.4154 18.255 23.0241 17.2999 23.267 16.2319L24.8721 9.17938H26.3454Z" fill="white"/>
</svg>
