<svg width="36" height="37" viewBox="0 0 36 37" fill="none" xmlns="http://www.w3.org/2000/svg">
<circle cx="18" cy="18.5" r="18" fill="#6E81BE"/>
<path d="M16.8625 27.5C16.6171 27.5 16.4164 27.4213 16.2602 27.264C16.1041 27.1067 16.026 26.9045 16.026 26.6573V20.2865H9.83643C9.59108 20.2865 9.39033 20.2079 9.2342 20.0506C9.07807 19.8933 9 19.7022 9 19.4775V17.3539C9 17.1067 9.07807 16.9045 9.2342 16.7472C9.39033 16.5899 9.59108 16.5112 9.83643 16.5112H16.026V10.3427C16.026 10.0955 16.1041 9.89326 16.2602 9.73596C16.4164 9.57865 16.6171 9.5 16.8625 9.5H19.171C19.4164 9.5 19.6171 9.57865 19.7732 9.73596C19.9294 9.89326 20.0074 10.0955 20.0074 10.3427V16.5112H26.197C26.4201 16.5112 26.6097 16.5899 26.7658 16.7472C26.9219 16.9045 27 17.1067 27 17.3539V19.4775C27 19.7022 26.9219 19.8933 26.7658 20.0506C26.6097 20.2079 26.4201 20.2865 26.197 20.2865H20.0074V26.6573C20.0074 26.9045 19.9294 27.1067 19.7732 27.264C19.6171 27.4213 19.4164 27.5 19.171 27.5H16.8625Z" fill="white"/>
</svg>
