<svg width="20" height="21" viewBox="0 0 20 21" fill="none" xmlns="http://www.w3.org/2000/svg">
<path d="M19.2 0.0837402H0.8C0.3575 0.0837402 0 0.44124 0 0.88374V19.2837C0 19.7262 0.3575 20.0837 0.8 20.0837H19.2C19.6425 20.0837 20 19.7262 20 19.2837V0.88374C20 0.44124 19.6425 0.0837402 19.2 0.0837402ZM16.89 5.92124H15.2925C14.04 5.92124 13.7975 6.51624 13.7975 7.39124V9.31874H16.7875L16.3975 12.3362H13.7975V20.0837H10.68V12.3387H8.0725V9.31874H10.68V7.09374C10.68 4.51124 12.2575 3.10374 14.5625 3.10374C15.6675 3.10374 16.615 3.18624 16.8925 3.22374V5.92124H16.89Z" fill="white"/>
</svg>
