<svg width="33" height="33" viewBox="0 0 33 33" fill="none" xmlns="http://www.w3.org/2000/svg">
<path d="M25.3849 8.71047C22.9924 6.24618 19.0983 6.24618 16.7051 8.70991L16.2074 9.22152L15.7103 8.71014C13.3168 6.24609 9.42323 6.24637 7.02975 8.71014C5.85455 9.92006 5.2074 11.5249 5.2074 13.2285C5.2074 14.9328 5.85455 16.5373 7.02992 17.7477L15.676 26.6327C15.8248 26.7859 16.0162 26.8622 16.2074 26.8622C16.3986 26.8622 16.5898 26.7856 16.7387 26.6324L25.3849 17.7477C26.56 16.5376 27.2074 14.9328 27.2074 13.2288C27.2074 11.5249 26.56 9.92034 25.3849 8.71047ZM24.3211 16.5362L16.2074 24.8744L8.09391 16.5365C7.22805 15.6453 6.75126 14.4705 6.75126 13.2288C6.75126 11.9872 7.22805 10.8124 8.09391 9.92117C8.99707 8.99092 10.1833 8.5261 11.3697 8.5261C12.5564 8.5261 13.7431 8.99148 14.6463 9.92173L15.6755 10.9798C15.9735 11.2865 16.441 11.2865 16.739 10.9798L17.7685 9.92117C19.5751 8.06096 22.5143 8.06096 24.3209 9.92117C25.1865 10.8124 25.6635 11.9872 25.6635 13.2288C25.6635 14.4705 25.1865 15.645 24.3211 16.5362Z" fill="white"/>
</svg>
