<svg width="507" height="113" viewBox="0 0 507 113" fill="none" xmlns="http://www.w3.org/2000/svg">
<path d="M443.06 89.2848L470.934 61.4105V117.159L443.06 89.2848Z" fill="#8338EC"/>
<path fill-rule="evenodd" clip-rule="evenodd" d="M506.791 63.9508V74.6992C497.973 74.6992 490.825 67.5638 490.825 58.7619C490.825 49.9599 497.973 42.8246 506.791 42.8246V53.573C503.92 53.573 501.593 55.8961 501.593 58.7619C501.593 61.6276 503.92 63.9508 506.791 63.9508Z" fill="#54ADFF"/>
<path d="M379.22 128.579L418.312 167.67L457.403 128.579L418.312 89.4871L379.22 128.579Z" fill="#FF006E"/>
<path d="M449.65 12.7314L462.026 25.1074L474.402 12.7314L462.026 0.355534L449.65 12.7314Z" fill="#FFBE0B"/>
<path d="M63.9517 89.2848L36.0774 61.4105V117.159L63.9517 89.2848Z" fill="#8338EC"/>
<path fill-rule="evenodd" clip-rule="evenodd" d="M0.220443 63.9508V74.6992C9.03784 74.6992 16.1858 67.5638 16.1858 58.7619C16.1858 49.9599 9.03784 42.8246 0.220443 42.8246V53.573C3.09126 53.573 5.41847 55.8961 5.41847 58.7619C5.41847 61.6276 3.09126 63.9508 0.220443 63.9508Z" fill="#54ADFF"/>
<path d="M127.791 128.579L88.6993 167.67L49.6078 128.579L88.6993 89.4871L127.791 128.579Z" fill="#FF006E"/>
<path d="M63.3608 12.7314L50.9849 25.1074L38.609 12.7314L50.9849 0.355534L63.3608 12.7314Z" fill="#FFBE0B"/>
</svg>
