<svg width="282" height="781" viewBox="0 0 282 781" fill="none" xmlns="http://www.w3.org/2000/svg">
<g clip-path="url(#clip0_201_10770)">
<path d="M1.34961 390.323L40.3819 351.291L79.4142 390.323L40.3819 429.355L1.34961 390.323Z" fill="#3A86FF"/>
<path d="M40.3824 429.355L20.8662 409.839L59.8985 370.807L79.4147 390.323L40.3824 429.355Z" fill="#FFBE0B"/>
<path d="M40.3818 351.291L79.4141 312.258L118.446 351.291L79.4141 390.323L40.3818 351.291Z" fill="#FF006E"/>
<path d="M79.4146 312.258C90.1931 323.037 90.1931 340.512 79.4146 351.291C68.6361 362.069 51.1608 362.069 40.3823 351.291L59.8985 331.774L79.4146 312.258Z" fill="#FFBE0B"/>
<path d="M40.3818 429.355L79.4141 390.323L118.446 429.355L79.4141 468.388L40.3818 429.355Z" fill="#8338EC"/>
<path d="M79.4141 390.323L118.446 351.291L157.479 390.323L118.446 429.355L79.4141 390.323Z" fill="#FFBE0B"/>
<path d="M118.447 429.355C107.668 418.577 107.668 401.101 118.447 390.323C129.225 379.544 146.701 379.544 157.479 390.323L137.963 409.839L118.447 429.355Z" fill="#FF006E"/>
<path d="M79.4146 468.388L157.479 390.323L235.544 468.388L157.479 546.452L79.4146 468.388Z" fill="#3A86FF"/>
<path d="M79.4146 468.388L118.447 429.355L196.511 507.42L157.479 546.452L79.4146 468.388Z" fill="#FFBE0B"/>
<path d="M157.479 546.452L196.511 507.42L235.544 546.452L196.511 585.484L157.479 546.452Z" fill="#FF006E"/>
<path d="M157.479 546.452L196.511 507.42L196.511 585.484L157.479 546.452Z" fill="#3A86FF"/>
<path d="M196.511 507.42L235.544 468.388L274.576 507.42L235.544 546.452L196.511 507.42Z" fill="#8338EC"/>
<path d="M196.512 585.484L235.544 546.452L274.576 585.484L235.544 624.517L196.512 585.484Z" fill="#FB5607"/>
<path d="M274.576 585.484L235.544 624.517L235.544 546.452L274.576 585.484Z" fill="#FF006E"/>
<path d="M235.543 546.452L274.576 507.42L313.608 546.452L274.576 585.484L235.543 546.452Z" fill="#FF006E"/>
<path d="M313.608 546.452L294.092 565.968L255.06 526.936L274.576 507.42L313.608 546.452Z" fill="#3A86FF"/>
<path d="M235.543 624.517L313.608 546.452L391.673 624.517L313.608 702.581L235.543 624.517Z" fill="#FB5607"/>
<path d="M313.608 702.581C292.051 681.024 292.051 646.074 313.608 624.517C335.165 602.96 370.116 602.96 391.673 624.517L352.64 663.549L313.608 702.581Z" fill="#8338EC"/>
<path d="M79.4146 312.258L118.447 273.226L157.479 312.258L118.447 351.291L79.4146 312.258Z" fill="#FB5607"/>
<path d="M79.4146 312.258L118.447 273.226L118.447 351.291L79.4146 312.258Z" fill="#8338EC"/>
<path d="M118.446 273.226L157.479 234.194L196.511 273.226L157.479 312.258L118.446 273.226Z" fill="#3A86FF"/>
<path d="M118.446 351.291L157.479 312.258L196.511 351.291L157.479 390.323L118.446 351.291Z" fill="#FB5607"/>
<path d="M157.479 390.323L137.963 370.807L176.995 331.774L196.511 351.291L157.479 390.323Z" fill="#3A86FF"/>
<path d="M157.479 312.258L196.511 273.226L235.544 312.258L196.511 351.291L157.479 312.258Z" fill="#FF006E"/>
<path d="M235.544 312.258C224.765 323.037 207.29 323.037 196.511 312.258C185.733 301.48 185.733 284.005 196.511 273.226L216.027 292.742L235.544 312.258Z" fill="#FB5607"/>
<path d="M157.479 390.323L196.512 351.291L235.544 390.323L196.512 429.355L157.479 390.323Z" fill="#FB5607"/>
<path d="M196.511 351.291C207.29 362.069 207.29 379.544 196.511 390.323C185.733 401.101 168.257 401.101 157.479 390.323L176.995 370.807L196.511 351.291Z" fill="#FFBE0B"/>
<path d="M196.511 351.291L235.544 312.258L274.576 351.291L235.544 390.323L196.511 351.291Z" fill="#FF006E"/>
<path d="M196.511 351.291L216.027 331.775L255.06 370.807L235.544 390.323L196.511 351.291Z" fill="#8338EC"/>
<path d="M196.511 429.355L235.544 390.323L274.576 429.355L235.544 468.388L196.511 429.355Z" fill="#FF006E"/>
<path d="M235.544 468.388L196.511 429.355L274.576 429.355L235.544 468.388Z" fill="#3A86FF"/>
<path d="M235.544 390.323L274.576 351.291L313.609 390.323L274.576 429.355L235.544 390.323Z" fill="#FB5607"/>
<path d="M274.576 429.355L255.06 409.839L294.092 370.807L313.608 390.323L274.576 429.355Z" fill="#8338EC"/>
<path d="M235.543 468.388L274.576 429.355L313.608 468.387L274.576 507.42L235.543 468.388Z" fill="#FB5607"/>
<path d="M313.608 468.388C302.83 479.166 285.354 479.166 274.576 468.388C263.797 457.609 263.797 440.134 274.576 429.355L294.092 448.871L313.608 468.388Z" fill="#FFBE0B"/>
<path d="M274.576 429.355L313.608 390.323L352.64 429.355L313.608 468.388L274.576 429.355Z" fill="#FFBE0B"/>
<path d="M274.576 507.42L313.608 468.388L352.64 507.42L313.608 546.452L274.576 507.42Z" fill="#FF006E"/>
<path d="M313.608 468.388C324.386 479.166 324.386 496.641 313.608 507.42C302.83 518.198 285.354 518.198 274.576 507.42L294.092 487.904L313.608 468.388Z" fill="#8338EC"/>
<path d="M157.479 234.194L196.511 195.161L235.544 234.194L196.511 273.226L157.479 234.194Z" fill="#FFBE0B"/>
<path d="M196.512 195.161L235.544 156.129L274.576 195.161L235.544 234.194L196.512 195.161Z" fill="#8338EC"/>
<path d="M235.544 156.129L255.06 175.645L216.027 214.678L196.511 195.161L235.544 156.129Z" fill="#FB5607"/>
<path d="M196.511 273.226L235.544 234.194L274.576 273.226L235.544 312.258L196.511 273.226Z" fill="#3A86FF"/>
<path d="M235.543 234.194L274.576 195.161L313.608 234.194L274.576 273.226L235.543 234.194Z" fill="#3A86FF"/>
<path d="M235.543 312.258L274.576 273.226L313.608 312.258L274.576 351.291L235.543 312.258Z" fill="#FFBE0B"/>
<path d="M274.576 273.226L313.608 312.258L235.543 312.258L274.576 273.226Z" fill="#FF006E"/>
<path d="M274.576 273.226L313.608 234.194L352.64 273.226L313.608 312.258L274.576 273.226Z" fill="#8338EC"/>
<path d="M274.576 351.291L313.608 312.258L352.64 351.291L313.608 390.323L274.576 351.291Z" fill="#3A86FF"/>
<path d="M235.543 156.129L313.608 78.0646L391.673 156.129L313.608 234.194L235.543 156.129Z" fill="#FF006E"/>
<path d="M391.673 156.129L313.608 234.194L313.608 78.0646L391.673 156.129Z" fill="#FFBE0B"/>
<path d="M1.34961 390.323L40.3819 351.291L79.4142 390.323L40.3819 429.355L1.34961 390.323Z" fill="#8338EC"/>
<path d="M40.3818 351.291L79.4141 312.258L118.446 351.291L79.4141 390.323L40.3818 351.291Z" fill="#3A86FF"/>
<path d="M118.447 351.291L79.4146 390.323V312.258L118.447 351.291Z" fill="#8338EC"/>
<path d="M40.3818 429.355L79.4141 390.323L118.446 429.355L79.4141 468.388L40.3818 429.355Z" fill="#8338EC"/>
<path d="M118.447 429.355L79.4146 468.388V390.323L118.447 429.355Z" fill="#FB5607"/>
<path d="M79.4141 390.323L118.446 351.291L157.479 390.323L118.446 429.355L79.4141 390.323Z" fill="#3A86FF"/>
<path d="M79.4146 390.323L118.447 351.291V429.355L79.4146 390.323Z" fill="#FF006E"/>
<path d="M79.4146 468.388L157.479 390.323L235.544 468.388L157.479 546.452L79.4146 468.388Z" fill="#FF006E"/>
<path d="M157.479 546.452L196.511 507.42L235.544 546.452L196.511 585.484L157.479 546.452Z" fill="#3A86FF"/>
<path d="M196.511 585.484L157.479 546.452L235.544 546.452L196.511 585.484Z" fill="#FFBE0B"/>
<path d="M196.511 507.42L235.544 468.388L274.576 507.42L235.544 546.452L196.511 507.42Z" fill="#FB5607"/>
<path d="M235.544 468.388L255.06 487.904L216.027 526.936L196.511 507.42L235.544 468.388Z" fill="#FFBE0B"/>
<path d="M196.512 585.484L235.544 546.452L274.576 585.484L235.544 624.517L196.512 585.484Z" fill="#FF006E"/>
<path d="M235.543 546.452L274.576 507.42L313.608 546.452L274.576 585.484L235.543 546.452Z" fill="#3A86FF"/>
<path d="M235.543 624.517L274.576 585.484L313.608 624.517L274.576 663.549L235.543 624.517Z" fill="#8338EC"/>
<path d="M274.576 663.549L235.543 624.517L313.608 624.517L274.576 663.549Z" fill="#FB5607"/>
<path d="M274.576 585.484L313.608 546.452L352.64 585.484L313.608 624.517L274.576 585.484Z" fill="#FB5607"/>
<path d="M274.576 585.484L313.608 546.452L313.608 624.517L274.576 585.484Z" fill="#8338EC"/>
<path d="M274.576 663.549L313.608 624.517L352.641 663.549L313.608 702.581L274.576 663.549Z" fill="#8338EC"/>
<path d="M79.4146 312.258L157.479 234.194L235.544 312.258L157.479 390.323L79.4146 312.258Z" fill="#FB5607"/>
<path d="M235.544 312.258L157.479 390.323V234.194L235.544 312.258Z" fill="#FF006E"/>
<path d="M157.479 390.323L235.544 312.258L313.609 390.323L235.544 468.388L157.479 390.323Z" fill="#3A86FF"/>
<path d="M157.479 390.323C179.036 368.766 213.987 368.766 235.544 390.323C257.101 411.88 257.101 446.831 235.544 468.388L196.511 429.355L157.479 390.323Z" fill="#FB5607"/>
<path d="M235.543 468.388L313.608 390.323L391.673 468.388L313.608 546.452L235.543 468.388Z" fill="#FB5607"/>
<path d="M313.608 390.323L352.64 429.355L274.576 507.42L235.543 468.388L313.608 390.323Z" fill="#FFBE0B"/>
<path d="M157.479 234.194L196.511 195.161L235.544 234.194L196.511 273.226L157.479 234.194Z" fill="#3A86FF"/>
<path d="M196.511 195.161L235.544 234.194L157.479 234.194L196.511 195.161Z" fill="#FF006E"/>
<path d="M196.512 195.161L235.544 156.129L274.576 195.161L235.544 234.194L196.512 195.161Z" fill="#FB5607"/>
<path d="M235.544 156.129C246.322 166.908 246.322 184.383 235.544 195.161C224.765 205.94 207.29 205.94 196.511 195.161L216.027 175.645L235.544 156.129Z" fill="#8338EC"/>
<path d="M196.511 273.226L235.544 234.194L274.576 273.226L235.544 312.258L196.511 273.226Z" fill="#8338EC"/>
<path d="M235.543 234.194L274.576 195.161L313.608 234.194L274.576 273.226L235.543 234.194Z" fill="#8338EC"/>
<path d="M274.576 195.161C285.354 205.94 285.354 223.415 274.576 234.194C263.797 244.972 246.322 244.972 235.543 234.194L255.06 214.678L274.576 195.161Z" fill="#FFBE0B"/>
<path d="M235.543 312.258L313.608 234.194L391.673 312.258L313.608 390.323L235.543 312.258Z" fill="#FB5607"/>
<path d="M313.608 234.194C335.165 255.751 335.165 290.701 313.608 312.258C292.051 333.815 257.1 333.815 235.543 312.258L274.576 273.226L313.608 234.194Z" fill="#FFBE0B"/>
<path d="M235.543 156.129L274.576 117.097L313.608 156.129L274.576 195.162L235.543 156.129Z" fill="#3A86FF"/>
<path d="M274.576 117.097L313.608 156.129L235.543 156.129L274.576 117.097Z" fill="#8338EC"/>
<path d="M274.576 117.097L313.608 78.0646L352.641 117.097L313.608 156.129L274.576 117.097Z" fill="#FF006E"/>
<path d="M313.608 78.0646L352.64 117.097L274.576 117.097L313.608 78.0646Z" fill="#8338EC"/>
<path d="M274.576 195.161L313.608 156.129L352.64 195.161L313.608 234.194L274.576 195.161Z" fill="#3A86FF"/>
<path d="M274.576 195.161L313.608 156.129L313.608 234.194L274.576 195.161Z" fill="#FF006E"/>
<path d="M1.34961 390.323L79.4142 312.258L157.479 390.323L79.4142 468.388L1.34961 390.323Z" fill="#8338EC"/>
<path d="M79.4142 312.258L157.479 390.323H1.34961L79.4142 312.258Z" fill="#FB5607"/>
<path d="M79.4146 468.388L157.479 390.323L235.544 468.388L157.479 546.452L79.4146 468.388Z" fill="#FF006E"/>
<path d="M235.544 468.388L157.479 546.452V390.323L235.544 468.388Z" fill="#8338EC"/>
<path d="M157.479 546.452L196.511 507.42L235.544 546.452L196.511 585.484L157.479 546.452Z" fill="#8338EC"/>
<path d="M196.511 507.42L235.544 468.388L274.576 507.42L235.544 546.452L196.511 507.42Z" fill="#FB5607"/>
<path d="M274.576 507.42L255.06 526.936L216.027 487.904L235.543 468.388L274.576 507.42Z" fill="#FFBE0B"/>
<path d="M196.512 585.484L235.544 546.452L274.576 585.484L235.544 624.517L196.512 585.484Z" fill="#FB5607"/>
<path d="M196.511 585.484L216.027 565.968L255.06 605.001L235.544 624.517L196.511 585.484Z" fill="#8338EC"/>
<path d="M235.543 546.452L274.576 507.42L313.608 546.452L274.576 585.484L235.543 546.452Z" fill="#FB5607"/>
<path d="M274.576 507.42L294.092 526.936L255.06 565.968L235.543 546.452L274.576 507.42Z" fill="#8338EC"/>
<path d="M235.543 624.517L313.608 546.452L391.673 624.517L313.608 702.581L235.543 624.517Z" fill="#FB5607"/>
<path d="M79.4146 312.258L118.447 273.226L157.479 312.258L118.447 351.291L79.4146 312.258Z" fill="#8338EC"/>
<path d="M118.446 273.226L157.479 234.194L196.511 273.226L157.479 312.258L118.446 273.226Z" fill="#8338EC"/>
<path d="M157.479 234.194L176.995 253.71L137.963 292.742L118.447 273.226L157.479 234.194Z" fill="#FFBE0B"/>
<path d="M118.446 351.291L157.479 312.258L196.511 351.291L157.479 390.323L118.446 351.291Z" fill="#3A86FF"/>
<path d="M196.511 351.291C185.733 362.069 168.258 362.069 157.479 351.291C146.701 340.512 146.701 323.037 157.479 312.258L176.995 331.774L196.511 351.291Z" fill="#FB5607"/>
<path d="M157.479 312.258L196.511 273.226L235.544 312.258L196.511 351.291L157.479 312.258Z" fill="#FF006E"/>
<path d="M157.479 312.258L176.995 292.742L216.027 331.775L196.511 351.291L157.479 312.258Z" fill="#3A86FF"/>
<path d="M157.479 390.323L235.544 312.258L313.609 390.323L235.544 468.388L157.479 390.323Z" fill="#FFBE0B"/>
<path d="M157.479 390.323L196.511 351.291L274.576 429.355L235.544 468.388L157.479 390.323Z" fill="#3A86FF"/>
<path d="M235.543 468.388L313.608 390.323L391.673 468.388L313.608 546.452L235.543 468.388Z" fill="#8338EC"/>
<path d="M313.608 390.323L391.673 468.388L235.543 468.388L313.608 390.323Z" fill="#FB5607"/>
<path d="M157.479 234.194L196.511 195.161L235.544 234.194L196.511 273.226L157.479 234.194Z" fill="#FB5607"/>
<path d="M235.544 234.194C224.765 244.972 207.29 244.972 196.511 234.194C185.733 223.415 185.733 205.94 196.511 195.161L216.027 214.678L235.544 234.194Z" fill="#FFBE0B"/>
<path d="M196.512 195.161L235.544 156.129L274.576 195.161L235.544 234.194L196.512 195.161Z" fill="#8338EC"/>
<path d="M196.511 273.226L235.544 234.194L274.576 273.226L235.544 312.258L196.511 273.226Z" fill="#FF006E"/>
<path d="M235.543 312.258C224.765 301.48 224.765 284.005 235.543 273.226C246.322 262.448 263.797 262.448 274.576 273.226L255.06 292.742L235.543 312.258Z" fill="#8338EC"/>
<path d="M235.543 234.194L274.576 195.161L313.608 234.194L274.576 273.226L235.543 234.194Z" fill="#8338EC"/>
<path d="M235.543 234.194L255.06 214.678L294.092 253.71L274.576 273.226L235.543 234.194Z" fill="#3A86FF"/>
<path d="M235.543 312.258L274.576 273.226L313.608 312.258L274.576 351.291L235.543 312.258Z" fill="#3A86FF"/>
<path d="M274.576 273.226L313.608 312.258L235.543 312.258L274.576 273.226Z" fill="#8338EC"/>
<path d="M274.576 273.226L313.608 234.194L352.64 273.226L313.608 312.258L274.576 273.226Z" fill="#8338EC"/>
<path d="M313.608 234.194L333.124 253.71L294.092 292.742L274.576 273.226L313.608 234.194Z" fill="#FFBE0B"/>
<path d="M274.576 351.291L313.608 312.258L352.64 351.291L313.608 390.323L274.576 351.291Z" fill="#3A86FF"/>
<path d="M313.608 390.323L274.576 351.291H352.64L313.608 390.323Z" fill="#8338EC"/>
<path d="M235.543 156.129L274.576 117.097L313.608 156.129L274.576 195.162L235.543 156.129Z" fill="#FF006E"/>
<path d="M274.576 195.161L255.06 175.645L294.092 136.613L313.608 156.129L274.576 195.161Z" fill="#8338EC"/>
<path d="M274.576 117.097L313.608 78.0646L352.641 117.097L313.608 156.129L274.576 117.097Z" fill="#3A86FF"/>
<path d="M313.608 78.0646C324.386 88.8431 324.386 106.318 313.608 117.097C302.83 127.875 285.354 127.875 274.576 117.097L294.092 97.5807L313.608 78.0646Z" fill="#FFBE0B"/>
<path d="M274.576 195.161L313.608 156.129L352.64 195.161L313.608 234.194L274.576 195.161Z" fill="#FB5607"/>
<path d="M1.34961 390.323L40.3819 351.291L79.4142 390.323L40.3819 429.355L1.34961 390.323Z" fill="#FFBE0B"/>
<path d="M40.3819 351.291L79.4142 390.323H1.34961L40.3819 351.291Z" fill="#8338EC"/>
<path d="M40.3818 351.291L79.4141 312.258L118.446 351.291L79.4141 390.323L40.3818 351.291Z" fill="#8338EC"/>
<path d="M79.4146 312.258C90.1931 323.037 90.1931 340.512 79.4146 351.291C68.6361 362.069 51.1608 362.069 40.3823 351.291L59.8985 331.774L79.4146 312.258Z" fill="#FFBE0B"/>
<path d="M40.3818 429.355L79.4141 390.323L118.446 429.355L79.4141 468.388L40.3818 429.355Z" fill="#FFBE0B"/>
<path d="M40.3823 429.355L79.4146 390.323V468.388L40.3823 429.355Z" fill="#FB5607"/>
<path d="M79.4141 390.323L118.446 351.291L157.479 390.323L118.446 429.355L79.4141 390.323Z" fill="#FF006E"/>
<path d="M157.479 390.323L118.447 429.355V351.291L157.479 390.323Z" fill="#FB5607"/>
<path d="M79.4146 468.388L118.447 429.355L157.479 468.388L118.447 507.42L79.4146 468.388Z" fill="#FB5607"/>
<path d="M118.446 429.355L157.479 390.323L196.511 429.355L157.479 468.388L118.446 429.355Z" fill="#FB5607"/>
<path d="M196.511 429.355L157.479 468.388L157.479 390.323L196.511 429.355Z" fill="#FF006E"/>
<path d="M118.446 507.42L157.479 468.388L196.511 507.42L157.479 546.452L118.446 507.42Z" fill="#FFBE0B"/>
<path d="M157.479 468.388L176.995 487.904L137.963 526.936L118.447 507.42L157.479 468.388Z" fill="#FF006E"/>
<path d="M157.479 468.388L196.511 429.355L235.544 468.387L196.511 507.42L157.479 468.388Z" fill="#3A86FF"/>
<path d="M196.511 507.42C185.733 496.641 185.733 479.166 196.511 468.388C207.29 457.609 224.765 457.609 235.544 468.388L216.027 487.904L196.511 507.42Z" fill="#8338EC"/>
<path d="M157.479 546.452L235.544 468.387L313.608 546.452L235.544 624.517L157.479 546.452Z" fill="#3A86FF"/>
<path d="M235.543 624.517L313.608 546.452L391.673 624.517L313.608 702.581L235.543 624.517Z" fill="#FB5607"/>
<path d="M79.4146 312.258L118.447 273.226L157.479 312.258L118.447 351.291L79.4146 312.258Z" fill="#8338EC"/>
<path d="M118.447 273.226C129.225 284.005 129.225 301.48 118.447 312.258C107.668 323.037 90.193 323.037 79.4146 312.258L98.9307 292.742L118.447 273.226Z" fill="#3A86FF"/>
<path d="M118.446 273.226L157.479 234.194L196.511 273.226L157.479 312.258L118.446 273.226Z" fill="#FFBE0B"/>
<path d="M196.511 273.226L157.479 312.258L157.479 234.194L196.511 273.226Z" fill="#FF006E"/>
<path d="M118.446 351.291L157.479 312.258L196.511 351.291L157.479 390.323L118.446 351.291Z" fill="#3A86FF"/>
<path d="M157.479 312.258L196.511 351.291L118.447 351.291L157.479 312.258Z" fill="#FFBE0B"/>
<path d="M157.479 312.258L196.511 273.226L235.544 312.258L196.511 351.291L157.479 312.258Z" fill="#FFBE0B"/>
<path d="M157.479 390.323L235.544 312.258L313.609 390.323L235.544 468.388L157.479 390.323Z" fill="#8338EC"/>
<path d="M313.608 390.323C292.051 411.88 257.1 411.88 235.544 390.323C213.987 368.766 213.987 333.815 235.544 312.258L274.576 351.291L313.608 390.323Z" fill="#FB5607"/>
<path d="M235.543 468.388L274.576 429.355L313.608 468.387L274.576 507.42L235.543 468.388Z" fill="#8338EC"/>
<path d="M313.608 468.388L274.576 507.42L274.576 429.355L313.608 468.388Z" fill="#FFBE0B"/>
<path d="M274.576 429.355L313.608 390.323L352.64 429.355L313.608 468.388L274.576 429.355Z" fill="#FF006E"/>
<path d="M274.576 507.42L313.608 468.388L352.64 507.42L313.608 546.452L274.576 507.42Z" fill="#FF006E"/>
<path d="M157.479 234.194L235.544 156.129L313.608 234.194L235.544 312.258L157.479 234.194Z" fill="#3A86FF"/>
<path d="M235.544 156.129L313.608 234.194L157.479 234.194L235.544 156.129Z" fill="#FFBE0B"/>
<path d="M235.543 312.258L313.608 234.194L391.673 312.258L313.608 390.323L235.543 312.258Z" fill="#FFBE0B"/>
<path d="M235.543 312.258C257.1 290.701 292.051 290.701 313.608 312.258C335.165 333.815 335.165 368.766 313.608 390.323L274.576 351.291L235.543 312.258Z" fill="#FB5607"/>
<path d="M235.543 156.129L274.576 117.097L313.608 156.129L274.576 195.162L235.543 156.129Z" fill="#FB5607"/>
<path d="M274.576 117.097L294.092 136.613L255.06 175.645L235.543 156.129L274.576 117.097Z" fill="#FFBE0B"/>
<path d="M274.576 117.097L313.608 78.0646L352.641 117.097L313.608 156.129L274.576 117.097Z" fill="#8338EC"/>
<path d="M274.576 117.097L313.608 78.0646L313.608 156.129L274.576 117.097Z" fill="#FFBE0B"/>
<path d="M274.576 195.161L313.608 156.129L352.64 195.161L313.608 234.194L274.576 195.161Z" fill="#FB5607"/>
<path d="M313.608 156.129L352.64 195.161L274.576 195.161L313.608 156.129Z" fill="#FFBE0B"/>
<path d="M1.34961 390.323L40.3819 351.291L79.4142 390.323L40.3819 429.355L1.34961 390.323Z" fill="#3A86FF"/>
<path d="M40.3824 429.355L20.8662 409.839L59.8985 370.807L79.4147 390.323L40.3824 429.355Z" fill="#FB5607"/>
<path d="M40.3818 351.291L79.4141 312.258L118.446 351.291L79.4141 390.323L40.3818 351.291Z" fill="#FF006E"/>
<path d="M79.4146 390.323L40.3823 351.291H118.447L79.4146 390.323Z" fill="#FB5607"/>
<path d="M40.3818 429.355L79.4141 390.323L118.446 429.355L79.4141 468.388L40.3818 429.355Z" fill="#3A86FF"/>
<path d="M79.4146 390.323L118.447 429.355H40.3823L79.4146 390.323Z" fill="#8338EC"/>
<path d="M79.4141 390.323L118.446 351.291L157.479 390.323L118.446 429.355L79.4141 390.323Z" fill="#FB5607"/>
<path d="M118.447 429.355L98.9307 409.839L137.963 370.807L157.479 390.323L118.447 429.355Z" fill="#FF006E"/>
<path d="M79.4146 468.388L157.479 390.323L235.544 468.388L157.479 546.452L79.4146 468.388Z" fill="#8338EC"/>
<path d="M157.479 546.452L118.447 507.42L196.511 429.355L235.544 468.388L157.479 546.452Z" fill="#FB5607"/>
<path d="M157.479 546.452L196.511 507.42L235.544 546.452L196.511 585.484L157.479 546.452Z" fill="#FFBE0B"/>
<path d="M235.544 546.452L216.027 565.968L176.995 526.936L196.511 507.42L235.544 546.452Z" fill="#FB5607"/>
<path d="M196.511 507.42L235.544 468.388L274.576 507.42L235.544 546.452L196.511 507.42Z" fill="#FF006E"/>
<path d="M235.544 468.388L274.576 507.42L196.511 507.42L235.544 468.388Z" fill="#8338EC"/>
<path d="M196.512 585.484L235.544 546.452L274.576 585.484L235.544 624.517L196.512 585.484Z" fill="#FF006E"/>
<path d="M274.576 585.484L235.544 624.517L235.544 546.452L274.576 585.484Z" fill="#FFBE0B"/>
<path d="M235.543 546.452L274.576 507.42L313.608 546.452L274.576 585.484L235.543 546.452Z" fill="#FFBE0B"/>
<path d="M274.576 585.484C263.797 574.706 263.797 557.231 274.576 546.452C285.354 535.674 302.83 535.674 313.608 546.452L294.092 565.968L274.576 585.484Z" fill="#FF006E"/>
<path d="M235.543 624.517L274.576 585.484L313.608 624.517L274.576 663.549L235.543 624.517Z" fill="#8338EC"/>
<path d="M274.576 585.484L294.092 605.001L255.06 644.033L235.543 624.517L274.576 585.484Z" fill="#FF006E"/>
<path d="M274.576 585.484L313.608 546.452L352.64 585.484L313.608 624.517L274.576 585.484Z" fill="#FF006E"/>
<path d="M313.608 546.452L333.124 565.968L294.092 605.001L274.576 585.484L313.608 546.452Z" fill="#3A86FF"/>
<path d="M274.576 663.549L313.608 624.517L352.641 663.549L313.608 702.581L274.576 663.549Z" fill="#3A86FF"/>
<path d="M274.576 663.549L313.608 624.517L313.608 702.581L274.576 663.549Z" fill="#FF006E"/>
<path d="M79.4146 312.258L118.447 273.226L157.479 312.258L118.447 351.291L79.4146 312.258Z" fill="#8338EC"/>
<path d="M118.447 273.226L137.963 292.742L98.9307 331.774L79.4146 312.258L118.447 273.226Z" fill="#FB5607"/>
<path d="M118.446 273.226L157.479 234.194L196.511 273.226L157.479 312.258L118.446 273.226Z" fill="#FFBE0B"/>
<path d="M118.446 351.291L157.479 312.258L196.511 351.291L157.479 390.323L118.446 351.291Z" fill="#FF006E"/>
<path d="M157.479 390.323C146.701 379.544 146.701 362.069 157.479 351.291C168.258 340.512 185.733 340.512 196.511 351.291L176.995 370.807L157.479 390.323Z" fill="#3A86FF"/>
<path d="M157.479 312.258L196.511 273.226L235.544 312.258L196.511 351.291L157.479 312.258Z" fill="#FB5607"/>
<path d="M157.479 312.258L176.995 292.742L216.027 331.775L196.511 351.291L157.479 312.258Z" fill="#8338EC"/>
<path d="M157.479 390.323L196.512 351.291L235.544 390.323L196.512 429.355L157.479 390.323Z" fill="#FB5607"/>
<path d="M196.511 351.291L235.544 312.258L274.576 351.291L235.544 390.323L196.511 351.291Z" fill="#FF006E"/>
<path d="M235.544 312.258L274.576 351.291L196.511 351.291L235.544 312.258Z" fill="#8338EC"/>
<path d="M196.511 429.355L235.544 390.323L274.576 429.355L235.544 468.388L196.511 429.355Z" fill="#FFBE0B"/>
<path d="M196.511 429.355L235.544 390.323L235.544 468.388L196.511 429.355Z" fill="#FB5607"/>
<path d="M235.544 390.323L274.576 351.291L313.609 390.323L274.576 429.355L235.544 390.323Z" fill="#FFBE0B"/>
<path d="M235.543 390.323L255.06 370.807L294.092 409.839L274.576 429.355L235.543 390.323Z" fill="#FF006E"/>
<path d="M235.543 468.388L313.608 390.323L391.673 468.388L313.608 546.452L235.543 468.388Z" fill="#FF006E"/>
<path d="M391.673 468.388L313.608 546.452L313.608 390.323L391.673 468.388Z" fill="#FB5607"/>
<path d="M157.479 234.194L235.544 156.129L313.608 234.194L235.544 312.258L157.479 234.194Z" fill="#FFBE0B"/>
<path d="M313.608 234.194L274.576 273.226L196.511 195.161L235.544 156.129L313.608 234.194Z" fill="#8338EC"/>
<path d="M235.543 312.258L313.608 234.194L391.673 312.258L313.608 390.323L235.543 312.258Z" fill="#3A86FF"/>
<path d="M313.608 234.194L391.673 312.258L235.543 312.258L313.608 234.194Z" fill="#FB5607"/>
<path d="M235.543 156.129L274.576 117.097L313.608 156.129L274.576 195.162L235.543 156.129Z" fill="#3A86FF"/>
<path d="M313.608 156.129L294.092 175.645L255.06 136.613L274.576 117.097L313.608 156.129Z" fill="#FFBE0B"/>
<path d="M274.576 117.097L313.608 78.0646L352.641 117.097L313.608 156.129L274.576 117.097Z" fill="#FFBE0B"/>
<path d="M313.608 78.0646L352.64 117.097L274.576 117.097L313.608 78.0646Z" fill="#8338EC"/>
<path d="M274.576 195.161L313.608 156.129L352.64 195.161L313.608 234.194L274.576 195.161Z" fill="#3A86FF"/>
<path d="M1.34961 390.323L79.4142 312.258L157.479 390.323L79.4142 468.388L1.34961 390.323Z" fill="#FF006E"/>
<path d="M79.4146 468.388L157.479 390.323L235.544 468.388L157.479 546.452L79.4146 468.388Z" fill="#FFBE0B"/>
<path d="M157.479 546.452L196.511 507.42L235.544 546.452L196.511 585.484L157.479 546.452Z" fill="#FB5607"/>
<path d="M196.511 507.42L235.544 468.388L274.576 507.42L235.544 546.452L196.511 507.42Z" fill="#FF006E"/>
<path d="M235.544 468.388L255.06 487.904L216.027 526.936L196.511 507.42L235.544 468.388Z" fill="#FB5607"/>
<path d="M196.512 585.484L235.544 546.452L274.576 585.484L235.544 624.517L196.512 585.484Z" fill="#FB5607"/>
<path d="M235.544 546.452L274.576 585.484L196.511 585.484L235.544 546.452Z" fill="#3A86FF"/>
<path d="M235.543 546.452L274.576 507.42L313.608 546.452L274.576 585.484L235.543 546.452Z" fill="#8338EC"/>
<path d="M274.576 507.42L294.092 526.936L255.06 565.968L235.543 546.452L274.576 507.42Z" fill="#FF006E"/>
<path d="M235.543 624.517L274.576 585.484L313.608 624.517L274.576 663.549L235.543 624.517Z" fill="#3A86FF"/>
<path d="M274.576 585.484C285.354 596.263 285.354 613.738 274.576 624.517C263.797 635.295 246.322 635.295 235.543 624.517L255.06 605.001L274.576 585.484Z" fill="#FF006E"/>
<path d="M274.576 585.484L313.608 546.452L352.64 585.484L313.608 624.517L274.576 585.484Z" fill="#3A86FF"/>
<path d="M274.576 585.484L294.092 565.968L333.124 605.001L313.608 624.517L274.576 585.484Z" fill="#FF006E"/>
<path d="M274.576 663.549L313.608 624.517L352.641 663.549L313.608 702.581L274.576 663.549Z" fill="#FFBE0B"/>
<path d="M352.64 663.549L313.608 702.581L313.608 624.517L352.64 663.549Z" fill="#FF006E"/>
<path d="M79.4146 312.258L118.447 273.226L157.479 312.258L118.447 351.291L79.4146 312.258Z" fill="#FB5607"/>
<path d="M118.447 273.226C129.225 284.005 129.225 301.48 118.447 312.258C107.668 323.037 90.193 323.037 79.4146 312.258L98.9307 292.742L118.447 273.226Z" fill="#8338EC"/>
<path d="M118.446 273.226L157.479 234.194L196.511 273.226L157.479 312.258L118.446 273.226Z" fill="#8338EC"/>
<path d="M196.511 273.226L157.479 312.258L157.479 234.194L196.511 273.226Z" fill="#3A86FF"/>
<path d="M118.446 351.291L157.479 312.258L196.511 351.291L157.479 390.323L118.446 351.291Z" fill="#8338EC"/>
<path d="M157.479 312.258L176.995 331.774L137.963 370.807L118.447 351.291L157.479 312.258Z" fill="#FB5607"/>
<path d="M157.479 312.258L196.511 273.226L235.544 312.258L196.511 351.291L157.479 312.258Z" fill="#FF006E"/>
<path d="M235.544 312.258L196.511 351.291L196.511 273.226L235.544 312.258Z" fill="#8338EC"/>
<path d="M157.479 390.323L235.544 312.258L313.609 390.323L235.544 468.388L157.479 390.323Z" fill="#8338EC"/>
<path d="M157.479 390.323L196.511 351.291L274.576 429.355L235.544 468.388L157.479 390.323Z" fill="#FB5607"/>
<path d="M235.543 468.388L274.576 429.355L313.608 468.387L274.576 507.42L235.543 468.388Z" fill="#FF006E"/>
<path d="M313.608 468.388L294.092 487.904L255.06 448.871L274.576 429.355L313.608 468.388Z" fill="#FB5607"/>
<path d="M274.576 429.355L313.608 390.323L352.64 429.355L313.608 468.388L274.576 429.355Z" fill="#FB5607"/>
<path d="M274.576 507.42L313.608 468.388L352.64 507.42L313.608 546.452L274.576 507.42Z" fill="#FFBE0B"/>
<path d="M274.576 507.42L313.608 468.388L313.608 546.452L274.576 507.42Z" fill="#8338EC"/>
<path d="M157.479 234.194L235.544 156.129L313.608 234.194L235.544 312.258L157.479 234.194Z" fill="#FF006E"/>
<path d="M235.543 312.258L313.608 234.194L391.673 312.258L313.608 390.323L235.543 312.258Z" fill="#FFBE0B"/>
<path d="M235.543 156.129L274.576 117.097L313.608 156.129L274.576 195.162L235.543 156.129Z" fill="#8338EC"/>
<path d="M274.576 117.097L313.608 156.129L235.543 156.129L274.576 117.097Z" fill="#FFBE0B"/>
<path d="M274.576 117.097L313.608 78.0646L352.641 117.097L313.608 156.129L274.576 117.097Z" fill="#3A86FF"/>
<path d="M274.576 117.097L294.092 97.5807L333.124 136.613L313.608 156.129L274.576 117.097Z" fill="#FFBE0B"/>
<path d="M274.576 195.161L313.608 156.129L352.64 195.161L313.608 234.194L274.576 195.161Z" fill="#8338EC"/>
<path d="M313.608 156.129L352.64 195.161L274.576 195.161L313.608 156.129Z" fill="#FFBE0B"/>
<path d="M1.34961 390.323L79.4142 312.258L157.479 390.323L79.4142 468.388L1.34961 390.323Z" fill="#3A86FF"/>
<path d="M79.4146 468.388L118.447 429.355L157.479 468.388L118.447 507.42L79.4146 468.388Z" fill="#FFBE0B"/>
<path d="M157.479 468.388C146.701 479.166 129.225 479.166 118.447 468.388C107.668 457.609 107.668 440.134 118.447 429.355L137.963 448.871L157.479 468.388Z" fill="#8338EC"/>
<path d="M118.446 429.355L157.479 390.323L196.511 429.355L157.479 468.388L118.446 429.355Z" fill="#3A86FF"/>
<path d="M157.479 468.388L137.963 448.871L176.995 409.839L196.511 429.355L157.479 468.388Z" fill="#8338EC"/>
<path d="M118.446 507.42L157.479 468.388L196.511 507.42L157.479 546.452L118.446 507.42Z" fill="#8338EC"/>
<path d="M157.479 468.388L196.511 429.355L235.544 468.387L196.511 507.42L157.479 468.388Z" fill="#8338EC"/>
<path d="M157.479 468.388L196.511 429.355L196.511 507.42L157.479 468.388Z" fill="#3A86FF"/>
<path d="M157.479 546.452L196.511 507.42L235.544 546.452L196.511 585.484L157.479 546.452Z" fill="#FB5607"/>
<path d="M235.544 546.452L216.027 565.968L176.995 526.936L196.511 507.42L235.544 546.452Z" fill="#8338EC"/>
<path d="M196.511 507.42L235.544 468.388L274.576 507.42L235.544 546.452L196.511 507.42Z" fill="#3A86FF"/>
<path d="M196.511 507.42C207.29 496.641 224.765 496.641 235.544 507.42C246.322 518.198 246.322 535.674 235.544 546.452L216.027 526.936L196.511 507.42Z" fill="#FB5607"/>
<path d="M196.512 585.484L235.544 546.452L274.576 585.484L235.544 624.517L196.512 585.484Z" fill="#8338EC"/>
<path d="M235.544 546.452L255.06 565.968L216.027 605.001L196.511 585.484L235.544 546.452Z" fill="#FFBE0B"/>
<path d="M235.543 546.452L274.576 507.42L313.608 546.452L274.576 585.484L235.543 546.452Z" fill="#FF006E"/>
<path d="M274.576 585.484C263.797 574.706 263.797 557.231 274.576 546.452C285.354 535.674 302.83 535.674 313.608 546.452L294.092 565.968L274.576 585.484Z" fill="#FB5607"/>
<path d="M235.543 624.517L313.608 546.452L391.673 624.517L313.608 702.581L235.543 624.517Z" fill="#8338EC"/>
<path d="M79.4146 312.258L157.479 234.194L235.544 312.258L157.479 390.323L79.4146 312.258Z" fill="#3A86FF"/>
<path d="M157.479 390.323C135.922 368.766 135.922 333.815 157.479 312.258C179.036 290.701 213.987 290.701 235.544 312.258L196.511 351.291L157.479 390.323Z" fill="#FFBE0B"/>
<path d="M157.479 390.323L196.512 351.291L235.544 390.323L196.512 429.355L157.479 390.323Z" fill="#FFBE0B"/>
<path d="M235.544 390.323L216.027 409.839L176.995 370.807L196.511 351.291L235.544 390.323Z" fill="#FF006E"/>
<path d="M196.511 351.291L235.544 312.258L274.576 351.291L235.544 390.323L196.511 351.291Z" fill="#FB5607"/>
<path d="M196.511 429.355L235.544 390.323L274.576 429.355L235.544 468.388L196.511 429.355Z" fill="#3A86FF"/>
<path d="M274.576 429.355C263.797 440.134 246.322 440.134 235.543 429.355C224.765 418.577 224.765 401.101 235.543 390.323L255.06 409.839L274.576 429.355Z" fill="#FB5607"/>
<path d="M235.544 390.323L274.576 351.291L313.609 390.323L274.576 429.355L235.544 390.323Z" fill="#8338EC"/>
<path d="M313.608 390.323L294.092 409.839L255.06 370.807L274.576 351.291L313.608 390.323Z" fill="#FFBE0B"/>
<path d="M235.543 468.388L313.608 390.323L391.673 468.388L313.608 546.452L235.543 468.388Z" fill="#3A86FF"/>
<path d="M235.543 468.388C257.1 446.831 292.051 446.831 313.608 468.388C335.165 489.944 335.165 524.895 313.608 546.452L274.576 507.42L235.543 468.388Z" fill="#FB5607"/>
<path d="M157.479 234.194L196.511 195.161L235.544 234.194L196.511 273.226L157.479 234.194Z" fill="#FFBE0B"/>
<path d="M196.512 195.161L235.544 156.129L274.576 195.161L235.544 234.194L196.512 195.161Z" fill="#3A86FF"/>
<path d="M274.576 195.161L255.06 214.678L216.027 175.645L235.543 156.129L274.576 195.161Z" fill="#FF006E"/>
<path d="M196.511 273.226L235.544 234.194L274.576 273.226L235.544 312.258L196.511 273.226Z" fill="#FFBE0B"/>
<path d="M196.511 273.226L235.544 234.194L235.544 312.258L196.511 273.226Z" fill="#8338EC"/>
<path d="M235.543 234.194L274.576 195.161L313.608 234.194L274.576 273.226L235.543 234.194Z" fill="#FB5607"/>
<path d="M235.543 312.258L274.576 273.226L313.608 312.258L274.576 351.291L235.543 312.258Z" fill="#3A86FF"/>
<path d="M274.576 351.291C263.797 340.512 263.797 323.037 274.576 312.258C285.354 301.48 302.83 301.48 313.608 312.258L294.092 331.775L274.576 351.291Z" fill="#FFBE0B"/>
<path d="M274.576 273.226L313.608 234.194L352.64 273.226L313.608 312.258L274.576 273.226Z" fill="#8338EC"/>
<path d="M274.576 351.291L313.608 312.258L352.64 351.291L313.608 390.323L274.576 351.291Z" fill="#3A86FF"/>
<path d="M235.543 156.129L274.576 117.097L313.608 156.129L274.576 195.162L235.543 156.129Z" fill="#FB5607"/>
<path d="M274.576 117.097C285.354 127.875 285.354 145.351 274.576 156.129C263.797 166.908 246.322 166.908 235.543 156.129L255.06 136.613L274.576 117.097Z" fill="#FFBE0B"/>
<path d="M274.576 117.097L313.608 78.0646L352.641 117.097L313.608 156.129L274.576 117.097Z" fill="#3A86FF"/>
<path d="M274.576 195.161L313.608 156.129L352.64 195.161L313.608 234.194L274.576 195.161Z" fill="#3A86FF"/>
</g>
<defs>
<clipPath id="clip0_201_10770">
<rect width="552" height="552" fill="white" transform="translate(0.350098 390.323) rotate(-45)"/>
</clipPath>
</defs>
</svg>
