<svg width="21" height="20" viewBox="0 0 21 20" fill="none" xmlns="http://www.w3.org/2000/svg">
    <path d="M10.9157 6.66525C9.07947 6.66525 7.58096 8.16376 7.58096 10C7.58096 11.8362 9.07947 13.3348 10.9157 13.3348C12.752 13.3348 14.2505 11.8362 14.2505 10C14.2505 8.16376 12.752 6.66525 10.9157 6.66525ZM20.9175 10C20.9175 8.61907 20.93 7.25064 20.8524 5.87221C20.7749 4.27113 20.4096 2.85017 19.2388 1.67938C18.0655 0.506085 16.6471 0.14334 15.046 0.065788C13.6651 -0.0117644 12.2966 0.000744113 10.9182 0.000744113C9.53728 0.000744113 8.16886 -0.0117644 6.79043 0.065788C5.18934 0.14334 3.76838 0.508587 2.59759 1.67938C1.4243 2.85267 1.06155 4.27113 0.984001 5.87221C0.906449 7.25314 0.918957 8.62157 0.918957 10C0.918957 11.3784 0.906449 12.7494 0.984001 14.1278C1.06155 15.7289 1.4268 17.1498 2.59759 18.3206C3.77088 19.4939 5.18934 19.8567 6.79043 19.9342C8.17136 20.0118 9.53978 19.9993 10.9182 19.9993C12.2991 19.9993 13.6676 20.0118 15.046 19.9342C16.6471 19.8567 18.0681 19.4914 19.2388 18.3206C20.4121 17.1473 20.7749 15.7289 20.8524 14.1278C20.9325 12.7494 20.9175 11.3809 20.9175 10ZM10.9157 15.131C8.07629 15.131 5.78475 12.8394 5.78475 10C5.78475 7.16058 8.07629 4.86903 10.9157 4.86903C13.7551 4.86903 16.0467 7.16058 16.0467 10C16.0467 12.8394 13.7551 15.131 10.9157 15.131ZM16.2568 5.8572C15.5939 5.8572 15.0585 5.32184 15.0585 4.65889C15.0585 3.99594 15.5939 3.46058 16.2568 3.46058C16.9198 3.46058 17.4551 3.99594 17.4551 4.65889C17.4553 4.81631 17.4245 4.97222 17.3643 5.1177C17.3042 5.26317 17.2159 5.39535 17.1046 5.50666C16.9933 5.61798 16.8611 5.70624 16.7156 5.76639C16.5702 5.82654 16.4142 5.8574 16.2568 5.8572Z"
          fill="white"/>
</svg>
