<svg width="230" height="50" viewBox="0 0 230 50" fill="none" xmlns="http://www.w3.org/2000/svg">
<path d="M159.471 46.1868L170.19 12.0308H160.118L153.387 35.4176L146.656 12.0308H136.235L146.904 46.1868H159.471Z" fill="white"/>
<path d="M122.575 20.7073C125.516 20.7073 126.962 22.2535 126.962 24.7957C126.962 27.3882 125.268 28.884 122.575 28.884H118.587V20.7073H122.575ZM123.621 37.5606C132.247 37.5606 136.983 31.7284 136.983 24.3965C136.983 17.6653 132.844 12.0308 124.768 12.0308H108.764V46.1868H118.587V37.5606H123.621Z" fill="white"/>
<path d="M104.524 35.2665V26.8922H90.2636V20.7073H106.02V12.0308H80.4399V46.1868H90.2636V35.2665H104.524Z" fill="white"/>
<path d="M222.094 34.6697H206.985L214.565 15.4719L222.094 34.6697ZM226.632 46.1868H229.473L215.91 12.0308H213.267L199.754 46.1868H202.447L205.989 37.1615H223.09L226.632 46.1868Z" fill="#C0BEFF"/>
<path d="M186.093 46.6863C194.072 46.6863 199.207 41.4005 199.207 33.0262V12.0342H196.564V32.7743C196.564 40.0054 192.673 44.1906 186.093 44.1906C179.513 44.1906 175.622 40.0015 175.622 32.7743V12.0342H172.979V33.0262C172.979 41.4005 178.118 46.6863 186.093 46.6863Z" fill="#C0BEFF"/>
<path d="M16.8748 16.6084H5.88086V50.001H16.0881V42.828H26.5745V34.1243H20.6454C17.8475 34.1243 16.0843 32.5704 16.0843 29.8771C16.0843 27.2342 17.5879 25.6299 20.6454 25.6299H22.366L16.8748 16.6084Z" fill="white"/>
<path d="M39.7465 10.4131L33.4648 18.6518L27.4505 10.4131H13.1045L33.3021 34.1177L54.4025 10.4131H39.7465Z" fill="#C0BEFF"/>
<path d="M39.5334 8.43805C38.8242 8.20554 39.0529 8.41092 37.5687 7.62038C36.0844 6.82596 34.6894 4.65973 37.3633 2.96626C41.4555 0.37375 52.713 -0.796562 60.2541 0.586886C67.7952 1.97421 67.9231 3.52429 67.2488 5.179C66.7916 6.29893 65.195 7.28324 63.145 8.02728C63.7263 7.55063 63.7999 7.01585 63.1334 6.50045C62.3196 5.86879 61.8042 5.44251 57.3981 4.96199C52.992 4.48146 45.4624 4.83411 41.8043 5.89591C39.0374 6.69808 38.4289 7.63588 39.5334 8.43805Z" fill="#C0BEFF"/>
<path d="M27.9736 8.43805C28.6828 8.20554 28.4541 8.41092 29.9384 7.62038C31.4226 6.82596 32.8176 4.65973 30.1437 2.96626C26.0515 0.37375 14.7941 -0.796562 7.2529 0.586886C-0.288243 1.97421 -0.416126 3.52429 0.258159 5.179C0.715433 6.29893 2.31202 7.28324 4.362 8.02728C3.78072 7.54675 3.70709 7.01585 4.37363 6.50045C5.18742 5.86879 5.70282 5.44251 10.1089 4.96199C14.515 4.48146 22.0446 4.83411 25.7028 5.89591C28.4697 6.69808 29.0781 7.63588 27.9736 8.43805Z" fill="#C0BEFF"/>
<path d="M47.9075 43.1378C56.8709 43.1378 61.7963 37.0731 61.7963 29.4583C61.7963 22.7504 57.8397 17.0887 50.1125 16.6392L43.9122 25.6258H46.8225C49.88 25.6258 51.3836 27.2301 51.3836 29.873C51.3836 32.5662 49.6204 34.1202 46.8225 34.1202H43.5208H42.676H38.0451L32.4648 42.2078V50.0008H42.6721V43.1378H47.9075Z" fill="white"/>
<path fill-rule="evenodd" clip-rule="evenodd" d="M46.2412 32.2712C44.8848 32.2712 43.7843 31.1706 43.7843 29.8143C43.7843 28.458 44.8848 27.3574 46.2412 27.3574C47.5975 27.3574 48.698 28.458 48.698 29.8143C48.698 31.1706 47.5975 32.2712 46.2412 32.2712ZM21.2655 32.2712C19.9092 32.2712 18.8086 31.1706 18.8086 29.8143C18.8086 28.458 19.9092 27.3574 21.2655 27.3574C22.6218 27.3574 23.7224 28.458 23.7224 29.8143C23.7224 31.1706 22.6218 32.2712 21.2655 32.2712Z" fill="white"/>
</svg>
