<svg width="105" height="40" viewBox="0 0 105 40" fill="none" xmlns="http://www.w3.org/2000/svg">
    <path d="M32.7227 0.0376968C32.336 0.208926 30.9727 2.06856 29.3105 4.6808C27.6442 7.301 24.6466 12.3423 24.7224 12.402C24.7383 12.418 24.9336 12.4896 25.1529 12.5613C26.1375 12.8839 27.1181 13.4533 27.9791 14.2139C28.2382 14.4448 28.2541 14.4488 28.3099 14.3772C28.4016 14.2497 29.9682 11.4901 30.7654 10.0566C32.4994 6.92271 33.7511 4.47771 34.4487 2.85302C34.7237 2.21191 34.9788 1.41549 34.9509 1.29603C34.8035 0.690758 33.2369 -0.193263 32.7227 0.0376968Z"
          fill="#6E81BE"/>
    <path d="M21.8245 2.87283C16.3156 3.19538 11.4126 5.97088 8.39899 10.4786C7.18718 12.2904 6.32218 14.3293 5.87971 16.4238C5.81593 16.7225 5.7681 16.9694 5.77208 16.9734C5.78006 16.9773 6.15874 16.9654 6.61716 16.9455C8.11198 16.8778 11.0697 16.826 13.306 16.826H15.4904L15.5702 16.6428C15.6937 16.3482 16.0724 15.723 16.3754 15.3128C16.7142 14.8509 17.5393 14.0226 17.9898 13.7001C18.7551 13.1426 19.6122 12.7245 20.4931 12.4696C21.2904 12.2427 21.6292 12.1949 22.6178 12.1829L23.5067 12.171L24.2521 10.8848C25.6473 8.47959 27.1102 6.04256 28.1068 4.46964C28.314 4.14311 28.4815 3.86835 28.4735 3.86436C28.4655 3.8564 28.2064 3.77278 27.8915 3.66924C26.7913 3.31882 25.6473 3.07591 24.4514 2.94849C23.8854 2.88875 22.3308 2.84495 21.8245 2.87283Z"
          fill="#6E81BE"/>
    <path d="M33.5718 7.2372C32.4039 9.41938 32.0411 10.0844 31.4791 11.0919C31.1203 11.7369 30.4626 12.8917 30.0241 13.6603C29.5856 14.4248 29.183 15.1297 29.1312 15.2213L29.0355 15.3845L29.2508 15.719C29.5139 16.1212 29.7411 16.5433 29.9165 16.9535C29.9922 17.1247 30.064 17.2641 30.0799 17.2641C30.1078 17.2641 38.2875 12.9754 38.3194 12.9435C38.3513 12.9156 37.6258 11.5458 37.3149 11.0401C36.5655 9.82555 35.8639 8.94551 34.8036 7.88628C34.3611 7.44427 33.9465 7.04606 33.8748 6.99828L33.7472 6.91067L33.5718 7.2372Z"
          fill="#6E81BE"/>
    <path d="M21.928 13.6683C21.7566 13.6961 21.063 14.4089 20.7561 14.8669C20.3375 15.4921 20.0904 16.0894 19.9229 16.8699C19.7834 17.515 19.8432 18.8649 20.0346 19.3666C20.0744 19.4662 20.0784 19.4582 20.1781 19.1954C20.2339 19.0401 20.3016 18.833 20.3295 18.7295C20.3933 18.5065 20.9713 17.6304 21.3181 17.2282C22.3505 16.0416 23.8175 15.3368 25.4917 15.2133C25.7906 15.1894 26.3367 15.2253 26.827 15.293L26.9865 15.3169L26.7872 15.1337C26.3168 14.7036 25.4359 14.2059 24.7064 13.959C24.0168 13.728 23.67 13.6762 22.8209 13.6603C22.3944 13.6523 21.9918 13.6563 21.928 13.6683Z"
          fill="#6E81BE"/>
    <path d="M20.3893 14.0546C19.5442 14.3732 18.8387 14.8311 18.153 15.5121C17.6508 16.0138 17.2123 16.6231 16.9213 17.2244L16.7579 17.5668L16.8217 17.8615C17.1804 19.5698 18.3683 21.0073 19.9907 21.6923C20.178 21.7719 20.4371 21.8675 20.5687 21.9073C20.7002 21.9431 20.8318 21.9829 20.8637 21.9949C20.8955 22.0068 20.7999 21.8675 20.6484 21.6803C20.5009 21.4971 20.3534 21.3418 20.3295 21.3339C20.2578 21.3179 19.6917 20.1193 19.5522 19.6933C18.9463 17.8296 19.3609 15.5997 20.5767 14.1661C20.6763 14.0507 20.752 13.9471 20.7441 13.9392C20.7361 13.9312 20.5767 13.983 20.3893 14.0546Z"
          fill="#6E81BE"/>
    <path d="M25.3522 15.7947C24.1763 15.8863 23.0682 16.3681 22.1354 17.1964C21.9839 17.3278 21.8643 17.4472 21.8643 17.4632C21.8643 17.4791 21.9759 17.4672 22.1154 17.4393C22.251 17.4114 22.4184 17.3875 22.4902 17.3835C22.5579 17.3835 22.6297 17.3636 22.6416 17.3437C22.6974 17.2521 23.9371 17.3318 24.563 17.4672C25.6951 17.7101 26.6159 18.2238 27.4849 19.0918C28.1187 19.725 28.5452 20.3701 28.8202 21.0948C28.8601 21.1984 28.9039 21.274 28.9199 21.2661C28.9837 21.2262 29.0475 20.5652 29.0475 19.9918C29.0435 19.0122 28.8521 18.1521 28.4455 17.284C28.2502 16.8698 27.8954 16.2885 27.7759 16.1809C27.6762 16.0933 27.1022 15.9181 26.6916 15.8544C26.2332 15.7788 25.7867 15.7588 25.3522 15.7947Z"
          fill="#6E81BE"/>
    <path d="M9.60674 17.9848C4.20943 18.0923 0.693599 18.391 0.287006 18.7693C0.0876964 18.9564 0 19.3427 0 20.0117C0 20.9992 0.147489 21.2979 0.697585 21.4213C1.74994 21.6642 3.97823 21.8514 7.0755 21.9629C8.44676 22.0107 12.4051 22.0824 13.9676 22.0824C14.9762 22.0824 15.0957 22.0744 15.0718 22.0187C14.9522 21.7081 14.8087 20.609 14.8087 20.0117C14.8087 19.4144 14.9522 18.3153 15.0718 18.0047C15.0957 17.945 14.9084 17.941 13.0907 17.949C11.9865 17.953 10.4199 17.9689 9.60674 17.9848Z"
          fill="#6E81BE"/>
    <path d="M24.4553 18.0525C24.4553 18.0685 24.519 18.1441 24.5948 18.2198C24.6705 18.2954 24.7821 18.4229 24.8379 18.5065C24.8977 18.5901 24.9655 18.6578 24.9894 18.6578C25.0612 18.6578 25.6711 19.9122 25.8026 20.3303C26.0298 21.055 26.0697 21.3178 26.0697 22.162C26.0697 22.831 26.0577 22.9943 25.978 23.3527C25.7867 24.2048 25.408 25.0451 24.9296 25.6822C24.7781 25.8813 24.6625 26.0485 24.6705 26.0525C24.6944 26.0804 25.2286 25.8614 25.5834 25.6822C26.7952 25.0729 27.8635 23.9739 28.4494 22.7354C28.5969 22.4209 28.5969 22.4049 28.5571 22.1819C28.4933 21.8395 28.298 21.27 28.1226 20.9077C27.8834 20.4179 27.5804 19.9918 27.1579 19.5498C26.5201 18.8888 25.8225 18.4468 24.9535 18.1561C24.527 18.0127 24.4553 18.0008 24.4553 18.0525Z"
          fill="#6E81BE"/>
    <path d="M16.3593 19.0043C16.2756 19.5259 16.2875 20.621 16.3792 21.1068C16.5386 21.9669 16.8934 22.855 17.3598 23.5478L17.603 23.9102L17.9139 24.0098C18.5278 24.2049 18.8506 24.2527 19.5522 24.2487C20.0784 24.2487 20.2936 24.2288 20.6205 24.1611C21.338 24.0058 21.9918 23.727 22.5937 23.3288C22.8847 23.1297 23.5703 22.4966 23.4467 22.5364C23.4109 22.5483 23.2195 22.5802 23.0282 22.6081C22.8368 22.6359 22.6694 22.6718 22.6575 22.6917C22.6216 22.7435 21.3739 22.6598 20.9554 22.5802C20.19 22.4329 19.3011 22.0546 18.6553 21.5966C18.181 21.2661 17.5193 20.5971 17.2123 20.1471C16.9452 19.7569 16.6024 19.0999 16.5227 18.8251C16.4948 18.7335 16.4589 18.6578 16.439 18.6578C16.423 18.6578 16.3872 18.8131 16.3593 19.0043Z"
          fill="#6E81BE"/>
    <path d="M25.1411 20.8997C25.0653 21.1028 25.0015 21.3059 24.9936 21.3577C24.9856 21.4094 24.8062 21.7121 24.591 22.0346C23.5546 23.5916 22.1275 24.5194 20.3696 24.7703C19.7677 24.8579 18.9027 24.838 18.4562 24.7265C18.3247 24.6947 18.7273 25.0451 19.1219 25.3119C19.8035 25.7658 20.5848 26.0884 21.406 26.2636C21.8604 26.3592 22.7653 26.407 23.2357 26.3631L23.5466 26.3353L23.8854 26.0127C25.1331 24.8181 25.735 23.054 25.4719 21.3656C25.4201 21.0232 25.3165 20.5812 25.2846 20.5493C25.2766 20.5414 25.2128 20.7006 25.1411 20.8997Z"
          fill="#6E81BE"/>
    <path d="M5.79999 23.1296C5.79999 23.2969 6.03517 24.2924 6.22252 24.9096C6.85633 27.0321 7.89673 29.0112 9.2919 30.7633C9.84997 31.4641 11.2053 32.818 11.8989 33.3675C13.6249 34.7334 15.5144 35.7409 17.5393 36.374C20.5768 37.3178 23.7618 37.4093 26.867 36.6328C27.3574 36.5094 28.3619 36.2028 28.4536 36.151C28.4695 36.1391 28.4536 36.0833 28.4137 36.0276C27.7879 35.0838 25.6831 31.6035 24.3398 29.2859L23.4947 27.8285L22.9247 27.8484C21.6372 27.8922 20.4493 27.6413 19.2813 27.0798C17.6908 26.3153 16.4471 25.1087 15.6858 23.5915L15.4904 23.2093L12.2696 23.1854C9.29987 23.1615 7.37454 23.1177 6.25043 23.054L5.79999 23.0301V23.1296Z"
          fill="#6E81BE"/>
    <path d="M29.5736 23.7668C29.5138 23.8822 29.3703 24.1212 29.2547 24.3043L29.0394 24.6348L29.9921 26.2954C31.3674 28.6966 32.4676 30.6876 33.4801 32.607L33.7471 33.1167L33.9544 32.9454C34.3411 32.6189 35.1104 31.8544 35.5369 31.3725C36.5255 30.2496 37.3825 28.9833 38.0323 27.6891L38.2475 27.2551L38.0801 27.1834C37.9845 27.1436 36.1349 26.3432 33.9624 25.4074C31.7939 24.4716 29.9403 23.6712 29.8446 23.6314L29.6772 23.5597L29.5736 23.7668Z"
          fill="#6E81BE"/>
    <path d="M27.9233 25.8495C27.0662 26.6021 26.0099 27.2034 25.0054 27.506C24.834 27.5578 24.6945 27.6095 24.6945 27.6255C24.6945 27.6932 26.9267 31.4801 28.0349 33.292C29.1391 35.0918 30.3309 36.9395 31.0285 37.9311C31.6225 38.7793 32.4476 39.8066 32.639 39.942C32.7585 40.0256 33.1253 40.0177 33.3884 39.9261C34.1099 39.6792 34.7795 39.1735 34.935 38.7593C35.1303 38.2417 33.0137 33.9132 29.7649 28.175C29.1989 27.1715 28.286 25.5787 28.2661 25.5588C28.2621 25.5548 28.1066 25.6862 27.9233 25.8495Z"
          fill="#6E81BE"/>
    <path d="M50.2636 13.8999V16.2862H45.2819V18.8641H49.0095V21.1807H45.2819V26.1276H42.3034V13.8999H50.2636Z"
          fill="#182131"/>
    <path d="M61.1479 17.8364C61.1479 18.5448 60.9853 19.195 60.6602 19.7873C60.335 20.3679 59.8357 20.8382 59.1622 21.1982C58.4887 21.5581 57.6526 21.7381 56.6539 21.7381H54.8076V26.1276H51.8291V13.8999H56.6539C57.6294 13.8999 58.4538 14.0682 59.1273 14.405C59.8009 14.7418 60.306 15.2062 60.6427 15.7985C60.9795 16.3907 61.1479 17.07 61.1479 17.8364ZM56.4275 19.3692C56.9965 19.3692 57.4204 19.2357 57.699 18.9686C57.9777 18.7015 58.1171 18.3241 58.1171 17.8364C58.1171 17.3487 57.9777 16.9713 57.699 16.7042C57.4204 16.4371 56.9965 16.3036 56.4275 16.3036H54.8076V19.3692H56.4275Z"
          fill="#182131"/>
    <path d="M74.1772 13.8999L69.84 26.1276H66.1125L61.7753 13.8999H64.9455L67.9763 23.1316L71.0245 13.8999H74.1772Z"
          fill="#182131"/>
    <path d="M76.8155 26.2669C76.293 26.2669 75.8633 26.1159 75.5266 25.814C75.2014 25.5005 75.0389 25.1173 75.0389 24.6644C75.0389 24.1999 75.2014 23.8109 75.5266 23.4974C75.8633 23.1838 76.293 23.0271 76.8155 23.0271C77.3265 23.0271 77.7445 23.1838 78.0697 23.4974C78.4064 23.8109 78.5748 24.1999 78.5748 24.6644C78.5748 25.1173 78.4064 25.5005 78.0697 25.814C77.7445 26.1159 77.3265 26.2669 76.8155 26.2669Z"
          fill="#182131"/>
    <path d="M83.2643 13.8999V21.2156C83.2643 21.9471 83.4443 22.5103 83.8042 22.9052C84.1642 23.3 84.6926 23.4974 85.3893 23.4974C86.086 23.4974 86.6202 23.3 86.9918 22.9052C87.3634 22.5103 87.5492 21.9471 87.5492 21.2156V13.8999H90.5277V21.1982C90.5277 22.2897 90.2955 23.2129 89.831 23.9677C89.3665 24.7225 88.7394 25.2915 87.9498 25.6747C87.1718 26.0579 86.3009 26.2495 85.3371 26.2495C84.3732 26.2495 83.5081 26.0637 82.7417 25.6921C81.9869 25.3089 81.3889 24.7399 80.9476 23.9851C80.5064 23.2187 80.2857 22.2897 80.2857 21.1982V13.8999H83.2643Z"
          fill="#182131"/>
    <path d="M100.231 23.9677H95.6675L94.9359 26.1276H91.8181L96.2423 13.8999H99.6911L104.115 26.1276H100.963L100.231 23.9677ZM99.4647 21.6685L97.9493 17.1919L96.4513 21.6685H99.4647Z"
          fill="#182131"/>
</svg>
