<svg width="159" height="82" viewBox="0 0 159 82" fill="none" xmlns="http://www.w3.org/2000/svg">
<path d="M97.544 13.0392C98.6073 12.6801 98.2655 12.9973 100.489 11.7764C102.712 10.5497 104.79 7.20441 100.762 4.58925C94.5961 0.585721 77.6801 -1.22156 66.3649 0.914852C55.0497 3.05725 54.8694 5.45099 55.8947 8.00631C56.59 9.74177 58.9952 11.2558 62.0797 12.4048C61.203 11.6687 61.0884 10.8429 62.0855 10.047C63.3029 9.07153 64.0738 8.41325 70.6874 7.67119C77.3011 6.92913 88.6121 7.47371 94.1142 9.11342C98.2757 10.3522 99.1966 11.8004 97.544 13.0392Z" fill="white"/>
<path d="M116.56 13.0392C115.496 12.6801 115.838 12.9973 113.615 11.7764C111.392 10.5497 109.313 7.20441 113.342 4.58925C119.507 0.585721 136.423 -1.22156 147.739 0.914852C159.054 3.05725 159.234 5.45099 158.209 8.00631C157.514 9.74177 155.108 11.2558 152.024 12.4048C152.9 11.6687 153.015 10.8429 152.018 10.047C150.801 9.07153 150.03 8.41325 143.416 7.67119C136.802 6.92913 125.491 7.47371 119.989 9.11342C115.828 10.3522 114.907 11.8004 116.56 13.0392Z" fill="white"/>
<path fill-rule="evenodd" clip-rule="evenodd" d="M96.3556 57.6217L109.978 81.2163L145.095 20.3922H132.843C129.052 20.3922 125.549 22.4146 123.654 25.6975L109.978 49.3848L101.366 34.469C101.824 36.517 102.049 38.6771 102.049 40.9342C102.049 47.4147 100.227 53.0972 96.3556 57.6217Z" fill="white"/>
<path d="M49.1923 81.1693H65.4051V61.4762H77.1192C82.9479 61.4762 87.7863 59.6087 91.6344 55.8738C95.4825 52.1389 97.4065 47.1591 97.4065 40.9342C97.4065 34.766 95.4825 29.8144 91.6344 26.0795C87.7863 22.288 82.9479 20.3922 77.1192 20.3922H40.7038L49.0596 34.9074H74.7424C78.5905 35.0772 80.5145 37.0861 80.5145 40.9342C80.5145 42.9148 79.9769 44.4145 78.9017 45.4331C77.8831 46.4517 76.4967 46.961 74.7424 46.961H49.1923V81.1693Z" fill="white"/>
<path d="M0.781738 20.3922H35.1969L43.5554 34.9074H16.9946V46.961H43.6881V61.4762H16.9946V81.1693H0.781738V20.3922Z" fill="white"/>
<path d="M120.378 75.7842V75.147L124.346 68.2743V75.3665C124.346 75.993 124.541 76.5082 124.931 76.9119C125.321 77.3018 125.948 77.4967 126.811 77.4967C127.674 77.4967 128.294 77.3018 128.669 76.9119C129.045 76.5082 129.233 75.993 129.233 75.3665V65.9895H133.222V75.7842C133.222 77.0512 132.951 78.0815 132.408 78.8751C131.865 79.6687 131.113 80.2534 130.152 80.6293C129.192 81.0052 128.078 81.1932 126.811 81.1932C125.544 81.1932 124.423 81.0052 123.448 80.6293C122.488 80.2534 121.736 79.6687 121.193 78.8751C120.65 78.0815 120.378 77.0512 120.378 75.7842Z" fill="white"/>
<path fill-rule="evenodd" clip-rule="evenodd" d="M133.733 80.9426L139.184 65.9895H143.277L148.728 80.9426H144.51L143.8 78.8333H138.662L137.952 80.9426H133.733ZM142.526 75.6589H139.539L141.043 71.0435L142.526 75.6589Z" fill="white"/>
</svg>
