<svg width="34" height="22" viewBox="0 0 34 22" fill="none" xmlns="http://www.w3.org/2000/svg">
<path d="M0.385498 2.76611C0.385498 1.2503 1.62843 0.0214844 3.16167 0.0214844H30.9234C32.4567 0.0214844 33.6996 1.2503 33.6996 2.76611V19.2339C33.6996 20.7497 32.4567 21.9785 30.9234 21.9785H3.16167C1.62843 21.9785 0.385498 20.7497 0.385498 19.2339V2.76611Z" fill="#CCEFFF"/>
<path d="M20.686 17.4756H13.3992V4.52881H20.686V17.4756Z" fill="#6C6BBD"/>
<path d="M13.866 11C13.866 8.37369 15.1098 6.03424 17.0467 4.5266C15.6303 3.42414 13.8427 2.76613 11.9 2.76613C7.30073 2.76613 3.57251 6.4525 3.57251 11C3.57251 15.5475 7.30073 19.2339 11.9 19.2339C13.8427 19.2339 15.6303 18.5759 17.0467 17.4734C15.1098 15.9658 13.866 13.6263 13.866 11Z" fill="#EB001B"/>
<path d="M30.5133 11C30.5133 15.5475 26.7851 19.2339 22.1859 19.2339C20.2431 19.2339 18.4555 18.5759 17.0386 17.4734C18.976 15.9658 20.2198 13.6263 20.2198 11C20.2198 8.37369 18.976 6.03424 17.0386 4.5266C18.4555 3.42414 20.2431 2.76613 22.1859 2.76613C26.7851 2.76613 30.5133 6.4525 30.5133 11Z" fill="#0099DF"/>
</svg>
