<svg width="33" height="32" viewBox="0 0 33 32" fill="none" xmlns="http://www.w3.org/2000/svg">
<path d="M19.0796 26C19.7586 26 20.4097 25.7366 20.8898 25.2678C21.3699 24.7989 21.6396 24.163 21.6396 23.5C21.6396 22.837 21.3699 22.2011 20.8898 21.7322C20.4097 21.2634 19.7586 21 19.0796 21C18.4006 21 17.7495 21.2634 17.2694 21.7322C16.7893 22.2011 16.5196 22.837 16.5196 23.5C16.5196 24.163 16.7893 24.7989 17.2694 25.2678C17.7495 25.7366 18.4006 26 19.0796 26ZM10.1195 26C10.7985 26 11.4496 25.7366 11.9297 25.2678C12.4098 24.7989 12.6795 24.163 12.6795 23.5C12.6795 22.837 12.4098 22.2011 11.9297 21.7322C11.4496 21.2634 10.7985 21 10.1195 21C9.44054 21 8.78939 21.2634 8.30929 21.7322C7.82919 22.2011 7.55947 22.837 7.55947 23.5C7.55947 24.163 7.82919 24.7989 8.30929 25.2678C8.78939 25.7366 9.44054 26 10.1195 26ZM26.8083 8.40375C27.1279 8.39369 27.4309 8.26265 27.6533 8.03835C27.8757 7.81406 28 7.51409 28 7.20188C28 6.88966 27.8757 6.58969 27.6533 6.3654C27.4309 6.1411 27.1279 6.01006 26.8083 6H25.335C24.1805 6 23.182 6.7825 22.9312 7.8825L21.3273 14.935C21.0764 16.035 20.078 16.8175 18.9234 16.8175H9.30797L7.46219 9.605H19.4239C19.7405 9.59089 20.0392 9.45817 20.2581 9.23444C20.477 9.01071 20.5992 8.71318 20.5992 8.40375C20.5992 8.09432 20.477 7.79679 20.2581 7.57306C20.0392 7.34933 19.7405 7.21661 19.4239 7.2025H7.46219C7.088 7.20239 6.71871 7.2856 6.38239 7.44579C6.04607 7.60599 5.75158 7.83895 5.52131 8.12698C5.29103 8.41501 5.13102 8.75051 5.05346 9.108C4.9759 9.46548 4.98282 9.83552 5.07369 10.19L6.91947 17.4C7.05253 17.9202 7.35991 18.3821 7.7927 18.7121C8.2255 19.0421 8.75887 19.2213 9.30797 19.2212H18.9234C20.0437 19.2214 21.1305 18.8484 22.0044 18.1639C22.8783 17.4793 23.487 16.5242 23.7299 15.4562L25.335 8.40375H26.8083Z" fill="#6E81BE"/>
</svg>
