<svg width="33" height="32" viewBox="0 0 33 32" fill="none" xmlns="http://www.w3.org/2000/svg">
<path d="M24.0718 11.818H23.5831V8.25498C23.5833 4.25459 20.3284 1 16.3275 1C12.3269 1 9.07198 4.25459 9.07198 8.25498V11.818H8.58304C7.15775 11.818 5.99805 12.9777 5.99805 14.403V28.415C5.99805 29.8403 7.15775 31 8.58304 31H24.0718C25.497 31 26.6568 29.8403 26.6568 28.415V14.403C26.6568 12.9777 25.4972 11.818 24.0718 11.818ZM11.2877 8.25498C11.2877 5.47633 13.5486 3.21571 16.3275 3.21571C19.1065 3.21571 21.3674 5.47633 21.3674 8.25498V11.818H11.2877V8.25498ZM24.441 28.4151C24.441 28.6153 24.2719 28.7844 24.0718 28.7844H8.58304C8.38289 28.7844 8.21376 28.6153 8.21376 28.4151V14.403C8.21376 14.2028 8.38289 14.0337 8.58304 14.0337H24.0718C24.2719 14.0337 24.441 14.2028 24.441 14.403V28.4151Z" fill="#6E81BE"/>
<path d="M16.3273 18.1805C15.7154 18.1805 15.2194 18.6764 15.2194 19.2883V23.5299C15.2194 24.1419 15.7154 24.6378 16.3273 24.6378C16.9391 24.6378 17.4351 24.1419 17.4351 23.5299V19.2883C17.4351 18.6764 16.9391 18.1805 16.3273 18.1805Z" fill="#6E81BE"/>
</svg>
