<svg width="32" height="32" viewBox="0 0 32 32" fill="none" xmlns="http://www.w3.org/2000/svg">
<path d="M26.0956 7.03312C23.4639 4.3224 19.1804 4.3224 16.5478 7.0325L16.0004 7.59527L15.4536 7.03276C12.8208 4.32229 8.53781 4.3226 5.90497 7.03276C4.61226 8.36366 3.90039 10.129 3.90039 12.003C3.90039 13.8776 4.61226 15.6427 5.90516 16.9741L15.4159 26.7476C15.5795 26.9161 15.7901 27 16.0004 27C16.2107 27 16.421 26.9157 16.5849 26.7473L26.0956 16.9741C27.3882 15.643 28.1004 13.8777 28.1004 12.0033C28.1004 10.129 27.3882 8.36397 26.0956 7.03312ZM24.9255 15.6414L16.0004 24.8135L7.07555 15.6417C6.1231 14.6614 5.59864 13.3691 5.59864 12.0033C5.59864 10.6375 6.1231 9.34524 7.07555 8.36489C8.06903 7.34162 9.37384 6.83031 10.6789 6.83031C11.9843 6.83031 13.2897 7.34223 14.2832 8.3655L15.4153 9.52942C15.7431 9.86672 16.2574 9.86672 16.5852 9.52942L17.7176 8.36489C19.7048 6.31865 22.938 6.31865 24.9252 8.36489C25.8774 9.34529 26.4021 10.6375 26.4021 12.0033C26.4021 13.3691 25.8774 14.6611 24.9255 15.6414Z" fill="#6E81BE"/>
</svg>
