<svg width="253" height="253" viewBox="0 0 253 253" fill="none" xmlns="http://www.w3.org/2000/svg">
<path d="M155.142 89.5525C154.742 89.5487 154.35 89.4505 153.996 89.266C153.446 88.9552 153.042 88.4389 152.872 87.8305C152.702 87.222 152.78 86.5709 153.089 86.02C153.709 84.8743 167.982 58.0945 147.026 40.4323C121.106 18.6647 90.4117 45.2058 89.1228 46.3038C88.6686 46.7441 88.0608 46.9904 87.4282 46.9904C86.7956 46.9904 86.1878 46.7441 85.7336 46.3038C85.5233 46.0735 85.3611 45.8035 85.2567 45.5097C85.1522 45.2159 85.1076 44.9041 85.1254 44.5928C85.1432 44.2815 85.223 43.9768 85.3603 43.6968C85.4975 43.4168 85.6894 43.1671 85.9245 42.9623C86.2587 42.6281 121.01 12.6023 150.034 37.043C173.902 57.1875 157.385 88.2158 157.194 88.55C156.96 88.8722 156.651 89.1321 156.293 89.3069C155.935 89.4817 155.54 89.566 155.142 89.5525Z" fill="#ECEEF8"/>
<path d="M69.3125 89.5525C68.9086 89.5467 68.5129 89.4386 68.1622 89.2382C67.8116 89.0379 67.5175 88.7518 67.3075 88.4068C64.28 83.2776 62.2993 77.5992 61.4799 71.6998C60.6605 65.8004 61.0188 59.7971 62.534 54.037C66.3051 41.9598 76.2819 32.3172 92.1779 25.3955C92.4661 25.2691 92.7765 25.2009 93.0912 25.1949C93.4059 25.1889 93.7186 25.2452 94.0114 25.3606C94.3042 25.4759 94.5713 25.6481 94.7974 25.8671C95.0234 26.086 95.2039 26.3476 95.3285 26.6366C95.4549 26.9248 95.5231 27.2352 95.529 27.5499C95.535 27.8645 95.4787 28.1773 95.3634 28.4701C95.248 28.7629 95.0759 29.03 94.8569 29.2561C94.6379 29.4821 94.3764 29.6626 94.0873 29.7872C79.5279 36.136 70.2194 44.7762 67.1166 55.4691C64.59 65.8179 66.1998 76.7441 71.6038 85.9245C71.9279 86.4656 72.0294 87.1112 71.887 87.7256C71.7445 88.34 71.3692 88.8751 70.84 89.2183C70.3789 89.4882 69.8441 89.6052 69.3125 89.5525Z" fill="#ECEEF8"/>
<path d="M31.8398 189.416H31.3625C30.7383 189.278 30.1932 188.901 29.8449 188.365C29.4966 187.829 29.373 187.178 29.5008 186.552C29.5008 185.931 33.0332 170.417 43.5351 165.023C48.3087 162.636 67.1166 159.247 83.1081 156.621C84.397 156.621 86.2109 155.667 87.1179 152.086L89.9343 140.868C90.0068 140.566 90.1389 140.281 90.3228 140.03C90.5068 139.779 90.7389 139.568 91.0056 139.408C91.2723 139.248 91.5682 139.143 91.8761 139.098C92.1839 139.054 92.4975 139.072 92.7985 139.15C93.4152 139.308 93.9454 139.701 94.2755 140.246C94.6057 140.79 94.7095 141.442 94.5647 142.062L91.7483 153.232C91.4646 155.232 90.5539 157.09 89.1472 158.54C87.7405 159.99 85.9102 160.956 83.9196 161.299C61.5792 165.023 48.6906 167.696 45.7309 169.224C37.234 173.615 34.2266 187.411 34.1789 187.554C34.0593 188.084 33.7622 188.558 33.3369 188.897C32.9116 189.235 32.3834 189.418 31.8398 189.416Z" fill="#ECEEF8"/>
<path d="M160.965 164.832H160.536C153.137 163.448 145.356 162.159 140.391 161.299C138.401 160.956 136.57 159.99 135.164 158.54C133.757 157.09 132.846 155.232 132.562 153.232L129.746 142.062C129.601 141.442 129.705 140.79 130.035 140.246C130.365 139.701 130.896 139.308 131.512 139.15C131.813 139.072 132.127 139.054 132.435 139.098C132.743 139.143 133.038 139.248 133.305 139.408C133.572 139.568 133.804 139.779 133.988 140.03C134.172 140.281 134.304 140.566 134.376 140.868L137.193 152.086C138.1 155.667 139.914 156.383 141.203 156.621C145.976 157.433 153.996 158.722 161.395 160.154C161.706 160.211 162.003 160.33 162.269 160.503C162.534 160.676 162.762 160.9 162.94 161.162C163.117 161.424 163.241 161.719 163.304 162.029C163.366 162.34 163.367 162.66 163.304 162.97C163.193 163.505 162.898 163.983 162.471 164.323C162.044 164.663 161.511 164.843 160.965 164.832Z" fill="#ECEEF8"/>
<path d="M112.132 150.368C104.316 150.342 96.7106 147.834 90.4117 143.208C80.8626 135.835 74.016 125.514 70.9355 113.85C69.1824 113.861 67.4854 113.233 66.1619 112.084C62.9988 108.938 61.1549 104.704 61.0064 100.245C60.3381 92.6075 63.4409 86.3542 68.5009 84.9698C70.7246 84.3462 73.0989 84.5497 75.184 85.5426C76.4174 84.4769 77.3426 83.0999 77.8631 81.5551C78.3837 80.0103 78.4805 78.3542 78.1436 76.7592C78.0891 76.3504 78.1393 75.9344 78.2896 75.5504C78.4399 75.1663 78.6853 74.8267 79.0028 74.5634C89.178 66.8432 101.832 63.1236 114.566 64.1092C121.488 65.1632 128.134 67.5738 134.122 71.2028C140.111 74.8318 145.323 79.6076 149.461 85.2562C151.423 84.4137 153.616 84.2787 155.667 84.8743C160.727 86.2587 163.782 92.5121 163.113 100.15C162.952 104.611 161.07 108.836 157.862 111.941C156.532 113.079 154.84 113.705 153.089 113.707C150.066 125.424 143.231 135.803 133.66 143.208C127.414 147.796 119.882 150.301 112.132 150.368ZM72.654 108.551C72.9846 108.483 73.3257 108.483 73.6564 108.551C73.9653 108.715 74.2384 108.938 74.4597 109.209C74.681 109.479 74.8461 109.791 74.9453 110.127C77.4939 121.587 83.9594 131.8 93.2281 139.007C98.7013 143.072 105.338 145.267 112.155 145.267C118.973 145.267 125.609 143.072 131.083 139.007C140.322 131.773 146.78 121.572 149.365 110.127C149.448 109.784 149.606 109.464 149.83 109.191C150.053 108.919 150.335 108.7 150.654 108.551C150.975 108.399 151.326 108.319 151.681 108.319C152.036 108.319 152.386 108.399 152.707 108.551C152.881 108.579 153.058 108.579 153.232 108.551C153.869 108.557 154.485 108.318 154.951 107.883C157.15 105.569 158.424 102.529 158.531 99.3383C159.008 93.7055 156.86 89.7911 154.521 89.0751C153.838 88.8923 153.125 88.853 152.427 88.9599C151.729 89.0667 151.06 89.3172 150.463 89.6957L149.604 90.1253C149.142 90.2475 148.654 90.2362 148.198 90.0925C147.742 89.9489 147.335 89.6789 147.026 89.3138C137.479 76.8547 126.214 69.8375 114.184 68.5009C103.126 67.5794 92.0983 70.6069 83.0604 77.0457C83.378 79.67 82.9132 82.3298 81.7242 84.6908C80.5351 87.0518 78.675 89.0089 76.3774 90.3162C75.7919 90.5317 75.1488 90.5317 74.5634 90.3162L73.7041 89.8866C73.1075 89.5082 72.4389 89.2576 71.7405 89.1508C71.042 89.044 70.3291 89.0832 69.6466 89.266C67.3075 89.9343 65.1594 94.0396 65.6845 99.5293C65.7996 102.709 67.0532 105.741 69.217 108.074C69.6853 108.505 70.299 108.744 70.9355 108.742C71.1258 108.764 71.318 108.764 71.5083 108.742C71.863 108.567 72.2616 108.501 72.654 108.551Z" fill="#ECEEF8"/>
<path d="M112.227 182.399C105.158 182.846 98.1591 180.776 92.4708 176.556C86.7825 172.335 82.7722 166.237 81.1509 159.342C81.037 158.709 81.1792 158.057 81.5462 157.529C81.9133 157.001 82.4751 156.64 83.1081 156.526C83.7411 156.412 84.3935 156.554 84.9217 156.921C85.4498 157.288 85.8106 157.85 85.9245 158.483C85.9245 159.247 89.7434 177.577 112.275 177.577C134.806 177.577 138.434 159.295 138.434 158.483C138.55 157.864 138.906 157.316 139.425 156.958C139.944 156.6 140.583 156.462 141.203 156.574C141.512 156.62 141.808 156.727 142.075 156.89C142.342 157.053 142.573 157.267 142.755 157.521C142.938 157.775 143.068 158.062 143.137 158.367C143.207 158.671 143.214 158.987 143.16 159.295C141.596 166.196 137.622 172.314 131.952 176.549C126.283 180.783 119.289 182.858 112.227 182.399Z" fill="#ECEEF8"/>
<path d="M112.179 224.359C89.9923 224.359 68.3036 217.779 49.8558 205.453C31.4081 193.127 17.0298 175.607 8.53919 155.108C0.0486059 134.61 -2.17292 112.055 2.15554 90.2942C6.484 68.5336 17.168 48.5451 32.8566 32.8566C48.5451 17.168 68.5336 6.484 90.2942 2.15554C112.055 -2.17292 134.61 0.0486059 155.108 8.53919C175.607 17.0298 193.127 31.4081 205.453 49.8558C217.779 68.3036 224.359 89.9923 224.359 112.179C224.402 128.685 220.766 144.992 213.713 159.915C213.406 160.413 212.927 160.78 212.366 160.947C211.806 161.115 211.204 161.071 210.674 160.823C210.144 160.576 209.723 160.143 209.491 159.606C209.26 159.069 209.233 158.465 209.417 157.91C219.927 135.641 222.466 110.437 216.608 86.5196C210.751 62.602 196.853 41.4234 177.242 26.5312C157.631 11.6389 133.498 3.93753 108.886 4.71688C84.2742 5.49624 60.6773 14.709 42.0479 30.8121C23.4186 46.9153 10.8882 68.9307 6.55561 93.171C2.22301 117.411 6.35131 142.404 18.249 163.964C30.1468 185.523 49.0914 202.34 71.9096 211.596C94.7279 220.853 120.034 221.988 143.589 214.811C143.903 214.72 144.231 214.692 144.556 214.728C144.88 214.764 145.194 214.864 145.48 215.021C145.766 215.178 146.018 215.39 146.222 215.645C146.426 215.9 146.578 216.193 146.668 216.506C146.759 216.819 146.788 217.148 146.752 217.472C146.716 217.796 146.616 218.111 146.459 218.396C146.301 218.682 146.089 218.934 145.835 219.138C145.58 219.342 145.287 219.494 144.974 219.585C134.341 222.8 123.288 224.409 112.179 224.359Z" fill="#ECEEF8"/>
<path d="M241.066 253H164.689C161.524 253 158.488 251.743 156.25 249.505C154.012 247.267 152.755 244.231 152.755 241.066V183.783C152.755 180.618 154.012 177.582 156.25 175.344C158.488 173.106 161.524 171.849 164.689 171.849H175.716L167.075 146.358C166.913 145.884 166.904 145.37 167.049 144.89C167.195 144.411 167.488 143.989 167.887 143.685C168.294 143.404 168.777 143.253 169.271 143.253C169.766 143.253 170.249 143.404 170.656 143.685L213.141 171.849H241.066C244.231 171.849 247.267 173.106 249.505 175.344C251.743 177.582 253 180.618 253 183.783V241.066C253 244.231 251.743 247.267 249.505 249.505C247.267 251.743 244.231 253 241.066 253ZM164.689 176.623C162.79 176.623 160.968 177.377 159.626 178.72C158.283 180.063 157.528 181.884 157.528 183.783V241.066C157.528 242.965 158.283 244.786 159.626 246.129C160.968 247.472 162.79 248.226 164.689 248.226H241.066C242.965 248.226 244.786 247.472 246.129 246.129C247.472 244.786 248.226 242.965 248.226 241.066V183.783C248.226 181.884 247.472 180.063 246.129 178.72C244.786 177.377 242.965 176.623 241.066 176.623H212.425C211.952 176.62 211.49 176.488 211.088 176.241L173.949 151.418L181.396 173.472C181.529 173.826 181.573 174.207 181.523 174.582C181.473 174.957 181.331 175.314 181.11 175.62C180.882 175.926 180.588 176.176 180.248 176.35C179.909 176.524 179.534 176.617 179.153 176.623H164.689Z" fill="#ECEEF8"/>
<path d="M207.651 233.906H174.236C173.603 233.906 172.996 233.654 172.548 233.207C172.101 232.759 171.849 232.152 171.849 231.519C171.849 230.886 172.101 230.279 172.548 229.831C172.996 229.384 173.603 229.132 174.236 229.132H207.651C208.284 229.132 208.891 229.384 209.339 229.831C209.786 230.279 210.038 230.886 210.038 231.519C210.038 232.152 209.786 232.759 209.339 233.207C208.891 233.654 208.284 233.906 207.651 233.906Z" fill="#ECEEF8"/>
<path d="M231.519 214.811H174.236C173.603 214.811 172.996 214.56 172.548 214.112C172.101 213.665 171.849 213.058 171.849 212.425C171.849 211.792 172.101 211.184 172.548 210.737C172.996 210.289 173.603 210.038 174.236 210.038H231.519C232.152 210.038 232.759 210.289 233.207 210.737C233.654 211.184 233.906 211.792 233.906 212.425C233.906 213.058 233.654 213.665 233.207 214.112C232.759 214.56 232.152 214.811 231.519 214.811Z" fill="#ECEEF8"/>
<path d="M231.519 195.717H174.236C173.603 195.717 172.996 195.466 172.548 195.018C172.101 194.57 171.849 193.963 171.849 193.33C171.849 192.697 172.101 192.09 172.548 191.642C172.996 191.195 173.603 190.943 174.236 190.943H231.519C232.152 190.943 232.759 191.195 233.207 191.642C233.654 192.09 233.906 192.697 233.906 193.33C233.906 193.963 233.654 194.57 233.207 195.018C232.759 195.466 232.152 195.717 231.519 195.717Z" fill="#ECEEF8"/>
</svg>
