<svg width="253" height="253" viewBox="0 0 253 253" fill="none" xmlns="http://www.w3.org/2000/svg">
<path d="M97.8376 157.495H11.9314C8.76701 157.495 5.7322 156.238 3.49463 154C1.25706 151.762 0 148.728 0 145.563V11.9314C0 8.76701 1.25706 5.7322 3.49463 3.49463C5.7322 1.25706 8.76701 0 11.9314 0H212.379C215.544 0 218.578 1.25706 220.816 3.49463C223.054 5.7322 224.311 8.76701 224.311 11.9314V86.3834C224.311 87.0163 224.059 87.6233 223.612 88.0708C223.164 88.5183 222.557 88.7697 221.924 88.7697C221.291 88.7697 220.684 88.5183 220.237 88.0708C219.789 87.6233 219.538 87.0163 219.538 86.3834V11.9314C219.538 10.0328 218.784 8.21189 217.441 6.86934C216.099 5.5268 214.278 4.77257 212.379 4.77257H11.9314C10.0328 4.77257 8.21189 5.5268 6.86934 6.86934C5.5268 8.21189 4.77257 10.0328 4.77257 11.9314V145.563C4.77257 147.462 5.5268 149.283 6.86934 150.625C8.21189 151.968 10.0328 152.722 11.9314 152.722H97.8376C98.4705 152.722 99.0774 152.974 99.5249 153.421C99.9725 153.869 100.224 154.475 100.224 155.108C100.224 155.741 99.9725 156.348 99.5249 156.796C99.0774 157.243 98.4705 157.495 97.8376 157.495Z" fill="#ECEEF8"/>
<path d="M221.924 66.8159H2.38628C1.7534 66.8159 1.14644 66.5645 0.698926 66.117C0.251411 65.6695 0 65.0625 0 64.4296V35.7942C0 35.1614 0.251411 34.5544 0.698926 34.1069C1.14644 33.6594 1.7534 33.408 2.38628 33.408H221.924C222.557 33.408 223.164 33.6594 223.612 34.1069C224.059 34.5544 224.311 35.1614 224.311 35.7942V64.4296C224.311 65.0625 224.059 65.6695 223.612 66.117C223.164 66.5645 222.557 66.8159 221.924 66.8159ZM4.77257 62.0433H219.538V38.1805H4.77257V62.0433Z" fill="#ECEEF8"/>
<path d="M93.065 109.769H69.2022C68.5693 109.769 67.9624 109.518 67.5148 109.07C67.0673 108.623 66.8159 108.016 66.8159 107.383C66.8159 106.75 67.0673 106.143 67.5148 105.695C67.9624 105.248 68.5693 104.996 69.2022 104.996H93.065C93.6979 104.996 94.3049 105.248 94.7524 105.695C95.1999 106.143 95.4513 106.75 95.4513 107.383C95.4513 108.016 95.1999 108.623 94.7524 109.07C94.3049 109.518 93.6979 109.769 93.065 109.769Z" fill="#ECEEF8"/>
<path d="M54.8845 109.769H21.4765C20.8437 109.769 20.2367 109.518 19.7892 109.07C19.3417 108.623 19.0903 108.016 19.0903 107.383C19.0903 106.75 19.3417 106.143 19.7892 105.695C20.2367 105.248 20.8437 104.996 21.4765 104.996H54.8845C55.5174 104.996 56.1243 105.248 56.5719 105.695C57.0194 106.143 57.2708 106.75 57.2708 107.383C57.2708 108.016 57.0194 108.623 56.5719 109.07C56.1243 109.518 55.5174 109.769 54.8845 109.769Z" fill="#ECEEF8"/>
<path d="M73.9748 128.859H21.4765C20.8437 128.859 20.2367 128.608 19.7892 128.16C19.3417 127.713 19.0903 127.106 19.0903 126.473C19.0903 125.84 19.3417 125.233 19.7892 124.786C20.2367 124.338 20.8437 124.087 21.4765 124.087H73.9748C74.6076 124.087 75.2146 124.338 75.6621 124.786C76.1096 125.233 76.361 125.84 76.361 126.473C76.361 127.106 76.1096 127.713 75.6621 128.16C75.2146 128.608 74.6076 128.859 73.9748 128.859Z" fill="#ECEEF8"/>
<path d="M26.2491 90.6787H21.4765C20.8437 90.6787 20.2367 90.4273 19.7892 89.9798C19.3417 89.5323 19.0903 88.9253 19.0903 88.2925C19.0903 87.6596 19.3417 87.0526 19.7892 86.6051C20.2367 86.1576 20.8437 85.9062 21.4765 85.9062H26.2491C26.882 85.9062 27.489 86.1576 27.9365 86.6051C28.384 87.0526 28.6354 87.6596 28.6354 88.2925C28.6354 88.9253 28.384 89.5323 27.9365 89.9798C27.489 90.4273 26.882 90.6787 26.2491 90.6787Z" fill="#ECEEF8"/>
<path d="M45.3394 90.6787H40.5668C39.9339 90.6787 39.327 90.4273 38.8794 89.9798C38.4319 89.5323 38.1805 88.9253 38.1805 88.2925C38.1805 87.6596 38.4319 87.0526 38.8794 86.6051C39.327 86.1576 39.9339 85.9062 40.5668 85.9062H45.3394C45.9723 85.9062 46.5792 86.1576 47.0267 86.6051C47.4742 87.0526 47.7257 87.6596 47.7257 88.2925C47.7257 88.9253 47.4742 89.5323 47.0267 89.9798C46.5792 90.4273 45.9723 90.6787 45.3394 90.6787Z" fill="#ECEEF8"/>
<path d="M64.4296 90.6787H59.6571C59.0242 90.6787 58.4172 90.4273 57.9697 89.9798C57.5222 89.5323 57.2708 88.9253 57.2708 88.2925C57.2708 87.6596 57.5222 87.0526 57.9697 86.6051C58.4172 86.1576 59.0242 85.9062 59.6571 85.9062H64.4296C65.0625 85.9062 65.6695 86.1576 66.117 86.6051C66.5645 87.0526 66.8159 87.6596 66.8159 88.2925C66.8159 88.9253 66.5645 89.5323 66.117 89.9798C65.6695 90.4273 65.0625 90.6787 64.4296 90.6787Z" fill="#ECEEF8"/>
<path d="M83.5199 90.6787H78.7473C78.1144 90.6787 77.5075 90.4273 77.06 89.9798C76.6125 89.5323 76.361 88.9253 76.361 88.2925C76.361 87.6596 76.6125 87.0526 77.06 86.6051C77.5075 86.1576 78.1144 85.9062 78.7473 85.9062H83.5199C84.1528 85.9062 84.7597 86.1576 85.2073 86.6051C85.6548 87.0526 85.9062 87.6596 85.9062 88.2925C85.9062 88.9253 85.6548 89.5323 85.2073 89.9798C84.7597 90.4273 84.1528 90.6787 83.5199 90.6787Z" fill="#ECEEF8"/>
<path d="M102.61 90.6787H97.8376C97.2047 90.6787 96.5977 90.4273 96.1502 89.9798C95.7027 89.5323 95.4513 88.9253 95.4513 88.2925C95.4513 87.6596 95.7027 87.0526 96.1502 86.6051C96.5977 86.1576 97.2047 85.9062 97.8376 85.9062H102.61C103.243 85.9062 103.85 86.1576 104.298 86.6051C104.745 87.0526 104.996 87.6596 104.996 88.2925C104.996 88.9253 104.745 89.5323 104.298 89.9798C103.85 90.4273 103.243 90.6787 102.61 90.6787Z" fill="#ECEEF8"/>
<path d="M121.7 90.6787H116.928C116.295 90.6787 115.688 90.4273 115.24 89.9798C114.793 89.5323 114.542 88.9253 114.542 88.2925C114.542 87.6596 114.793 87.0526 115.24 86.6051C115.688 86.1576 116.295 85.9062 116.928 85.9062H121.7C122.333 85.9062 122.94 86.1576 123.388 86.6051C123.835 87.0526 124.087 87.6596 124.087 88.2925C124.087 88.9253 123.835 89.5323 123.388 89.9798C122.94 90.4273 122.333 90.6787 121.7 90.6787Z" fill="#ECEEF8"/>
<path d="M178.971 252.946C178.625 253.018 178.268 253.018 177.921 252.946C175.344 251.657 172.433 250.321 169.283 248.842C143.702 236.719 104.996 218.774 104.996 180.355V107.383C104.992 106.91 105.132 106.447 105.396 106.056C105.66 105.664 106.036 105.361 106.476 105.187L178.064 76.552C178.645 76.3133 179.297 76.3133 179.878 76.552L251.466 105.187C251.906 105.361 252.283 105.664 252.547 106.056C252.811 106.447 252.95 106.91 252.946 107.383V180.355C252.946 218.774 214.24 236.719 188.66 248.651C185.51 250.082 182.598 251.419 180.021 252.707C179.692 252.86 179.334 252.941 178.971 252.946ZM109.769 109.005V180.594C109.769 215.959 146.804 233.092 171.287 244.546C174.055 245.787 176.633 246.98 178.971 248.126L186.607 244.546C211.138 233.14 248.173 215.911 248.173 180.594V109.005L178.971 81.1336L109.769 109.005Z" fill="#ECEEF8"/>
<path d="M178.971 209.993C169.06 209.993 159.371 207.054 151.131 201.547C142.89 196.041 136.467 188.215 132.674 179.058C128.881 169.901 127.889 159.825 129.822 150.105C131.756 140.384 136.528 131.455 143.537 124.446C150.545 117.438 159.474 112.665 169.195 110.732C178.916 108.798 188.991 109.791 198.148 113.584C207.305 117.376 215.131 123.799 220.638 132.04C226.144 140.281 229.083 149.97 229.083 159.881C229.071 173.168 223.787 185.906 214.392 195.301C204.997 204.697 192.258 209.98 178.971 209.993ZM178.971 114.542C170.004 114.542 161.238 117.201 153.782 122.183C146.326 127.165 140.515 134.246 137.083 142.53C133.651 150.815 132.754 159.931 134.503 168.726C136.252 177.521 140.571 185.6 146.911 191.941C153.252 198.282 161.331 202.6 170.126 204.349C178.921 206.099 188.037 205.201 196.322 201.769C204.607 198.337 211.688 192.526 216.67 185.07C221.651 177.614 224.311 168.848 224.311 159.881C224.298 147.86 219.517 136.335 211.017 127.835C202.517 119.335 190.992 114.554 178.971 114.542Z" fill="#ECEEF8"/>
<path d="M190.903 188.516H167.04C166.242 188.533 165.453 188.35 164.744 187.983C164.035 187.616 163.43 187.078 162.983 186.416C162.508 185.783 162.199 185.041 162.082 184.258C161.965 183.475 162.045 182.675 162.315 181.93L168.328 163.842C165.603 161.824 163.501 159.08 162.26 155.924C161.02 152.768 160.691 149.326 161.313 145.993C162.045 142.432 163.82 139.169 166.412 136.619C169.004 134.069 172.296 132.349 175.869 131.675C178.46 131.233 181.115 131.359 183.653 132.042C186.191 132.725 188.55 133.951 190.569 135.634C192.587 137.316 194.217 139.417 195.346 141.79C196.474 144.164 197.075 146.753 197.107 149.381C197.102 152.174 196.438 154.926 195.169 157.414C193.9 159.902 192.062 162.055 189.805 163.699L195.675 181.93C195.945 182.675 196.025 183.475 195.908 184.258C195.791 185.041 195.482 185.783 195.007 186.416C194.556 187.085 193.943 187.628 193.225 187.995C192.507 188.362 191.708 188.541 190.903 188.516ZM178.828 136.018C177.979 136.003 177.13 136.083 176.299 136.257C173.63 136.754 171.177 138.054 169.268 139.984C167.359 141.914 166.086 144.381 165.619 147.055C165.152 149.729 165.513 152.482 166.654 154.945C167.795 157.408 169.661 159.463 172.003 160.835C172.468 161.12 172.824 161.551 173.015 162.062C173.205 162.572 173.219 163.132 173.053 163.651L166.467 183.41L190.903 183.744L184.698 163.651C184.533 163.132 184.546 162.572 184.737 162.062C184.927 161.551 185.283 161.12 185.748 160.835C187.751 159.668 189.413 157.996 190.569 155.987C191.724 153.977 192.333 151.699 192.334 149.381C192.328 147.428 191.899 145.498 191.075 143.727C190.251 141.955 189.052 140.384 187.562 139.12C185.172 137.105 182.144 136.006 179.019 136.018H178.828Z" fill="#ECEEF8"/>
</svg>
