<svg width="254" height="253" viewBox="0 0 254 253" fill="none" xmlns="http://www.w3.org/2000/svg">
<path d="M102.25 253H101.009C95.5608 251.794 90.5834 249.024 86.6883 245.028C84.2194 242.505 81.2415 240.536 77.9526 239.252C73.7984 238.606 69.5549 238.833 65.4936 239.92C60.7624 241.459 55.6653 241.459 50.9342 239.92C45.7285 236.604 41.897 231.518 40.1458 225.6C39.0181 222.662 37.4044 219.935 35.3723 217.532C32.978 215.513 30.2689 213.901 27.3526 212.759C21.4345 210.98 16.3523 207.134 13.0319 201.923C11.5902 197.258 11.5902 192.267 13.0319 187.602C14.119 183.541 14.3466 179.297 13.7002 175.143C12.4883 171.821 10.5845 168.795 8.11509 166.264C4.11953 162.369 1.34877 157.391 0.143208 151.943C0.271179 147.139 1.72499 142.464 4.34396 138.434C6.59554 134.865 8.01496 130.835 8.49698 126.643C8.03454 122.35 6.59776 118.219 4.29623 114.566C1.64421 110.528 0.157592 105.837 0 101.009C1.16825 95.5573 3.9257 90.574 7.92415 86.6883C10.4077 84.2057 12.3429 81.2297 13.6047 77.9526C14.2032 73.8279 13.976 69.6253 12.9364 65.5891C11.3893 60.8103 11.3893 55.6652 12.9364 50.8864C16.2562 45.7948 21.2833 42.0541 27.114 40.3368C30.1917 39.2285 33.0634 37.6152 35.6109 35.5632C37.6437 33.1788 39.2578 30.4672 40.3845 27.5436C42.167 21.6274 46.0117 16.5464 51.2206 13.2228C55.9517 11.6839 61.0489 11.6839 65.78 13.2228C69.8451 14.2856 74.0836 14.5129 78.2391 13.8911C81.5187 12.5899 84.4931 10.6232 86.9747 8.11509C90.8498 4.08397 95.8336 1.29302 101.295 0.0954717C106.022 0.242451 110.616 1.69651 114.566 4.29623C118.143 6.53183 122.169 7.94995 126.357 8.44925C130.644 7.99153 134.772 6.5719 138.434 4.29623C142.47 1.60322 147.188 0.113209 152.039 0C157.496 1.18155 162.48 3.95595 166.359 7.97189C168.837 10.4854 171.812 12.4529 175.095 13.7479C179.249 14.3943 183.493 14.1667 187.554 13.0796C192.304 11.5531 197.412 11.5531 202.161 13.0796C207.341 16.4241 211.164 21.4993 212.95 27.4004C214.058 30.3475 215.673 33.0779 217.723 35.4677C220.097 37.4908 222.791 39.1041 225.695 40.2413C231.609 42.0549 236.685 45.9127 240.016 51.1251C241.555 55.8562 241.555 60.9534 240.016 65.6845C238.929 69.7458 238.701 73.9893 239.348 78.1436C240.649 81.4232 242.615 84.3976 245.124 86.8792C249.156 90.7462 251.933 95.7355 253.095 101.2C252.884 105.974 251.365 110.597 248.704 114.566C246.452 118.135 245.033 122.165 244.551 126.357C244.995 130.647 246.416 134.778 248.704 138.434C251.395 142.453 252.886 147.155 253 151.991C251.81 157.445 249.037 162.427 245.028 166.312C242.52 168.793 240.553 171.768 239.252 175.047C238.653 179.204 238.881 183.438 239.92 187.506C241.447 192.256 241.447 197.364 239.92 202.114C236.583 207.29 231.503 211.1 225.6 212.854C222.644 213.975 219.9 215.589 217.485 217.628C215.451 219.994 213.837 222.69 212.711 225.6C210.913 231.521 207.051 236.602 201.827 239.92C197.166 241.386 192.167 241.386 187.506 239.92C183.429 238.835 179.17 238.607 175 239.252C171.72 240.553 168.746 242.52 166.264 245.028C162.403 249.067 157.411 251.846 151.943 253C147.128 252.856 142.448 251.368 138.434 248.704C134.865 246.452 130.835 245.033 126.643 244.551C122.353 244.995 118.222 246.416 114.566 248.704C110.846 251.064 106.631 252.534 102.25 253ZM74.2292 233.906C75.8382 233.895 77.4421 234.087 79.0028 234.478C83.0181 235.91 86.6689 238.208 89.6957 241.209C92.8673 244.66 96.9846 247.1 101.534 248.226C105.454 247.956 109.237 246.673 112.513 244.503C116.75 241.828 121.559 240.193 126.548 239.729C131.52 240.202 136.311 241.837 140.534 244.503C143.808 246.679 147.592 247.962 151.514 248.226C155.985 247.089 160.04 244.706 163.209 241.352C166.223 238.324 169.876 236.008 173.902 234.574C178.665 233.76 183.547 233.972 188.222 235.195C191.993 236.341 196.008 236.424 199.822 235.433C203.924 232.563 206.935 228.391 208.367 223.595C209.632 220.109 211.507 216.876 213.904 214.048C216.725 211.627 219.959 209.735 223.452 208.462C228.229 207.044 232.385 204.049 235.242 199.965C236.335 196.16 236.335 192.124 235.242 188.318C234.011 183.644 233.799 178.76 234.622 173.997C236.055 169.972 238.371 166.318 241.4 163.304C244.756 160.107 247.125 156.015 248.226 151.514C247.979 147.574 246.695 143.77 244.503 140.487C241.822 136.27 240.186 131.476 239.729 126.5C240.193 121.526 241.829 116.733 244.503 112.513C246.701 109.233 247.986 105.427 248.226 101.486C247.089 97.0154 244.706 92.9595 241.352 89.7911C238.324 86.7771 236.008 83.1236 234.574 79.0983C233.752 74.3354 233.963 69.4514 235.195 64.7775C236.366 60.9944 236.448 56.958 235.433 53.13C232.563 49.0283 228.391 46.0171 223.595 44.5853C220.109 43.3202 216.876 41.4452 214.048 39.0479C211.648 36.2208 209.772 32.9876 208.51 29.5008C207.093 24.6841 204.101 20.482 200.013 17.5668C196.204 16.4966 192.174 16.4966 188.366 17.5668C183.692 18.7982 178.808 19.0098 174.045 18.1874C170.003 16.8452 166.316 14.61 163.257 11.6475C160.085 8.29855 156.03 5.91542 151.561 4.77358C147.622 5.0209 143.817 6.30543 140.534 8.49698C136.315 11.1713 131.522 12.8072 126.548 13.2706C121.572 12.8144 116.777 11.1779 112.561 8.49698C109.271 6.31957 105.471 5.03634 101.534 4.77358C97.0672 5.92026 93.0138 8.30265 89.8389 11.6475C86.8248 14.6764 83.1713 16.9924 79.146 18.426C74.3831 19.247 69.4994 19.0354 64.8253 17.8055C61.0586 16.6332 57.0372 16.5505 53.2255 17.5668C49.0952 20.4177 46.0635 24.5948 44.633 29.4053C43.3679 32.8908 41.493 36.1236 39.0957 38.9525C36.1126 41.4557 32.6998 43.3966 29.0234 44.6808C24.3774 46.0785 20.3188 48.9631 17.4713 52.8913C16.3305 56.7225 16.3305 60.8031 17.4713 64.6343C18.6766 69.3132 18.8718 74.195 18.0442 78.9551C16.6483 82.9623 14.3635 86.6016 11.3611 89.6002C8.08304 92.8388 5.79764 96.9459 4.77358 101.439C5.01565 105.365 6.301 109.155 8.49698 112.418C11.2043 116.657 12.8424 121.489 13.2706 126.5C12.8072 131.474 11.1713 136.267 8.49698 140.487C6.32142 143.76 5.03798 147.544 4.77358 151.466C5.87696 155.964 8.26536 160.044 11.6475 163.209C14.6532 166.214 16.9523 169.85 18.3783 173.854C19.1859 178.615 18.9908 183.493 17.8055 188.175C16.6227 191.938 16.5234 195.958 17.5191 199.775C20.3904 203.905 24.5824 206.936 29.4053 208.367C32.8934 209.626 36.1271 211.502 38.9525 213.904C41.3676 216.729 43.2589 219.962 44.5375 223.452C45.9694 228.248 48.9806 232.42 53.0823 235.29C56.875 236.359 60.8893 236.359 64.6821 235.29C67.8127 234.523 71.0098 234.06 74.2292 233.906Z" fill="#ECEEF8"/>
<path d="M63.6796 200.491H28.9757C28.3426 200.491 27.7356 200.239 27.2879 199.791C26.8403 199.344 26.5889 198.737 26.5889 198.104C26.5889 197.471 26.8403 196.864 27.2879 196.416C27.7356 195.968 28.3426 195.717 28.9757 195.717H63.6796C63.9164 195.705 64.1405 195.606 64.3081 195.438C64.4758 195.271 64.575 195.047 64.5866 194.81V124.113C64.5744 123.881 64.4734 123.662 64.3046 123.503C64.1359 123.343 63.9121 123.254 63.6796 123.254H19.3808C18.7477 123.254 18.1406 123.002 17.693 122.555C17.2454 122.107 16.994 121.5 16.994 120.867C16.994 120.234 17.2454 119.627 17.693 119.179C18.1406 118.732 18.7477 118.48 19.3808 118.48H63.6796C64.4233 118.474 65.1609 118.615 65.8499 118.895C66.5388 119.176 67.1654 119.59 67.6935 120.113C68.2216 120.637 68.6408 121.26 68.9269 121.947C69.2129 122.633 69.3602 123.369 69.3602 124.113V194.81C69.3602 196.317 68.7617 197.761 67.6964 198.827C66.6311 199.892 65.1862 200.491 63.6796 200.491Z" fill="#ECEEF8"/>
<path d="M124.113 200.491C111.085 200.708 98.0573 200.071 85.113 198.581C78.6286 197.514 72.2424 195.917 66.0187 193.808C65.5522 193.643 65.1471 193.34 64.8571 192.939C64.5672 192.538 64.4062 192.059 64.3957 191.564V126.5C64.3972 125.855 64.6548 125.237 65.1117 124.782C65.3395 124.562 65.6088 124.389 65.9038 124.275C66.1988 124.16 66.5137 124.105 66.8302 124.113C67.0689 124.113 67.4985 124.113 67.8804 124.113C73.4037 124.508 78.946 123.676 84.1106 121.679C86.9151 119.758 88.879 116.838 89.6002 113.516C91.1436 108.822 93.4852 104.43 96.5219 100.532C98.5683 98.0079 100.872 95.7041 103.396 93.6577C107.556 90.7355 110.761 86.6505 112.609 81.9147C115.378 72.7972 111.177 49.1202 111.129 48.9292C111.069 48.5624 111.094 48.1867 111.201 47.8309C111.309 47.4751 111.496 47.1487 111.75 46.8766C113.707 45.2678 115.98 44.088 118.423 43.4137C120.865 42.7394 123.422 42.5856 125.927 42.9623C136.334 43.3919 144.687 55.3258 146.167 71.9857C146.384 78.1058 145.377 84.2077 143.208 89.9343C142.014 93.7532 140.63 98.0972 141.632 99.1951C144.019 101.821 159.629 101.821 168.937 101.821C173.997 101.821 178.818 101.821 182.112 102.107C192.185 102.918 198.677 108.79 198.677 117.096C198.69 119.468 198.159 121.812 197.124 123.947C196.09 126.083 194.58 127.952 192.71 129.412C194.588 130.731 196.141 132.462 197.249 134.472C198.358 136.482 198.993 138.719 199.106 141.012C199.237 143.399 198.769 145.781 197.743 147.94C196.718 150.1 195.168 151.968 193.235 153.375C194.774 154.864 195.916 156.713 196.558 158.756C197.2 160.799 197.321 162.969 196.91 165.071C196.709 167.756 195.718 170.322 194.061 172.445C192.405 174.569 190.158 176.155 187.602 177.005C188.369 179.359 188.59 181.856 188.249 184.308C187.909 186.761 187.014 189.103 185.635 191.159C184.255 193.215 182.426 194.93 180.286 196.174C178.145 197.419 175.75 198.16 173.281 198.342C165.309 199.393 144.544 200.491 124.113 200.491ZM69.3602 189.798C74.7338 191.491 80.2215 192.8 85.7813 193.712C107.692 196.958 159.39 195.287 172.852 193.712C174.648 193.576 176.388 193.023 177.934 192.097C179.479 191.171 180.788 189.898 181.756 188.379C182.725 186.86 183.326 185.135 183.512 183.343C183.698 181.551 183.464 179.741 182.828 178.055C182.592 177.538 182.47 176.976 182.47 176.408C182.47 175.84 182.592 175.278 182.828 174.761C183.102 174.233 183.48 173.766 183.94 173.389C184.399 173.011 184.93 172.731 185.502 172.565C187.3 172.035 188.886 170.952 190.034 169.469C191.182 167.987 191.834 166.181 191.898 164.307C192.225 162.808 192.116 161.247 191.583 159.809C191.05 158.37 190.116 157.115 188.891 156.192C188.411 155.816 188.03 155.329 187.782 154.772C187.534 154.216 187.426 153.607 187.469 152.999C187.511 152.391 187.702 151.802 188.025 151.285C188.348 150.768 188.793 150.339 189.32 150.034C190.877 149.184 192.155 147.904 193.002 146.346C193.849 144.788 194.228 143.019 194.094 141.25C194.011 139.613 193.534 138.02 192.703 136.607C191.872 135.194 190.711 134.003 189.32 133.135C188.707 132.745 188.2 132.21 187.842 131.577C187.484 130.945 187.287 130.234 187.268 129.507C187.244 128.799 187.397 128.097 187.714 127.463C188.031 126.829 188.501 126.285 189.082 125.879C190.474 124.881 191.605 123.561 192.377 122.032C193.15 120.502 193.543 118.809 193.521 117.096C193.521 111.32 188.748 107.549 181.348 106.833C178.246 106.594 173.52 106.546 168.555 106.594C152.086 106.594 141.25 106.308 137.718 102.393C134.854 99.2428 136.429 94.2783 138.291 88.5023C140.266 83.3725 141.238 77.9115 141.155 72.4153C139.866 58.0945 133.422 48.07 125.498 47.7358C122.206 47.3812 118.883 48.0125 115.95 49.5498C116.857 55.0394 119.722 74.4202 117.048 83.2991C114.944 88.902 111.243 93.7649 106.403 97.2857C104.18 99.1603 102.12 101.22 100.245 103.444C97.5469 106.966 95.4648 110.921 94.0874 115.139C93.0212 119.532 90.3027 123.344 86.4974 125.784C81.0632 128.169 75.1413 129.232 69.217 128.887L69.3602 189.798Z" fill="#ECEEF8"/>
<path d="M50.5523 142.062C53.1886 142.062 55.3258 139.925 55.3258 137.288C55.3258 134.652 53.1886 132.515 50.5523 132.515C47.9159 132.515 45.7787 134.652 45.7787 137.288C45.7787 139.925 47.9159 142.062 50.5523 142.062Z" fill="#ECEEF8"/>
</svg>
