<svg width="35" height="22" viewBox="0 0 35 22" fill="none" xmlns="http://www.w3.org/2000/svg">
<path d="M0 2.76611C0 1.2503 1.27118 0.0214844 2.83927 0.0214844H31.232C32.8 0.0214844 34.0712 1.2503 34.0712 2.76611V19.2339C34.0712 20.7497 32.8 21.9785 31.232 21.9785H2.83927C1.27118 21.9785 0 20.7497 0 19.2339V2.76611Z" fill="#CCDEFF"/>
<path d="M7.6454 7.92437C7.28953 7.68787 6.82513 7.56934 6.25223 7.56934H4.03426C3.85863 7.56934 3.7616 7.65424 3.74317 7.8239L2.84218 13.2911C2.83282 13.3448 2.84672 13.3939 2.88375 13.4385C2.92057 13.4833 2.96688 13.5055 3.02235 13.5055H4.07587C4.26065 13.5055 4.36221 13.4208 4.38086 13.2509L4.63034 11.777C4.63945 11.7056 4.67195 11.6475 4.72741 11.6028C4.78283 11.5581 4.85215 11.5289 4.93533 11.5156C5.0185 11.5023 5.09693 11.4956 5.171 11.4956C5.24485 11.4956 5.3326 11.5001 5.43442 11.509C5.53599 11.5179 5.60073 11.5223 5.62848 11.5223C6.4232 11.5223 7.04699 11.3058 7.4999 10.8724C7.95259 10.4392 8.1792 9.8385 8.1792 9.07003C8.1792 8.54297 8.00111 8.16111 7.6454 7.92424V7.92437ZM6.50184 9.566C6.45549 9.87872 6.33549 10.0841 6.14143 10.1824C5.94733 10.2808 5.67009 10.3298 5.30972 10.3298L4.85224 10.3432L5.08795 8.90931C5.10634 8.81113 5.16638 8.76198 5.26811 8.76198H5.53158C5.90106 8.76198 6.16923 8.81346 6.33558 8.91602C6.50184 9.01883 6.55731 9.23554 6.50184 9.566Z" fill="#003087"/>
<path d="M31.0516 7.56934H30.0259C29.9239 7.56934 29.8639 7.61849 29.8456 7.71683L28.9446 13.2913L28.9307 13.3181C28.9307 13.363 28.9491 13.4052 28.9862 13.4455C29.023 13.4856 29.0694 13.5057 29.1248 13.5057H30.0398C30.2151 13.5057 30.3122 13.421 30.331 13.2512L31.2319 7.77044V7.75713C31.2319 7.632 31.1716 7.5695 31.0516 7.5695V7.56934Z" fill="#009CDE"/>
<path d="M18.6586 9.72812C18.6586 9.68356 18.6401 9.64104 18.6033 9.60094C18.5662 9.56076 18.5246 9.54053 18.4785 9.54053H17.4112C17.3093 9.54053 17.2261 9.58542 17.1615 9.6745L15.6922 11.765L15.0822 9.75499C15.0358 9.61216 14.9343 9.54053 14.7773 9.54053H13.7375C13.6911 9.54053 13.6496 9.56068 13.6128 9.60094C13.5758 9.64104 13.5574 9.68364 13.5574 9.72812C13.5574 9.7461 13.6475 10.0095 13.8277 10.5187C14.0078 11.0281 14.2019 11.5775 14.4098 12.1672C14.6178 12.7567 14.7263 13.0695 14.7356 13.105C13.9777 14.1057 13.599 14.6417 13.599 14.713C13.599 14.8293 13.6589 14.8873 13.7792 14.8873H14.8466C14.9482 14.8873 15.0313 14.8427 15.0961 14.7533L18.6311 9.82187C18.6494 9.80418 18.6586 9.77305 18.6586 9.72808V9.72812Z" fill="#003087"/>
<path d="M28.5989 9.53862H27.5454C27.4159 9.53862 27.3376 9.68607 27.3098 9.98094C27.0693 9.62369 26.6306 9.44482 25.9928 9.44482C25.3274 9.44482 24.7613 9.68607 24.2947 10.1685C23.828 10.6509 23.5947 11.2184 23.5947 11.8704C23.5947 12.3976 23.7541 12.8174 24.0729 13.13C24.3917 13.4429 24.8191 13.599 25.3553 13.599C25.6232 13.599 25.8958 13.5453 26.1731 13.4382C26.4503 13.331 26.6673 13.1882 26.8247 13.0094C26.8247 13.0184 26.8153 13.0584 26.797 13.1299C26.7783 13.2015 26.7692 13.2552 26.7692 13.2907C26.7692 13.4338 26.8291 13.5051 26.9494 13.5051H27.906C28.0814 13.5051 28.1832 13.4204 28.2108 13.2505L28.7792 9.753C28.7883 9.69934 28.7745 9.65032 28.7376 9.60559C28.7005 9.56102 28.6544 9.53862 28.5989 9.53862ZM26.79 12.1786C26.5543 12.4019 26.2701 12.5136 25.9374 12.5136C25.6693 12.5136 25.4523 12.4422 25.2859 12.2992C25.1194 12.1566 25.0363 11.96 25.0363 11.7096C25.0363 11.3793 25.1518 11.0999 25.3829 10.8721C25.6137 10.6443 25.9004 10.5304 26.2424 10.5304C26.5009 10.5304 26.7158 10.6041 26.8869 10.7514C27.0577 10.8989 27.1435 11.1021 27.1435 11.3613C27.1434 11.6828 27.0256 11.9554 26.79 12.1786Z" fill="#009CDE"/>
<path d="M12.851 9.53862H11.7975C11.6679 9.53862 11.5895 9.68607 11.5618 9.98094C11.3123 9.62369 10.8732 9.44482 10.2448 9.44482C9.57944 9.44482 9.01333 9.68607 8.54669 10.1685C8.07993 10.6509 7.84668 11.2184 7.84668 11.8704C7.84668 12.3976 8.00612 12.8174 8.32496 13.13C8.64381 13.4429 9.07112 13.599 9.6072 13.599C9.86583 13.599 10.134 13.5453 10.4112 13.4382C10.6884 13.331 10.9102 13.1882 11.0766 13.0094C11.0395 13.1165 11.0211 13.2104 11.0211 13.2907C11.0211 13.4338 11.0812 13.5051 11.2013 13.5051H12.1578C12.3333 13.5051 12.435 13.4204 12.4628 13.2505L13.0311 9.753C13.0402 9.69934 13.0264 9.65032 12.9896 9.60559C12.9526 9.56102 12.9064 9.53862 12.851 9.53862ZM11.042 12.1852C10.8063 12.4044 10.5174 12.5136 10.1756 12.5136C9.90748 12.5136 9.69262 12.4422 9.53101 12.2992C9.3692 12.1566 9.2884 11.96 9.2884 11.7096C9.2884 11.3793 9.40386 11.0999 9.63499 10.8721C9.86587 10.6443 10.1524 10.5304 10.4944 10.5304C10.7531 10.5304 10.9679 10.6041 11.1391 10.7514C11.3099 10.8989 11.3955 11.1021 11.3955 11.3613C11.3955 11.6918 11.2777 11.9666 11.042 12.1852Z" fill="#003087"/>
<path d="M23.393 7.92437C23.0372 7.68787 22.5729 7.56934 21.9999 7.56934H19.7958C19.6109 7.56934 19.5092 7.65424 19.4908 7.8239L18.5897 13.2911C18.5804 13.3448 18.5943 13.3939 18.6314 13.4385C18.668 13.4833 18.7144 13.5055 18.7699 13.5055H19.9066C20.0174 13.5055 20.0913 13.4475 20.1284 13.3313L20.3779 11.777C20.3871 11.7056 20.4195 11.6475 20.475 11.6028C20.5305 11.5581 20.5997 11.5289 20.683 11.5156C20.7661 11.5023 20.8445 11.4956 20.9186 11.4956C20.9925 11.4956 21.0802 11.5001 21.1819 11.509C21.2835 11.5179 21.3484 11.5223 21.376 11.5223C22.1709 11.5223 22.7945 11.3058 23.2474 10.8724C23.7003 10.4392 23.9267 9.8385 23.9267 9.07003C23.9267 8.54297 23.7487 8.16107 23.393 7.92424V7.92437ZM21.9722 10.1287C21.7689 10.2627 21.4638 10.3297 21.0573 10.3297L20.6136 10.3431L20.8493 8.90922C20.8676 8.81109 20.9277 8.76185 21.0295 8.76185H21.2789C21.4823 8.76185 21.6439 8.77082 21.7643 8.78864C21.8842 8.80658 21.9999 8.86233 22.1108 8.95608C22.2218 9.04992 22.2771 9.18623 22.2771 9.36481C22.2771 9.74016 22.1754 9.99463 21.9722 10.1287Z" fill="#009CDE"/>
</svg>
