<svg width="38" height="38" viewBox="0 0 38 38" fill="none" xmlns="http://www.w3.org/2000/svg">
<rect width="38" height="38" fill="white"/>
<path d="M34.0449 9.19387C33.995 9.13285 33.9321 9.08377 33.8607 9.05023C33.7894 9.01669 33.7114 8.99953 33.6326 9.00001H13.5168C13.3954 8.99982 13.2776 9.0414 13.1833 9.11778C13.0889 9.19416 13.0237 9.30068 12.9986 9.41946L9.08615 28.1007C9.06966 28.1786 9.07101 28.2593 9.09009 28.3367C9.10917 28.414 9.14549 28.4861 9.19633 28.5474C9.24717 28.6088 9.31123 28.6578 9.3837 28.691C9.45618 28.7241 9.5352 28.7404 9.61486 28.7386H29.7306C29.852 28.7388 29.9698 28.6973 30.0642 28.6209C30.1585 28.5445 30.2237 28.438 30.2488 28.3192L34.1613 9.63799C34.1765 9.55998 34.174 9.47954 34.1538 9.40265C34.1337 9.32576 34.0965 9.25439 34.0449 9.19387ZM19.382 10.0574H27.711L27.1118 13.5822H18.7828L19.382 10.0574ZM29.2901 27.6812H10.2564L13.9574 10.0574H18.3069L17.6337 14.0228C17.6209 14.0986 17.6247 14.1764 17.6451 14.2505C17.6654 14.3247 17.7016 14.3936 17.7513 14.4523C17.801 14.5111 17.8629 14.5582 17.9326 14.5906C18.0024 14.6229 18.0784 14.6397 18.1553 14.6396H27.5594C27.6844 14.6397 27.8054 14.5955 27.9009 14.5148C27.9964 14.4342 28.0602 14.3223 28.0811 14.199L28.786 10.0574H32.9805L29.2901 27.6812Z" fill="black"/>
<path d="M4.88076 10.7625H10.1679C10.3081 10.7625 10.4426 10.7068 10.5418 10.6076C10.6409 10.5085 10.6966 10.374 10.6966 10.2338C10.6966 10.0936 10.6409 9.95909 10.5418 9.85994C10.4426 9.76078 10.3081 9.70508 10.1679 9.70508H4.88076C4.74054 9.70508 4.60606 9.76078 4.50691 9.85994C4.40775 9.95909 4.35205 10.0936 4.35205 10.2338C4.35205 10.374 4.40775 10.5085 4.50691 10.6076C4.60606 10.7068 4.74054 10.7625 4.88076 10.7625Z" fill="#6E81BE"/>
<path d="M4.52871 16.4022H9.1109C9.25112 16.4022 9.3856 16.3465 9.48475 16.2473C9.58391 16.1481 9.63961 16.0137 9.63961 15.8734C9.63961 15.7332 9.58391 15.5987 9.48475 15.4996C9.3856 15.4004 9.25112 15.3447 9.1109 15.3447H4.52871C4.38849 15.3447 4.25401 15.4004 4.15486 15.4996C4.0557 15.5987 4 15.7332 4 15.8734C4 16.0137 4.0557 16.1481 4.15486 16.2473C4.25401 16.3465 4.38849 16.4022 4.52871 16.4022Z" fill="#6E81BE"/>
<path d="M8.40595 20.6318H4.52871C4.38849 20.6318 4.25401 20.6875 4.15486 20.7867C4.0557 20.8858 4 21.0203 4 21.1605C4 21.3008 4.0557 21.4353 4.15486 21.5344C4.25401 21.6336 4.38849 21.6893 4.52871 21.6893H8.40595C8.54617 21.6893 8.68065 21.6336 8.7798 21.5344C8.87896 21.4353 8.93466 21.3008 8.93466 21.1605C8.93466 21.0203 8.87896 20.8858 8.7798 20.7867C8.68065 20.6875 8.54617 20.6318 8.40595 20.6318Z" fill="#6E81BE"/>
<path d="M7.34852 26.6235H4.52871C4.38849 26.6235 4.25401 26.6792 4.15486 26.7784C4.0557 26.8775 4 27.012 4 27.1522C4 27.2925 4.0557 27.427 4.15486 27.5261C4.25401 27.6253 4.38849 27.681 4.52871 27.681H7.34852C7.48874 27.681 7.62322 27.6253 7.72238 27.5261C7.82153 27.427 7.87723 27.2925 7.87723 27.1522C7.87723 27.012 7.82153 26.8775 7.72238 26.7784C7.62322 26.6792 7.48874 26.6235 7.34852 26.6235Z" fill="#6E81BE"/>
<path d="M26.1462 19.0313C26.0116 18.9956 25.8683 19.0145 25.7476 19.0838C25.6268 19.1531 25.5382 19.2672 25.5011 19.4014L24.197 24.1951C24.1745 24.2632 24.1662 24.3352 24.1724 24.4066C24.1787 24.4781 24.1994 24.5475 24.2333 24.6107C24.2673 24.6739 24.3137 24.7295 24.3698 24.7742C24.4259 24.8188 24.4905 24.8516 24.5597 24.8705C24.6289 24.8895 24.7012 24.8941 24.7722 24.8842C24.8433 24.8743 24.9115 24.85 24.9729 24.8129C25.0343 24.7757 25.0874 24.7265 25.1291 24.6682C25.1709 24.6098 25.2003 24.5436 25.2156 24.4735L26.5163 19.6799C26.553 19.5448 26.5347 19.4007 26.4653 19.2791C26.3959 19.1575 26.2811 19.0684 26.1462 19.0313Z" fill="black"/>
<path d="M21.5636 19.0313C21.429 18.9956 21.2858 19.0145 21.1651 19.0838C21.0443 19.1531 20.9557 19.2672 20.9186 19.4014L19.6144 24.1951C19.592 24.2632 19.5837 24.3352 19.5899 24.4066C19.5962 24.4781 19.6169 24.5475 19.6508 24.6107C19.6847 24.6739 19.7312 24.7295 19.7873 24.7742C19.8434 24.8188 19.908 24.8516 19.9772 24.8705C20.0464 24.8895 20.1187 24.8941 20.1897 24.8842C20.2607 24.8743 20.329 24.85 20.3904 24.8129C20.4517 24.7757 20.5049 24.7265 20.5466 24.6682C20.5883 24.6098 20.6178 24.5436 20.6331 24.4735L21.9337 19.6799C21.9705 19.5448 21.9521 19.4007 21.8828 19.2791C21.8134 19.1575 21.6986 19.0684 21.5636 19.0313Z" fill="black"/>
<path d="M16.9821 19.0313C16.8475 18.9956 16.7043 19.0145 16.5835 19.0838C16.4627 19.1531 16.3742 19.2672 16.3371 19.4014L15.0329 24.1951C15.0105 24.2632 15.0021 24.3352 15.0084 24.4066C15.0146 24.4781 15.0353 24.5475 15.0693 24.6107C15.1032 24.6739 15.1496 24.7295 15.2057 24.7742C15.2619 24.8188 15.3265 24.8516 15.3956 24.8705C15.4648 24.8895 15.5371 24.8941 15.6082 24.8842C15.6792 24.8743 15.7475 24.85 15.8088 24.8129C15.8702 24.7757 15.9233 24.7265 15.9651 24.6682C16.0068 24.6098 16.0362 24.5436 16.0516 24.4735L17.3522 19.6799C17.3889 19.5448 17.3706 19.4007 17.3012 19.2791C17.2318 19.1575 17.1171 19.0684 16.9821 19.0313Z" fill="black"/>
</svg>
