<svg width="38" height="38" viewBox="0 0 38 38" fill="none" xmlns="http://www.w3.org/2000/svg">
<rect width="38" height="38" fill="white"/>
<path d="M31.6752 9H6.32515C5.04316 9 4 10.0432 4 11.3251V12.8791V16.2278V26.296C4 27.578 5.04316 28.6208 6.32515 28.6208H31.6752C32.9572 28.6208 34 27.578 34 26.296V16.2278V12.8791V11.3251C34 10.0432 32.9572 9 31.6752 9ZM4.96527 11.3251C4.96559 10.5752 5.5752 9.96559 6.32483 9.96559H31.6749C32.4245 9.96559 33.0341 10.5755 33.0341 11.3251V12.3963H4.96527V11.3251ZM33.0344 26.2957C33.0344 27.045 32.4245 27.6549 31.6752 27.6549H6.32515C5.57553 27.6549 4.96559 27.045 4.96559 26.2957V16.7103H33.0344V26.2957ZM33.0344 15.7447H4.96559V13.3616H33.0344V15.7447Z" fill="black"/>
<path d="M8.66643 25.7518C9.595 25.7518 10.3501 24.997 10.3501 24.0694C10.3501 23.1412 9.595 22.3857 8.66643 22.3857C7.73849 22.3857 6.9834 23.1412 6.9834 24.0694C6.9834 24.997 7.73849 25.7518 8.66643 25.7518ZM8.66643 23.3513C9.06232 23.3513 9.38451 23.6735 9.38451 24.0694C9.38451 24.4647 9.06232 24.7862 8.66643 24.7862C8.27086 24.7862 7.94899 24.4647 7.94899 24.0694C7.94899 23.6735 8.27086 23.3513 8.66643 23.3513Z" fill="#6E81BE"/>
<path d="M12.2665 24.6091H25.8698C26.1366 24.6091 26.3526 24.3932 26.3526 24.1264C26.3526 23.8595 26.1366 23.6436 25.8698 23.6436H12.2665C11.9997 23.6436 11.7837 23.8595 11.7837 24.1264C11.7837 24.3932 11.9997 24.6091 12.2665 24.6091Z" fill="black"/>
</svg>
