<svg width="38" height="38" viewBox="0 0 38 38" fill="none" xmlns="http://www.w3.org/2000/svg">
<rect width="38" height="38" fill="white"/>
<path d="M27.6513 20.2287V17.4521C27.6504 16.9645 27.4581 16.4971 27.1166 16.1523C26.7751 15.8075 26.3123 15.6134 25.8293 15.6124H24.8L26.0547 14.3492C26.1234 14.2765 26.1623 14.1803 26.1637 14.0799C26.164 14.03 26.1545 13.9805 26.1358 13.9343C26.1171 13.888 26.0896 13.846 26.0547 13.8106L21.1973 8.90596C21.1624 8.87041 21.1208 8.84219 21.0751 8.82293C21.0293 8.80368 20.9802 8.79376 20.9306 8.79376C20.881 8.79376 20.8319 8.80368 20.7861 8.82293C20.7404 8.84219 20.6988 8.87041 20.6639 8.90596L19.7585 9.82013L16.2234 8.03732C16.1326 7.99525 16.0296 7.98849 15.9342 8.01835C15.8407 8.05195 15.763 8.11959 15.7163 8.20801L12.061 15.6124H9.80698C9.32667 15.6173 8.86765 15.8133 8.52941 16.1576C8.19118 16.502 8.00096 16.9671 8 17.4521V28.1603C8.00099 28.6479 8.19327 29.1152 8.53475 29.46C8.87623 29.8048 9.33908 29.999 9.822 30H25.8293C26.3123 29.999 26.7751 29.8048 27.1166 29.46C27.4581 29.1152 27.6504 28.6479 27.6513 28.1603V24.7464C28.0122 24.7337 28.3541 24.5804 28.6055 24.3188C28.8569 24.0572 28.9983 23.7074 29 23.3429V21.636C29.0002 21.2705 28.8595 20.9193 28.6078 20.6566C28.3561 20.394 28.0131 20.2405 27.6513 20.2287ZM20.9306 9.71012L25.2583 14.0685L23.7556 15.5858H22.3732L22.7488 15.2293C22.784 15.194 22.812 15.152 22.8311 15.1058C22.8502 15.0596 22.86 15.01 22.86 14.9599C22.86 14.9099 22.8502 14.8603 22.8311 14.814C22.812 14.7678 22.784 14.7259 22.7488 14.6906C22.6657 14.6071 22.5997 14.5078 22.5547 14.3984C22.5097 14.289 22.4865 14.1718 22.4865 14.0534C22.4865 13.9349 22.5097 13.8176 22.5547 13.7083C22.5997 13.5989 22.6657 13.4996 22.7488 13.4161C22.784 13.3808 22.812 13.3389 22.8311 13.2926C22.8502 13.2464 22.86 13.1969 22.86 13.1468C22.86 13.0967 22.8502 13.0471 22.8311 13.0009C22.812 12.9547 22.784 12.9127 22.7488 12.8775L22.0877 12.263C22.0173 12.1923 21.9221 12.1527 21.8228 12.1527C21.7236 12.1527 21.6284 12.1923 21.558 12.263C21.4755 12.3468 21.3775 12.4133 21.2695 12.4587C21.1615 12.5041 21.0457 12.5275 20.9287 12.5275C20.8117 12.5275 20.6959 12.5041 20.5879 12.4587C20.4799 12.4133 20.3819 12.3468 20.2995 12.263C20.2645 12.2274 20.223 12.1992 20.1772 12.1799C20.1314 12.1607 20.0823 12.1508 20.0327 12.1508C19.9831 12.1508 19.934 12.1607 19.8883 12.1799C19.8425 12.1992 19.8009 12.2274 19.766 12.263L16.4526 15.6124H15.0852L20.9306 9.71012ZM17.5533 15.5858C17.804 15.3374 18.1413 15.1983 18.4925 15.1983C18.8437 15.1983 19.1809 15.3374 19.4317 15.5858L19.4617 15.6237H17.512L17.5533 15.5858ZM20.3821 15.6237C20.2827 15.4092 20.1467 15.214 19.9801 15.0472C19.6292 14.6985 19.1675 14.4862 18.6766 14.4479L20.0628 13.0482C20.3232 13.2099 20.623 13.2955 20.9287 13.2955C21.2345 13.2955 21.5342 13.2099 21.7946 13.0482L21.9637 13.2151C21.805 13.4712 21.7193 13.7664 21.7157 14.0685C21.7159 14.3776 21.8032 14.6802 21.9674 14.941L21.3138 15.601L20.3821 15.6237ZM15.6224 13.9965L16.4488 12.3199C16.7344 12.3875 17.0327 12.377 17.3129 12.2895L15.6224 13.9965ZM16.2234 8.887L19.1987 10.3853L18.4775 11.1136L18.1431 10.9391C18.0988 10.9164 18.0504 10.9028 18.0008 10.899C17.9512 10.8953 17.9014 10.9016 17.8542 10.9175C17.807 10.9334 17.7635 10.9585 17.726 10.9916C17.6885 11.0246 17.6579 11.0648 17.636 11.1098C17.584 11.2153 17.512 11.3094 17.424 11.3867C17.336 11.464 17.2338 11.5231 17.1232 11.5604C17.0125 11.5978 16.8957 11.6127 16.7794 11.6044C16.663 11.596 16.5494 11.5646 16.4451 11.5119C16.3563 11.4669 16.2536 11.4592 16.1593 11.4905C16.0649 11.5218 15.9867 11.5894 15.9417 11.6788L13.9882 15.6124H12.9025L16.2234 8.887ZM25.8293 29.2414H9.822C9.53835 29.2403 9.2666 29.1261 9.06603 28.9236C8.86545 28.7211 8.75233 28.4467 8.75134 28.1603V17.4521C8.75233 17.1656 8.86545 16.8912 9.06603 16.6887C9.2666 16.4862 9.53835 16.372 9.822 16.371H25.8293C26.113 16.372 26.3847 16.4862 26.5853 16.6887C26.7859 16.8912 26.899 17.1656 26.9 17.4521V20.2249H24.0975C23.7986 20.2249 23.5119 20.3448 23.3006 20.5582C23.0892 20.7716 22.9705 21.061 22.9705 21.3629V23.6047C22.9705 23.9064 23.0892 24.1959 23.3006 24.4093C23.5119 24.6227 23.7986 24.7426 24.0975 24.7426H26.9V28.1565C26.9 28.4436 26.7873 28.7189 26.5867 28.9223C26.386 29.1256 26.1136 29.2403 25.8293 29.2414ZM23.7218 22.0608H24.0637C24.1679 22.0708 24.2647 22.1197 24.3352 22.1979C24.4057 22.2761 24.4447 22.378 24.4447 22.4838C24.4447 22.5895 24.4057 22.6914 24.3352 22.7696C24.2647 22.8478 24.1679 22.8967 24.0637 22.9067H23.7218V22.0608ZM28.2299 23.3353C28.2289 23.5071 28.1609 23.6715 28.0406 23.7929C27.9204 23.9143 27.7575 23.983 27.5875 23.984H24.0975C24.0074 23.9852 23.92 23.9536 23.851 23.8951C23.7821 23.8366 23.7362 23.7551 23.7218 23.6653H24.0524C24.3513 23.6482 24.6324 23.5163 24.838 23.2966C25.0436 23.0769 25.1582 22.786 25.1582 22.4838C25.1582 22.1815 25.0436 21.8907 24.838 21.6709C24.6324 21.4512 24.3513 21.3193 24.0524 21.3022H23.7218C23.7362 21.2124 23.7821 21.1309 23.851 21.0724C23.92 21.0139 24.0074 20.9824 24.0975 20.9835H27.6063C27.776 20.9835 27.9388 21.0513 28.0592 21.1722C28.1795 21.293 28.2477 21.457 28.2487 21.6284L28.2299 23.3353Z" fill="black"/>
<path d="M10.914 28C10.7244 28 10.5629 27.9713 10.4298 27.9139C10.2986 27.8546 10.1967 27.7694 10.1241 27.6583C10.0515 27.5454 10.0111 27.4083 10.003 27.2472C10.001 27.1713 10 27.0898 10 27.0028C10 26.9157 10.001 26.8324 10.003 26.7528C10.0111 26.5935 10.0515 26.4583 10.1241 26.3472C10.1987 26.2343 10.3027 26.1481 10.4358 26.0889C10.569 26.0296 10.7284 26 10.914 26C11.0492 26 11.1723 26.0157 11.2833 26.0472C11.3942 26.0787 11.4901 26.1241 11.5708 26.1833C11.6515 26.2426 11.714 26.312 11.7584 26.3917C11.8028 26.4713 11.827 26.5602 11.8311 26.6583C11.8311 26.675 11.824 26.6889 11.8099 26.7C11.7978 26.7111 11.7826 26.7167 11.7645 26.7167H11.4195C11.3952 26.7167 11.3761 26.7111 11.3619 26.7C11.3478 26.6889 11.3367 26.6704 11.3287 26.6444C11.2984 26.5352 11.2479 26.4602 11.1773 26.4194C11.1067 26.3787 11.0189 26.3583 10.914 26.3583C10.7889 26.3583 10.6901 26.3898 10.6174 26.4528C10.5448 26.5157 10.5054 26.6204 10.4994 26.7667C10.4933 26.9185 10.4933 27.0741 10.4994 27.2333C10.5054 27.3796 10.5448 27.4843 10.6174 27.5472C10.6901 27.6102 10.7889 27.6417 10.914 27.6417C11.0189 27.6417 11.1067 27.6213 11.1773 27.5806C11.25 27.538 11.3004 27.463 11.3287 27.3556C11.3367 27.3278 11.3478 27.3093 11.3619 27.3C11.3761 27.2889 11.3952 27.2833 11.4195 27.2833H11.7645C11.7826 27.2833 11.7978 27.2889 11.8099 27.3C11.824 27.3111 11.8311 27.325 11.8311 27.3417C11.827 27.4398 11.8028 27.5287 11.7584 27.6083C11.714 27.688 11.6515 27.7574 11.5708 27.8167C11.4901 27.8759 11.3942 27.9213 11.2833 27.9528C11.1723 27.9843 11.0492 28 10.914 28Z" fill="#6E81BE"/>
<path d="M12.0204 27.9722C12.0023 27.9722 11.9871 27.9667 11.975 27.9556C11.9629 27.9426 11.9569 27.9287 11.9569 27.9139C11.9569 27.9046 11.9579 27.8963 11.9599 27.8889L12.6802 26.1028C12.6863 26.0824 12.6984 26.0648 12.7165 26.05C12.7347 26.0352 12.7599 26.0278 12.7922 26.0278H13.1796C13.2119 26.0278 13.2371 26.0352 13.2553 26.05C13.2734 26.0648 13.2855 26.0824 13.2916 26.1028L14.0119 27.8889C14.0139 27.8963 14.0149 27.9046 14.0149 27.9139C14.0149 27.9287 14.0089 27.9426 13.9968 27.9556C13.9847 27.9667 13.9695 27.9722 13.9514 27.9722H13.6366C13.6063 27.9722 13.5842 27.9657 13.57 27.9528C13.5559 27.9398 13.5468 27.9278 13.5428 27.9167L13.4126 27.6056H12.5592L12.429 27.9167C12.425 27.9278 12.4159 27.9398 12.4018 27.9528C12.3877 27.9657 12.3655 27.9722 12.3352 27.9722H12.0204ZM12.6711 27.2472H13.2976L12.9859 26.4472L12.6711 27.2472Z" fill="#6E81BE"/>
<path d="M15.0057 28C14.812 28 14.6496 27.9741 14.5184 27.9222C14.3893 27.8704 14.2914 27.8028 14.2249 27.7194C14.1583 27.6361 14.123 27.5472 14.1189 27.4528C14.1189 27.438 14.125 27.425 14.1371 27.4139C14.1492 27.4009 14.1643 27.3944 14.1825 27.3944H14.5063C14.5326 27.3944 14.5527 27.4 14.5669 27.4111C14.581 27.4204 14.5941 27.4324 14.6062 27.4472C14.6203 27.4787 14.6425 27.5093 14.6728 27.5389C14.7051 27.5685 14.7484 27.5935 14.8029 27.6139C14.8574 27.6324 14.925 27.6417 15.0057 27.6417C15.1369 27.6417 15.2347 27.6222 15.2993 27.5833C15.3659 27.5444 15.3992 27.4917 15.3992 27.425C15.3992 27.3769 15.381 27.338 15.3447 27.3083C15.3104 27.2787 15.2549 27.2519 15.1782 27.2278C15.1036 27.2037 15.0037 27.1778 14.8786 27.15C14.7273 27.1204 14.5981 27.0824 14.4912 27.0361C14.3863 26.988 14.3066 26.9269 14.2521 26.8528C14.1996 26.7769 14.1734 26.6833 14.1734 26.5722C14.1734 26.4611 14.2067 26.363 14.2733 26.2778C14.3399 26.1907 14.4337 26.1231 14.5547 26.075C14.6758 26.025 14.8201 26 14.9875 26C15.1227 26 15.2418 26.0167 15.3447 26.05C15.4496 26.0833 15.5364 26.1269 15.605 26.1806C15.6756 26.2343 15.729 26.2917 15.7654 26.3528C15.8017 26.4139 15.8209 26.4731 15.8229 26.5306C15.8229 26.5454 15.8168 26.5593 15.8047 26.5722C15.7926 26.5833 15.7775 26.5889 15.7593 26.5889H15.4203C15.4002 26.5889 15.382 26.5852 15.3659 26.5778C15.3497 26.5704 15.3366 26.5574 15.3265 26.5389C15.3144 26.4907 15.2781 26.4491 15.2176 26.4139C15.159 26.3769 15.0824 26.3583 14.9875 26.3583C14.8887 26.3583 14.81 26.375 14.7515 26.4083C14.695 26.4417 14.6667 26.4926 14.6667 26.5611C14.6667 26.6056 14.6809 26.6435 14.7091 26.675C14.7394 26.7046 14.7888 26.7315 14.8574 26.7556C14.928 26.7778 15.0208 26.8028 15.1358 26.8306C15.3134 26.8639 15.4577 26.9037 15.5686 26.95C15.6796 26.9963 15.7613 27.0565 15.8138 27.1306C15.8663 27.2028 15.8925 27.2944 15.8925 27.4056C15.8925 27.5296 15.8541 27.6361 15.7775 27.725C15.7028 27.8139 15.5989 27.8824 15.4657 27.9306C15.3346 27.9769 15.1812 28 15.0057 28Z" fill="#6E81BE"/>
<path d="M16.293 27.9722C16.2708 27.9722 16.2527 27.9657 16.2385 27.9528C16.2244 27.9398 16.2174 27.9231 16.2174 27.9028V26.0972C16.2174 26.0769 16.2244 26.0602 16.2385 26.0472C16.2527 26.0343 16.2708 26.0278 16.293 26.0278H16.6229C16.6451 26.0278 16.6633 26.0343 16.6774 26.0472C16.6915 26.0602 16.6986 26.0769 16.6986 26.0972V26.7917H17.5188V26.0972C17.5188 26.0769 17.5258 26.0602 17.54 26.0472C17.5541 26.0343 17.5722 26.0278 17.5944 26.0278H17.9243C17.9465 26.0278 17.9647 26.0343 17.9788 26.0472C17.9929 26.0602 18 26.0769 18 26.0972V27.9028C18 27.9231 17.9929 27.9398 17.9788 27.9528C17.9647 27.9657 17.9465 27.9722 17.9243 27.9722H17.5944C17.5722 27.9722 17.5541 27.9657 17.54 27.9528C17.5258 27.9398 17.5188 27.9231 17.5188 27.9028V27.1861H16.6986V27.9028C16.6986 27.9231 16.6915 27.9398 16.6774 27.9528C16.6633 27.9657 16.6451 27.9722 16.6229 27.9722H16.293Z" fill="#6E81BE"/>
</svg>
