<svg width="38" height="38" viewBox="0 0 38 38" fill="none" xmlns="http://www.w3.org/2000/svg">
<rect width="38" height="38" fill="#ED1C24"/>
<path fill-rule="evenodd" clip-rule="evenodd" d="M28.4419 12.6302C28.5403 12.5974 28.6716 12.663 28.8028 12.8435C28.8028 12.8435 28.8028 12.8435 34.7417 18.6183C35.0862 18.9628 35.0862 19.4878 34.7417 19.7503C34.7417 19.7503 34.7417 19.7503 28.8028 25.6235C28.6716 25.7875 28.5403 25.8368 28.4419 25.7875C28.3435 25.7383 28.2778 25.5743 28.2778 25.361V13.0075C28.2778 12.7943 28.3435 12.663 28.4419 12.6302Z" fill="white"/>
<path fill-rule="evenodd" clip-rule="evenodd" d="M18.2867 3H18.7132L19.1069 3.16406C19.1069 3.16406 19.1069 3.16406 25.2263 9.21775C25.4888 9.56227 25.3903 9.80835 24.9638 9.80835C24.9638 9.80835 24.9638 9.80835 22.4209 9.80835C21.9943 9.80835 21.6334 10.1693 21.6334 10.5958C21.6334 10.5958 21.6334 10.5958 21.6334 15.091C21.6334 15.5175 21.2889 15.862 20.7639 15.862C20.7639 15.862 20.7639 15.862 16.318 15.862C15.875 15.862 15.5305 15.5175 15.5305 15.091C15.5305 15.091 15.5305 15.091 15.5305 10.5958C15.5305 10.1693 15.186 9.80835 14.743 9.80835H12.0361C11.5931 9.80835 11.5111 9.56227 11.7736 9.21775C11.7736 9.21775 11.7736 9.21775 17.8929 3.16406L18.2867 3Z" fill="white"/>
<path fill-rule="evenodd" clip-rule="evenodd" d="M8.72222 12.4992C8.82066 12.5648 8.88628 12.7124 8.88628 12.9257V25.5253C8.88628 25.7549 8.82066 25.8862 8.72222 25.919C8.60738 25.9682 8.45973 25.919 8.27927 25.7878C8.27927 25.7878 8.27927 25.7878 2.25839 19.7505C1.91387 19.488 1.91387 18.963 2.25839 18.6185C2.25839 18.6185 2.25839 18.6185 8.27927 12.6632C8.45973 12.4992 8.60738 12.4499 8.72222 12.4992Z" fill="white"/>
<path fill-rule="evenodd" clip-rule="evenodd" d="M16.3179 22.4238C16.3179 22.4238 16.3179 22.4238 20.7638 22.4238C21.2888 22.4238 21.6497 22.7683 21.6497 23.2113C21.6497 23.2113 21.6497 23.2113 21.6497 27.9525C21.6497 28.4775 21.9942 28.822 22.4208 28.822H24.7832C25.2262 28.822 25.3902 29.0681 25.0457 29.3306C25.0457 29.3306 25.0457 29.3306 19.1069 35.2859C18.9264 35.4663 18.7131 35.5484 18.4998 35.5484C18.2866 35.5484 18.0569 35.4663 17.8928 35.2859C17.8928 35.2859 17.8928 35.2859 11.954 29.3306C11.5931 29.0681 11.7735 28.822 12.2001 28.822C12.2001 28.822 12.2001 28.822 14.7429 28.822C15.1859 28.822 15.5304 28.4775 15.5304 27.9525C15.5304 27.9525 15.5304 27.9525 15.5304 23.2113C15.5304 22.7683 15.8749 22.4238 16.3179 22.4238Z" fill="white"/>
</svg>
