<svg width="109" height="24" viewBox="0 0 109 24" fill="none" xmlns="http://www.w3.org/2000/svg">
<path d="M36.8914 16.4481V23.2163H41.4673V17.6581H44.7735C46.4186 17.6581 47.7841 17.1311 48.8702 16.0769C49.9563 15.0228 50.4994 13.6173 50.4994 11.8604C50.4994 10.1195 49.9563 8.72192 48.8702 7.66779C47.7841 6.59768 46.4186 6.06262 44.7735 6.06262H42.8874L40.5222 10.1594H44.1027C45.1887 10.2073 45.7318 10.7743 45.7318 11.8604C45.7318 12.4194 45.58 12.8426 45.2766 13.1301C44.9891 13.4176 44.5978 13.5614 44.1027 13.5614H38.558L36.8914 16.4481Z" fill="#6E81BE"/>
<path d="M52.3079 10.7832V7.82455L56.6222 6.14003V9.09863L52.3079 10.7832Z" fill="#6E81BE"/>
<path d="M52.3079 23.1363V12.8781L56.6222 11.1936V23.1363H52.3079Z" fill="#6E81BE"/>
<path d="M59.3332 9.4706V22.955H69.8941L68.0224 19.6123H63.6618V9.4706H59.3332Z" fill="#6E81BE"/>
<path fill-rule="evenodd" clip-rule="evenodd" d="M76.6475 23.1363C75.1669 23.1363 73.8751 22.8757 72.7722 22.3545C71.6692 21.8332 70.8156 21.0589 70.2113 20.0315C69.6069 19.0041 69.3048 17.735 69.3048 16.2241C69.3048 14.7133 69.6069 13.4442 70.2113 12.4168C70.8156 11.3818 71.6655 10.6037 72.7609 10.0825C73.8638 9.55369 75.1593 9.28929 76.6475 9.28929C78.1357 9.28929 79.4313 9.55369 80.5342 10.0825C81.6372 10.6037 82.4908 11.3818 83.0951 12.4168C83.707 13.4442 84.013 14.7133 84.013 16.2241C84.013 17.7275 83.707 18.9928 83.0951 20.0202C82.4908 21.0476 81.6372 21.8257 80.5342 22.3545C79.4313 22.8757 78.1357 23.1363 76.6475 23.1363ZM76.6475 19.8842C77.2897 19.8842 77.8298 19.7596 78.2679 19.5103C78.7136 19.2534 79.046 18.8606 79.2651 18.3318C79.4917 17.7954 79.6051 17.1118 79.6051 16.2808C79.6051 15.4121 79.488 14.702 79.2538 14.1505C79.0271 13.5915 78.6948 13.1835 78.2566 12.9267C77.8185 12.6698 77.2821 12.5414 76.6475 12.5414C76.0205 12.5414 75.488 12.6661 75.0498 12.9154C74.6117 13.1647 74.2793 13.5575 74.0526 14.0938C73.826 14.6226 73.7127 15.3063 73.7127 16.1448C73.7127 17.0287 73.8222 17.7463 74.0413 18.2978C74.2679 18.8417 74.5965 19.2421 75.0271 19.4989C75.4653 19.7558 76.0054 19.8842 76.6475 19.8842Z" fill="#6E81BE"/>
<path d="M88.2924 12.8134V22.955H92.6323V12.8134H96.3994V9.4706H83.2151L85.0868 12.8134H88.2924Z" fill="#6E81BE"/>
<path d="M102.277 23.1363C101.492 23.1363 100.721 23.0835 99.9656 22.9777C99.2101 22.8719 98.5378 22.736 97.9486 22.5698V19.3063C98.4018 19.4272 98.8815 19.5329 99.3876 19.6236C99.8938 19.7142 100.392 19.7822 100.883 19.8276C101.374 19.8729 101.82 19.8955 102.221 19.8955C102.802 19.8955 103.248 19.8578 103.558 19.7822C103.867 19.7067 104.079 19.6009 104.192 19.4649C104.313 19.329 104.373 19.1665 104.373 18.9777C104.373 18.8191 104.332 18.6793 104.249 18.5584C104.166 18.4376 104 18.328 103.75 18.2298C103.509 18.1241 103.153 18.0221 102.685 17.9239L101.586 17.7086C100.181 17.4215 99.1497 16.9456 98.4925 16.2808C97.8352 15.6085 97.5066 14.7473 97.5066 13.6972C97.5066 12.8511 97.737 12.0957 98.1978 11.4309C98.6587 10.7662 99.3839 10.2449 100.373 9.8672C101.363 9.48193 102.655 9.28929 104.249 9.28929C104.876 9.28929 105.492 9.32329 106.096 9.39128C106.7 9.45171 107.24 9.53103 107.716 9.62924V12.8927C107.21 12.7794 106.67 12.6887 106.096 12.6207C105.522 12.5528 104.944 12.5188 104.362 12.5188C103.622 12.5188 103.059 12.5603 102.674 12.6434C102.289 12.7265 102.028 12.8398 101.892 12.9833C101.756 13.1269 101.688 13.2855 101.688 13.4593C101.688 13.6859 101.775 13.871 101.949 14.0145C102.122 14.1505 102.519 14.2902 103.138 14.4338L104.249 14.6491C105.238 14.853 106.051 15.1325 106.685 15.4876C107.32 15.8351 107.788 16.277 108.09 16.8134C108.4 17.3422 108.555 17.9767 108.555 18.7171C108.555 19.5707 108.321 20.3299 107.852 20.9947C107.391 21.6595 106.693 22.1845 105.756 22.5698C104.827 22.9475 103.667 23.1363 102.277 23.1363Z" fill="#6E81BE"/>
<path d="M27.3731 3.89406C27.6732 3.79272 27.5767 3.88223 28.2042 3.53767C28.8316 3.19142 29.4183 2.24727 28.2813 1.50916C26.5411 0.37921 21.7667 -0.130876 18.5731 0.472104C15.3796 1.07677 15.3287 1.75238 15.618 2.47359C15.8143 2.96341 16.4931 3.39073 17.3637 3.71502C17.1163 3.50727 17.0839 3.27419 17.3653 3.04955C17.7089 2.77424 17.9265 2.58845 19.7931 2.37901C21.6598 2.16957 24.8522 2.32327 26.4051 2.78606C27.5796 3.13569 27.8395 3.54443 27.3731 3.89406Z" fill="#6E81BE"/>
<path d="M32.74 3.89406C32.4399 3.79272 32.5364 3.88223 31.909 3.53767C31.2815 3.19142 30.6948 2.24727 31.8319 1.50916C33.572 0.37921 38.3464 -0.130876 41.54 0.472104C44.7336 1.07677 44.7845 1.75238 44.4951 2.47359C44.2989 2.96341 43.62 3.39073 42.7494 3.71502C42.9969 3.50727 43.0292 3.27419 42.7478 3.04955C42.4042 2.77424 42.1866 2.58845 40.32 2.37901C38.4534 2.16957 35.261 2.32327 33.7081 2.78606C32.5335 3.13569 32.2736 3.54443 32.74 3.89406Z" fill="#6E81BE"/>
<path d="M0.0629883 5.96939H9.77629L12.1354 10.0661H4.6389V13.4681H12.1728V17.5649H4.6389V23.1231H0.0629883V5.96939Z" fill="#182131"/>
<path d="M13.7263 23.1231H18.3023V17.5649H21.6084C23.2535 17.5649 24.6191 17.0378 25.7052 15.9837C26.7913 14.9296 27.3343 13.524 27.3343 11.7671C27.3343 10.0262 26.7913 8.62869 25.7052 7.57455C24.6191 6.50444 23.2535 5.96939 21.6084 5.96939H11.3306L13.6889 10.0661H20.9376C22.0237 10.1141 22.5667 10.6811 22.5667 11.7671C22.5667 12.3262 22.415 12.7494 22.1115 13.0369C21.824 13.3244 21.4327 13.4681 20.9376 13.4681H13.7263V23.1231Z" fill="#182131"/>
<path fill-rule="evenodd" clip-rule="evenodd" d="M27.0377 16.477L30.8824 23.1363L40.7938 5.96939H37.3358C36.2659 5.96939 35.2773 6.54017 34.7423 7.46674L30.8825 14.1522L28.4519 9.94242C28.5811 10.5204 28.6445 11.1301 28.6445 11.7671C28.6445 13.5962 28.1304 15.2 27.0377 16.477ZM38.0746 7.66056L36.7431 9.96682L36.0878 8.82843L36.7621 7.66056H38.0746Z" fill="#182131"/>
<path d="M36.7431 9.96682L38.0746 7.66056H36.7621L36.0878 8.82843L36.7431 9.96682Z" fill="#182131"/>
</svg>
