<svg width="57" height="57" viewBox="0 0 57 57" fill="none" xmlns="http://www.w3.org/2000/svg">
<rect x="0.308594" y="0.216309" width="56" height="56" rx="28" fill="white"/>
<rect x="0.308594" y="0.216309" width="56" height="56" rx="28" fill="url(#paint0_linear_402_2676)"/>
<rect x="0.308594" y="0.216309" width="56" height="56" rx="28" fill="white" fill-opacity="0.98"/>
<rect x="0.308594" y="0.216309" width="56" height="56" rx="28" fill="url(#paint1_linear_402_2676)"/>
<rect x="0.308594" y="0.216309" width="56" height="56" rx="28" fill="#0088CC"/>
<rect x="12.0044" y="12.4122" width="32.6081" height="31.6081" rx="15.804" fill="#0088CC"/>
<path d="M19.4121 27.2563C19.4121 27.2563 27.3731 23.9891 30.1341 22.8386C31.1925 22.3785 34.7818 20.9059 34.7818 20.9059C34.7818 20.9059 36.4385 20.2617 36.3004 21.8263C36.2544 22.4705 35.8863 24.7253 35.5181 27.1643C34.9659 30.6156 34.3677 34.3889 34.3677 34.3889C34.3677 34.3889 34.2757 35.4474 33.4934 35.6314C32.7111 35.8155 31.4226 34.9872 31.1925 34.8031C31.0084 34.6651 27.7412 32.5943 26.5448 31.5819C26.2227 31.3058 25.8545 30.7536 26.5908 30.1094C28.2474 28.5908 30.2261 26.7041 31.4226 25.5077C31.9748 24.9554 32.527 23.667 30.2261 25.2315C26.959 27.4864 23.7378 29.6032 23.7378 29.6032C23.7378 29.6032 23.0015 30.0633 21.621 29.6492C20.2404 29.2351 18.6298 28.6828 18.6298 28.6828C18.6298 28.6828 17.5255 27.9926 19.4121 27.2563V27.2563Z" fill="white"/>
<defs>
<linearGradient id="paint0_linear_402_2676" x1="28.3086" y1="67.4402" x2="28.3086" y2="-29.6238" gradientUnits="userSpaceOnUse">
<stop stop-color="#F6F7F9"/>
<stop offset="0.261438" stop-color="#EEF3FB"/>
<stop offset="1" stop-color="#EBECEE" stop-opacity="0"/>
</linearGradient>
<linearGradient id="paint1_linear_402_2676" x1="7.12512" y1="-3.14109" x2="52.0067" y2="17.7017" gradientUnits="userSpaceOnUse">
<stop stop-color="#FF2532"/>
<stop offset="1" stop-color="#F0212D"/>
</linearGradient>
</defs>
</svg>
