<svg width="70" height="24" viewBox="0 0 70 24" fill="none" xmlns="http://www.w3.org/2000/svg">
<path d="M37.7132 16.3393V17.0613C37.7132 18.4969 38.0208 19.6643 38.6361 20.5635C39.2513 21.4627 40.1032 22.1253 41.1917 22.5512C42.296 22.9772 43.566 23.1901 45.0016 23.1901C46.4372 23.1901 47.6992 22.9772 48.7877 22.5512C49.8763 22.1253 50.7282 21.4627 51.3434 20.5635C51.9587 19.6643 52.2663 18.4969 52.2663 17.0613V5.96307H47.7465V16.588C47.7465 17.2979 47.5336 17.8816 47.1076 18.3391C46.6817 18.7808 45.9797 19.0017 45.0016 19.0017C44.0235 19.0017 43.3136 18.7808 42.8719 18.3391C42.4301 17.8816 42.2093 17.2979 42.2093 16.588V8.55187L37.7132 16.3393Z" fill="#6E81BE"/>
<path fill-rule="evenodd" clip-rule="evenodd" d="M59.0216 5.96307L52.8455 22.9062H57.6255L58.4301 20.5161H64.2513L65.0559 22.9062H69.8359L63.6597 5.96307H59.0216ZM62.8078 16.9193H59.4239L61.1277 11.6896L62.8078 16.9193Z" fill="#6E81BE"/>
<path d="M28.1871 3.90689C28.4883 3.80519 28.3915 3.89502 29.0211 3.54926C29.6507 3.2018 30.2395 2.25435 29.0985 1.51367C27.3522 0.379779 22.5612 -0.132087 19.3565 0.472996C16.1517 1.07977 16.1007 1.75774 16.391 2.48147C16.588 2.97299 17.2692 3.40181 18.1428 3.72723C17.8945 3.51875 17.862 3.28486 18.1444 3.05943C18.4892 2.78316 18.7076 2.59672 20.5807 2.38655C22.4539 2.17638 25.6574 2.33062 27.2157 2.79503C28.3944 3.14587 28.6552 3.55604 28.1871 3.90689Z" fill="#6E81BE"/>
<path d="M33.5728 3.90689C33.2716 3.80519 33.3684 3.89502 32.7388 3.54926C32.1092 3.2018 31.5205 2.25435 32.6615 1.51367C34.4077 0.379779 39.1987 -0.132087 42.4034 0.472996C45.6082 1.07977 45.6592 1.75774 45.3689 2.48147C45.1719 2.97299 44.4907 3.40181 43.6171 3.72723C43.8654 3.51875 43.8979 3.28486 43.6155 3.05943C43.2707 2.78316 43.0524 2.59672 41.1792 2.38655C39.306 2.17638 36.1025 2.33062 34.5442 2.79503C33.3655 3.14587 33.1047 3.55604 33.5728 3.90689Z" fill="#6E81BE"/>
<path fill-rule="evenodd" clip-rule="evenodd" d="M27.8505 16.5337L31.7087 23.2163L41.6547 5.98946H38.1846C37.111 5.98946 36.1189 6.56224 35.5821 7.49204L31.7087 14.2009L29.2697 9.97635C29.3994 10.5564 29.4629 11.1682 29.4629 11.8074C29.4629 13.6429 28.9471 15.2523 27.8505 16.5337Z" fill="#182131"/>
<path d="M14.4928 23.203H19.0846V17.6254H22.4023C24.0532 17.6254 25.4235 17.0965 26.5134 16.0387C27.6033 14.9809 28.1482 13.5705 28.1482 11.8074C28.1482 10.0604 27.6033 8.65804 26.5134 7.60022C25.4235 6.52638 24.0532 5.98946 22.4023 5.98946H12.0886L14.4552 10.1005H21.7292C22.819 10.1486 23.364 10.7176 23.364 11.8074C23.364 12.3684 23.2117 12.7931 22.9072 13.0816C22.6187 13.3701 22.226 13.5144 21.7292 13.5144H14.4928V23.203Z" fill="#182131"/>
<path d="M0.781738 5.98946H10.5289L12.8963 10.1005H5.37362V13.5144H12.9338V17.6254H5.37362V23.203H0.781738V5.98946Z" fill="#182131"/>
</svg>
