<svg width="19" height="19" viewBox="0 0 19 19" fill="none" xmlns="http://www.w3.org/2000/svg">
<path d="M6.85837 6.77564C6.46904 7.32513 5.69144 8.07892 5.69144 8.69568C5.69145 9.4436 6.48843 10.9497 7.52347 11.972C8.55852 12.9943 9.43419 13.5707 10.1914 13.5707C10.707 13.5707 10.9661 12.3273 12.3431 12.3273C13.3759 12.3273 14.6915 13.4523 15.0665 14.6957C15.253 15.3144 14.6435 15.8809 13.862 16.3127C12.9056 16.8411 11.7809 17.0075 10.6996 16.8502C9.24064 16.638 7.26947 15.9538 4.94145 13.7483C2.01531 10.5707 1.86758 8.48896 1.94145 6.45607C2.01532 4.42317 3.81645 3.44568 4.42514 3.44568C4.97582 3.44568 6.67265 4.89956 6.99108 6.09047C7.0543 6.32694 6.99988 6.57592 6.85837 6.77564Z" stroke="white" stroke-width="1.4" stroke-linecap="round" stroke-linejoin="round"/>
<path d="M10.1915 5.69944C10.1915 5.69944 11.5169 5.51727 12.6601 6.66045C13.8033 7.80363 13.6211 9.12899 13.6211 9.12899" stroke="white" stroke-width="1.4" stroke-linecap="round"/>
<path d="M10.1915 2.69939C10.1915 2.69939 12.3188 2.57296 14.3165 4.57063C16.3142 6.56831 16.1845 8.69243 16.1845 8.69243" stroke="white" stroke-width="1.4" stroke-linecap="round"/>
</svg>
