<svg width="57" height="57" viewBox="0 0 57 57" fill="none" xmlns="http://www.w3.org/2000/svg">
<rect x="0.308594" y="0.216309" width="56" height="56" rx="28" fill="white"/>
<rect x="0.308594" y="0.216309" width="56" height="56" rx="28" fill="url(#paint0_linear_402_2656)"/>
<rect x="0.308594" y="0.216309" width="56" height="56" rx="28" fill="white" fill-opacity="0.98"/>
<rect x="0.308594" y="0.216309" width="56" height="56" rx="28" fill="url(#paint1_linear_402_2656)"/>
<path d="M28.8725 37.1927L23.6484 37.0951C21.9569 37.0611 20.2613 37.129 18.603 36.7765C16.0804 36.2499 15.9016 33.6676 15.7146 31.5016C15.457 28.4565 15.5567 25.3561 16.043 22.3364C16.3175 20.6421 17.3978 19.631 19.0685 19.521C24.7082 19.1217 30.3854 19.1691 36.0126 19.3553C36.6069 19.3724 37.2052 19.4657 37.7913 19.572C40.6839 20.0902 40.7545 23.0164 40.942 25.4797C41.129 27.9685 41.05 30.47 40.6926 32.9418C40.4059 34.9884 39.8572 36.7047 37.5419 36.8704C34.6409 37.087 31.8065 37.2614 28.8974 37.2059C28.8975 37.1927 28.8808 37.1927 28.8725 37.1927ZM25.8012 32.0113C27.9874 30.7286 30.1318 29.4673 32.3054 28.1932C30.1152 26.9105 27.9748 25.6492 25.8012 24.3751V32.0113Z" fill="white"/>
<defs>
<linearGradient id="paint0_linear_402_2656" x1="28.3086" y1="67.4402" x2="28.3086" y2="-29.6238" gradientUnits="userSpaceOnUse">
<stop stop-color="#F6F7F9"/>
<stop offset="0.261438" stop-color="#EEF3FB"/>
<stop offset="1" stop-color="#EBECEE" stop-opacity="0"/>
</linearGradient>
<linearGradient id="paint1_linear_402_2656" x1="7.12512" y1="-3.14109" x2="52.0067" y2="17.7017" gradientUnits="userSpaceOnUse">
<stop stop-color="#FF2532"/>
<stop offset="1" stop-color="#F0212D"/>
</linearGradient>
</defs>
</svg>
