<svg width="33" height="33" viewBox="0 0 33 33" fill="none" xmlns="http://www.w3.org/2000/svg">
<path d="M21.4574 20.0258C22.7348 18.3159 23.3344 16.1802 23.1357 14.0412C22.9343 11.8726 21.9272 9.86298 20.319 8.42144C18.7107 6.97987 16.622 6.21474 14.4777 6.28216C12.3335 6.34957 10.2954 7.24444 8.77794 8.78424C7.25923 10.3251 6.37617 12.396 6.30828 14.5749C6.24038 16.7538 6.99274 18.8773 8.41244 20.5125C9.83217 22.1479 11.8125 23.1719 13.9501 23.3755C16.0575 23.5763 18.1609 22.9645 19.8435 21.6642L24.2456 26.138L24.3169 26.0679L24.2456 26.138C24.3516 26.2457 24.4775 26.3312 24.6162 26.3896C24.7549 26.448 24.9036 26.4781 25.0539 26.4781C25.2041 26.4781 25.3528 26.448 25.4915 26.3896C25.6302 26.3312 25.7561 26.2457 25.8621 26.138C25.9681 26.0303 26.0521 25.9026 26.1094 25.7621C26.1666 25.6216 26.1961 25.4711 26.1961 25.3191C26.1961 25.1671 26.1666 25.0166 26.1094 24.8761C26.0521 24.7356 25.9681 24.6078 25.8621 24.5001L25.7908 24.5703L25.8621 24.5001L21.4574 20.0258ZM19.091 10.4228C19.6698 11.0013 20.1302 11.6907 20.4455 12.4511C20.7609 13.2116 20.925 14.028 20.9283 14.8533C20.9316 15.6786 20.7741 16.4964 20.4648 17.2594C20.1555 18.0224 19.7007 18.7156 19.1265 19.2989C18.5524 19.8823 17.8704 20.3443 17.1198 20.6583C16.3692 20.9724 15.565 21.1323 14.7534 21.129C13.9417 21.1256 13.1388 20.959 12.3908 20.6388C11.6427 20.3185 10.9644 19.8509 10.395 19.2628C9.25695 18.0875 8.62183 16.5027 8.62844 14.8533C8.63505 13.204 9.28285 11.6244 10.4302 10.4586C11.5776 9.29285 13.1315 8.63526 14.7534 8.62855C16.3752 8.62184 17.9343 9.26655 19.091 10.4228Z" fill="white" stroke="white" stroke-width="0.2"/>
</svg>
