<svg width="14" height="13" viewBox="0 0 14 13" fill="none" xmlns="http://www.w3.org/2000/svg">
<path d="M6.56724 0.173835C6.6044 0.10127 6.7081 0.10127 6.74526 0.173834L8.58547 3.76772C8.6 3.79609 8.62717 3.81583 8.65864 3.82088L12.6453 4.46045C12.7258 4.47337 12.7578 4.572 12.7003 4.62976L9.85096 7.49048C9.82847 7.51306 9.81809 7.54501 9.82302 7.57649L10.4467 11.5657C10.4593 11.6462 10.3754 11.7072 10.3027 11.6703L6.70147 9.84443C6.67305 9.83002 6.63945 9.83002 6.61103 9.84443L3.00983 11.6703C2.93712 11.7072 2.85322 11.6462 2.86581 11.5657L3.48948 7.57649C3.49441 7.54501 3.48403 7.51306 3.46154 7.49048L0.612204 4.62976C0.554673 4.572 0.58672 4.47337 0.667215 4.46045L4.65386 3.82088C4.68533 3.81583 4.7125 3.79609 4.72703 3.76772L6.56724 0.173835Z" fill="#E9A426"/>
</svg>
