<svg width="32" height="32" viewBox="0 0 32 32" fill="none" xmlns="http://www.w3.org/2000/svg">
<path d="M28.5267 16.9737L26.445 12.394C26.2724 12.0156 25.9948 11.6947 25.6451 11.4695C25.2955 11.2443 24.8885 11.1243 24.4726 11.1237H20.6429V9.49837C20.6424 9.06745 20.471 8.65432 20.1663 8.34961C19.8616 8.04491 19.4485 7.87352 19.0176 7.87305H5.47319C5.04228 7.87352 4.62914 8.04491 4.32444 8.34961C4.01973 8.65432 3.84834 9.06745 3.84787 9.49837V15.9997C3.84718 16.0713 3.86068 16.1423 3.88759 16.2086C3.91451 16.2749 3.9543 16.3353 4.00468 16.3862C4.05506 16.437 4.11502 16.4774 4.18109 16.505C4.24716 16.5325 4.31804 16.5467 4.38964 16.5467C4.46123 16.5467 4.53211 16.5325 4.59818 16.505C4.66426 16.4774 4.72421 16.437 4.77459 16.3862C4.82497 16.3353 4.86476 16.2749 4.89168 16.2086C4.91859 16.1423 4.93209 16.0713 4.9314 15.9997V9.49837C4.93156 9.35473 4.9887 9.21702 5.09027 9.11544C5.19184 9.01387 5.32955 8.95674 5.47319 8.95658H19.0176C19.1612 8.95674 19.2989 9.01387 19.4005 9.11544C19.5021 9.21702 19.5592 9.35473 19.5594 9.49837V18.1668C19.5592 18.3104 19.502 18.4481 19.4005 18.5496C19.2989 18.6512 19.1612 18.7083 19.0176 18.7085H12.5163C12.3735 18.7099 12.237 18.7676 12.1366 18.869C12.0361 18.9705 11.9797 19.1075 11.9797 19.2503C11.9797 19.3931 12.0361 19.5301 12.1366 19.6315C12.237 19.733 12.3735 19.7907 12.5163 19.7921H19.0176C19.4485 19.7916 19.8616 19.6202 20.1663 19.3155C20.471 19.0108 20.6424 18.5977 20.6429 18.1667V12.2072H24.4726C24.6806 12.2075 24.8841 12.2675 25.059 12.3801C25.2338 12.4927 25.3727 12.6532 25.459 12.8424L25.6629 13.2908H23.3519C23.0646 13.291 22.7891 13.4053 22.5859 13.6084C22.3828 13.8116 22.2685 14.087 22.2682 14.3743V16.5415C22.2685 16.8287 22.3828 17.1042 22.5859 17.3073C22.789 17.5105 23.0645 17.6247 23.3518 17.625H27.6152C27.6618 17.7771 27.6856 17.9352 27.6859 18.0943V20.3339C27.6857 20.4775 27.6286 20.6152 27.527 20.7167C27.4255 20.8183 27.2878 20.8754 27.1442 20.8756H25.4642C25.3393 20.2639 25.0069 19.714 24.5233 19.3191C24.0396 18.9242 23.4344 18.7085 22.81 18.7085C22.1856 18.7085 21.5803 18.9242 21.0967 19.3191C20.613 19.714 20.2806 20.2639 20.1557 20.8756H11.3781C11.2532 20.2639 10.9208 19.714 10.4371 19.3191C9.95347 18.9242 9.34824 18.7085 8.72384 18.7085C8.09945 18.7085 7.49422 18.9242 7.01055 19.3191C6.52689 19.714 6.19449 20.2639 6.06959 20.8756H5.47319C5.32956 20.8755 5.19186 20.8183 5.0903 20.7167C4.98873 20.6152 4.93159 20.4775 4.9314 20.3339V19.7921C5.07418 19.7907 5.21064 19.733 5.31111 19.6316C5.41158 19.5301 5.46795 19.3931 5.46795 19.2503C5.46795 19.1076 5.41158 18.9705 5.31111 18.8691C5.21064 18.7676 5.07418 18.71 4.9314 18.7086H3.30608C3.1633 18.71 3.02684 18.7676 2.92637 18.8691C2.8259 18.9705 2.76953 19.1076 2.76953 19.2503C2.76953 19.3931 2.8259 19.5301 2.92637 19.6316C3.02684 19.733 3.1633 19.7907 3.30608 19.7921H3.84787V20.3339C3.84834 20.7648 4.01973 21.178 4.32444 21.4827C4.62914 21.7874 5.04228 21.9588 5.47319 21.9592H6.06964C6.19454 22.571 6.52694 23.1209 7.0106 23.5157C7.49427 23.9106 8.0995 24.1263 8.72389 24.1263C9.34829 24.1263 9.95352 23.9106 10.4372 23.5157C10.9208 23.1209 11.2532 22.571 11.3781 21.9592H20.1558C20.2807 22.571 20.6131 23.1209 21.0967 23.5157C21.5804 23.9106 22.1856 24.1263 22.81 24.1263C23.4344 24.1263 24.0396 23.9106 24.5233 23.5157C25.007 23.1209 25.3394 22.571 25.4643 21.9592H27.1442C27.5751 21.9588 27.9883 21.7874 28.293 21.4827C28.5977 21.178 28.7691 20.7648 28.7695 20.3339V18.0943C28.7702 17.7076 28.6873 17.3254 28.5267 16.9737ZM8.72384 23.0428C8.40238 23.0428 8.08814 22.9474 7.82086 22.7688C7.55358 22.5902 7.34526 22.3364 7.22224 22.0394C7.09922 21.7424 7.06703 21.4156 7.12975 21.1003C7.19246 20.7851 7.34726 20.4955 7.57456 20.2682C7.80187 20.0409 8.09148 19.8861 8.40676 19.8233C8.72204 19.7606 9.04884 19.7928 9.34583 19.9158C9.64282 20.0388 9.89666 20.2472 10.0753 20.5145C10.2538 20.7817 10.3492 21.096 10.3492 21.4174C10.3487 21.8484 10.1773 22.2615 9.8726 22.5662C9.5679 22.8709 9.15476 23.0423 8.72384 23.0428ZM22.81 23.0428C22.4885 23.0428 22.1743 22.9474 21.907 22.7688C21.6397 22.5902 21.4314 22.3364 21.3084 22.0394C21.1854 21.7424 21.1532 21.4156 21.2159 21.1003C21.2786 20.7851 21.4334 20.4955 21.6607 20.2682C21.888 20.0409 22.1776 19.8861 22.4929 19.8233C22.8082 19.7606 23.135 19.7928 23.432 19.9158C23.7289 20.0388 23.9828 20.2472 24.1614 20.5145C24.34 20.7817 24.4353 21.096 24.4353 21.4174C24.4348 21.8483 24.2634 22.2615 23.9587 22.5662C23.6541 22.8709 23.2409 23.0423 22.81 23.0428H22.81ZM23.3518 14.3743H26.1551L27.1401 16.5415H23.3518V14.3743Z" fill="#C72A2A"/>
<path d="M3.30613 18.1668H6.01499C6.15776 18.1654 6.29422 18.1077 6.39469 18.0063C6.49517 17.9048 6.55153 17.7678 6.55153 17.625C6.55153 17.4822 6.49517 17.3452 6.39469 17.2438C6.29422 17.1423 6.15776 17.0846 6.01499 17.0833H3.30613C3.16335 17.0846 3.02689 17.1423 2.92642 17.2438C2.82595 17.3452 2.76958 17.4822 2.76958 17.625C2.76958 17.7678 2.82595 17.9048 2.92642 18.0063C3.02689 18.1077 3.16335 18.1654 3.30613 18.1668Z" fill="#C72A2A"/>
</svg>
