<svg width="31" height="31" viewBox="0 0 31 31" fill="none" xmlns="http://www.w3.org/2000/svg">
<path fill-rule="evenodd" clip-rule="evenodd" d="M10.654 12.145L15.321 17.256C15.459 17.407 15.653 17.495 15.858 17.5C16.063 17.504 16.26 17.425 16.405 17.28L25.655 8.03C25.948 7.738 25.948 7.262 25.655 6.97C25.363 6.677 24.887 6.677 24.595 6.97L15.9 15.665L11.762 11.133C11.483 10.828 11.008 10.806 10.703 11.085C10.397 11.364 10.375 11.839 10.654 12.145Z" fill="#3BAD08"/>
<path fill-rule="evenodd" clip-rule="evenodd" d="M15.875 5.5H8.875C6.804 5.5 5.125 7.179 5.125 9.25V21.75C5.125 23.821 6.804 25.5 8.875 25.5H21.375C23.446 25.5 25.125 23.821 25.125 21.75C25.125 18.804 25.125 14.75 25.125 14.75C25.125 14.336 24.789 14 24.375 14C23.961 14 23.625 14.336 23.625 14.75C23.625 14.75 23.625 18.804 23.625 21.75C23.625 22.993 22.618 24 21.375 24H8.875C7.632 24 6.625 22.993 6.625 21.75V9.25C6.625 8.007 7.632 7 8.875 7H15.875C16.289 7 16.625 6.664 16.625 6.25C16.625 5.836 16.289 5.5 15.875 5.5Z" fill="#3BAD08"/>
</svg>
