<svg width="31" height="32" viewBox="0 0 31 32" fill="none" xmlns="http://www.w3.org/2000/svg">
<path fill-rule="evenodd" clip-rule="evenodd" d="M17.0387 24.4706H13.9604C13.7236 24.4706 13.546 24.2941 13.546 24.0588V22.5294C13.0725 22.3529 12.6581 22.1765 12.2437 22L11.1189 23.0588C10.9413 23.2353 10.7045 23.2353 10.5269 23.0588L8.39582 20.9412C8.21823 20.7647 8.21823 20.5294 8.39582 20.3529L9.46138 19.2353C9.28379 18.8235 9.047 18.4118 8.9286 17.9412H7.38946C7.15267 17.9412 6.97508 17.7647 6.97508 17.5294V14.4706C6.97508 14.2353 7.15267 14.0588 7.38946 14.0588H8.9286C9.1062 13.5882 9.28379 13.1765 9.46138 12.7647L8.39582 11.6471C8.21823 11.4706 8.21823 11.2353 8.39582 11.0588L10.5269 8.94118C10.7045 8.76471 10.9413 8.76471 11.1189 8.94118L12.2437 10C12.6581 9.82353 13.0725 9.58824 13.546 9.47059V7.94118C13.546 7.70588 13.7236 7.52941 13.9604 7.52941H17.0387C17.2755 7.52941 17.4531 7.70588 17.4531 7.94118V9.47059C17.9267 9.64706 18.3411 9.82353 18.7554 10L19.8802 8.94118C20.0578 8.76471 20.2946 8.76471 20.4722 8.94118L22.6033 11.0588C22.7809 11.2353 22.7809 11.4706 22.6033 11.6471L21.5377 12.7647C21.7153 13.1765 21.8929 13.5882 22.0705 14.0588H23.6097C23.8465 14.0588 24.024 14.2353 24.024 14.4706V17.5294C24.024 17.7647 23.8465 17.9412 23.6097 17.9412H22.0705C21.8929 18.4118 21.7153 18.8235 21.5377 19.2353L22.6033 20.3529C22.7809 20.5294 22.7809 20.7647 22.6033 20.9412L20.4722 23.0588C20.2946 23.2353 20.0578 23.2353 19.8802 23.0588L18.7554 22C18.3411 22.1765 17.9267 22.3529 17.4531 22.5294V24.0588C17.4531 24.2941 17.2755 24.4706 17.0387 24.4706ZM14.3748 23.6471H16.6243V22.1765C16.6243 22 16.7427 21.8235 16.9795 21.7647C17.5715 21.6471 18.1043 21.4118 18.637 21.1176C18.7554 21 18.9922 21.0588 19.1106 21.1765L20.1762 22.1765L21.7153 20.6471L20.709 19.5882C20.5906 19.4706 20.5314 19.2353 20.6498 19.1176C20.9458 18.5882 21.1826 18.0588 21.3009 17.4706C21.3601 17.2353 21.5377 17.1176 21.7153 17.1176H23.1953V14.8824H21.7153C21.4785 14.8824 21.3601 14.7647 21.3009 14.5294C21.1826 13.9412 20.8866 13.4118 20.6498 12.8824C20.5314 12.7647 20.5906 12.5294 20.709 12.4118L21.7153 11.3529L20.1762 9.82353L19.1106 10.8235C18.9922 10.9412 18.7554 11 18.637 10.8824C18.1043 10.5882 17.5715 10.3529 16.9795 10.2353C16.7427 10.1765 16.6243 10.0588 16.6243 9.82353V8.35294H14.3748V9.82353C14.3748 10 14.2564 10.1765 14.0196 10.2353C13.4276 10.3529 12.8949 10.5882 12.3621 10.8824C12.2437 11 12.0069 10.9412 11.8885 10.8235L10.8229 9.82353L9.28379 11.3529L10.2902 12.4118C10.4085 12.5294 10.4677 12.7647 10.3494 12.8824C10.0534 13.4118 9.81657 13.9412 9.69818 14.5294C9.63898 14.7647 9.46138 14.8824 9.28379 14.8824H7.80385V17.1176H9.28379C9.52058 17.1176 9.63898 17.2353 9.69818 17.4706C9.81657 18.0588 10.0534 18.5882 10.3494 19.0588C10.4677 19.2353 10.4085 19.4118 10.2902 19.5882L9.28379 20.6471L10.8229 22.1765L11.8885 21.1765C12.0069 21.0588 12.2437 21 12.3621 21.1176C12.8949 21.4118 13.4276 21.6471 14.0196 21.7647C14.2564 21.8235 14.3748 21.9412 14.3748 22.1765V23.6471Z" fill="#6E81BE"/>
<path fill-rule="evenodd" clip-rule="evenodd" d="M15.4996 20.4706C13.0133 20.4706 11.0005 18.4706 11.0005 16C11.0005 13.5294 13.0133 11.5294 15.4996 11.5294C17.9859 11.5294 19.9986 13.5294 19.9986 16C19.9986 18.4706 17.9859 20.4706 15.4996 20.4706ZM15.4996 12.3529C13.4868 12.3529 11.8293 14 11.8293 16C11.8293 18 13.4868 19.6471 15.4996 19.6471C17.5123 19.6471 19.1698 18 19.1698 16C19.1698 14 17.5123 12.3529 15.4996 12.3529Z" fill="#6E81BE"/>
<path fill-rule="evenodd" clip-rule="evenodd" d="M15.4996 29C12.5397 29 9.69818 28 7.38946 26.1765C5.13994 24.4118 3.5416 21.9412 2.83123 19.1765C2.77203 18.9412 2.94962 18.7059 3.12722 18.6471C3.36401 18.5882 3.6008 18.7647 3.66 18.9412C5.02155 24.4118 9.87577 28.1765 15.4996 28.1765C21.1234 28.1765 25.9776 24.4118 27.3391 18.9412C27.3983 18.7059 27.6351 18.5882 27.8719 18.6471C28.0495 18.7059 28.2271 18.9412 28.1679 19.1765C27.4575 21.9412 25.8592 24.4118 23.6097 26.1765C21.2418 28 18.4595 29 15.4996 29ZM27.7535 13.3529C27.5759 13.3529 27.3983 13.2353 27.3391 13.0588C25.9776 7.58824 21.1234 3.82353 15.4996 3.82353C9.87577 3.82353 5.02155 7.58824 3.66 13.0588C3.6008 13.2353 3.36401 13.4118 3.12722 13.3529C2.94962 13.2941 2.77203 13.0588 2.83123 12.8235C3.5416 10.0588 5.13994 7.58824 7.38946 5.82353C9.69818 3.94118 12.5397 3 15.4996 3C18.4595 3 21.2418 3.94118 23.6097 5.82353C25.8592 7.58824 27.4575 10.0588 28.1679 12.8235C28.2271 13.0588 28.0495 13.2941 27.8719 13.3529C27.8127 13.3529 27.8127 13.3529 27.7535 13.3529Z" fill="#6E81BE"/>
<path fill-rule="evenodd" clip-rule="evenodd" d="M5.67272 19.4706H0.759306C0.581712 19.4706 0.463317 19.3529 0.404119 19.2353C0.344921 19.1176 0.344921 18.9412 0.463317 18.8235L2.94962 15.6471C3.00882 15.5294 3.12722 15.4706 3.24561 15.4706C3.36401 15.4706 3.48241 15.5294 3.6008 15.6471L6.02791 18.8235C6.08711 18.9412 6.08711 19.1176 6.02791 19.2353C5.96871 19.3529 5.85032 19.4706 5.67272 19.4706ZM1.58808 18.6471H4.84395L3.24561 16.5294L1.58808 18.6471Z" fill="#6E81BE"/>
<path fill-rule="evenodd" clip-rule="evenodd" d="M27.7535 16.5294C27.6351 16.5294 27.5167 16.4706 27.3983 16.3529L24.9712 13.1765C24.912 13.0588 24.8528 12.8824 24.9712 12.7647C25.0304 12.5882 25.1488 12.5294 25.3264 12.5294H30.2398C30.4174 12.5294 30.5358 12.6471 30.595 12.7647C30.6542 12.8824 30.6542 13.0588 30.5358 13.1765L28.0495 16.3529C27.9903 16.4706 27.8719 16.5294 27.7535 16.5294ZM26.1552 13.3529L27.7535 15.4706L29.411 13.3529H26.1552Z" fill="#6E81BE"/>
</svg>
