<svg width="34" height="22" viewBox="0 0 34 22" fill="none" xmlns="http://www.w3.org/2000/svg">
<path d="M0.0712891 2.76611C0.0712891 1.2503 1.31422 0.0214844 2.84746 0.0214844H30.6092C32.1424 0.0214844 33.3854 1.2503 33.3854 2.76611V19.2339C33.3854 20.7497 32.1424 21.9785 30.6092 21.9785H2.84746C1.31422 21.9785 0.0712891 20.7497 0.0712891 19.2339V2.76611Z" fill="#D8E3F3"/>
<path d="M28.7424 6.90381H26.9971C26.4695 6.90381 26.0636 7.06431 25.8201 7.58595L22.4919 15.0895H24.846C24.846 15.0895 25.2519 14.0864 25.3331 13.8456C25.5766 13.8456 27.8901 13.8456 28.2148 13.8456C28.2959 14.1265 28.4989 15.0494 28.4989 15.0494H30.6094L28.7424 6.90381ZM25.9825 12.1603C26.1854 11.6788 26.8754 9.87314 26.8754 9.87314C26.8754 9.91327 27.0783 9.39163 27.1595 9.11075L27.3218 9.83302C27.3218 9.83302 27.7683 11.7992 27.8495 12.2005H25.9825V12.1603Z" fill="#3362AB"/>
<path d="M22.6541 12.4033C22.6541 14.0886 21.1118 15.2121 18.7171 15.2121C17.7024 15.2121 16.7283 15.0115 16.2007 14.7707L16.5254 12.9249L16.8095 13.0453C17.5401 13.3663 18.0271 13.4867 18.92 13.4867C19.5694 13.4867 20.2594 13.2459 20.2594 12.6842C20.2594 12.323 19.9753 12.0823 19.0824 11.681C18.2301 11.2798 17.0936 10.6378 17.0936 9.47409C17.0936 7.86905 18.6765 6.78564 20.9088 6.78564C21.7612 6.78564 22.4917 6.94615 22.9382 7.14678L22.6135 8.91233L22.4511 8.75182C22.0453 8.59132 21.5176 8.43082 20.7465 8.43082C19.8941 8.47094 19.4883 8.83208 19.4883 9.15309C19.4883 9.51422 19.9753 9.7951 20.7465 10.1562C22.0453 10.7581 22.6541 11.4403 22.6541 12.4033Z" fill="#3362AB"/>
<path d="M2.84741 6.9857L2.888 6.8252H6.37851C6.86556 6.8252 7.23084 6.9857 7.35261 7.50734L8.12377 11.1187C7.35261 9.19264 5.56676 7.62772 2.84741 6.9857Z" fill="#F9B50B"/>
<path d="M13.035 6.90585L9.50385 15.0515H7.1092L5.07983 8.23001C6.54098 9.15291 7.7586 10.5975 8.20506 11.6006L8.44858 12.4433L10.6403 6.86572H13.035V6.90585Z" fill="#3362AB"/>
<path d="M13.9684 6.86572H16.2007L14.7802 15.0515H12.5479L13.9684 6.86572Z" fill="#3362AB"/>
</svg>
