<svg width="17" height="25" viewBox="0 0 17 25" fill="none" xmlns="http://www.w3.org/2000/svg">
<path d="M3.77994 6.70481C3.98671 6.77501 4.08783 6.96846 4.03456 7.13123C3.96366 7.34787 3.77395 7.44265 3.62324 7.39149C3.41647 7.32129 3.31535 7.12785 3.36863 6.96507C3.43953 6.74843 3.62924 6.65365 3.77994 6.70481Z" stroke="#6E81BE" stroke-width="0.4"/>
<path d="M7.53629 7.72044C7.74306 7.79064 7.84418 7.98408 7.79091 8.14685C7.72 8.36349 7.5303 8.45828 7.37959 8.40711C7.17282 8.33692 7.0717 8.14347 7.12497 7.9807C7.19587 7.76406 7.38559 7.66927 7.53629 7.72044Z" stroke="#6E81BE" stroke-width="0.4"/>
<path d="M8.88227 3.21504L4.98489 2.12452L4.98893 2.10886L5.17549 1.38682L9.06996 2.48863L8.88227 3.21504Z" stroke="#6E81BE" stroke-width="0.4"/>
<path d="M8.83022 4.18911L9.05958 4.25585L6.66402 5.71978L5.64395 5.47043L4.32937 2.95493L8.83022 4.18911Z" stroke="#6E81BE" stroke-width="0.4"/>
<path d="M4.509 2.18754L4.41473 2.37957L4.64637 2.44439L8.78292 3.60183L8.74347 3.74915L3.99235 2.44634L3.54955 2.32492L3.76221 2.73185L5.1157 5.32181L4.4514 5.13236L2.36526 1.6053L4.509 2.18754Z" stroke="#6E81BE" stroke-width="0.4"/>
<path d="M7.86162 6.05721L7.19082 5.86591L9.65453 4.36034L10.041 4.12419L9.60612 3.99765L9.12837 3.85863L9.22005 3.51624L11.3983 4.10785L7.86162 6.05721Z" stroke="#6E81BE" stroke-width="0.4"/>
<path d="M6.8401 13.239L6.83652 13.239L4.18252 13.2865L1.75852 11.8621L1.7578 11.8617C1.11866 11.4897 0.695757 10.9341 0.85252 10.2919L1.94574 6.12858L1.94576 6.12858L1.94653 6.12546C2.11083 5.45609 2.80717 5.04644 3.45097 5.25135L3.45792 5.25356L3.46502 5.25526L4.26998 5.44817L8.64118 6.65797L8.64117 6.65801L8.64518 6.65903C9.29577 6.82469 9.70595 7.5333 9.50187 8.19843L9.50171 8.19838L9.49963 8.2063L8.40599 12.3712L8.39943 12.3962V12.422C8.39943 12.463 8.37834 12.5152 8.32642 12.6211C8.09554 13.0483 7.53547 13.239 6.8401 13.239ZM7.29885 8.78548L7.31395 8.79061L7.32967 8.79328C7.70112 8.85633 8.08951 8.66628 8.21892 8.27087C8.35584 7.8525 8.07656 7.46479 7.71274 7.34127C7.29285 7.19872 6.91196 7.49137 6.79267 7.85588C6.65574 8.27426 6.93502 8.66196 7.29885 8.78548ZM4.41953 7.19094C4.54541 6.77813 4.26839 6.39792 3.90877 6.27583C3.48888 6.13328 3.108 6.42593 2.9887 6.79044C2.85178 7.20882 3.13105 7.59652 3.49488 7.72004C3.88697 7.85315 4.34244 7.59994 4.41953 7.19094Z" stroke="#6E81BE" stroke-width="0.4"/>
<path d="M1.33165 18.8662L1.8461 16.9316L3.60138 17.4112L3.60138 17.4112L3.60475 17.4121L4.35987 17.6044L3.84318 19.5474L3.60787 19.4942L1.52035 18.9143L1.52036 18.9143L1.51617 18.9132L1.33165 18.8662Z" stroke="#6E81BE" stroke-width="0.4"/>
<path d="M1.60904 19.3526L3.31576 19.8267L2.7495 22.0005C2.74873 22.0024 2.74755 22.0052 2.74582 22.009C2.74222 22.0169 2.73718 22.0272 2.7304 22.0401C2.71678 22.066 2.6981 22.0987 2.67432 22.1381C2.62681 22.2169 2.56248 22.3165 2.48565 22.431C2.33218 22.6599 2.13307 22.9423 1.92857 23.2261C1.6949 23.5503 1.45653 23.873 1.27347 24.1166C1.23867 23.8138 1.19477 23.4135 1.15457 23.0142C1.11897 22.6608 1.08649 22.3102 1.06588 22.0306C1.05556 21.8906 1.04834 21.77 1.04512 21.6764C1.04352 21.6296 1.04297 21.591 1.04341 21.561C1.04363 21.546 1.04409 21.5341 1.04468 21.5249L1.04536 21.5165L1.60904 19.3526Z" stroke="#6E81BE" stroke-width="0.4"/>
<path d="M1.28061 14.1653L1.73835 12.3429L3.98068 13.6605L4.02759 13.688H4.082H6.62715L5.79144 16.8239C5.67324 17.2205 5.25039 17.4715 4.90124 17.3648L4.88894 17.3611L4.87627 17.3589L4.60022 17.312L3.70899 17.0732L1.47767 16.3962C1.47757 16.3962 1.47747 16.3962 1.47736 16.3961C1.09285 16.2785 0.837749 15.8471 0.945384 15.4817L0.945443 15.4817L0.946727 15.4769L1.08938 14.9442L1.08942 14.9442L1.09042 14.9402L1.28036 14.1663L1.28061 14.1653Z" stroke="#6E81BE" stroke-width="0.4"/>
<path d="M8.58898 12.4622L8.59781 12.4442L8.60289 12.4248L9.69612 8.26151C9.80531 7.87076 9.74999 7.52421 9.53438 7.18962C9.35802 6.84022 9.02015 6.62191 8.65553 6.5158L8.65554 6.51577L8.65196 6.5148L3.47078 5.11082C3.37712 5.0837 3.28332 5.06649 3.1905 5.0586C3.29517 5.06261 3.40058 5.07888 3.50495 5.1084L3.50708 5.109L8.68999 6.51344L8.68994 6.51361L8.69815 6.51547C9.05941 6.59724 9.35223 6.84439 9.57037 7.19988C9.77661 7.53595 9.81828 7.91066 9.69341 8.29222L9.69307 8.29211L9.69004 8.30363L8.60122 12.4502C8.58742 12.4797 8.574 12.5115 8.5613 12.5428C8.57116 12.5075 8.57768 12.4852 8.58898 12.4622ZM1.64893 12.096C1.07423 11.7535 0.750135 11.3452 0.652826 10.9119C0.701872 11.1087 0.795382 11.2839 0.909253 11.435C1.12825 11.7257 1.42745 11.9356 1.65402 12.0638L1.65392 12.064L1.65685 12.0655C1.65874 12.0681 1.66139 12.0727 1.66347 12.0791C1.66489 12.0834 1.66566 12.0874 1.66601 12.0906C1.66396 12.0917 1.66144 12.0929 1.65849 12.0939C1.65466 12.0952 1.65136 12.0958 1.64893 12.096ZM8.48017 12.7298C8.48549 12.7229 8.49043 12.7159 8.49504 12.7089C8.48549 12.7318 8.47645 12.7523 8.46766 12.7702L8.46754 12.7701L8.46456 12.7768C8.27722 13.1966 7.72404 13.4789 6.85291 13.4816C6.85303 13.4813 6.85317 13.4809 6.8533 13.4806C6.8572 13.4704 6.86333 13.459 6.8706 13.4491C6.87152 13.4479 6.87241 13.4467 6.87325 13.4457C7.13732 13.4437 7.4455 13.417 7.73078 13.3201C8.02462 13.2204 8.30583 13.0417 8.48017 12.7298Z" fill="#6E81BE" stroke="#6E81BE" stroke-width="0.4"/>
<path d="M4.88631 17.5231L4.86822 17.5139H4.87923C4.87954 17.514 4.87987 17.5141 4.88021 17.5142C4.89009 17.5169 4.90232 17.521 4.92145 17.5275L4.92352 17.5282C4.93973 17.5337 4.96188 17.5412 4.98355 17.5473C4.9431 17.5442 4.91443 17.5374 4.88631 17.5231ZM0.859599 16.1429C0.892816 16.2105 0.931048 16.2694 0.973774 16.3205C0.917515 16.2679 0.87009 16.2115 0.83479 16.1532C0.71099 15.8979 0.67989 15.6645 0.753715 15.4389L0.753975 15.439L0.756705 15.4289L1.66015 12.0873L1.66389 12.0735C1.66662 12.0702 1.67007 12.0663 1.67441 12.0616C1.67603 12.0598 1.67769 12.0581 1.67939 12.0563C1.68662 12.0582 1.69535 12.0614 1.70518 12.0661L4.12472 13.4674L4.17291 13.4953L4.22859 13.4943L6.87392 13.4461C6.8785 13.4479 6.8847 13.4506 6.89207 13.4543C6.9022 13.4595 6.9122 13.4655 6.92076 13.4714C6.92127 13.4718 6.92177 13.4721 6.92226 13.4725C6.92353 13.4804 6.92443 13.4901 6.92493 13.5015C6.92508 13.5047 6.92518 13.5079 6.92526 13.511L6.02948 16.8723C5.95082 17.1366 5.74706 17.3523 5.48791 17.465C5.72519 17.3459 5.90601 17.1306 5.98417 16.8918L5.98452 16.8919L5.98762 16.8801L6.79596 13.7806L6.86128 13.5301H6.60243H4.17174L4.13576 13.5091L1.90093 12.2015L1.67303 12.0682L1.6064 12.3237L0.798055 15.4231L0.798035 15.4231L0.797348 15.4259C0.741955 15.6516 0.738367 15.8959 0.859599 16.1429Z" fill="#6E81BE" stroke="#6E81BE" stroke-width="0.4"/>
<path d="M3.55535 19.6858L3.54205 19.7358L3.37726 19.6879L1.71302 19.2036L1.5168 19.1465L1.46395 19.3439L0.89335 21.4748L0.893308 21.4748L0.89231 21.4788C0.879976 21.5291 0.877615 21.5971 0.87717 21.6572C0.876669 21.7246 0.878867 21.808 0.883023 21.9023C0.891352 22.0912 0.907915 22.3316 0.9288 22.5899C0.970597 23.1068 1.03026 23.7024 1.07806 24.1162L1.13094 24.574C1.09731 24.3423 1.01508 23.7107 0.946632 23.0672C0.908123 22.7051 0.874295 22.3422 0.855986 22.0468C0.846821 21.899 0.841691 21.7703 0.841603 21.6682C0.841511 21.5615 0.847196 21.5014 0.852594 21.4783L1.47028 19.107L1.47038 19.1066L3.55314 19.6852L3.55535 19.6858ZM3.55439 19.6801C3.55439 19.6801 3.55444 19.6801 3.55453 19.6802L3.55439 19.6801Z" fill="#6E81BE" stroke="#6E81BE" stroke-width="0.4"/>
<path d="M7.44389 8.63556C7.44378 8.63554 7.44367 8.63552 7.44356 8.63551L7.41886 8.61035L7.36467 8.59655C7.3167 8.58434 7.27193 8.56253 7.22655 8.53173C7.27013 8.54752 7.31602 8.5545 7.36287 8.5545H7.45797C7.6845 8.5545 7.90564 8.40451 7.9809 8.17457L7.98325 8.16738L7.98505 8.16003C7.98639 8.15458 7.98766 8.14912 7.98885 8.14366C7.98631 8.16584 7.98238 8.18799 7.97698 8.20997L7.97456 8.21982L7.97315 8.22987C7.93956 8.46935 7.73941 8.6388 7.50552 8.6388C7.49345 8.6388 7.48284 8.63877 7.47168 8.63825C7.46057 8.63774 7.45129 8.63682 7.44389 8.63556ZM7.00467 8.32009C7.01001 8.33025 7.01574 8.34064 7.02193 8.35113C7.01663 8.34581 7.01127 8.3404 7.00586 8.33492C7.00022 8.32273 6.99487 8.3107 6.98983 8.2988C6.9944 8.30597 6.99934 8.31308 7.00467 8.32009ZM7.45797 7.52492C7.28186 7.52492 7.109 7.61559 7.00542 7.76399C7.10735 7.59209 7.27845 7.48906 7.45797 7.48906C7.47005 7.48906 7.48065 7.48909 7.49181 7.48961C7.50293 7.49012 7.5122 7.49104 7.5196 7.4923C7.51971 7.49231 7.51982 7.49233 7.51993 7.49235L7.54463 7.51751L7.57375 7.52492H7.55307H7.45797Z" fill="#6E81BE" stroke="#6E81BE" stroke-width="0.4"/>
<path d="M3.64046 7.56876C3.64035 7.56874 3.64024 7.56872 3.64013 7.5687L3.61543 7.54354L3.58407 7.53556C3.59168 7.53594 3.59933 7.53613 3.60699 7.53613H3.70209C3.90448 7.53613 4.10258 7.41639 4.19617 7.22688C4.16527 7.33533 4.10856 7.41111 4.04201 7.46349C3.95212 7.53423 3.83136 7.57199 3.70209 7.57199C3.69002 7.57199 3.67941 7.57197 3.66825 7.57145C3.65714 7.57093 3.64787 7.57001 3.64046 7.56876ZM3.24879 7.30171C3.25106 7.30603 3.2534 7.31039 3.25582 7.31479C3.24483 7.29929 3.23472 7.28323 3.22564 7.26668C3.2324 7.2785 3.24007 7.29024 3.24879 7.30171ZM3.17713 7.11571C3.18167 7.14809 3.19024 7.19139 3.21001 7.23578C3.12949 7.06768 3.1158 6.95023 3.16838 6.84311L3.17646 6.82665L3.18142 6.809C3.25609 6.5428 3.4722 6.37383 3.70209 6.37383C3.71417 6.37383 3.72477 6.37385 3.73593 6.37437C3.74705 6.37489 3.75632 6.3758 3.76372 6.37706C3.76383 6.37708 3.76394 6.3771 3.76405 6.37712L3.78875 6.40228L3.84294 6.41607C4.03151 6.46409 4.18046 6.64153 4.22375 6.84541C4.21208 6.80887 4.19588 6.7735 4.17484 6.73981C4.10026 6.62044 3.98007 6.54673 3.84654 6.51273L3.82225 6.50655H3.79719H3.70209C3.47557 6.50655 3.25442 6.65654 3.17917 6.88649L3.16925 6.9168V6.9487C3.16925 6.95055 3.16924 6.95243 3.16924 6.95434C3.16923 6.99872 3.16921 7.05924 3.17713 7.11571Z" fill="#6E81BE" stroke="#6E81BE" stroke-width="0.4"/>
<path d="M7.50595 12.3388L7.50619 12.3389L7.50882 12.3292L7.97844 10.6074C7.98258 10.6004 7.98688 10.5942 7.99116 10.5889C7.99646 10.5824 8.00076 10.5785 8.00355 10.5763C8.00846 10.5796 8.01292 10.5829 8.01686 10.5862C8.02514 10.5932 8.02927 10.5986 8.03102 10.6015C8.03154 10.6023 8.03182 10.6029 8.03196 10.6032C8.03198 10.6044 8.03175 10.6085 8.02923 10.6162L8.02899 10.6162L8.02636 10.6258L7.57077 12.2963C7.56441 12.3012 7.55844 12.306 7.55286 12.3106C7.54029 12.3209 7.52877 12.3311 7.51946 12.3393C7.51783 12.3407 7.51627 12.3421 7.51479 12.3434C7.5107 12.347 7.50714 12.3502 7.50383 12.3531C7.50351 12.3525 7.50333 12.3521 7.50322 12.3519C7.5032 12.3506 7.50343 12.3465 7.50595 12.3388Z" fill="#6E81BE" stroke="#6E81BE" stroke-width="0.4"/>
<path d="M6.64999 12.0966L6.65023 12.0967L6.65287 12.0871L7.12248 10.3652C7.12662 10.3582 7.13093 10.352 7.13521 10.3467C7.14051 10.3402 7.1448 10.3363 7.14759 10.3341C7.1525 10.3374 7.15697 10.3407 7.1609 10.344C7.16918 10.351 7.17331 10.3564 7.17506 10.3593C7.17559 10.3601 7.17587 10.3607 7.176 10.361C7.17602 10.3623 7.1758 10.3664 7.17328 10.3741L7.17304 10.374L7.1704 10.3836L6.70905 12.0753C6.69603 12.0874 6.68279 12.0989 6.66916 12.1088C6.66338 12.113 6.65835 12.1163 6.65408 12.1189C6.65107 12.1157 6.64923 12.1131 6.64821 12.1114C6.64768 12.1106 6.6474 12.11 6.64727 12.1097C6.64725 12.1084 6.64747 12.1043 6.64999 12.0966Z" fill="#6E81BE" stroke="#6E81BE" stroke-width="0.4"/>
<path d="M9.8078 14.729C9.80304 14.752 9.79768 14.7749 9.79172 14.7977C9.7917 14.7977 9.79167 14.7978 9.79165 14.7979L8.461 19.9286C8.45299 19.963 8.446 19.9975 8.44002 20.0318C8.4442 20.0131 8.44874 19.9944 8.45363 19.9757L8.45359 19.9758L8.64708 20.026L8.4537 19.9754L9.8078 14.729ZM9.8078 14.729C9.80162 14.7675 9.79391 14.8057 9.78463 14.8437L9.8078 14.729ZM16.0814 19.1302L16.0822 19.1291C16.7319 18.2638 16.9446 17.325 16.6354 16.3801L16.6355 16.3801L16.6334 16.3743C16.4567 15.8857 16.1679 15.4516 15.8671 15.1261C15.5745 14.8095 15.2442 14.5674 14.9706 14.5044C14.5351 14.3943 14.0685 14.4789 13.6869 14.6866C13.305 14.8945 12.9878 15.2373 12.8758 15.6652L12.8757 15.6656L11.5443 20.7991L11.5443 20.7991L11.5437 20.8017C11.3732 21.4961 10.76 21.9677 10.0846 22.0089C10.72 21.9488 11.2928 21.4903 11.5012 20.8112L11.5013 20.8112L11.5036 20.8027L12.8341 15.6725C13.09 14.8103 14.0742 14.2417 14.9684 14.4566C15.1855 14.5178 15.5113 14.711 15.833 15.0387C16.1528 15.3644 16.4561 15.8106 16.6356 16.3592C16.8576 17.0374 16.9514 18.0315 16.0955 19.1791C15.2362 20.3048 15.0094 21.3398 15.0031 22.1069C15 22.489 15.0515 22.8019 15.1044 23.0236C15.1308 23.1345 15.1575 23.2223 15.1776 23.2839C15.1853 23.3078 15.1923 23.3282 15.1974 23.3432C15.198 23.3451 15.1986 23.3469 15.1992 23.3486V23.3657L15.2179 23.4036C15.2179 23.4037 15.2179 23.4039 15.2179 23.404C15.2179 23.4055 15.2178 23.4075 15.2175 23.4098H15.2167C15.2121 23.4026 15.206 23.392 15.1984 23.3764C15.1984 23.3765 15.1972 23.3741 15.1949 23.3689C15.1927 23.3639 15.1898 23.357 15.1861 23.3483C15.1789 23.3308 15.1693 23.3063 15.1582 23.2752C15.1359 23.2129 15.1076 23.1246 15.08 23.0131C15.0247 22.7901 14.9723 22.4754 14.9751 22.0918C14.9808 21.3275 15.2056 20.2804 16.0814 19.1302ZM15.2056 23.3677C15.2056 23.3679 15.2056 23.3679 15.2055 23.3676L15.2056 23.3677Z" fill="#6E81BE" stroke="#6E81BE" stroke-width="0.4"/>
<mask id="path-19-inside-1_4039_19611" fill="white">
<path d="M3.98721 15.135H3.93966L1.03913 14.3601C0.944034 14.3601 0.896484 14.2632 0.896484 14.1664C0.896484 14.0695 0.991583 13.9727 1.08668 13.9727H1.13423L4.03476 14.7475C4.12986 14.796 4.22495 14.8928 4.1774 15.0381C4.1774 15.0865 4.08231 15.135 3.98721 15.135Z"/>
</mask>
<path d="M3.98721 15.135H3.93966L1.03913 14.3601C0.944034 14.3601 0.896484 14.2632 0.896484 14.1664C0.896484 14.0695 0.991583 13.9727 1.08668 13.9727H1.13423L4.03476 14.7475C4.12986 14.796 4.22495 14.8928 4.1774 15.0381C4.1774 15.0865 4.08231 15.135 3.98721 15.135Z" fill="#6E81BE"/>
<path d="M3.93966 15.135L3.83642 15.5214L3.88715 15.535H3.93966V15.135ZM1.03913 14.3601L1.14237 13.9736L1.09164 13.9601H1.03913V14.3601ZM1.13423 13.9727L1.23747 13.5862L1.18674 13.5727H1.13423V13.9727ZM4.03476 14.7475L4.21627 14.3911L4.17872 14.372L4.13799 14.3611L4.03476 14.7475ZM4.1774 15.0381L3.79725 14.9137L3.7774 14.9743V15.0381H4.1774ZM3.98721 14.735H3.93966V15.535H3.98721V14.735ZM4.04289 14.7485L1.14237 13.9736L0.935894 14.7465L3.83642 15.5214L4.04289 14.7485ZM1.03913 13.9601C1.08632 13.9601 1.13623 13.9729 1.18103 13.9996C1.22385 14.025 1.25102 14.0563 1.26683 14.0805C1.29536 14.1241 1.29648 14.1568 1.29648 14.1664H0.496484C0.496484 14.2728 0.52138 14.4024 0.597467 14.5186C0.681203 14.6465 0.833032 14.7601 1.03913 14.7601V13.9601ZM1.29648 14.1664C1.29648 14.2455 1.26151 14.2929 1.24134 14.3134C1.22163 14.3335 1.17184 14.3727 1.08668 14.3727V13.5727C0.906426 13.5727 0.761535 13.6602 0.670498 13.753C0.579012 13.8461 0.496484 13.9904 0.496484 14.1664H1.29648ZM1.08668 14.3727H1.13423V13.5727H1.08668V14.3727ZM1.03099 14.3591L3.93152 15.134L4.13799 14.3611L1.23747 13.5862L1.03099 14.3591ZM3.85324 15.104C3.8532 15.1039 3.8527 15.1037 3.85171 15.103C3.85073 15.1024 3.84878 15.1011 3.84606 15.0988C3.84106 15.0946 3.83001 15.0842 3.81865 15.0657C3.8066 15.0461 3.79548 15.0191 3.79153 14.9869C3.78754 14.9544 3.79235 14.9286 3.79725 14.9137L4.55756 15.1625C4.61878 14.9755 4.59006 14.7932 4.5005 14.6473C4.42014 14.5163 4.30532 14.4364 4.21627 14.3911L3.85324 15.104ZM3.7774 15.0381C3.7774 14.9154 3.83682 14.8354 3.86615 14.8034C3.8973 14.7694 3.92575 14.7537 3.93645 14.7482C3.95807 14.7372 3.97287 14.735 3.98721 14.735V15.535C4.09665 15.535 4.20654 15.5085 4.29949 15.4611C4.34585 15.4375 4.40402 15.4006 4.45596 15.3439C4.5061 15.2892 4.5774 15.185 4.5774 15.0381H3.7774Z" fill="#6E81BE" mask="url(#path-19-inside-1_4039_19611)"/>
<mask id="path-21-inside-2_4039_19611" fill="white">
<path d="M3.79726 15.9084H3.74972L0.849191 15.1335C0.754092 15.1335 0.706543 15.0367 0.706543 14.9398C0.706543 14.843 0.801642 14.7461 0.896741 14.7461H0.944291L3.84481 15.521C3.93991 15.5694 4.03501 15.6662 3.98746 15.8115C3.98746 15.8115 3.89236 15.9084 3.79726 15.9084Z"/>
</mask>
<path d="M3.79726 15.9084H3.74972L0.849191 15.1335C0.754092 15.1335 0.706543 15.0367 0.706543 14.9398C0.706543 14.843 0.801642 14.7461 0.896741 14.7461H0.944291L3.84481 15.521C3.93991 15.5694 4.03501 15.6662 3.98746 15.8115C3.98746 15.8115 3.89236 15.9084 3.79726 15.9084Z" fill="#6E81BE"/>
<path d="M3.74972 15.9084L3.64648 16.2948L3.69721 16.3084H3.74972V15.9084ZM0.849191 15.1335L0.95243 14.7471L0.9017 14.7335H0.849191V15.1335ZM0.944291 14.7461L1.04753 14.3596L0.9968 14.3461H0.944291V14.7461ZM3.84481 15.521L4.02633 15.1645L3.98877 15.1454L3.94805 15.1345L3.84481 15.521ZM3.98746 15.8115L4.27289 16.0918L4.33849 16.025L4.36762 15.936L3.98746 15.8115ZM3.79726 15.5084H3.74972V16.3084H3.79726V15.5084ZM3.85295 15.5219L0.95243 14.7471L0.745953 15.52L3.64648 16.2948L3.85295 15.5219ZM0.849191 14.7335C0.896376 14.7335 0.946291 14.7464 0.991093 14.773C1.03391 14.7984 1.06108 14.8298 1.07688 14.8539C1.10542 14.8975 1.10654 14.9302 1.10654 14.9398H0.306543C0.306543 15.0462 0.331439 15.1758 0.407526 15.2921C0.491262 15.42 0.643091 15.5335 0.849191 15.5335V14.7335ZM1.10654 14.9398C1.10654 15.0189 1.07157 15.0663 1.0514 15.0869C1.03169 15.1069 0.981898 15.1461 0.896741 15.1461V14.3461C0.716485 14.3461 0.571594 14.4337 0.480557 14.5264C0.38907 14.6196 0.306543 14.7639 0.306543 14.9398H1.10654ZM0.896741 15.1461H0.944291V14.3461H0.896741V15.1461ZM0.841052 15.1325L3.74158 15.9074L3.94805 15.1345L1.04753 14.3596L0.841052 15.1325ZM3.6633 15.8774C3.66326 15.8774 3.66276 15.8771 3.66177 15.8765C3.66079 15.8758 3.65884 15.8745 3.65611 15.8722C3.65112 15.868 3.64007 15.8577 3.6287 15.8391C3.61666 15.8195 3.60554 15.7926 3.60159 15.7604C3.5976 15.7279 3.60241 15.7021 3.6073 15.6871L4.36762 15.936C4.42883 15.7489 4.40011 15.5667 4.31056 15.4207C4.2302 15.2898 4.11538 15.2099 4.02633 15.1645L3.6633 15.8774ZM3.98746 15.8115C3.70204 15.5313 3.70211 15.5312 3.70218 15.5312C3.7022 15.5311 3.70227 15.5311 3.70231 15.531C3.7024 15.5309 3.70249 15.5308 3.70257 15.5308C3.70275 15.5306 3.70292 15.5304 3.70308 15.5302C3.70341 15.5299 3.70372 15.5296 3.70401 15.5293C3.7046 15.5287 3.70512 15.5282 3.70558 15.5277C3.70649 15.5268 3.70716 15.5262 3.7076 15.5258C3.70846 15.525 3.70856 15.5249 3.70806 15.5253C3.70664 15.5266 3.70468 15.5281 3.70333 15.529C3.7013 15.5304 3.70548 15.5272 3.71619 15.5228C3.72606 15.5188 3.75464 15.5084 3.79726 15.5084V16.3084C3.9672 16.3084 4.09752 16.2284 4.15272 16.1909C4.18703 16.1676 4.2148 16.1449 4.23418 16.128C4.24408 16.1194 4.25235 16.1117 4.25878 16.1056C4.26201 16.1025 4.26481 16.0998 4.26716 16.0975C4.26834 16.0963 4.26941 16.0953 4.27036 16.0943C4.27084 16.0938 4.27129 16.0934 4.27171 16.093C4.27192 16.0928 4.27212 16.0926 4.27232 16.0924C4.27242 16.0923 4.27251 16.0922 4.27261 16.0921C4.27266 16.092 4.27273 16.0919 4.27275 16.0919C4.27282 16.0918 4.27289 16.0918 3.98746 15.8115Z" fill="#6E81BE" mask="url(#path-21-inside-2_4039_19611)"/>
<path d="M1.09077 19.0567L1.09045 19.0566L1.10283 19.0091L1.27156 19.0554L3.74414 19.7334L3.93777 19.7865L3.99011 19.5926L4.51316 17.6554L4.56509 17.4631L4.37296 17.4104L1.90038 16.7324L1.72091 16.6832C1.72412 16.68 1.72664 16.678 1.72827 16.6768C1.72986 16.6771 1.73228 16.6777 1.73565 16.6788L1.73551 16.6792L1.74832 16.6827L4.62674 17.4516C4.63372 17.4556 4.63905 17.4589 4.64312 17.4617V17.4808L4.05079 19.7548C4.04485 19.7594 4.03926 19.7639 4.03402 19.7682C4.02145 19.7785 4.00992 19.7886 4.00062 19.7968C3.99898 19.7983 3.99742 19.7997 3.99593 19.801C3.98829 19.8077 3.98252 19.8129 3.97668 19.8178C3.97332 19.8207 3.9705 19.823 3.96818 19.8248H3.96593L1.09077 19.0567Z" fill="#6E81BE" stroke="#6E81BE" stroke-width="0.4"/>
<path d="M2.37523 1.47792L1.94541 1.36178L1.92905 1.33445C1.92496 1.32535 1.92207 1.31707 1.92012 1.30989C1.92413 1.30775 1.9286 1.30556 1.93351 1.30341C1.94661 1.29769 1.95919 1.29393 1.97036 1.29185L4.71937 2.05114C4.72553 2.055 4.73107 2.05902 4.73583 2.06304C4.74411 2.07001 4.74824 2.07543 4.74999 2.07828C4.75051 2.07914 4.75079 2.0797 4.75093 2.08001C4.75093 2.08036 4.75092 2.08092 4.75085 2.08171C4.74682 2.08842 4.74264 2.09442 4.73848 2.09954C4.73215 2.10733 4.72726 2.11138 4.72465 2.11319C4.72307 2.11291 4.72065 2.11233 4.71728 2.11119L4.71741 2.11081L4.70515 2.1075L2.37523 1.47792ZM4.38612 5.3213L5.38576 5.5869C5.39164 5.59063 5.39694 5.5945 5.40152 5.59837C5.4098 5.60534 5.41393 5.61076 5.41568 5.61361C5.41612 5.61432 5.41638 5.61483 5.41654 5.61516L4.38612 5.3213ZM5.41662 5.61518C5.41662 5.61515 5.41661 5.61512 5.41661 5.61509L5.41662 5.61518ZM5.46394 5.8337C5.4639 5.8337 5.46351 5.83327 5.46286 5.83242L5.46394 5.8337Z" fill="#6E81BE" stroke="#6E81BE" stroke-width="0.4"/>
<path d="M6.72828 5.9292L6.73566 5.93171L6.74322 5.93363L7.88441 6.22421L7.96164 6.24387L8.03123 6.20503L11.5023 4.26787L11.9256 4.03166L11.9657 4.04272C11.9657 4.0434 11.9657 4.0441 11.9657 4.0448C11.9657 4.05347 11.9645 4.06204 11.9629 4.06954L8.02441 6.26625H7.88621H7.86275L6.7241 5.98792C6.71877 5.98447 6.71394 5.98091 6.70973 5.97735C6.70145 5.97038 6.69732 5.96496 6.69557 5.96211C6.69504 5.96125 6.69477 5.96069 6.69463 5.96038C6.69462 5.96003 6.69464 5.95947 6.69471 5.95868C6.69874 5.95196 6.70292 5.94597 6.70707 5.94085C6.7134 5.93306 6.7183 5.92901 6.7209 5.9272C6.72249 5.92748 6.72491 5.92806 6.72828 5.9292ZM9.17351 3.27152L9.20387 3.27991L9.13903 3.41199L9.17351 3.27152Z" fill="#6E81BE" stroke="#6E81BE" stroke-width="0.4"/>
<path d="M6.63158 5.96106L5.51635 5.64302L5.50338 5.63932C5.50039 5.63669 5.49684 5.63343 5.49263 5.62941C5.48883 5.62578 5.48495 5.62197 5.48082 5.61786L3.8801 2.69285C3.87529 2.68259 3.87198 2.6733 3.86983 2.66536C3.87384 2.66322 3.8783 2.66102 3.88322 2.65888C3.89632 2.65316 3.9089 2.6494 3.92006 2.64732L9.49339 4.18669C9.4934 4.18737 9.49341 4.18806 9.49341 4.18876C9.49341 4.1976 9.49224 4.20632 9.49058 4.21393L8.6177 4.74734L9.08599 4.45533L9.47567 4.21234L9.03234 4.09255L4.37248 2.83339L3.91846 2.7107L4.14505 3.12282L5.47644 5.54428L5.51633 5.61682L5.59582 5.63996L6.59436 5.93053L6.65341 5.94772L6.64105 5.95527L6.63158 5.96106Z" fill="#6E81BE" stroke="#6E81BE" stroke-width="0.4"/>
<path d="M4.70029 2.26589L4.70069 2.26602L4.70395 2.2533L4.98324 1.16288C4.98718 1.15637 4.99125 1.15054 4.9953 1.14556C5.00163 1.13777 5.00652 1.13371 5.00913 1.1319C5.01072 1.13219 5.01314 1.13276 5.0165 1.13391L5.01637 1.1343L5.02892 1.13768L9.33222 2.29361C9.33898 2.29781 9.34542 2.30236 9.35123 2.30705C9.35224 2.30787 9.35321 2.30867 9.35413 2.30945L9.07142 3.41321L9.06861 3.42417C9.06584 3.42747 9.06231 3.43149 9.05783 3.43636C9.05206 3.44263 9.04583 3.44911 9.03862 3.4565L9.02742 3.45656H9.00626L4.72862 2.30752C4.72266 2.30375 4.71729 2.29984 4.71266 2.29593C4.70438 2.28896 4.70025 2.28353 4.6985 2.28069C4.69797 2.27983 4.6977 2.27927 4.69756 2.27896C4.69754 2.27769 4.69776 2.27359 4.70029 2.26589ZM4.79314 2.0528L4.73875 2.24667L4.93298 2.29975L8.83205 3.36519L9.02368 3.41755L9.07733 3.22628L9.26753 2.54828L9.32192 2.3544L9.12768 2.30133L5.22862 1.23589L5.03699 1.18352L4.98333 1.37479L4.79314 2.0528Z" fill="#6E81BE" stroke="#6E81BE" stroke-width="0.4"/>
</svg>
